<svg width="24" height="24" viewBox="0 0 24 24" fill="none" xmlns="http://www.w3.org/2000/svg">
<mask id="mask0_95_2549" style="mask-type:luminance" maskUnits="userSpaceOnUse" x="0" y="0" width="24" height="24">
<path d="M24 0H0V24H24V0Z" fill="white"/>
</mask>
<g mask="url(#mask0_95_2549)">
<path d="M12 24C18.6274 24 24 18.6274 24 12C24 5.37258 18.6274 0 12 0C5.37258 0 0 5.37258 0 12C0 18.6274 5.37258 24 12 24Z" fill="#F5F0FD"/>
<path d="M15.4716 14.5895L18.8666 12.629C19.0465 12.5252 19.1577 12.3322 19.1577 12.1244V8.20413C19.1577 7.99686 19.046 7.80333 18.8666 7.69944L15.4716 5.73905C15.2918 5.63518 15.0688 5.63567 14.889 5.73905L11.4939 7.69944C11.3142 7.80333 11.2029 7.99686 11.2029 8.20413V15.2102L8.82211 16.5847L6.44131 15.2102V12.461L8.82211 11.0867L10.3924 11.9932V10.1489L9.11315 9.41044C9.02496 9.35949 8.92403 9.33254 8.82162 9.33254C8.71921 9.33254 8.61828 9.35949 8.53057 9.41044L5.13553 11.3708C4.95571 11.4748 4.84448 11.6677 4.84448 11.8756V15.7958C4.84448 16.0031 4.95619 16.1966 5.13553 16.3004L8.53057 18.2609C8.7099 18.3643 8.93333 18.3643 9.11315 18.2609L12.5082 16.3009C12.688 16.1971 12.7993 16.0036 12.7993 15.7963V8.79014L12.8424 8.76563L15.1801 7.41575L17.5609 8.79014V11.5394L15.1801 12.9138L13.6122 12.0083V13.8526L14.889 14.59C15.0688 14.6934 15.2918 14.6929 15.4716 14.5895Z" fill="url(#paint0_linear_95_2549)"/>
</g>
<defs>
<linearGradient id="paint0_linear_95_2549" x1="6.0606" y1="16.3314" x2="18.3629" y2="7.36087" gradientUnits="userSpaceOnUse">
<stop stop-color="#A726C1"/>
<stop offset="0.88" stop-color="#803BDF"/>
<stop offset="1" stop-color="#7B3FE4"/>
</linearGradient>
</defs>
</svg>
