<svg width="26" height="26" viewBox="0 0 26 26" fill="none" xmlns="http://www.w3.org/2000/svg">
<mask id="mask0_95_2541" style="mask-type:luminance" maskUnits="userSpaceOnUse" x="0" y="0" width="26" height="26">
<path d="M1 0.5H0.5V1V25V25.5H1H25H25.5V25V1V0.5H25H1Z" fill="white" stroke="white"/>
</mask>
<g mask="url(#mask0_95_2541)">
<path d="M13 25.5C19.9035 25.5 25.5 19.9035 25.5 13C25.5 6.09644 19.9035 0.5 13 0.5C6.09644 0.5 0.5 6.09644 0.5 13C0.5 19.9035 6.09644 25.5 13 25.5Z" fill="#F5F0FD" stroke="#999999"/>
<path d="M16.7212 16.0229L16.7218 16.0225L20.1167 14.0621C20.1168 14.0621 20.1168 14.0621 20.1169 14.062C20.4518 13.8687 20.658 13.5103 20.658 13.1244V9.20412C20.658 8.81819 20.451 8.4599 20.1174 8.26675L20.1169 8.26644L16.722 6.30613C16.7219 6.3061 16.7219 6.30607 16.7218 6.30605C16.3865 6.11234 15.9733 6.114 15.6401 6.30554L15.6392 6.30605L12.2441 8.26644L12.244 8.26653C11.9091 8.46004 11.7032 8.81887 11.7032 9.20412V10.7508L11.6426 10.7158L10.3635 9.9775C10.3635 9.97747 10.3634 9.97743 10.3634 9.9774C10.1986 9.88228 10.0114 9.83253 9.82186 9.83253C9.6327 9.83253 9.44518 9.88209 9.2803 9.97772C9.28009 9.97784 9.27987 9.97797 9.27966 9.97809L5.88575 11.9378L5.88559 11.9379C5.55094 12.1313 5.34473 12.4894 5.34473 12.8756V16.7958C5.34473 17.1817 5.55166 17.5401 5.88531 17.7332L5.88575 17.7334L9.28078 19.6939L9.28099 19.694C9.61514 19.8867 10.0287 19.8864 10.3627 19.6943L10.3634 19.6939L13.7583 17.734C13.7583 17.734 13.7584 17.734 13.7584 17.7339C14.0936 17.5405 14.2995 17.1815 14.2995 16.7963V15.2493L14.3623 15.2855L15.6391 16.0229L15.6399 16.0234C15.9749 16.216 16.3878 16.2147 16.7212 16.0229ZM11.1427 13.4262L11.7032 13.7497V15.9216L9.82235 17.0074L7.94156 15.9216V13.7497L9.82236 12.664L11.1427 13.4262ZM14.2995 12.2502V10.0792L16.1803 8.9931L18.0611 10.0788V12.2507L16.1804 13.3364L14.8625 12.5753L14.2995 12.2502Z" fill="url(#paint0_linear_95_2541)" stroke="#999999"/>
</g>
<defs>
<linearGradient id="paint0_linear_95_2541" x1="7.06084" y1="17.3314" x2="19.3632" y2="8.36087" gradientUnits="userSpaceOnUse">
<stop stop-color="#A726C1"/>
<stop offset="0.88" stop-color="#803BDF"/>
<stop offset="1" stop-color="#7B3FE4"/>
</linearGradient>
</defs>
</svg>
