<svg width="25" height="25" viewBox="0 0 25 25" fill="none" xmlns="http://www.w3.org/2000/svg">
<mask id="mask0_95_2042" style="mask-type:luminance" maskUnits="userSpaceOnUse" x="0" y="0" width="25" height="25">
<path d="M12.0898 24.09C18.7173 24.09 24.0898 18.7174 24.0898 12.09C24.0898 5.46261 18.7173 0.0900269 12.0898 0.0900269C5.46243 0.0900269 0.0898438 5.46261 0.0898438 12.09C0.0898438 18.7174 5.46243 24.09 12.0898 24.09Z" fill="white"/>
</mask>
<g mask="url(#mask0_95_2042)">
<path d="M25.2261 -1.04623H-1.04639V25.2263H25.2261V-1.04623Z" fill="url(#paint0_linear_95_2042)"/>
</g>
<path d="M15.5602 14.6796L18.9552 12.7192C19.1351 12.6153 19.2463 12.4222 19.2463 12.2145V8.29418C19.2463 8.08692 19.1346 7.89338 18.9552 7.78951L15.5602 5.82911C15.3804 5.72524 15.1574 5.72573 14.9776 5.82911L11.5826 7.78951C11.4027 7.89338 11.2915 8.08692 11.2915 8.29418V15.3003L8.91073 16.6747L6.52994 15.3003V12.5511L8.91073 11.1767L10.4811 12.0832V10.2389L9.20178 9.5005C9.11358 9.44955 9.01264 9.4226 8.91024 9.4226C8.80783 9.4226 8.7069 9.44955 8.61919 9.5005L5.22415 11.4609C5.04433 11.5648 4.93311 11.7578 4.93311 11.9656V15.8859C4.93311 16.0931 5.04482 16.2867 5.22415 16.3905L8.61919 18.3509C8.79853 18.4543 9.02195 18.4543 9.20178 18.3509L12.5968 16.391C12.7766 16.2872 12.8879 16.0936 12.8879 15.8864V8.8802L12.931 8.8557L15.2687 7.50581L17.6495 8.8802V11.6294L15.2687 13.0038L13.7007 12.0984V13.9426L14.9776 14.68C15.1574 14.7834 15.3804 14.7834 15.5602 14.68V14.6796Z" fill="white"/>
<defs>
<linearGradient id="paint0_linear_95_2042" x1="-5.84766" y1="1.1131" x2="21.2745" y2="17.7105" gradientUnits="userSpaceOnUse">
<stop stop-color="#A229C5"/>
<stop offset="1" stop-color="#7B3FE4"/>
</linearGradient>
</defs>
</svg>
