<svg width="25" height="24" viewBox="0 0 25 24" fill="none" xmlns="http://www.w3.org/2000/svg">
<path d="M16.5746 1.99951C19.5778 1.99951 21.25 3.77952 21.25 6.82951V17.1595C21.25 20.2596 19.5778 21.9996 16.5746 21.9996H8.42638C5.47083 21.9996 3.75 20.2596 3.75 17.1595V6.82951C3.75 3.77952 5.47083 1.99951 8.42638 1.99951H16.5746ZM8.68888 15.7395C8.39722 15.7095 8.11528 15.8495 7.95972 16.1095C7.80417 16.3595 7.80417 16.6895 7.95972 16.9495C8.11528 17.1996 8.39722 17.3496 8.68888 17.3095H16.3111C16.699 17.2695 16.9917 16.9285 16.9917 16.5295C16.9917 16.1195 16.699 15.7795 16.3111 15.7395H8.68888ZM16.3111 11.1785H8.68888C8.26987 11.1785 7.93055 11.5295 7.93055 11.9595C7.93055 12.3895 8.26987 12.7395 8.68888 12.7395H16.3111C16.7292 12.7395 17.0695 12.3895 17.0695 11.9595C17.0695 11.5295 16.7292 11.1785 16.3111 11.1785ZM11.5949 6.64951H8.68888V6.65952C8.26987 6.65952 7.93055 7.00951 7.93055 7.43952C7.93055 7.86952 8.26987 8.21952 8.68888 8.21952H11.5949C12.0139 8.21952 12.3542 7.86952 12.3542 7.42852C12.3542 6.99952 12.0139 6.64951 11.5949 6.64951Z" fill="white"/>
</svg>
