<svg width="25" height="24" viewBox="0 0 25 24" fill="none" xmlns="http://www.w3.org/2000/svg">
<path d="M16.5746 2C19.5778 2 21.25 3.78001 21.25 6.83V17.1599C21.25 20.2601 19.5778 22.0001 16.5746 22.0001H8.42638C5.47083 22.0001 3.75 20.2601 3.75 17.1599V6.83C3.75 3.78001 5.47083 2 8.42638 2H16.5746ZM8.68888 15.74C8.39722 15.71 8.11528 15.85 7.95972 16.11C7.80417 16.36 7.80417 16.69 7.95972 16.95C8.11528 17.2001 8.39722 17.3501 8.68888 17.3099H16.3111C16.699 17.27 16.9917 16.929 16.9917 16.53C16.9917 16.12 16.699 15.78 16.3111 15.74H8.68888ZM16.3111 11.179H8.68888C8.26987 11.179 7.93055 11.53 7.93055 11.96C7.93055 12.39 8.26987 12.74 8.68888 12.74H16.3111C16.7292 12.74 17.0695 12.39 17.0695 11.96C17.0695 11.53 16.7292 11.179 16.3111 11.179ZM11.5949 6.65H8.68888V6.66001C8.26987 6.66001 7.93055 7.01 7.93055 7.44001C7.93055 7.87001 8.26987 8.22001 8.68888 8.22001H11.5949C12.0139 8.22001 12.3542 7.87 12.3542 7.429C12.3542 7 12.0139 6.65 11.5949 6.65Z" fill="white"/>
</svg>
