<svg width="22" height="22" viewBox="0 0 22 22" fill="none" xmlns="http://www.w3.org/2000/svg">
<path fill-rule="evenodd" clip-rule="evenodd" d="M4.74927 1.78124C6.32586 0.720077 8.20564 0.0833774 10.2219 0V4.24467C9.13037 4.31288 8.11468 4.66155 7.24301 5.21487L4.74927 1.78124Z" fill="black"/>
<path fill-rule="evenodd" clip-rule="evenodd" d="M0.671387 6.93522C1.35357 5.08576 2.53601 3.47885 4.05954 2.28125L6.55328 5.71488C5.74225 6.38948 5.10555 7.26115 4.7114 8.2541L0.671387 6.93522Z" fill="black"/>
<path fill-rule="evenodd" clip-rule="evenodd" d="M0.40611 13.5077C0.148399 12.5905 0.0119629 11.6279 0.0119629 10.6274C0.0119629 9.62685 0.148399 8.66422 0.40611 7.74707L4.44612 9.05837C4.31727 9.55863 4.24905 10.0816 4.24905 10.6274C4.24905 11.1655 4.31727 11.6961 4.44612 12.1964L0.40611 13.5077Z" fill="black"/>
<path fill-rule="evenodd" clip-rule="evenodd" d="M4.05954 18.9789C2.54359 17.7813 1.35357 16.1744 0.671387 14.325L4.7114 13.0137C5.10555 14.0066 5.74983 14.8783 6.55328 15.5529L4.05954 18.9789Z" fill="black"/>
<path fill-rule="evenodd" clip-rule="evenodd" d="M10.2219 21.2608C8.19806 21.1774 6.32586 20.5407 4.74927 19.4795L7.24301 16.0459C8.11468 16.5992 9.13037 16.9403 10.2219 17.0161V21.2608Z" fill="black"/>
<path fill-rule="evenodd" clip-rule="evenodd" d="M16.551 19.4795C14.9744 20.5331 13.0946 21.1774 11.0784 21.2608V17.0161C12.1699 16.9479 13.1855 16.5992 14.0572 16.0459L16.551 19.4795Z" fill="black"/>
<path fill-rule="evenodd" clip-rule="evenodd" d="M20.629 14.3179C19.9468 16.1674 18.7643 17.7743 17.2408 18.9719L14.7471 15.5382C15.5581 14.8636 16.1948 13.992 16.589 12.999L20.629 14.3179Z" fill="black"/>
<path fill-rule="evenodd" clip-rule="evenodd" d="M20.8943 7.74707C21.152 8.66422 21.2884 9.62685 21.2884 10.6274C21.2884 11.6279 21.152 12.5905 20.8943 13.5077L16.8542 12.1964C16.9831 11.6961 17.0513 11.1731 17.0513 10.6274C17.0513 10.0892 16.9831 9.55863 16.8542 9.05837L20.8943 7.74707Z" fill="black"/>
<path fill-rule="evenodd" clip-rule="evenodd" d="M17.2484 2.28125C18.7643 3.47885 19.9544 5.08576 20.6365 6.93522L16.5965 8.24652C16.2024 7.25357 15.5581 6.3819 14.7546 5.7073L17.2484 2.28125Z" fill="black"/>
<path fill-rule="evenodd" clip-rule="evenodd" d="M11.0784 0C13.1022 0.0833774 14.9744 0.720077 16.551 1.78124L14.0572 5.21487C13.1855 4.66155 12.1699 4.31288 11.0784 4.24467V0Z" fill="black"/>
</svg>
