<svg width="22" height="22" viewBox="0 0 22 22" fill="none" xmlns="http://www.w3.org/2000/svg">
<path d="M22 11C22 17.0751 17.0751 22 11 22C4.92487 22 0 17.0751 0 11C0 4.92487 4.92487 0 11 0C17.0751 0 22 4.92487 22 11Z" fill="#DCDFE4"/>
<path d="M10.2331 14.3472V6.28573H11.506V14.3472H10.2331ZM10.8617 17.5057C10.5579 17.5057 10.3012 17.4062 10.0917 17.2072C9.89263 17.0081 9.79311 16.7514 9.79311 16.4372C9.79311 16.1229 9.89263 15.8662 10.0917 15.6672C10.3012 15.4681 10.5579 15.3686 10.8617 15.3686C11.176 15.3686 11.4326 15.4681 11.6317 15.6672C11.8307 15.8662 11.9303 16.1229 11.9303 16.4372C11.9303 16.7514 11.8307 17.0081 11.6317 17.2072C11.4326 17.4062 11.176 17.5057 10.8617 17.5057Z" fill="black"/>
</svg>
