<svg width="23" height="23" viewBox="0 0 23 23" fill="none" xmlns="http://www.w3.org/2000/svg">
<path fill-rule="evenodd" clip-rule="evenodd" d="M5.35498 1.8996C7.037 0.767474 9.04248 0.0881976 11.1935 -0.00075531V4.52775C10.029 4.60053 8.94544 4.97252 8.01548 5.56284L5.35498 1.8996Z" fill="#3DC1F2"/>
<path fill-rule="evenodd" clip-rule="evenodd" d="M1.00391 7.39851C1.7317 5.42537 2.99322 3.71101 4.61863 2.43332L7.27913 6.09656C6.41386 6.81627 5.73458 7.74623 5.31408 8.80558L1.00391 7.39851Z" fill="#3DC1F2"/>
<path fill-rule="evenodd" clip-rule="evenodd" d="M0.721286 14.4095C0.44634 13.431 0.300781 12.404 0.300781 11.3366C0.300781 10.2692 0.44634 9.24218 0.721286 8.26369L5.03146 9.66268C4.89398 10.1964 4.82121 10.7544 4.82121 11.3366C4.82121 11.9108 4.89398 12.4768 5.03146 13.0105L0.721286 14.4095Z" fill="#3DC1F2"/>
<path fill-rule="evenodd" clip-rule="evenodd" d="M4.61863 20.2482C3.0013 18.9705 1.7317 17.2561 1.00391 15.283L5.31408 13.884C5.73458 14.9434 6.42195 15.8733 7.27913 16.593L4.61863 20.2482Z" fill="#3DC1F2"/>
<path fill-rule="evenodd" clip-rule="evenodd" d="M11.1935 22.6821C9.03439 22.5932 7.037 21.9139 5.35498 20.7818L8.01548 17.1185C8.94544 17.7089 10.029 18.0728 11.1935 18.1536V22.6821Z" fill="#3DC1F2"/>
<path fill-rule="evenodd" clip-rule="evenodd" d="M17.9455 20.7818C16.2635 21.9058 14.258 22.5932 12.1069 22.6821V18.1536C13.2714 18.0809 14.355 17.7089 15.285 17.1185L17.9455 20.7818Z" fill="#3DC1F2"/>
<path fill-rule="evenodd" clip-rule="evenodd" d="M22.2962 15.2748C21.5684 17.2479 20.3069 18.9623 18.6815 20.24L16.021 16.5768C16.8863 15.857 17.5655 14.9271 17.986 13.8677L22.2962 15.2748Z" fill="#3DC1F2"/>
<path fill-rule="evenodd" clip-rule="evenodd" d="M22.5792 8.26369C22.8542 9.24218 22.9997 10.2692 22.9997 11.3366C22.9997 12.404 22.8542 13.431 22.5792 14.4095L18.269 13.0105C18.4065 12.4768 18.4793 11.9188 18.4793 11.3366C18.4793 10.7625 18.4065 10.1964 18.269 9.66268L22.5792 8.26369Z" fill="#3DC1F2"/>
<path fill-rule="evenodd" clip-rule="evenodd" d="M18.6893 2.43332C20.3066 3.71101 21.5762 5.42537 22.304 7.39851L17.9939 8.79749C17.5734 7.73815 16.886 6.80818 16.0288 6.08847L18.6893 2.43332Z" fill="#3DC1F2"/>
<path fill-rule="evenodd" clip-rule="evenodd" d="M12.1069 -0.00075531C14.2661 0.0881976 16.2635 0.767474 17.9455 1.8996L15.285 5.56284C14.355 4.97252 13.2714 4.60053 12.1069 4.52775V-0.00075531Z" fill="#3DC1F2"/>
<path d="M7.14598 11.9113H6.84226L6.62865 11.6243H6.15136V11.9113H5.90771V11.3773H6.74547C6.78885 11.3773 6.82557 11.3606 6.85561 11.3306C6.88565 11.3005 6.90233 11.2638 6.90233 11.2204C6.90233 11.177 6.88565 11.1403 6.85561 11.1069C6.82557 11.0736 6.78885 11.0602 6.74547 11.0602H5.90771V10.8166H6.74547C6.80221 10.8166 6.85227 10.8266 6.90233 10.8499C7.00246 10.8933 7.07255 10.9668 7.11594 11.0636C7.13597 11.117 7.14932 11.167 7.14932 11.2204C7.14932 11.2705 7.13931 11.3239 7.11594 11.3773C7.07255 11.4741 7.00246 11.5442 6.90901 11.5876L7.14598 11.9113Z" fill="#3DC1F2"/>
<path d="M8.80474 11.9113H8.52438L8.08714 11.127L7.64657 11.9113H7.36621L7.98034 10.8166H8.19395L8.80474 11.9113Z" fill="#3DC1F2"/>
<path d="M10.4639 11.9113H10.2203V11.1937L9.84645 11.7277H9.64619L9.27238 11.1937V11.908H9.02539V10.8166H9.30242L9.74299 11.4474L10.1869 10.8166H10.4639V11.9113Z" fill="#3DC1F2"/>
<path d="M12.0058 11.0669H10.7676V10.8199H12.0058V11.0669ZM12.0058 11.9113H10.7676V11.6677H12.0058V11.9113ZM11.9057 11.4874H10.8644V11.2438H11.9057V11.4874Z" fill="#3DC1F2"/>
<path d="M13.134 11.9113H12.6066C12.5599 11.9113 12.5132 11.9013 12.4698 11.8846C12.383 11.8512 12.3196 11.7912 12.2796 11.7077C12.2595 11.6677 12.2495 11.6209 12.2495 11.5742H12.4965C12.4965 11.5942 12.5032 11.6109 12.5132 11.6243C12.5232 11.6376 12.5399 11.6476 12.5566 11.6543C12.5733 11.661 12.59 11.6643 12.6066 11.6643H13.134C13.1507 11.6643 13.1674 11.661 13.1841 11.6543C13.2007 11.6476 13.2141 11.6376 13.2274 11.6243C13.2408 11.6109 13.2441 11.5942 13.2441 11.5742C13.2441 11.5542 13.2375 11.5408 13.2274 11.5275C13.2174 11.5141 13.2007 11.5041 13.1841 11.4974C13.1674 11.4908 13.1507 11.4874 13.134 11.4874H12.6066C12.5599 11.4874 12.5132 11.4808 12.4698 11.4607C12.383 11.4274 12.3196 11.3673 12.2796 11.2838C12.2595 11.2438 12.2495 11.1971 12.2495 11.1503C12.2495 11.1036 12.2595 11.0602 12.2796 11.0168C12.3196 10.9334 12.383 10.8733 12.4698 10.8399C12.5132 10.8232 12.5566 10.8132 12.6066 10.8132H13.134C13.1807 10.8132 13.2274 10.8199 13.2708 10.8399C13.3576 10.8733 13.421 10.9334 13.4611 11.0168C13.4811 11.0569 13.4911 11.1036 13.4911 11.1503H13.2475C13.2475 11.1303 13.2408 11.117 13.2308 11.1036C13.2208 11.0902 13.2041 11.0802 13.1874 11.0736C13.1707 11.0669 13.154 11.0635 13.1373 11.0635H12.61C12.5933 11.0635 12.5766 11.0669 12.5599 11.0736C12.5432 11.0802 12.5299 11.0902 12.5165 11.1036C12.5032 11.117 12.4998 11.1336 12.4998 11.1503C12.4998 11.1704 12.5065 11.187 12.5165 11.2004C12.5265 11.2137 12.5432 11.2238 12.5599 11.2304C12.5766 11.2371 12.5933 11.2404 12.61 11.2404H13.1373C13.1841 11.2404 13.2308 11.2505 13.2742 11.2671C13.3609 11.3005 13.4244 11.3606 13.4644 11.444C13.4844 11.4841 13.4945 11.5275 13.4945 11.5742C13.4945 11.6209 13.4844 11.6643 13.4644 11.7077C13.4244 11.7912 13.3609 11.8512 13.2742 11.8846C13.2241 11.9013 13.1807 11.9113 13.134 11.9113Z" fill="#3DC1F2"/>
<path d="M14.3619 11.9113H14.1183V11.0602H13.7178V10.8166H14.7591V11.0602H14.3619V11.9113Z" fill="#3DC1F2"/>
<path d="M15.6637 11.9113H15.42V11.0602H15.0195V10.8166H16.0609V11.0602H15.6637V11.9113Z" fill="#3DC1F2"/>
<path d="M17.3726 11.9113H17.0922L16.655 11.127L16.2144 11.9113H15.9341L16.5449 10.8166H16.7585L17.3726 11.9113Z" fill="#3DC1F2"/>
</svg>
