<svg width="20" height="20" viewBox="0 0 20 20" fill="none" xmlns="http://www.w3.org/2000/svg">
<path d="M2.20609 8.4794C2.29629 8.50118 2.38119 8.52296 2.46078 8.54474C3.03384 8.72443 3.39465 9.23083 3.39996 9.88425C3.40526 11.1257 3.40526 12.3727 3.39996 13.6142C3.39465 14.5943 2.66241 15.2096 1.71793 15.0299C0.815898 14.8557 0.110191 14.1696 0.046518 13.233C-0.022461 12.2583 -0.00654276 11.2782 0.0412119 10.3035C0.0783544 9.6011 0.486922 9.08381 1.08651 8.74077C1.20324 8.67543 1.24038 8.60464 1.24569 8.47396C1.46324 4.55344 4.15872 1.21556 7.87828 0.268101C12.6325 -0.94617 17.4504 2.08134 18.5435 6.98198C18.6549 7.48294 18.6814 8.00023 18.761 8.51207C18.7716 8.58831 18.83 8.68632 18.8937 8.72443C19.61 9.14916 19.9814 9.7808 19.992 10.6248C20.0027 11.3926 20.0027 12.1603 19.992 12.9281C19.9814 13.7667 19.6153 14.3983 18.9043 14.8121C18.8035 14.872 18.7716 14.9374 18.7663 15.0517C18.761 15.5418 18.7929 16.0373 18.7239 16.5165C18.5223 17.9376 17.3284 18.9777 15.917 19.0049C15.4713 19.0158 15.0256 19.0103 14.5852 19.0049C14.479 19.0049 14.426 19.0376 14.3782 19.141C14.1023 19.7019 13.6566 19.9905 13.0411 19.9959C12.5635 20.0014 12.086 20.0014 11.6084 19.9959C10.7966 19.985 10.1811 19.3697 10.1546 18.5529C10.1334 17.758 10.717 17.0936 11.5236 17.0501C12.0648 17.0229 12.6113 17.0283 13.1525 17.0501C13.7256 17.0719 14.1341 17.3768 14.3888 17.8995C14.4154 17.954 14.4843 18.0248 14.5321 18.0248C15.0839 18.0248 15.6358 18.0465 16.1823 17.9921C17.079 17.8941 17.7847 17.0664 17.8112 16.1407C17.8219 15.7868 17.8112 15.4383 17.8112 15.0789C17.7157 15.0517 17.6255 15.0354 17.5353 15.0081C16.9994 14.8393 16.6121 14.3438 16.6068 13.7667C16.5962 12.4435 16.5962 11.1149 16.6068 9.79169C16.6121 9.18183 17.0366 8.68087 17.6202 8.5393C17.6786 8.52296 17.7317 8.50663 17.7847 8.49029C17.6096 4.67323 14.5427 1.19378 10.3615 1.0032C5.96279 0.796281 2.46078 4.27029 2.20609 8.4794ZM17.5512 11.7792C17.5512 12.3945 17.5512 13.0152 17.5512 13.6305C17.5512 13.9572 17.7051 14.0988 18.0235 14.077C18.5594 14.0389 19.0104 13.5706 19.021 12.9989C19.0369 12.1821 19.0369 11.3708 19.021 10.554C19.0104 9.98771 18.57 9.51398 18.0447 9.46498C17.6998 9.43231 17.5459 9.57388 17.5406 9.92237C17.5512 10.5431 17.5512 11.1639 17.5512 11.7792ZM2.44486 11.7683C2.44486 11.1421 2.45017 10.5213 2.44486 9.89514C2.44486 9.59021 2.29099 9.45409 1.99385 9.46498C1.44201 9.48676 0.980387 9.97138 0.969774 10.5649C0.959162 11.3708 0.959162 12.1821 0.969774 12.988C0.980387 13.5543 1.41548 14.028 1.94079 14.077C2.29629 14.1097 2.44486 13.9736 2.44486 13.6033C2.44486 12.9934 2.44486 12.3836 2.44486 11.7683ZM12.3248 19.0103C12.5635 19.0103 12.8023 19.0158 13.0411 19.0103C13.3382 19.0049 13.5452 18.8089 13.5505 18.5257C13.5558 18.2317 13.3595 18.0193 13.0517 18.0139C12.5688 18.0084 12.0807 18.0084 11.5978 18.0139C11.2954 18.0193 11.0991 18.2262 11.0938 18.5039C11.0938 18.798 11.3007 19.0049 11.6031 19.0103C11.8472 19.0158 12.086 19.0103 12.3248 19.0103Z" fill="white"/>
<path d="M6.93911 13.135C6.53585 13.1186 6.17504 13.0315 5.84606 12.8191C5.20403 12.3944 4.88566 11.7846 4.88036 11.0113C4.87505 9.63371 4.86444 8.25064 4.88036 6.87302C4.89627 5.63152 5.76116 4.76574 6.97095 4.76574C8.98726 4.7603 11.0036 4.7603 13.0199 4.76574C14.2297 4.77119 15.0945 5.63152 15.1105 6.87302C15.1264 8.25609 15.1264 9.6446 15.1105 11.0331C15.0945 12.2801 14.219 13.135 12.9933 13.1404C12.1921 13.1404 11.3856 13.1458 10.5844 13.1404C10.4517 13.1404 10.3615 13.1785 10.2713 13.2765C9.71949 13.8428 9.16766 14.4091 8.60522 14.97C8.324 15.2477 7.98441 15.3239 7.61298 15.1932C7.24156 15.0625 7.0187 14.7903 6.95503 14.3982C6.93381 14.2512 6.93381 14.0987 6.93381 13.9517C6.93911 13.674 6.93911 13.4072 6.93911 13.135ZM7.8942 14.224C7.91012 14.2349 7.92604 14.2403 7.94196 14.2512C7.99502 14.2022 8.04808 14.1532 8.09583 14.1042C8.65828 13.5324 9.22072 12.9716 9.77255 12.3944C9.93704 12.2202 10.1174 12.1494 10.3562 12.1494C11.2158 12.1603 12.0807 12.1548 12.9403 12.1548C13.7309 12.1548 14.1607 11.7192 14.1607 10.9133C14.1607 9.60104 14.1607 8.2942 14.1607 6.98192C14.1607 6.17059 13.7362 5.74043 12.9403 5.74043C10.977 5.74043 9.01379 5.74043 7.05054 5.74043C6.25463 5.74043 5.83545 6.17059 5.83014 6.98192C5.83014 8.2942 5.83014 9.60104 5.83014 10.9133C5.83014 11.0004 5.83014 11.0876 5.84075 11.1801C5.89382 11.6702 6.23871 12.0514 6.71095 12.1276C6.89666 12.1603 7.09299 12.1548 7.28401 12.1548C7.72441 12.1603 7.88359 12.3182 7.88359 12.7647C7.8942 13.2493 7.8942 13.7339 7.8942 14.224Z" fill="white"/>
<path d="M10.0009 9.74261C9.61884 9.74261 9.28986 9.40501 9.29517 9.01296C9.30047 8.6209 9.62945 8.28875 10.0115 8.29419C10.3882 8.29964 10.7066 8.62635 10.7066 9.01296C10.7066 9.40501 10.3829 9.74261 10.0009 9.74261Z" fill="white"/>
<path d="M8.37699 9.00765C8.3823 9.40514 8.06924 9.7373 7.6819 9.74274C7.29456 9.74819 6.97089 9.41604 6.97089 9.01854C6.97089 8.62649 7.27864 8.30522 7.66068 8.29433C8.04802 8.28344 8.37169 8.61015 8.37699 9.00765Z" fill="white"/>
<path d="M11.6191 9.02384C11.6138 8.6209 11.9321 8.29419 12.3195 8.29419C12.7068 8.29419 13.0252 8.62634 13.0252 9.0184C13.0252 9.405 12.7121 9.73171 12.3354 9.73716C11.9481 9.75349 11.6191 9.42678 11.6191 9.02384Z" fill="white"/>
</svg>
