<svg width="20" height="27" viewBox="0 0 20 27" fill="none" xmlns="http://www.w3.org/2000/svg">
<path d="M2.01156 26.2634C1.81291 26.2017 1.60055 26.1538 1.40875 26.0647C0.504533 25.6537 0.0250239 24.9413 0.0113237 23.9481C-0.00922671 22.2835 0.00447355 20.6189 0.00447355 18.9475C0.00447355 13.4605 0.00447355 7.9804 0.00447355 2.49345C0.00447355 0.972718 0.970342 0.00685013 2.47737 0.00685013C5.94354 0.00685013 9.41655 0.00685013 12.8827 0C13.2458 0 13.5129 0.116452 13.7664 0.369907C15.7255 2.33589 17.6915 4.30188 19.6575 6.26102C19.8972 6.50077 20 6.76108 20 7.10358C19.9932 12.6385 19.9932 18.1734 19.9932 23.7083C19.9932 25.092 19.3766 25.8935 18.034 26.2291C18.0203 26.236 18.0066 26.2428 17.9929 26.2565C12.6772 26.2634 7.34096 26.2634 2.01156 26.2634ZM12.3142 1.54813C12.1909 1.54813 12.1087 1.54813 12.0265 1.54813C8.84114 1.54813 5.64898 1.54813 2.46367 1.54813C1.83346 1.54813 1.54575 1.83583 1.54575 2.47975C1.54575 9.59018 1.54575 16.7006 1.54575 23.8111C1.54575 24.4413 1.83346 24.729 2.47052 24.729C7.49167 24.729 12.5197 24.729 17.5408 24.729C18.171 24.729 18.4587 24.4413 18.4656 23.8042C18.4656 18.5296 18.4656 13.2619 18.4656 7.98725C18.4656 7.8982 18.4656 7.80915 18.4656 7.7064C18.3354 7.7064 18.2395 7.7064 18.1505 7.7064C16.9722 7.7064 15.794 7.71325 14.6158 7.7064C13.4787 7.69955 12.5471 6.90493 12.3621 5.78151C12.3142 5.50065 12.321 5.2061 12.321 4.91154C12.3142 3.80182 12.3142 2.6921 12.3142 1.54813ZM13.8554 2.7058C13.8554 3.58947 13.8554 4.46628 13.8554 5.3431C13.8554 5.85001 14.1774 6.16512 14.6912 6.16512C15.4652 6.16512 16.2461 6.16512 17.0202 6.16512C17.1161 6.16512 17.2188 6.16512 17.3148 6.16512C16.1571 5.00744 15.0131 3.86347 13.8554 2.7058Z" fill="white"/>
<path d="M10.0056 12.4193C8.48491 12.4193 6.96418 12.4193 5.44345 12.4193C4.82009 12.4193 4.43649 11.8439 4.70364 11.3164C4.85434 11.0082 5.1215 10.8849 5.45715 10.8849C6.83403 10.8849 8.20406 10.8849 9.58093 10.8849C11.2455 10.8849 12.9101 10.8849 14.5747 10.8849C15.1706 10.8849 15.5542 11.4397 15.3213 11.9535C15.1706 12.2823 14.8966 12.4193 14.5404 12.4193C13.0334 12.4193 11.5195 12.4193 10.0056 12.4193Z" fill="white"/>
<path d="M9.99195 15.495C8.47807 15.495 6.97104 15.495 5.45716 15.495C4.84065 15.495 4.4502 14.947 4.68995 14.4195C4.8338 14.0976 5.10096 13.9537 5.45031 13.9606C6.34768 13.9606 7.24505 13.9606 8.14242 13.9606C10.2797 13.9606 12.41 13.9606 14.5473 13.9606C15.1638 13.9606 15.5611 14.4949 15.3282 15.0223C15.1843 15.358 14.9103 15.495 14.5473 15.495C13.0266 15.495 11.5127 15.495 9.99195 15.495Z" fill="white"/>
<path d="M10.033 17.0363C11.5469 17.0363 13.0539 17.0363 14.5678 17.0363C15.1912 17.0363 15.5748 17.6117 15.3076 18.1391C15.1501 18.4474 14.8898 18.5707 14.5541 18.5707C13.1567 18.5707 11.7524 18.5707 10.355 18.5707C8.72466 18.5707 7.09433 18.5707 5.464 18.5707C4.84749 18.5707 4.45703 18.0227 4.69679 17.4952C4.84749 17.1664 5.12149 17.0294 5.48455 17.0294C6.99158 17.0363 8.51231 17.0363 10.033 17.0363Z" fill="white"/>
<path d="M8.47123 20.112C9.4645 20.112 10.4509 20.112 11.4442 20.112C11.9648 20.112 12.3142 20.4202 12.3142 20.8723C12.3142 21.3313 11.9648 21.6464 11.451 21.6464C9.4645 21.6464 7.47111 21.6464 5.48458 21.6464C4.97082 21.6464 4.62146 21.3244 4.62146 20.8723C4.62831 20.4271 4.97082 20.112 5.47088 20.112C6.471 20.112 7.47111 20.112 8.47123 20.112Z" fill="white"/>
</svg>
