<svg width="20" height="26" viewBox="0 0 20 26" fill="none" xmlns="http://www.w3.org/2000/svg">
<path d="M5.56931 24.4537C5.93158 24.4537 6.29386 24.4537 6.71652 24.4537C6.7769 24.4537 6.89766 24.333 6.95804 24.2726C7.86373 23.3669 8.82981 22.4008 9.7355 21.4951C9.79588 21.4348 9.85626 21.314 9.97702 21.2536C10.0978 21.3744 10.1582 21.4348 10.2185 21.4951C11.1846 22.4612 12.0903 23.3669 13.0564 24.333C13.1771 24.4537 13.2979 24.5141 13.4187 24.5141C13.7206 24.5141 14.0828 24.5141 14.4451 24.5141C13.1168 23.1858 11.8488 21.9178 10.6412 20.7102C11.4261 19.9253 12.2111 19.1403 12.996 18.3554C13.5394 20.4083 14.0828 22.4612 14.6263 24.5141C14.9885 24.5141 15.2904 24.5141 15.6527 24.5141C15.9546 24.5141 16.1961 24.6953 16.1961 24.9972C16.1961 25.2991 16.015 25.4198 15.6527 25.4198C11.9092 25.4198 8.10525 25.4198 4.36171 25.4198C4.05982 25.4198 3.8183 25.2387 3.8183 24.9368C3.8183 24.6349 3.99944 24.5141 4.36171 24.5141C4.66361 24.5141 5.02589 24.5141 5.38817 24.5141C5.93158 22.4612 6.475 20.4083 7.01842 18.3554C7.80335 19.1403 8.52791 19.8649 9.31284 20.6498C8.10525 21.8574 6.83728 23.1254 5.56931 24.3934V24.4537Z" fill="white"/>
<path d="M10.0374 20.046C9.55434 19.563 9.13169 19.1403 8.70903 18.7177C8.28637 18.295 7.80333 17.8724 7.38068 17.3893C7.3203 17.3289 7.25992 17.2082 7.3203 17.0874C7.38068 16.7252 7.50144 16.3629 7.6222 16.0006C7.6222 15.9402 7.74296 15.8195 7.86371 15.8195C9.31283 15.8195 10.7619 15.8195 12.211 15.8195C12.2714 15.8195 12.3922 15.9402 12.4526 16.0006C12.5733 16.3629 12.6941 16.7252 12.7545 17.0874C12.7545 17.1478 12.7545 17.2686 12.6941 17.3289C11.7884 18.2346 10.9431 19.08 10.0374 20.046Z" fill="white"/>
<path d="M3.27488 0C3.39564 0.120759 3.57677 0.181139 3.63715 0.301898C3.69753 0.422657 3.63715 0.664176 3.57677 0.784935C3.33526 1.08683 3.09374 1.32835 2.85222 1.56987C0.0747562 5.13227 0.316275 10.3249 3.45601 13.525C3.57677 13.7062 3.63715 13.8873 3.63715 14.0685C3.63715 14.1892 3.45601 14.31 3.33526 14.4307C3.27488 14.4911 3.09374 14.4307 3.03336 14.31C2.06728 13.525 1.34273 12.559 0.799312 11.4117C-0.710179 7.97011 -0.0460029 3.44164 2.48994 0.603796C2.6107 0.483037 2.73146 0.301898 2.9126 0.181139C2.97298 0.120759 3.09374 0.0603796 3.27488 0Z" fill="white"/>
<path d="M20 7.12479C19.9396 9.78149 19.2755 11.8948 17.5848 13.7062C17.4037 13.9477 17.1622 14.1288 16.9207 14.31C16.7395 14.4911 16.6188 14.4911 16.4376 14.3703C16.2565 14.2496 16.2565 13.9477 16.3773 13.7665C16.4376 13.7062 16.498 13.6458 16.5584 13.5854C18.3094 11.774 19.0943 9.53997 19.0943 7.06441C19.034 4.7096 18.1886 2.6567 16.5584 0.966068C16.3169 0.72455 16.3169 0.422652 16.498 0.241513C16.6791 -5.55068e-06 16.9207 -5.55068e-06 17.1622 0.301893C18.6717 1.751 19.4566 3.56239 19.8189 5.6153C19.9396 6.15872 19.9396 6.76251 20 7.12479Z" fill="white"/>
<path d="M7.92407 14.8534C8.34673 13.2231 8.76939 11.5929 9.19204 10.023C9.49394 10.0834 9.73546 10.0834 9.97698 10.0834C10.2185 10.0834 10.46 10.023 10.7619 10.023C11.1846 11.5929 11.6072 13.2231 12.0299 14.8534C10.7015 14.8534 9.3128 14.8534 7.92407 14.8534Z" fill="white"/>
<path d="M11.9092 7.24553C11.9092 8.33237 11.1243 9.17768 9.97707 9.17768C8.82986 9.17768 8.04492 8.39275 8.04492 7.24553C8.04492 6.21908 8.89024 5.31339 9.97707 5.31339C11.0639 5.31339 11.9092 6.1587 11.9092 7.24553Z" fill="white"/>
<path d="M17.5848 7.60782C17.5848 9.29845 16.8602 11.1098 15.4715 12.5589C15.2904 12.7401 15.1092 12.8608 14.8677 12.6797C14.6866 12.559 14.6262 12.3778 14.6866 12.1967C14.6866 12.0759 14.8073 12.0155 14.8677 11.8948C16.1961 10.4457 16.8602 8.75503 16.7395 6.82289C16.6187 5.25302 16.0753 3.92466 14.9885 2.71707C14.9281 2.65669 14.9281 2.59631 14.8677 2.59631C14.6262 2.3548 14.6262 2.0529 14.8073 1.87176C14.9885 1.69062 15.2904 1.69062 15.4715 1.99252C15.8338 2.47555 16.2565 2.95859 16.5584 3.50201C17.2829 4.58884 17.5848 5.91719 17.5848 7.60782Z" fill="white"/>
<path d="M2.42957 7.24556C2.42957 5.19265 3.15412 3.44164 4.54285 1.99253C4.78437 1.75101 5.02589 1.69063 5.26741 1.87177C5.44855 2.05291 5.44855 2.35481 5.20703 2.59633C3.8183 4.04544 3.2145 5.79645 3.33526 7.78897C3.45602 9.35884 4.05981 10.6872 5.08627 11.8344C5.14665 11.8948 5.14665 11.8948 5.20703 11.9552C5.44855 12.1967 5.44855 12.4382 5.26741 12.6193C5.02589 12.8005 4.78437 12.8005 4.54285 12.4986C3.09374 11.0495 2.42957 9.29846 2.42957 7.24556Z" fill="white"/>
<path d="M4.78436 7.24556C4.78436 5.85683 5.2674 4.70961 6.23347 3.68316C6.47499 3.38126 6.77689 3.38126 6.95803 3.5624C7.13917 3.74354 7.13917 4.04544 6.89765 4.28696C5.32778 6.03797 5.32778 8.51353 6.89765 10.2042C7.19955 10.5061 7.13917 10.8683 6.83727 10.9891C6.59575 11.1099 6.41461 10.9891 6.23347 10.808C5.2674 9.84188 4.78436 8.63429 4.78436 7.24556Z" fill="white"/>
<path d="M15.2301 7.66823C15.2301 8.63431 14.747 9.8419 13.7809 10.8684C13.5998 11.0495 13.4187 11.1099 13.1771 10.9891C12.996 10.8684 12.8752 10.6872 12.9356 10.5061C12.9356 10.3853 13.0564 10.3249 13.1168 10.2042C14.6866 8.45317 14.747 5.9776 13.1168 4.22659C12.8752 3.98507 12.8752 3.68318 13.0564 3.50204C13.2375 3.3209 13.5394 3.3209 13.7809 3.6228C14.6866 4.58887 15.2301 5.91722 15.2301 7.66823Z" fill="white"/>
</svg>
