<svg width="20" height="25" viewBox="0 0 20 25" fill="none" xmlns="http://www.w3.org/2000/svg">
<path d="M2.54437 24.6268C2.48012 24.6011 2.41587 24.569 2.35162 24.5497C1.85045 24.3762 1.50992 24.0357 1.34929 23.5281C1.31074 23.406 1.26576 23.3289 1.12441 23.2904C0.430487 23.0719 0.00642519 22.5065 0 21.7804C0 17.4113 0 13.0422 0 8.67305C0 8.39034 0.134929 8.22971 0.353385 8.22329C0.584692 8.21686 0.719621 8.38392 0.719621 8.6859C0.719621 12.9972 0.719621 17.3085 0.719621 21.6198C0.719621 21.7804 0.732471 21.9411 0.777448 22.0953C0.893101 22.4551 1.21436 22.6414 1.67697 22.6414C3.68163 22.6414 5.68629 22.6414 7.69095 22.6414C9.88836 22.6414 12.0858 22.6414 14.2768 22.6414C15.0221 22.6414 15.3176 22.3394 15.3241 21.5877C15.3241 21.2921 15.3176 20.9966 15.3241 20.701C15.3305 20.4504 15.4654 20.3026 15.6775 20.3026C15.8895 20.3026 16.0373 20.4504 16.0437 20.6946C16.0501 21.0865 16.063 21.4784 16.0373 21.8704C15.9859 22.7121 15.3755 23.3096 14.5338 23.361C14.4374 23.3675 14.341 23.3675 14.2446 23.3675C10.2931 23.3675 6.34166 23.3675 2.39017 23.3675C2.28737 23.3675 2.18456 23.3675 2.05606 23.3675C2.20384 23.708 2.44157 23.8622 2.76283 23.9007C2.83993 23.9136 2.92346 23.9072 3.00056 23.9072C7.18978 23.9072 11.3854 23.9072 15.5747 23.9072C16.2814 23.9072 16.5834 23.6052 16.5834 22.8984C16.5834 21.7869 16.5834 20.6689 16.5834 19.583C16.3392 19.4802 16.1144 19.3838 15.8638 19.2746C15.5618 19.5188 15.1827 19.5959 14.7394 19.4738C14.7394 19.583 14.7394 19.6665 14.7394 19.7501C14.733 20.1998 14.7587 20.6496 14.7201 21.0929C14.6687 21.7162 14.1483 22.1531 13.5443 22.121C12.9532 22.0888 12.497 21.6005 12.497 20.9837C12.4906 19.885 12.497 18.7863 12.497 17.6876C12.497 17.6105 12.497 17.5334 12.497 17.3792C12.3749 17.527 12.2978 17.6169 12.2207 17.7133C11.8609 18.1566 11.4433 18.3108 10.9806 18.1695C10.518 18.0345 10.2032 17.6105 10.1518 17.0708C10.1454 17.0129 10.1454 16.9615 10.1389 16.878C10.0426 16.878 9.94619 16.878 9.84981 16.878C7.64597 16.878 5.44213 16.878 3.23829 16.878C3.16119 16.878 3.07766 16.878 3.00056 16.8716C2.79496 16.8523 2.67288 16.7302 2.66645 16.5311C2.6536 16.3383 2.76926 16.2098 2.95559 16.1712C3.03911 16.152 3.12907 16.1584 3.21902 16.1584C5.55779 16.1584 7.90298 16.1584 10.2417 16.1648C10.4217 16.1648 10.5373 16.1134 10.6465 15.9785C11.0577 15.4645 11.4754 14.9633 11.893 14.4493C11.9316 14.4043 11.9701 14.3529 12.0408 14.2565C11.8994 14.2565 11.8095 14.2565 11.7131 14.2565C8.89888 14.2565 6.08465 14.2565 3.27042 14.2565C3.16762 14.2565 3.05839 14.2565 2.96201 14.2437C2.76926 14.2116 2.66645 14.0766 2.66645 13.8903C2.67288 13.704 2.77568 13.5755 2.97486 13.5498C3.07124 13.5369 3.16762 13.5433 3.26399 13.5433C6.23243 13.5433 9.19444 13.5433 12.1629 13.5433C12.2657 13.5433 12.3685 13.5433 12.4841 13.5433C12.5163 13.3442 12.5484 13.19 12.3364 13.0679C12.1308 12.9522 12.0601 12.7273 12.0601 12.4896C12.0601 12.2198 12.0601 11.9499 12.0601 11.6351C11.9508 11.6351 11.8545 11.6351 11.7645 11.6351C8.91816 11.6351 6.0718 11.6351 3.22544 11.6351C3.13549 11.6351 3.04554 11.6415 2.96201 11.6222C2.77568 11.5772 2.66003 11.4552 2.67288 11.2624C2.6793 11.0632 2.79496 10.9347 3.00056 10.9154C3.09051 10.909 3.17404 10.909 3.26399 10.909C6.08465 10.909 8.90531 10.909 11.726 10.909C11.8223 10.909 11.9187 10.909 12.0536 10.909C12.0536 10.6327 12.0536 10.3757 12.0536 10.1123C12.0536 9.59185 12.2657 9.37982 12.7861 9.37982C13.5379 9.37982 14.296 9.37982 15.0478 9.37982C15.1313 9.37982 15.2213 9.37982 15.3369 9.37982C15.3369 9.27059 15.3369 9.18707 15.3369 9.10354C15.3369 7.32376 15.3369 5.54399 15.3369 3.76421C15.3369 3.07671 15.0285 2.76831 14.341 2.76831C11.5461 2.76831 8.74468 2.76831 5.94972 2.76831C5.85334 2.76831 5.76339 2.76831 5.64131 2.76831C5.64131 2.88396 5.64131 2.96749 5.64131 3.05744C5.64131 3.73208 5.64774 4.40673 5.64131 5.07495C5.63489 5.79457 5.0759 6.34714 4.38198 6.34714C3.69448 6.34714 3.14192 5.80099 3.12907 5.0878C3.12264 4.63804 3.12264 4.18827 3.12907 3.73851C3.12907 3.46865 3.25757 3.31445 3.47603 3.31445C3.70733 3.30802 3.84226 3.46865 3.84869 3.75136C3.85511 4.169 3.84869 4.58663 3.84869 5.00427C3.84869 5.38336 4.07357 5.63394 4.39483 5.62751C4.70966 5.62109 4.91527 5.38336 4.92169 5.0107C4.92169 4.33605 4.92169 3.66141 4.92169 2.99319C4.92169 2.92894 4.91527 2.87111 4.90884 2.79401C4.83817 2.78758 4.77391 2.78116 4.70966 2.78116C3.68163 2.78116 2.66003 2.77473 1.632 2.78116C1.07301 2.78116 0.738896 3.12169 0.738896 3.68711C0.732471 4.77939 0.738896 5.86525 0.738896 6.95753C0.738896 7.03463 0.745322 7.11816 0.732471 7.19526C0.70677 7.38159 0.591117 7.48439 0.417637 7.50367C0.237732 7.52294 0.102803 7.43299 0.0514015 7.25951C0.0257007 7.16956 0.0257007 7.07318 0.0192756 6.9768C0 5.89095 0 4.81794 0 3.74493C0 2.6912 0.642519 2.04869 1.68982 2.04869C1.8119 2.04869 1.92756 2.04869 2.08819 2.04869C2.04963 1.34191 2.25524 0.750798 2.82708 0.33316C3.16762 0.0825782 3.55955 -0.0266499 3.98362 0.00547601C4.49763 0.0440271 4.92169 0.268909 5.24295 0.66727C5.56421 1.05921 5.65416 1.52182 5.62846 2.04226C5.75697 2.04226 5.85334 2.04226 5.95615 2.04226C8.7511 2.04226 11.5525 2.04226 14.3474 2.04226C15.2084 2.04226 15.7032 2.39565 15.9987 3.20522C16.0244 3.26947 16.1015 3.34015 16.1722 3.35942C16.8854 3.59073 17.3095 4.15615 17.3095 4.90789C17.3095 6.30216 17.3095 7.69642 17.3095 9.09069C17.3095 9.17422 17.3095 9.26417 17.3095 9.37982C17.5343 9.37982 17.7399 9.37982 17.9455 9.37982C18.421 9.37982 18.89 9.3734 19.3655 9.37982C19.7446 9.38625 19.9888 9.61756 19.9952 9.99664C20.0016 10.8319 20.0016 11.6608 19.9952 12.496C19.9888 12.8751 19.8024 13.0679 19.3013 13.2414C19.3013 13.7232 19.3013 14.218 19.3013 14.7127C19.3013 14.8669 19.3077 15.0147 19.2948 15.1689C19.282 15.3938 19.1599 15.5223 18.9607 15.5287C18.7551 15.5352 18.6009 15.4066 18.5881 15.1753C18.5752 14.9376 18.5816 14.6935 18.5816 14.4557C18.5816 14.0509 18.5816 13.6397 18.5816 13.2221C16.789 13.2221 15.0221 13.2221 13.2487 13.2221C13.2423 13.2478 13.223 13.2735 13.2295 13.2928C13.313 13.8004 13.0817 14.1666 12.7604 14.5328C12.1693 15.2075 11.6167 15.9142 11.0449 16.6082C10.9035 16.7816 10.8393 16.968 10.9164 17.1864C11.0385 17.527 11.379 17.5976 11.6103 17.3214C11.9187 16.9551 12.2207 16.576 12.5163 16.1969C12.6383 16.0363 12.7861 15.9335 12.9917 16.0106C13.1973 16.0877 13.2295 16.2612 13.2295 16.4604C13.2295 17.9125 13.2295 19.3646 13.2295 20.8102C13.2295 20.8873 13.223 20.9709 13.2359 21.048C13.2744 21.2407 13.3965 21.3628 13.5957 21.3821C13.7949 21.4013 13.9362 21.2921 13.9941 21.1058C14.0262 21.0094 14.0262 20.9002 14.0262 20.7974C14.0262 20.0585 14.0262 19.3196 14.0262 18.5871C14.0262 18.51 14.0262 18.4265 14.0326 18.3494C14.0583 18.1631 14.1804 18.0602 14.3539 18.0474C14.5338 18.0345 14.6623 18.1245 14.7201 18.298C14.7394 18.3494 14.7458 18.4072 14.7522 18.465C14.7844 18.6514 14.9 18.767 15.0863 18.7991C15.2727 18.8248 15.4204 18.7542 15.4975 18.5807C15.5811 18.4008 15.6839 18.2659 15.9023 18.2659C16.1208 18.2659 16.2107 18.4136 16.3135 18.5807C16.3778 18.6835 16.5384 18.7927 16.6477 18.7927C16.7697 18.7863 16.9368 18.6899 17.0075 18.5807C17.1167 18.4201 17.2002 18.2723 17.4187 18.2723C17.6371 18.2723 17.7399 18.4136 17.8235 18.5935C17.907 18.7734 18.0676 18.8505 18.2604 18.7991C18.4596 18.7477 18.5688 18.5935 18.5688 18.3879C18.5752 17.8675 18.5688 17.3471 18.5752 16.8266C18.5752 16.7367 18.5752 16.6467 18.5945 16.5632C18.633 16.3704 18.768 16.2676 18.9543 16.2805C19.1406 16.2869 19.282 16.3961 19.2884 16.5953C19.2948 17.2571 19.327 17.9317 19.2691 18.5871C19.2049 19.3517 18.3182 19.7629 17.6436 19.3967C17.5665 19.3517 17.4958 19.3067 17.3673 19.2232C17.3416 19.3389 17.3095 19.4288 17.3095 19.5188C17.303 20.5853 17.3095 21.6519 17.3095 22.7185C17.3095 23.8493 17.046 24.2349 16.0116 24.6268C11.5204 24.6268 7.02915 24.6268 2.54437 24.6268ZM19.2563 10.1187C17.091 10.1187 14.945 10.1187 12.7797 10.1187C12.7797 10.909 12.7797 11.6929 12.7797 12.4832C14.945 12.4832 17.091 12.4832 19.2563 12.4832C19.2563 11.6929 19.2563 10.909 19.2563 10.1187ZM16.5834 9.3734C16.5834 7.83135 16.5898 6.30858 16.577 4.79224C16.577 4.46456 16.3457 4.20755 16.063 4.13045C16.063 5.8781 16.063 7.62575 16.063 9.37982C16.2429 9.3734 16.3971 9.3734 16.5834 9.3734ZM4.90242 2.04226C4.90242 1.93946 4.90242 1.86235 4.90242 1.78525C4.89599 1.15558 4.40768 0.686546 3.79086 0.725097C3.19974 0.757223 2.74998 1.28409 2.81423 1.89448C2.82066 1.95231 2.89776 2.04226 2.94274 2.04226C3.58525 2.04869 4.2342 2.04226 4.90242 2.04226Z" fill="white"/>
<path d="M8.00578 8.22329C7.00988 8.22329 6.0204 8.22329 5.02449 8.22329C4.94739 8.22329 4.86386 8.22971 4.78676 8.21044C4.60686 8.16546 4.49763 8.04338 4.50405 7.8442C4.51048 7.64502 4.62613 7.53579 4.81246 7.50367C4.87671 7.49082 4.94097 7.49724 5.00522 7.49724C7.0163 7.49724 9.02738 7.49724 11.0385 7.49724C11.0963 7.49724 11.1541 7.49082 11.2055 7.49724C11.4047 7.52294 11.5268 7.63859 11.5332 7.8442C11.5396 8.05623 11.4176 8.17189 11.2248 8.21044C11.1541 8.22329 11.0834 8.21686 11.0063 8.21686C10.0104 8.22329 9.00811 8.22329 8.00578 8.22329Z" fill="white"/>
<path d="M13.6085 10.9411C13.8912 10.9411 14.0519 11.0696 14.0583 11.2945C14.0647 11.5258 13.8912 11.6672 13.6021 11.6672C13.3194 11.6672 13.1588 11.5387 13.1588 11.3138C13.1523 11.0696 13.313 10.9411 13.6085 10.9411Z" fill="white"/>
</svg>
