<svg width="20" height="20" viewBox="0 0 20 20" fill="none" xmlns="http://www.w3.org/2000/svg">
<path d="M10.0031 0C10.3556 0.0231167 10.7081 0.0404542 11.0606 0.0751292C11.338 0.0982459 11.4363 0.248504 11.3785 0.514346C11.1069 1.75109 11.7888 2.83757 13.0256 3.13809C13.3723 3.22478 13.4474 3.40971 13.2567 3.72179C12.8002 4.44996 12.7655 5.20703 13.1874 5.95254C13.6093 6.69228 14.2739 7.04481 15.1234 7.03903C15.5048 7.03325 15.8573 6.91189 16.1868 6.71539C16.5104 6.51312 16.7358 6.64027 16.7416 7.01591C16.782 8.43181 18.0939 9.40271 19.4635 9.0444C19.8219 8.95193 19.9779 9.06174 19.9895 9.41427C20.1108 12.3385 19.1861 14.8756 17.1461 16.9792C15.5395 18.632 13.5746 19.6434 11.2745 19.8861C7.2984 20.3138 4.1083 18.8805 1.77929 15.6442C0.369174 13.6966 -0.191405 11.4774 0.0570991 9.09641C0.432745 5.42086 2.32253 2.73933 5.59354 1.04025C6.96899 0.329413 8.44845 0.0115583 10.0031 0ZM10.6908 0.687721C7.81852 0.375646 3.84823 1.72797 1.76773 5.52489C-0.231859 9.15998 0.450083 13.7429 3.40902 16.644C6.39107 19.5683 10.9682 20.1924 14.5455 18.1755C18.2846 16.0719 19.5213 12.2461 19.3422 9.73212C17.6547 9.84193 16.5855 9.0733 16.1232 7.45513C14.9731 7.85389 13.9271 7.69785 13.0718 6.83098C12.176 5.92365 12.072 4.83716 12.5343 3.66399C11.2398 3.10341 10.6214 2.11518 10.6908 0.687721Z" fill="white"/>
<path d="M12.621 13.3788C12.621 12.772 13.0949 12.2923 13.696 12.2865C14.3086 12.2807 14.794 12.772 14.7882 13.3846C14.7882 13.9856 14.297 14.471 13.7017 14.471C13.1065 14.4653 12.621 13.9798 12.621 13.3788ZM13.7133 12.9164C13.4532 12.9107 13.2394 13.1187 13.2394 13.373C13.2394 13.6273 13.459 13.8411 13.7075 13.8353C13.956 13.8353 14.1583 13.6331 14.1699 13.3846C14.1756 13.1303 13.9734 12.9164 13.7133 12.9164Z" fill="white"/>
<path d="M4.62843 10.4545C4.02161 10.4545 3.53616 9.97486 3.53038 9.37961C3.52461 8.77279 4.02161 8.28156 4.63421 8.28734C5.23524 8.29312 5.72069 8.77857 5.72069 9.37383C5.72069 9.96908 5.22946 10.4545 4.62843 10.4545ZM4.62843 9.83038C4.88849 9.83038 5.09076 9.62233 5.09076 9.36227C5.08498 9.11376 4.88271 8.91149 4.63421 8.90571C4.37992 8.89994 4.16609 9.11376 4.16609 9.36805C4.16031 9.62811 4.36836 9.83038 4.62843 9.83038Z" fill="white"/>
<path d="M9.99729 8.28732C10.5983 8.28732 11.0896 8.76122 11.0953 9.36225C11.1011 9.9575 10.6157 10.4545 10.0146 10.4603C9.39626 10.4661 8.90503 9.98062 8.90503 9.37381C8.90503 8.77277 9.39048 8.28732 9.99729 8.28732ZM9.99729 9.83036C10.2574 9.83036 10.4654 9.62231 10.4596 9.36803C10.4596 9.11374 10.24 8.89992 9.98573 8.90569C9.73723 8.91147 9.53496 9.11952 9.53496 9.36803C9.53496 9.62231 9.73723 9.83036 9.99729 9.83036Z" fill="white"/>
<path d="M8.12479 14.1647C8.11901 14.7658 7.62778 15.2512 7.03253 15.2397C6.42571 15.2281 5.94604 14.7369 5.9576 14.1185C5.96338 13.5232 6.46039 13.0494 7.06142 13.0551C7.65668 13.0725 8.13057 13.5579 8.12479 14.1647ZM7.03253 13.6908C6.77246 13.6908 6.57019 13.8989 6.57597 14.159C6.58175 14.4075 6.78402 14.6097 7.03253 14.6097C7.28103 14.6097 7.50642 14.3959 7.50642 14.1474C7.50642 13.8989 7.29259 13.6908 7.03253 13.6908Z" fill="white"/>
<path d="M9.67939 4.48464C9.67939 5.09723 9.21127 5.57112 8.60446 5.57112C7.98031 5.5769 7.50642 5.10301 7.5122 4.47886C7.5122 3.87204 7.98609 3.40393 8.59868 3.40393C9.2055 3.40393 9.67939 3.87204 9.67939 4.48464ZM8.59868 4.95275C8.85297 4.95275 9.06679 4.73314 9.06102 4.47886C9.05524 4.22457 8.82985 4.01652 8.58134 4.0223C8.33284 4.02808 8.13057 4.23613 8.13057 4.48464C8.13057 4.73892 8.3444 4.95275 8.59868 4.95275Z" fill="white"/>
</svg>
