<svg width="20" height="24" viewBox="0 0 20 24" fill="none" xmlns="http://www.w3.org/2000/svg">
<path d="M0 11.9706C0 8.84197 0 5.71337 0 2.58477C0 1.41395 0.633397 0.486244 1.68266 0.140755C1.95138 0.0511836 2.24568 0.00639795 2.52719 0.00639795C6.26999 0 10.0128 0 13.7556 0C13.9859 0 14.1715 0.0767754 14.3314 0.236724C16.1356 2.04734 17.9399 3.85157 19.7505 5.65579C19.936 5.84133 20 6.05246 20 6.30198C20 8.54766 20 10.7869 20 13.0326C20 15.8093 20 18.5861 20 21.3692C20 22.5528 19.3538 23.4933 18.3045 23.826C18.0422 23.9091 17.7607 23.9539 17.4856 23.9539C12.4952 23.9603 7.5112 23.9603 2.52079 23.9603C1.06846 23.9603 0.00639795 22.8727 0.00639795 21.3948C0 18.247 0 15.112 0 11.9706ZM13.2949 1.14523C13.1862 1.14523 13.1158 1.14523 13.0454 1.14523C9.55854 1.14523 6.07166 1.14523 2.58477 1.14523C1.68266 1.14523 1.14523 1.68906 1.14523 2.59757C1.14523 8.84837 1.14523 15.0992 1.14523 21.35C1.14523 22.2713 1.68266 22.8151 2.59757 22.8151C7.53679 22.8151 12.476 22.8151 17.4152 22.8151C18.3173 22.8151 18.8612 22.2713 18.8612 21.3692C18.8612 16.5707 18.8612 11.7722 18.8612 6.98017C18.8612 6.89699 18.8548 6.81382 18.8484 6.71785C18.7204 6.71785 18.6244 6.71785 18.5349 6.71785C17.5752 6.71785 16.6219 6.73065 15.6622 6.71145C14.4082 6.68586 13.3397 5.6366 13.3077 4.389C13.2822 3.41651 13.3013 2.44402 13.2949 1.46513C13.2949 1.36916 13.2949 1.27319 13.2949 1.14523Z" fill="black"/>
<path d="M9.43058 14.2906C9.43058 13.9963 9.43058 13.702 9.43058 13.4013C9.43058 12.9662 9.63532 12.7551 10.0704 12.7295C11.0109 12.6783 11.7211 11.9874 11.8042 11.0405C11.881 10.1703 11.2476 9.3514 10.3583 9.16586C9.36661 8.95473 8.36213 9.6585 8.22777 10.6694C8.21497 10.7653 8.20858 10.8613 8.19578 10.9573C8.15739 11.3092 7.92067 11.5203 7.59437 11.5011C7.28087 11.4819 7.07614 11.2452 7.06974 10.9061C7.05055 9.76087 7.83749 8.61564 8.93794 8.19977C10.5374 7.59196 12.2649 8.4173 12.8087 10.0488C13.3269 11.6099 12.3992 13.3245 10.7806 13.7724C10.6142 13.8172 10.563 13.8748 10.5694 14.0411C10.5822 14.4314 10.5758 14.8217 10.5758 15.2119C10.5758 15.615 10.3455 15.8645 10 15.8581C9.66091 15.8581 9.43698 15.6086 9.43698 15.2247C9.42419 14.9112 9.43058 14.6041 9.43058 14.2906Z" fill="black"/>
<path d="M10.5694 11.8509C10.5694 11.9533 10.5822 12.0621 10.5694 12.1644C10.5374 12.4523 10.3071 12.6635 10.0256 12.6699C9.7313 12.6763 9.47538 12.4779 9.44339 12.1772C9.4178 11.9597 9.4242 11.7294 9.44339 11.5118C9.46898 11.2111 9.7249 11 10.0128 11C10.3071 11 10.5502 11.2303 10.5758 11.5438C10.5758 11.6398 10.5694 11.7422 10.5694 11.8509Z" fill="black"/>
</svg>
