<svg width="20" height="26" viewBox="0 0 20 26" fill="none" xmlns="http://www.w3.org/2000/svg">
<path d="M5.56931 24.4538C5.93158 24.4538 6.29386 24.4538 6.71652 24.4538C6.7769 24.4538 6.89766 24.3331 6.95804 24.2727C7.86373 23.367 8.82981 22.4009 9.7355 21.4952C9.79588 21.4348 9.85626 21.3141 9.97702 21.2537C10.0978 21.3745 10.1582 21.4348 10.2185 21.4952C11.1846 22.4613 12.0903 23.367 13.0564 24.3331C13.1771 24.4538 13.2979 24.5142 13.4187 24.5142C13.7206 24.5142 14.0828 24.5142 14.4451 24.5142C13.1168 23.1858 11.8488 21.9179 10.6412 20.7103C11.4261 19.9253 12.2111 19.1404 12.996 18.3555C13.5394 20.4084 14.0828 22.4613 14.6263 24.5142C14.9885 24.5142 15.2904 24.5142 15.6527 24.5142C15.9546 24.5142 16.1961 24.6953 16.1961 24.9972C16.1961 25.2991 16.015 25.4199 15.6527 25.4199C11.9092 25.4199 8.10525 25.4199 4.36171 25.4199C4.05982 25.4199 3.8183 25.2387 3.8183 24.9368C3.8183 24.6349 3.99944 24.5142 4.36171 24.5142C4.66361 24.5142 5.02589 24.5142 5.38817 24.5142C5.93158 22.4613 6.475 20.4084 7.01842 18.3555C7.80335 19.1404 8.52791 19.865 9.31284 20.6499C8.10525 21.8575 6.83728 23.1255 5.56931 24.3934V24.4538Z" fill="black"/>
<path d="M10.0374 20.0462C9.55434 19.5631 9.13169 19.1405 8.70903 18.7178C8.28637 18.2951 7.80333 17.8725 7.38068 17.3894C7.3203 17.3291 7.25992 17.2083 7.3203 17.0876C7.38068 16.7253 7.50144 16.363 7.6222 16.0007C7.6222 15.9403 7.74296 15.8196 7.86371 15.8196C9.31283 15.8196 10.7619 15.8196 12.211 15.8196C12.2714 15.8196 12.3922 15.9403 12.4526 16.0007C12.5733 16.363 12.6941 16.7253 12.7545 17.0876C12.7545 17.1479 12.7545 17.2687 12.6941 17.3291C11.7884 18.2348 10.9431 19.0801 10.0374 20.0462Z" fill="black"/>
<path d="M3.27488 0C3.39564 0.120759 3.57677 0.181139 3.63715 0.301898C3.69753 0.422657 3.63715 0.664176 3.57677 0.784935C3.33526 1.08683 3.09374 1.32835 2.85222 1.56987C0.0747562 5.13227 0.316275 10.3249 3.45601 13.525C3.57677 13.7062 3.63715 13.8873 3.63715 14.0685C3.63715 14.1892 3.45601 14.31 3.33526 14.4307C3.27488 14.4911 3.09374 14.4307 3.03336 14.31C2.06728 13.525 1.34273 12.559 0.799312 11.4117C-0.710179 7.97011 -0.0460029 3.44164 2.48994 0.603796C2.6107 0.483037 2.73146 0.301898 2.9126 0.181139C2.97298 0.120759 3.09374 0.0603796 3.27488 0Z" fill="black"/>
<path d="M20 7.12488C19.9396 9.78158 19.2755 11.8949 17.5848 13.7063C17.4037 13.9478 17.1622 14.1289 16.9207 14.3101C16.7395 14.4912 16.6188 14.4912 16.4376 14.3704C16.2565 14.2497 16.2565 13.9478 16.3773 13.7666C16.4376 13.7063 16.498 13.6459 16.5584 13.5855C18.3094 11.7741 19.0943 9.54006 19.0943 7.0645C19.034 4.7097 18.1886 2.65679 16.5584 0.96616C16.3169 0.724641 16.3169 0.422743 16.498 0.241604C16.6791 8.60021e-05 16.9207 8.60021e-05 17.1622 0.301984C18.6717 1.75109 19.4566 3.56248 19.8189 5.61539C19.9396 6.15881 19.9396 6.7626 20 7.12488Z" fill="black"/>
<path d="M7.92407 14.8533C8.34673 13.2231 8.76939 11.5928 9.19204 10.0229C9.49394 10.0833 9.73546 10.0833 9.97698 10.0833C10.2185 10.0833 10.46 10.0229 10.7619 10.0229C11.1846 11.5928 11.6072 13.2231 12.0299 14.8533C10.7015 14.8533 9.3128 14.8533 7.92407 14.8533Z" fill="black"/>
<path d="M11.9092 7.24562C11.9092 8.33246 11.1243 9.17777 9.97707 9.17777C8.82986 9.17777 8.04492 8.39284 8.04492 7.24562C8.04492 6.21917 8.89024 5.31348 9.97707 5.31348C11.0639 5.31348 11.9092 6.15879 11.9092 7.24562Z" fill="black"/>
<path d="M17.5848 7.60773C17.5848 9.29836 16.8602 11.1097 15.4715 12.5589C15.2904 12.74 15.1092 12.8608 14.8677 12.6796C14.6866 12.5589 14.6262 12.3777 14.6866 12.1966C14.6866 12.0758 14.8073 12.0154 14.8677 11.8947C16.1961 10.4456 16.8602 8.75494 16.7395 6.82279C16.6187 5.25292 16.0753 3.92457 14.9885 2.71698C14.9281 2.6566 14.9281 2.59622 14.8677 2.59622C14.6262 2.3547 14.6262 2.05281 14.8073 1.87167C14.9885 1.69053 15.2904 1.69053 15.4715 1.99243C15.8338 2.47546 16.2565 2.9585 16.5584 3.50192C17.2829 4.58875 17.5848 5.9171 17.5848 7.60773Z" fill="black"/>
<path d="M2.42957 7.24547C2.42957 5.19256 3.15412 3.44155 4.54285 1.99244C4.78437 1.75092 5.02589 1.69054 5.26741 1.87168C5.44855 2.05282 5.44855 2.35472 5.20703 2.59624C3.8183 4.04535 3.2145 5.79635 3.33526 7.78888C3.45602 9.35875 4.05981 10.6871 5.08627 11.8343C5.14665 11.8947 5.14665 11.8947 5.20703 11.9551C5.44855 12.1966 5.44855 12.4381 5.26741 12.6193C5.02589 12.8004 4.78437 12.8004 4.54285 12.4985C3.09374 11.0494 2.42957 9.29837 2.42957 7.24547Z" fill="black"/>
<path d="M4.78436 7.2455C4.78436 5.85677 5.2674 4.70955 6.23347 3.6831C6.47499 3.3812 6.77689 3.3812 6.95803 3.56234C7.13917 3.74348 7.13917 4.04538 6.89765 4.2869C5.32778 6.0379 5.32778 8.51347 6.89765 10.2041C7.19955 10.506 7.13917 10.8683 6.83727 10.989C6.59575 11.1098 6.41461 10.989 6.23347 10.8079C5.2674 9.84182 4.78436 8.63423 4.78436 7.2455Z" fill="black"/>
<path d="M15.2301 7.66823C15.2301 8.63431 14.747 9.8419 13.7809 10.8684C13.5998 11.0495 13.4187 11.1099 13.1771 10.9891C12.996 10.8684 12.8752 10.6872 12.9356 10.5061C12.9356 10.3853 13.0564 10.3249 13.1168 10.2042C14.6866 8.45317 14.747 5.9776 13.1168 4.22659C12.8752 3.98507 12.8752 3.68318 13.0564 3.50204C13.2375 3.3209 13.5394 3.3209 13.7809 3.6228C14.6866 4.58887 15.2301 5.91722 15.2301 7.66823Z" fill="black"/>
</svg>
