<svg width="20" height="22" viewBox="0 0 20 22" fill="none" xmlns="http://www.w3.org/2000/svg">
<path d="M19.9616 7.50131C19.9616 8.59047 20.0256 9.67964 19.9487 10.7624C19.7373 13.6391 18.52 16.0481 16.4122 18.015C15.7779 18.6044 15.0731 19.1041 14.3107 19.5206C13.2023 20.1356 12.0875 20.7507 10.9791 21.3722C10.3192 21.7438 9.67854 21.7374 9.01864 21.3658C7.74367 20.6418 6.43027 19.9883 5.19374 19.213C2.37472 17.4383 0.689718 14.8692 0.145135 11.5825C0.0490321 11.0123 0.0169978 10.4228 0.0105909 9.83981C-0.00862965 8.1484 0.00418407 6.45058 0.00418407 4.75917C0.00418407 3.59312 0.612836 2.9204 1.77888 2.78586C4.33522 2.48473 6.71858 1.67747 8.91613 0.344841C9.40305 0.0501258 9.90919 -0.0908252 10.473 0.0629395C10.646 0.114194 10.819 0.191077 10.9727 0.280773C12.9717 1.48526 15.1244 2.28612 17.4308 2.65772C17.796 2.71538 18.1612 2.74741 18.5264 2.81148C19.3978 2.97165 19.9872 3.68282 20 4.56696C20 4.57978 20 4.599 20 4.61181C20 5.57284 20 6.52746 20 7.48849C19.9872 7.50131 19.9744 7.50131 19.9616 7.50131ZM1.54824 7.53334C1.56105 7.53334 1.57387 7.53334 1.58668 7.53334C1.58668 8.59047 1.5098 9.6476 1.59949 10.6983C1.88139 13.7993 3.36138 16.221 5.9946 17.8868C7.23753 18.6749 8.55094 19.3412 9.84512 20.0459C9.94123 20.0972 10.1334 20.0716 10.2423 20.0139C11.4084 19.3796 12.5873 18.7646 13.7213 18.079C16.6812 16.2979 18.2894 13.6583 18.4495 10.2178C18.5392 8.36623 18.4688 6.50824 18.4688 4.65666C18.4688 4.44523 18.3791 4.34272 18.1676 4.31069C17.4565 4.20177 16.7389 4.10567 16.0406 3.9519C14.0032 3.50342 12.0875 2.7346 10.3064 1.65184C10.1334 1.54292 9.97967 1.49808 9.78106 1.61981C7.35285 3.09979 4.72604 3.98394 1.90062 4.3171C1.59949 4.35554 1.55464 4.40679 1.55464 4.71432C1.54824 5.64972 1.54824 6.59153 1.54824 7.53334Z" fill="black"/>
<path d="M9.44788 11.2494C9.91558 10.7561 10.3769 10.2627 10.8318 9.77583C11.4789 9.09029 12.1195 8.39835 12.773 7.71282C13.0229 7.45014 13.3945 7.38607 13.6956 7.54624C13.9968 7.7 14.1633 8.03316 14.0864 8.37272C14.0544 8.52008 13.9711 8.67385 13.8686 8.78276C12.6129 10.1282 11.3571 11.4672 10.095 12.8063C9.749 13.1715 9.32615 13.1907 8.94815 12.8575C8.20495 12.204 7.46175 11.5441 6.72496 10.8842C6.37259 10.5703 6.33415 10.1026 6.61605 9.77583C6.91076 9.44267 7.38487 9.42345 7.75006 9.74379C8.2562 10.1859 8.75594 10.6343 9.26208 11.0764C9.30693 11.1341 9.371 11.1853 9.44788 11.2494Z" fill="black"/>
</svg>
