<svg width="20" height="20" viewBox="0 0 20 20" fill="none" xmlns="http://www.w3.org/2000/svg">
<path d="M10.0031 0C10.3556 0.0231167 10.7081 0.0404542 11.0606 0.0751292C11.338 0.0982459 11.4363 0.248504 11.3785 0.514346C11.1069 1.75109 11.7888 2.83757 13.0256 3.13809C13.3723 3.22478 13.4474 3.40971 13.2567 3.72179C12.8002 4.44996 12.7655 5.20703 13.1874 5.95254C13.6093 6.69228 14.2739 7.04481 15.1234 7.03903C15.5048 7.03325 15.8573 6.91189 16.1868 6.71539C16.5104 6.51312 16.7358 6.64027 16.7416 7.01591C16.782 8.43181 18.0939 9.40271 19.4635 9.0444C19.8219 8.95193 19.9779 9.06174 19.9895 9.41427C20.1108 12.3385 19.1861 14.8756 17.1461 16.9792C15.5395 18.632 13.5746 19.6434 11.2745 19.8861C7.2984 20.3138 4.1083 18.8805 1.77929 15.6442C0.369174 13.6966 -0.191405 11.4774 0.0570991 9.09641C0.432745 5.42086 2.32253 2.73933 5.59354 1.04025C6.96899 0.329413 8.44845 0.0115583 10.0031 0ZM10.6908 0.687721C7.81852 0.375646 3.84823 1.72797 1.76773 5.52489C-0.231859 9.15998 0.450083 13.7429 3.40902 16.644C6.39107 19.5683 10.9682 20.1924 14.5455 18.1755C18.2846 16.0719 19.5213 12.2461 19.3422 9.73212C17.6547 9.84193 16.5855 9.0733 16.1232 7.45513C14.9731 7.85389 13.9271 7.69785 13.0718 6.83098C12.176 5.92365 12.072 4.83716 12.5343 3.66399C11.2398 3.10341 10.6214 2.11518 10.6908 0.687721Z" fill="black"/>
<path d="M12.621 13.3787C12.621 12.7719 13.0949 12.2922 13.696 12.2864C14.3086 12.2806 14.794 12.7719 14.7882 13.3845C14.7882 13.9855 14.297 14.471 13.7017 14.471C13.1065 14.4652 12.621 13.9797 12.621 13.3787ZM13.7133 12.9164C13.4532 12.9106 13.2394 13.1186 13.2394 13.3729C13.2394 13.6272 13.459 13.841 13.7075 13.8352C13.956 13.8352 14.1583 13.633 14.1699 13.3845C14.1756 13.1302 13.9734 12.9164 13.7133 12.9164Z" fill="black"/>
<path d="M4.62843 10.4546C4.02161 10.4546 3.53616 9.97492 3.53038 9.37967C3.52461 8.77285 4.02161 8.28162 4.63421 8.2874C5.23524 8.29318 5.72069 8.77863 5.72069 9.37389C5.72069 9.96914 5.22946 10.4546 4.62843 10.4546ZM4.62843 9.83044C4.88849 9.83044 5.09076 9.62239 5.09076 9.36233C5.08498 9.11383 4.88271 8.91155 4.63421 8.90578C4.37992 8.9 4.16609 9.11383 4.16609 9.36811C4.16031 9.62817 4.36836 9.83044 4.62843 9.83044Z" fill="black"/>
<path d="M9.99729 8.28735C10.5983 8.28735 11.0896 8.76125 11.0953 9.36228C11.1011 9.95753 10.6157 10.4545 10.0146 10.4603C9.39626 10.4661 8.90503 9.98065 8.90503 9.37384C8.90503 8.7728 9.39048 8.28735 9.99729 8.28735ZM9.99729 9.83039C10.2574 9.83039 10.4654 9.62234 10.4596 9.36806C10.4596 9.11378 10.24 8.89995 9.98573 8.90573C9.73723 8.9115 9.53496 9.11955 9.53496 9.36806C9.53496 9.62234 9.73723 9.83039 9.99729 9.83039Z" fill="black"/>
<path d="M8.12479 14.1648C8.11901 14.7659 7.62778 15.2513 7.03253 15.2398C6.42571 15.2282 5.94604 14.737 5.9576 14.1186C5.96338 13.5233 6.46039 13.0494 7.06142 13.0552C7.65668 13.0726 8.13057 13.558 8.12479 14.1648ZM7.03253 13.6909C6.77246 13.6909 6.57019 13.899 6.57597 14.159C6.58175 14.4076 6.78402 14.6098 7.03253 14.6098C7.28103 14.6098 7.50642 14.396 7.50642 14.1475C7.50642 13.899 7.29259 13.6909 7.03253 13.6909Z" fill="black"/>
<path d="M9.67939 4.48476C9.67939 5.09735 9.21127 5.57124 8.60446 5.57124C7.98031 5.57702 7.50642 5.10313 7.5122 4.47898C7.5122 3.87217 7.98609 3.40405 8.59868 3.40405C9.2055 3.40405 9.67939 3.87217 9.67939 4.48476ZM8.59868 4.95287C8.85297 4.95287 9.06679 4.73326 9.06102 4.47898C9.05524 4.22469 8.82985 4.01664 8.58134 4.02242C8.33284 4.0282 8.13057 4.23625 8.13057 4.48476C8.13057 4.73904 8.3444 4.95287 8.59868 4.95287Z" fill="black"/>
</svg>
