<svg width="36" height="36" viewBox="0 0 36 36" fill="none" xmlns="http://www.w3.org/2000/svg">
<path d="M18 36C27.9411 36 36 27.9411 36 18C36 8.05887 27.9411 0 18 0C8.05887 0 0 8.05887 0 18C0 27.9411 8.05887 36 18 36Z" fill="#375BD2"/>
<path d="M18.0027 11.0851L24.0632 14.5301V21.4478L18.0195 24.915L11.9591 21.4754V14.5576L18.0027 11.0851ZM18.0027 6L15.7788 7.27677L9.72399 10.7494L7.5 12.0262V14.5687V21.4809V24.0234L9.72399 25.2893L15.7843 28.7343L18.0082 30L20.2323 28.7232L26.2761 25.2507L28.5 23.9795V21.4368V14.5191V11.9766L26.2761 10.7109L20.2157 7.26578L17.9918 6H18.0027Z" fill="white"/>
<path d="M35.25 18C35.25 27.5269 27.5269 35.25 18 35.25C8.47309 35.25 0.75 27.5269 0.75 18C0.75 8.47309 8.47309 0.75 18 0.75C27.5269 0.75 35.25 8.47309 35.25 18Z" stroke="black" stroke-opacity="0.097"/>
</svg>
