<svg width="36" height="36" viewBox="0 0 36 36" fill="none" xmlns="http://www.w3.org/2000/svg">
<g clip-path="url(#clip0_118_4032)">
<path d="M18 36C27.9411 36 36 27.9411 36 18C36 8.05887 27.9411 0 18 0C8.05887 0 0 8.05887 0 18C0 27.9411 8.05887 36 18 36Z" fill="#F5F5F5"/>
<path d="M35.25 18C35.25 27.5269 27.5269 35.25 18 35.25C8.47309 35.25 0.75 27.5269 0.75 18C0.75 8.47309 8.47309 0.75 18 0.75C27.5269 0.75 35.25 8.47309 35.25 18Z" stroke="black" stroke-opacity="0.097"/>
<path d="M9.46238 14.96C9.46033 15.0111 9.40789 15.0543 9.4552 15.1674C9.51655 15.0885 9.55666 15.0279 9.60568 14.9758C9.76063 14.8112 9.94883 14.7015 10.172 14.6584C10.2567 14.6419 10.3424 14.6426 10.415 14.6991C10.4795 14.7492 10.533 14.8088 10.5086 14.9227C10.5727 14.8572 10.5816 14.801 10.5984 14.7482C10.6574 14.5819 10.7071 14.4139 10.6783 14.2343C10.6492 14.053 10.5025 13.9505 10.3256 13.9752C9.94025 14.0283 9.50902 14.5726 9.46238 14.96ZM14.7844 11.7953C15.0181 11.8165 15.2506 11.7949 15.4824 11.7696C16.578 11.6492 17.3776 11.1223 17.8014 10.0802C17.8504 9.95956 17.8926 9.83547 17.9344 9.71206C17.9485 9.67024 17.9662 9.61539 17.9241 9.58591C17.8843 9.55815 17.8545 9.60853 17.8227 9.62877C17.7417 9.68086 17.6605 9.73332 17.5816 9.78816C17.3527 9.94756 17.0818 10.0247 16.8436 10.1652C16.3828 10.326 15.9243 10.4906 15.4867 10.7096C15.2749 10.8159 15.0912 10.9547 14.9373 11.1333C14.7745 11.3226 14.7069 11.6187 14.7844 11.7953ZM23.0586 6.71734C23.0637 6.72523 23.0703 6.73209 23.0772 6.73825C23.0325 6.8716 22.9255 6.9621 22.8441 7.06906C21.9352 8.2603 20.8126 9.17832 19.4112 9.73537C19.3323 9.76657 19.2997 9.8125 19.2757 9.88963C19.0917 10.4779 18.8106 11.0099 18.3577 11.4398C18.3342 11.4621 18.3012 11.4816 18.3067 11.5234C18.3169 11.5269 18.3283 11.5354 18.3369 11.5334C18.3643 11.5265 18.3907 11.5162 18.4171 11.5056C19.2397 11.181 20.0221 10.7802 20.7532 10.2804C20.9124 10.1718 21.0532 10.0357 21.2295 9.95202C21.5338 9.99213 21.8395 10.0233 22.1422 10.0737C23.5629 10.3109 24.9046 10.7775 26.1808 11.446C27.5757 12.1768 28.8115 13.1127 29.8893 14.2569C30.0127 14.3879 30.1807 14.4948 30.2304 14.6882C30.1528 14.7187 30.1224 14.646 30.0795 14.6124C29.3305 14.0245 28.5469 13.4884 27.7146 13.0246C27.3999 12.8494 27.0831 12.6776 26.7156 12.5121C26.8777 12.7908 27.018 13.0324 27.1585 13.2741C25.6231 12.5206 24.0181 12.1007 22.3222 12.0633C22.3411 12.0729 22.3648 12.0877 22.3908 12.0969C22.4121 12.1045 22.4353 12.1052 22.458 12.1083C23.6917 12.2817 24.8463 12.6828 25.9303 13.2971C26.2569 13.4822 26.5563 13.7091 26.8822 13.8942C26.8929 13.9076 26.9007 13.9241 26.914 13.9337C27.6997 14.4928 28.368 15.1743 28.9404 15.9445C30.0517 17.4409 30.7017 19.1182 30.859 20.9803C30.8707 21.1164 30.8854 21.2521 30.8995 21.3964C30.9313 21.3804 30.9472 21.3775 30.9499 21.37C30.9636 21.333 30.9753 21.295 30.9849 21.2566C31.2777 20.089 31.4025 18.9046 31.3737 17.7007C31.3383 16.2246 31.0668 14.7962 30.5553 13.4119C29.9565 11.7905 29.0703 10.3421 27.9079 9.06622C27.3474 8.45089 26.7366 7.88562 26.0656 7.38855C25.3743 6.87641 24.6502 6.41911 23.8696 6.05403C23.9368 5.76642 24.0099 5.48017 24.0702 5.19153C24.2211 4.47061 24.279 3.73908 24.2875 3C24.0787 3.72366 23.8155 4.42572 23.4604 5.09178C23.1021 5.76367 22.6675 6.38242 22.1422 6.98748C22.4748 6.88942 22.7668 6.80338 23.0586 6.71734ZM4.73926 18.0624C4.74578 19.0393 4.83113 20.0091 5.06698 20.9583C6.25067 25.7185 9.17101 28.9312 13.7577 30.6253C15.364 31.2187 17.0424 31.4073 18.7534 31.3315C20.0542 31.2739 21.3264 31.0747 22.5502 30.6219C24.039 30.0711 25.3287 29.227 26.2782 27.9354C27.597 26.1408 27.9784 24.1146 27.6439 21.9429C27.3495 20.0314 26.536 18.3517 25.2255 16.9321C23.1135 14.6443 20.4486 13.6714 17.3752 13.7071C17.1943 13.7091 17.0133 13.7074 16.8327 13.7074C18.174 14.4047 18.9418 15.3007 19.1308 15.7389C18.8676 15.6704 18.618 15.5962 18.3643 15.541C16.8855 15.2181 15.3957 15.081 13.8835 15.2599C12.2117 15.4578 10.6882 16.0333 9.3167 17.0092C9.26254 17.0481 9.19397 17.074 9.17204 17.1471C8.96018 17.2708 8.78638 17.4429 8.59613 17.5944C8.5094 17.6637 8.46586 17.6653 8.44495 17.5407C8.39936 17.266 8.33389 16.9942 8.29549 16.7185C8.18957 15.959 8.22316 15.2119 8.52175 14.4921C8.90567 13.5665 9.57722 12.882 10.3588 12.2879C10.3982 12.2581 10.4445 12.2341 10.4836 12.256C10.5337 12.2838 10.5038 12.3376 10.4898 12.378C10.438 12.5292 10.3969 12.6831 10.3886 12.8432C10.3653 13.3084 10.6358 13.5621 11.0979 13.5089C11.3211 13.4832 11.5302 13.4099 11.7321 13.3132C12.2686 13.0558 12.7139 12.6776 13.128 12.2584C13.1876 12.1981 13.2298 12.1113 13.3463 12.1994C13.6607 12.437 14.0148 12.4257 14.4046 12.3348C14.3542 12.3249 14.3322 12.3204 14.3099 12.316C13.5201 12.1573 13.1489 11.4998 13.4389 10.7497C13.6463 10.2136 14.0549 9.86736 14.5773 9.66064C15.3339 9.36138 16.0953 9.07444 16.8042 8.66961C17.6197 8.20408 18.4071 7.70598 18.8466 6.82362C18.8901 6.7362 18.9316 6.76773 18.9652 6.83013C19.0383 6.96519 19.1167 7.09819 19.1784 7.23874C19.3341 7.59252 19.4149 7.96755 19.4551 8.36005C20.6764 7.57675 21.7494 6.65392 22.6551 5.52816C22.5777 5.50108 22.5238 5.48223 22.47 5.46337C20.6844 4.84495 18.8497 4.60876 16.9663 4.76166C15.7155 4.86313 14.504 5.14216 13.3309 5.58781C11.6649 6.22062 10.1919 7.16127 8.89642 8.38062C8.30234 8.93973 7.76998 9.55506 7.29211 10.2174C5.84102 12.2279 5.00665 14.4667 4.80028 16.938C4.76909 17.3119 4.75915 17.6874 4.73926 18.0624ZM18.2751 11.5426C18.2718 11.5409 18.2649 11.5375 18.2649 11.5375C18.2497 11.5423 18.2494 11.5498 18.2638 11.5563C18.2638 11.5563 18.2721 11.5546 18.2745 11.5522C18.2745 11.5522 18.2751 11.5457 18.2751 11.5426Z" fill="#FEFEFE"/>
<path d="M9.1717 17.1466C9.19397 17.0735 9.26219 17.0471 9.31636 17.0087C10.6879 16.0328 12.2113 15.4573 13.8832 15.2594C15.3952 15.0805 16.885 15.2176 18.3639 15.5405C18.6177 15.596 18.8671 15.6697 19.1304 15.7382C18.9418 15.3002 18.1737 14.4044 16.8322 13.7068C17.0133 13.7068 17.1943 13.7086 17.3749 13.7065C20.4481 13.6712 23.1132 14.6437 25.2252 16.9316C26.5356 18.3515 27.3492 20.0312 27.6436 21.9424C27.9781 24.1136 27.5967 26.1403 26.2779 27.9349C25.3287 29.2265 24.0387 30.0706 22.5499 30.6214C21.3261 31.0742 20.0536 31.2734 18.753 31.331C17.0421 31.4068 15.3637 31.2182 13.7574 30.6248C9.17066 28.9307 6.25033 25.718 5.06663 20.9578C4.83113 20.0089 4.74578 19.0391 4.73926 18.0622C4.89319 18.2222 4.93981 18.4385 5.02894 18.6305C5.79784 20.291 6.80087 21.7784 8.2403 22.9351C10.003 24.3515 12.0101 24.9748 14.2709 24.7471C15.3322 24.6401 16.3305 24.3313 17.2621 23.8151C18.0291 23.3903 18.6958 22.8473 19.2069 22.1254C19.6155 21.5488 19.8696 20.9129 19.8771 20.2043C19.8853 19.4621 19.6221 18.8033 19.1674 18.2168C18.9543 17.9419 18.7095 17.7224 18.3807 17.5846C17.3709 17.1602 16.3167 16.9525 15.228 16.9073C14.7553 16.8877 14.2818 16.9015 13.8136 16.9765C13.3683 17.0479 12.9268 17.1421 12.5401 17.3917C12.0697 17.695 12.0029 18.1046 12.343 18.5516C12.4091 18.6385 12.4797 18.7217 12.5713 18.8348C11.7554 18.7526 11.004 18.5918 10.317 18.2009C9.85387 17.9384 9.46342 17.596 9.1717 17.1466Z" fill="#262F71"/>
<path d="M9.1717 17.1469C9.46342 17.5963 9.85421 17.9389 10.3173 18.2022C11.0043 18.5926 11.7557 18.7537 12.5716 18.8359C12.4801 18.7228 12.4091 18.6396 12.3433 18.5529C12.0032 18.1057 12.0701 17.6961 12.5404 17.3928C12.9271 17.1436 13.369 17.0493 13.8139 16.9776C14.2822 16.9026 14.7556 16.8885 15.2283 16.9084C16.3174 16.9536 17.3712 17.1618 18.3811 17.5858C18.7095 17.724 18.9546 17.943 19.1679 18.2179C19.6224 18.8041 19.8856 19.4629 19.8774 20.2054C19.8696 20.9137 19.6155 21.5496 19.2072 22.1265C18.6961 22.8481 18.0291 23.3914 17.2626 23.8162C16.3308 24.3325 15.3325 24.6417 14.2712 24.7483C12.0104 24.9759 10.0033 24.3526 8.24065 22.9362C6.80087 21.7792 5.79784 20.2918 5.02894 18.6313C4.93981 18.439 4.89352 18.2227 4.73926 18.063C4.75915 17.688 4.76909 17.3122 4.80028 16.9383C5.00665 14.4673 5.84102 12.2281 7.29211 10.2176C7.76998 9.55531 8.30234 8.93998 8.89642 8.38087C10.1919 7.16152 11.6649 6.22087 13.3309 5.58805C14.504 5.14242 15.7158 4.86372 16.9663 4.76191C18.8497 4.60902 20.6844 4.84521 22.47 5.46363C22.5238 5.48214 22.5777 5.50132 22.6551 5.52841C21.7494 6.65418 20.6764 7.57699 19.4551 8.36029C19.4149 7.96779 19.3344 7.5931 19.1784 7.239C19.1167 7.09879 19.0383 6.96544 18.9652 6.83036C18.9316 6.76798 18.8901 6.73645 18.8466 6.82386C18.4071 7.70623 17.6197 8.20432 16.8042 8.66985C16.0953 9.0747 15.3339 9.36161 14.5773 9.66088C14.0549 9.86759 13.6463 10.2138 13.4389 10.75C13.1485 11.5004 13.5201 12.1579 14.3099 12.3162C14.3322 12.3207 14.3542 12.3251 14.4046 12.3351C14.0148 12.4256 13.6607 12.4369 13.3463 12.1997C13.2298 12.1119 13.188 12.1983 13.128 12.2586C12.7139 12.6779 12.2686 13.056 11.7321 13.3134C11.5305 13.4101 11.3211 13.4835 11.0979 13.5092C10.6358 13.5623 10.3653 13.3086 10.3886 12.8435C10.3969 12.6834 10.4377 12.5294 10.4898 12.3783C10.5038 12.3375 10.5337 12.284 10.4836 12.2562C10.4442 12.2343 10.3982 12.2583 10.3588 12.2881C9.57722 12.8822 8.90567 13.5664 8.52175 14.4923C8.22316 15.2122 8.18957 15.9592 8.29549 16.7188C8.33389 16.9944 8.39936 17.2663 8.44495 17.5408C8.46553 17.6656 8.5094 17.664 8.59613 17.5947C8.7857 17.4432 8.95984 17.2707 9.1717 17.1469Z" fill="#418AC9"/>
<path d="M23.869 6.0542C24.6496 6.41928 25.3735 6.87659 26.065 7.38873C26.7358 7.88579 27.3468 8.45108 27.9072 9.06641C29.0697 10.3423 29.9559 11.7906 30.5547 13.4121C31.0662 14.7963 31.3377 16.2248 31.3729 17.7009C31.4017 18.9048 31.2769 20.0892 30.9843 21.2568C30.9747 21.2952 30.9627 21.3329 30.9493 21.3702C30.9465 21.3779 30.9307 21.3806 30.8989 21.3966C30.8848 21.2526 30.8701 21.1166 30.8584 20.9805C30.7008 19.1181 30.0511 17.4407 28.9398 15.9447C28.3672 15.1742 27.6991 14.493 26.9134 13.9338C26.9001 13.9242 26.8921 13.9078 26.8816 13.8944C27.613 13.9589 28.3278 14.1077 29.0302 14.3198C29.505 14.4631 29.953 14.6695 30.3915 14.8985C30.4029 14.9115 30.4149 14.9263 30.4299 14.904C30.4299 14.904 30.4165 14.8889 30.409 14.881C30.3733 14.8433 30.3376 14.8056 30.3024 14.7679C30.2808 14.7367 30.2821 14.6856 30.2287 14.6815L30.2301 14.6884C30.1803 14.495 30.0127 14.3881 29.889 14.2571C28.8112 13.1132 27.5751 12.177 26.1805 11.4461C24.9043 10.7777 23.5626 10.3111 22.1419 10.0739C21.8392 10.0235 21.5335 9.99231 21.229 9.9522C21.6312 9.61557 22.0155 9.25974 22.3566 8.86073C23.0625 8.03423 23.5519 7.09049 23.869 6.0542Z" fill="#418AC9"/>
<path d="M23.869 6.05499C23.5519 7.09128 23.0623 8.03502 22.3566 8.86083C22.0155 9.25985 21.6315 9.61568 21.229 9.95231C21.0525 10.036 20.9119 10.1717 20.7529 10.2807C20.0217 10.7802 19.2394 11.1813 18.4167 11.5059C18.3903 11.5162 18.3639 11.5265 18.3366 11.5337C18.3279 11.5357 18.3163 11.5275 18.3063 11.5237C18.3009 11.4822 18.3337 11.4627 18.3574 11.4401C18.8103 11.0102 19.0914 10.4782 19.2754 9.88992C19.2994 9.81314 19.3323 9.76721 19.4109 9.73566C20.8122 9.17861 21.9349 8.26059 22.8436 7.06935C22.9252 6.9624 23.0319 6.87189 23.0767 6.73854C23.085 6.73272 23.0935 6.72654 23.1018 6.72072C23.0871 6.71969 23.0727 6.71867 23.058 6.71763C22.7662 6.80367 22.4745 6.88973 22.1409 6.98811C22.666 6.3834 23.1007 5.76431 23.4589 5.09241C23.8149 4.42668 24.0777 3.72464 24.2869 3.00098C24.2782 3.74006 24.2206 4.47159 24.0696 5.19251C24.0091 5.4815 23.9362 5.76773 23.869 6.05499Z" fill="#262F71"/>
<path d="M30.3908 14.8984C29.9524 14.6691 29.5046 14.4631 29.0299 14.3198C28.3274 14.1076 27.6127 13.9588 26.8811 13.8944C26.5552 13.7093 26.2562 13.4827 25.9292 13.2972C24.8453 12.6829 23.6908 12.2818 22.457 12.1084C22.4344 12.1053 22.4107 12.1043 22.3898 12.0971C22.364 12.0878 22.3402 12.0731 22.3213 12.0635C24.017 12.1008 25.622 12.5208 27.1574 13.2742C27.0169 13.0326 26.8768 12.7912 26.7146 12.5122C27.0821 12.6778 27.3988 12.8492 27.7135 13.0247C28.5458 13.4885 29.3291 14.0247 30.0785 14.6125C30.1214 14.6461 30.1519 14.7185 30.2293 14.6883L30.2279 14.6815C30.1934 14.7606 30.2756 14.7401 30.3017 14.7678C30.3373 14.8056 30.373 14.8433 30.4082 14.881C30.4025 14.8864 30.3967 14.8923 30.3908 14.8984Z" fill="#262F71"/>
<path d="M16.8434 10.1657C17.0816 10.0248 17.3528 9.94797 17.5814 9.78857C17.6606 9.73338 17.7416 9.68127 17.8224 9.62916C17.8539 9.6086 17.8841 9.55854 17.924 9.58632C17.9661 9.6158 17.9483 9.67065 17.9342 9.71247C17.8928 9.83622 17.8505 9.95997 17.8011 10.0806C17.3775 11.1224 16.5777 11.6496 15.4821 11.77C15.2501 11.7953 15.018 11.8169 14.7842 11.7957C15.0543 11.6949 15.3419 11.6476 15.6056 11.5259C16.211 11.2469 16.6631 10.8303 16.8434 10.1657Z" fill="#262F71"/>
<path d="M16.8435 10.1655C16.6632 10.8302 16.2111 11.2464 15.606 11.5254C15.3425 11.6471 15.0548 11.6944 14.7847 11.7952C14.7069 11.6187 14.7744 11.3221 14.9373 11.1339C15.0915 10.9553 15.275 10.8165 15.4868 10.7102C15.9242 10.4908 16.3829 10.3263 16.8435 10.1655Z" fill="#418AC9"/>
<path d="M10.5985 14.7478C10.5817 14.8005 10.5728 14.8568 10.5087 14.9222C10.5334 14.8084 10.4799 14.7491 10.4151 14.6987C10.3428 14.6425 10.2571 14.6418 10.1721 14.6579C9.94855 14.7011 9.7607 14.8108 9.60575 14.9754C9.55673 15.0274 9.51662 15.0882 9.45526 15.1669C9.40795 15.0535 9.4604 15.0106 9.46246 14.9596C9.53204 14.9521 9.54473 14.8897 9.57421 14.8434C9.71956 14.6154 9.88993 14.4104 10.1467 14.3038C10.3633 14.2137 10.6136 14.2517 10.5807 14.5818C10.5752 14.637 10.5659 14.6953 10.5985 14.7478Z" fill="#418AC9"/>
<path d="M10.5984 14.7472C10.5659 14.6948 10.5751 14.6365 10.5806 14.5813C10.6135 14.2508 10.3633 14.2131 10.1466 14.3033C9.88987 14.4099 9.7195 14.6149 9.57415 14.8429C9.54466 14.8891 9.53199 14.9515 9.4624 14.9591C9.50902 14.5717 9.94026 14.0273 10.3256 13.9739C10.5028 13.9492 10.6492 14.0517 10.6783 14.233C10.7074 14.413 10.6574 14.581 10.5984 14.7472Z" fill="#262F71"/>
<path d="M18.2731 11.542C18.2728 11.5451 18.2723 11.5508 18.2723 11.5508C18.27 11.553 18.2625 11.5546 18.2625 11.5546C18.2493 11.5486 18.2499 11.5417 18.2635 11.5373C18.2663 11.5363 18.27 11.5401 18.2731 11.542Z" fill="#262F71"/>
<path d="M30.3021 14.768C30.2763 14.7403 30.1941 14.7608 30.2285 14.6816C30.2822 14.6858 30.2805 14.7368 30.3021 14.768Z" fill="#FEFEFE"/>
<path d="M30.4088 14.8804C30.4162 14.888 30.4301 14.9025 30.4301 14.9025C30.4148 14.9239 30.4027 14.9097 30.3911 14.8972C30.397 14.8913 30.403 14.8856 30.4088 14.8804Z" fill="#262F71"/>
<path d="M23.0586 6.71777C23.0736 6.71875 23.0881 6.71974 23.1033 6.72073C23.0949 6.72633 23.0862 6.73227 23.0778 6.73788C23.0701 6.73194 23.0638 6.72501 23.0586 6.71777Z" fill="#FEFEFE"/>
</g>
<defs>
<clipPath id="clip0_118_4032">
<rect width="36" height="36" fill="white"/>
</clipPath>
</defs>
</svg>
