<svg width="36" height="36" viewBox="0 0 36 36" fill="none" xmlns="http://www.w3.org/2000/svg">
<g clip-path="url(#clip0_118_4063)">
<path d="M17.9999 36C27.9412 36 35.9999 27.9411 35.9999 18C35.9999 8.05887 27.9412 0 17.9999 0C8.05887 0 0 8.05887 0 18C0 27.9411 8.05887 36 17.9999 36Z" fill="#F0B90B"/>
<path d="M18.0002 6L20.9734 9.04478L13.4868 16.5314L10.5137 13.5582L18.0002 6Z" fill="white"/>
<path d="M22.5137 10.5132L25.4867 13.558L13.4868 25.5579L10.5137 22.5847L22.5137 10.5132Z" fill="white"/>
<path d="M8.97313 15.0264L11.9463 18.0711L8.97313 21.0442L6 18.0711L8.97313 15.0264Z" fill="white"/>
<path d="M27.0269 15.0264L30 18.0711L18 30.0711L15.0269 27.0979L27.0269 15.0264Z" fill="white"/>
<path d="M35.2499 18C35.2499 27.5269 27.5269 35.25 17.9999 35.25C8.47308 35.25 0.75 27.5269 0.75 18C0.75 8.47309 8.47308 0.75 17.9999 0.75C27.5269 0.75 35.2499 8.47309 35.2499 18Z" stroke="black" stroke-opacity="0.097"/>
</g>
<defs>
<clipPath id="clip0_118_4063">
<rect width="36" height="36" fill="white"/>
</clipPath>
</defs>
</svg>
