<svg width="48" height="48" viewBox="0 0 48 48" fill="none" xmlns="http://www.w3.org/2000/svg">
<path d="M45.8 24.8L40.8 5.8C40.2 3.6 38.2 2 36 2H12C9.8 2 7.8 3.6 7.2 5.8L2.2 24.8C1 25.6 0 27.2 0 29V41C0 43.8 2.2 46 5 46H43C45.8 46 48 43.8 48 41V29C48 27.2 47 25.6 45.8 24.8ZM9.2 6.2C9.6 5 10.8 4 12 4H36C37.4 4 38.6 5 39 6.2L43.6 24C43.4 24 43.4 24 43.2 24H38.4C36.8 24 35.2 24.8 34.2 26.2L32.6 28.6C32 29.4 31.2 30 30 30H18.2C17.2 30 16.2 29.4 15.6 28.6L14 26.2C13.2 24.8 11.6 24 9.8 24H5C4.8 24 4.8 24 4.6 24L9.2 6.2ZM46 41C46 42.6 44.6 44 43 44H5C3.4 44 2 42.6 2 41V29C2 27.4 3.4 26 5 26H9.8C10.8 26 11.8 26.6 12.4 27.4L14 29.8C15 31.2 16.4 32 18.2 32H29.8C31.4 32 33 31.2 34 29.8L35.6 27.4C36.2 26.6 37 26 38.2 26H43C44.6 26 46 27.4 46 29V41Z" fill="black" fill-opacity="0.76"/>
<path d="M11 40H7C6.4 40 6 39.6 6 39V37C6 36.4 5.6 36 5 36C4.4 36 4 36.4 4 37V39C4 40.6 5.4 42 7 42H11C11.6 42 12 41.6 12 41C12 40.4 11.6 40 11 40Z" fill="black" fill-opacity="0.76"/>
<path d="M5 34C5.55228 34 6 33.5523 6 33C6 32.4477 5.55228 32 5 32C4.44772 32 4 32.4477 4 33C4 33.5523 4.44772 34 5 34Z" fill="black" fill-opacity="0.76"/>
<path fill-rule="evenodd" clip-rule="evenodd" d="M17.7494 7.78124C19.3259 6.72008 21.2057 6.08338 23.2219 6V10.2447C22.1305 10.3129 21.1148 10.6616 20.2431 11.2149L17.7494 7.78124Z" fill="#3DC1F2"/>
<path fill-rule="evenodd" clip-rule="evenodd" d="M13.6713 12.9352C14.3535 11.0858 15.5359 9.47885 17.0595 8.28125L19.5532 11.7149C18.7422 12.3895 18.1055 13.2612 17.7113 14.2541L13.6713 12.9352Z" fill="#3DC1F2"/>
<path fill-rule="evenodd" clip-rule="evenodd" d="M13.4061 19.5077C13.1484 18.5905 13.012 17.6279 13.012 16.6274C13.012 15.6269 13.1484 14.6642 13.4061 13.7471L17.4462 15.0584C17.3173 15.5586 17.2491 16.0816 17.2491 16.6274C17.2491 17.1655 17.3173 17.6961 17.4462 18.1964L13.4061 19.5077Z" fill="#3DC1F2"/>
<path fill-rule="evenodd" clip-rule="evenodd" d="M17.0595 24.9789C15.5435 23.7813 14.3535 22.1744 13.6713 20.325L17.7113 19.0137C18.1055 20.0066 18.7498 20.8783 19.5532 21.5529L17.0595 24.9789Z" fill="#3DC1F2"/>
<path fill-rule="evenodd" clip-rule="evenodd" d="M23.2219 27.2608C21.1981 27.1774 19.3259 26.5407 17.7494 25.4795L20.2431 22.0459C21.1148 22.5992 22.1305 22.9403 23.2219 23.0161V27.2608Z" fill="#3DC1F2"/>
<path fill-rule="evenodd" clip-rule="evenodd" d="M29.5511 25.4795C27.9745 26.5331 26.0948 27.1774 24.0786 27.2608V23.0161C25.17 22.9479 26.1857 22.5992 27.0574 22.0459L29.5511 25.4795Z" fill="#3DC1F2"/>
<path fill-rule="evenodd" clip-rule="evenodd" d="M33.629 20.3179C32.9468 22.1674 31.7644 23.7743 30.2408 24.9719L27.7471 21.5382C28.5581 20.8636 29.1948 19.992 29.589 18.999L33.629 20.3179Z" fill="#3DC1F2"/>
<path fill-rule="evenodd" clip-rule="evenodd" d="M33.8944 13.7471C34.1521 14.6642 34.2885 15.6269 34.2885 16.6274C34.2885 17.6279 34.1521 18.5905 33.8944 19.5077L29.8544 18.1964C29.9832 17.6961 30.0514 17.1731 30.0514 16.6274C30.0514 16.0892 29.9832 15.5586 29.8544 15.0584L33.8944 13.7471Z" fill="#3DC1F2"/>
<path fill-rule="evenodd" clip-rule="evenodd" d="M30.2483 8.28125C31.7643 9.47885 32.9543 11.0858 33.6365 12.9352L29.5965 14.2465C29.2023 13.2536 28.5581 12.3819 27.7546 11.7073L30.2483 8.28125Z" fill="#3DC1F2"/>
<path fill-rule="evenodd" clip-rule="evenodd" d="M24.0786 6C26.1023 6.08338 27.9745 6.72008 29.5511 7.78124L27.0574 11.2149C26.1857 10.6616 25.17 10.3129 24.0786 10.2447V6Z" fill="#3DC1F2"/>
</svg>
