<svg width="321" height="306" viewBox="0 0 321 306" fill="none" xmlns="http://www.w3.org/2000/svg">
<path d="M0 4C0 1.79086 1.79086 0 4 0H317C319.209 0 321 1.79086 321 4V88C321 90.2091 319.209 92 317 92H4C1.79086 92 0 90.2091 0 88V4Z" fill="#1D1D20"/>
<path d="M247.343 30V18.8H251.631C252.303 18.8 252.9 18.9333 253.423 19.2C253.956 19.456 254.377 19.824 254.687 20.304C254.996 20.784 255.151 21.3653 255.151 22.048V22.256C255.151 22.928 254.991 23.5093 254.671 24C254.361 24.48 253.94 24.848 253.407 25.104C252.873 25.36 252.281 25.488 251.631 25.488H248.687V30H247.343ZM248.687 24.272H251.487C252.201 24.272 252.767 24.096 253.183 23.744C253.599 23.3813 253.807 22.8747 253.807 22.224V22.064C253.807 21.4133 253.599 20.912 253.183 20.56C252.777 20.1973 252.212 20.016 251.487 20.016H248.687V24.272ZM260.334 30.224C259.545 30.224 258.851 30.0587 258.254 29.728C257.657 29.3867 257.193 28.912 256.862 28.304C256.531 27.696 256.366 26.992 256.366 26.192V26C256.366 25.1893 256.531 24.48 256.862 23.872C257.193 23.264 257.651 22.7947 258.238 22.464C258.825 22.1227 259.497 21.952 260.254 21.952C260.99 21.952 261.641 22.112 262.206 22.432C262.771 22.7413 263.214 23.1893 263.534 23.776C263.854 24.3627 264.014 25.0507 264.014 25.84V26.416H257.63C257.662 27.2587 257.934 27.92 258.446 28.4C258.958 28.8693 259.598 29.104 260.366 29.104C261.038 29.104 261.555 28.9493 261.918 28.64C262.281 28.3307 262.558 27.9627 262.75 27.536L263.838 28.064C263.678 28.3947 263.454 28.7253 263.166 29.056C262.889 29.3867 262.521 29.664 262.062 29.888C261.614 30.112 261.038 30.224 260.334 30.224ZM257.646 25.376H262.734C262.691 24.6507 262.441 24.0853 261.982 23.68C261.534 23.2747 260.958 23.072 260.254 23.072C259.539 23.072 258.953 23.2747 258.494 23.68C258.035 24.0853 257.753 24.6507 257.646 25.376ZM266.219 30V22.176H267.451V23.504H267.675C267.845 23.1307 268.133 22.7947 268.539 22.496C268.955 22.1867 269.563 22.032 270.363 22.032C270.949 22.032 271.472 22.1547 271.931 22.4C272.4 22.6453 272.773 23.008 273.051 23.488C273.328 23.968 273.467 24.56 273.467 25.264V30H272.203V25.36C272.203 24.5813 272.005 24.016 271.611 23.664C271.227 23.312 270.704 23.136 270.043 23.136C269.285 23.136 268.667 23.3813 268.187 23.872C267.717 24.3627 267.483 25.0933 267.483 26.064V30H266.219ZM279.343 30.224C278.671 30.224 278.052 30.064 277.487 29.744C276.922 29.424 276.474 28.96 276.143 28.352C275.812 27.744 275.647 27.024 275.647 26.192V25.984C275.647 25.152 275.812 24.4373 276.143 23.84C276.474 23.232 276.916 22.768 277.471 22.448C278.036 22.1173 278.66 21.952 279.343 21.952C279.887 21.952 280.346 22.0267 280.719 22.176C281.103 22.3147 281.412 22.496 281.647 22.72C281.882 22.9333 282.063 23.1627 282.191 23.408H282.415V18.8H283.679V30H282.447V28.704H282.223C282.01 29.0987 281.679 29.4507 281.231 29.76C280.783 30.0693 280.154 30.224 279.343 30.224ZM279.679 29.104C280.49 29.104 281.146 28.848 281.647 28.336C282.159 27.8133 282.415 27.088 282.415 26.16V26.016C282.415 25.088 282.159 24.368 281.647 23.856C281.146 23.3333 280.49 23.072 279.679 23.072C278.879 23.072 278.218 23.3333 277.695 23.856C277.183 24.368 276.927 25.088 276.927 26.016V26.16C276.927 27.088 277.183 27.8133 277.695 28.336C278.218 28.848 278.879 29.104 279.679 29.104ZM286.328 30V22.176H287.592V30H286.328ZM286.968 20.96C286.691 20.96 286.456 20.8693 286.264 20.688C286.083 20.5067 285.992 20.2773 285.992 20C285.992 19.712 286.083 19.4773 286.264 19.296C286.456 19.1147 286.691 19.024 286.968 19.024C287.245 19.024 287.475 19.1147 287.656 19.296C287.837 19.4773 287.928 19.712 287.928 20C287.928 20.2773 287.837 20.5067 287.656 20.688C287.475 20.8693 287.245 20.96 286.968 20.96ZM290.25 30V22.176H291.482V23.504H291.706C291.877 23.1307 292.165 22.7947 292.57 22.496C292.986 22.1867 293.594 22.032 294.394 22.032C294.981 22.032 295.503 22.1547 295.962 22.4C296.431 22.6453 296.805 23.008 297.082 23.488C297.359 23.968 297.498 24.56 297.498 25.264V30H296.234V25.36C296.234 24.5813 296.037 24.016 295.642 23.664C295.258 23.312 294.735 23.136 294.074 23.136C293.317 23.136 292.698 23.3813 292.218 23.872C291.749 24.3627 291.514 25.0933 291.514 26.064V30H290.25ZM299.678 26.128V25.904C299.678 25.0827 299.844 24.3787 300.174 23.792C300.505 23.2053 300.953 22.752 301.518 22.432C302.084 22.112 302.702 21.952 303.374 21.952C304.196 21.952 304.825 22.112 305.262 22.432C305.71 22.7413 306.041 23.088 306.254 23.472H306.478V22.176H307.678V31.824C307.678 32.2507 307.561 32.5867 307.326 32.832C307.092 33.0773 306.75 33.2 306.302 33.2H300.99V32.08H305.966C306.286 32.08 306.446 31.92 306.446 31.6V28.624H306.222C306.094 28.8587 305.913 29.088 305.678 29.312C305.444 29.536 305.14 29.7227 304.766 29.872C304.393 30.0107 303.929 30.08 303.374 30.08C302.702 30.08 302.084 29.92 301.518 29.6C300.953 29.28 300.505 28.8267 300.174 28.24C299.844 27.6427 299.678 26.9387 299.678 26.128ZM303.71 28.96C304.521 28.96 305.177 28.704 305.678 28.192C306.19 27.68 306.446 26.976 306.446 26.08V25.952C306.446 25.0453 306.19 24.3413 305.678 23.84C305.177 23.328 304.521 23.072 303.71 23.072C302.91 23.072 302.249 23.328 301.726 23.84C301.214 24.3413 300.958 25.0453 300.958 25.952V26.08C300.958 26.976 301.214 27.68 301.726 28.192C302.249 28.704 302.91 28.96 303.71 28.96Z" fill="#FF8A00"/>
<path d="M14.28 30V18.8H21.176V20.016H15.624V23.76H20.728V24.976H15.624V28.784H21.256V30H14.28ZM26.2236 30C25.7756 30 25.429 29.8773 25.1836 29.632C24.949 29.3867 24.8316 29.0507 24.8316 28.624V23.28H22.4796V22.176H24.8316V19.392H26.0956V22.176H28.6556V23.28H26.0956V28.432C26.0956 28.752 26.2503 28.912 26.5596 28.912H28.3036V30H26.2236ZM30.703 30V18.8H31.967V23.424H32.191C32.2977 23.1893 32.4577 22.9707 32.671 22.768C32.895 22.5547 33.1777 22.3787 33.519 22.24C33.871 22.1013 34.3137 22.032 34.847 22.032C35.4337 22.032 35.9563 22.16 36.415 22.416C36.8843 22.6613 37.2577 23.024 37.535 23.504C37.8123 23.9733 37.951 24.56 37.951 25.264V30H36.687V25.36C36.687 24.5813 36.4897 24.016 36.095 23.664C35.711 23.312 35.1883 23.136 34.527 23.136C33.7697 23.136 33.151 23.3813 32.671 23.872C32.2017 24.3627 31.967 25.0933 31.967 26.064V30H30.703ZM44.0995 30.224C43.3102 30.224 42.6168 30.0587 42.0195 29.728C41.4222 29.3867 40.9582 28.912 40.6275 28.304C40.2968 27.696 40.1315 26.992 40.1315 26.192V26C40.1315 25.1893 40.2968 24.48 40.6275 23.872C40.9582 23.264 41.4168 22.7947 42.0035 22.464C42.5902 22.1227 43.2622 21.952 44.0195 21.952C44.7555 21.952 45.4062 22.112 45.9715 22.432C46.5368 22.7413 46.9795 23.1893 47.2995 23.776C47.6195 24.3627 47.7795 25.0507 47.7795 25.84V26.416H41.3955C41.4275 27.2587 41.6995 27.92 42.2115 28.4C42.7235 28.8693 43.3635 29.104 44.1315 29.104C44.8035 29.104 45.3208 28.9493 45.6835 28.64C46.0462 28.3307 46.3235 27.9627 46.5155 27.536L47.6035 28.064C47.4435 28.3947 47.2195 28.7253 46.9315 29.056C46.6542 29.3867 46.2862 29.664 45.8275 29.888C45.3795 30.112 44.8035 30.224 44.0995 30.224ZM41.4115 25.376H46.4995C46.4568 24.6507 46.2062 24.0853 45.7475 23.68C45.2995 23.2747 44.7235 23.072 44.0195 23.072C43.3048 23.072 42.7182 23.2747 42.2595 23.68C41.8008 24.0853 41.5182 24.6507 41.4115 25.376ZM49.9843 30V22.176H51.2163V23.136H51.4403C51.5789 22.7947 51.7923 22.544 52.0803 22.384C52.3683 22.224 52.7469 22.144 53.2163 22.144H54.1443V23.296H53.1363C52.5709 23.296 52.1123 23.456 51.7603 23.776C51.4189 24.0853 51.2483 24.5707 51.2483 25.232V30H49.9843ZM59.3183 30.224C58.5289 30.224 57.8356 30.0587 57.2383 29.728C56.6409 29.3867 56.1769 28.912 55.8463 28.304C55.5156 27.696 55.3503 26.992 55.3503 26.192V26C55.3503 25.1893 55.5156 24.48 55.8463 23.872C56.1769 23.264 56.6356 22.7947 57.2223 22.464C57.8089 22.1227 58.4809 21.952 59.2383 21.952C59.9743 21.952 60.6249 22.112 61.1903 22.432C61.7556 22.7413 62.1983 23.1893 62.5183 23.776C62.8383 24.3627 62.9983 25.0507 62.9983 25.84V26.416H56.6143C56.6463 27.2587 56.9183 27.92 57.4303 28.4C57.9423 28.8693 58.5823 29.104 59.3503 29.104C60.0223 29.104 60.5396 28.9493 60.9023 28.64C61.2649 28.3307 61.5423 27.9627 61.7343 27.536L62.8223 28.064C62.6623 28.3947 62.4383 28.7253 62.1503 29.056C61.8729 29.3867 61.5049 29.664 61.0463 29.888C60.5983 30.112 60.0223 30.224 59.3183 30.224ZM56.6303 25.376H61.7183C61.6756 24.6507 61.4249 24.0853 60.9663 23.68C60.5183 23.2747 59.9423 23.072 59.2383 23.072C58.5236 23.072 57.9369 23.2747 57.4783 23.68C57.0196 24.0853 56.7369 24.6507 56.6303 25.376ZM68.195 30.144C67.6297 30.144 67.107 30.0213 66.627 29.776C66.1577 29.5307 65.7843 29.168 65.507 28.688C65.2403 28.1973 65.107 27.6053 65.107 26.912V22.176H66.371V26.816C66.371 27.5947 66.563 28.16 66.947 28.512C67.3417 28.864 67.8697 29.04 68.531 29.04C69.2777 29.04 69.891 28.7947 70.371 28.304C70.851 27.8133 71.091 27.0827 71.091 26.112V22.176H72.355V30H71.123V28.672H70.899C70.7283 29.0453 70.435 29.3867 70.019 29.696C69.603 29.9947 68.995 30.144 68.195 30.144ZM74.9999 30V22.176H76.2319V23.152H76.4559C76.6052 22.8747 76.8505 22.6187 77.1919 22.384C77.5332 22.1493 78.0132 22.032 78.6319 22.032C79.2399 22.032 79.7305 22.1653 80.1039 22.432C80.4879 22.6987 80.7652 23.024 80.9359 23.408H81.1599C81.3412 23.024 81.6132 22.6987 81.9759 22.432C82.3492 22.1653 82.8665 22.032 83.5279 22.032C84.0505 22.032 84.5092 22.1387 84.9039 22.352C85.2985 22.5653 85.6079 22.8747 85.8319 23.28C86.0665 23.6747 86.1839 24.1493 86.1839 24.704V30H84.9199V24.816C84.9199 24.2933 84.7652 23.8827 84.4559 23.584C84.1572 23.2747 83.7359 23.12 83.1919 23.12C82.6159 23.12 82.1412 23.3067 81.7679 23.68C81.4052 24.0533 81.2239 24.592 81.2239 25.296V30H79.9599V24.816C79.9599 24.2933 79.8052 23.8827 79.4959 23.584C79.1972 23.2747 78.7759 23.12 78.2319 23.12C77.6559 23.12 77.1812 23.3067 76.8079 23.68C76.4452 24.0533 76.2639 24.592 76.2639 25.296V30H74.9999Z" fill="white"/>
<path d="M143.976 30V28.368L148.952 23.456V23.28H144.136V22.176H150.28V23.808L145.288 28.72V28.912H150.408V30H143.976ZM152.672 30V18.8H153.936V25.392H154.16L157.744 22.176H159.504L155.168 25.984L159.632 30H157.888L154.16 26.592H153.936V30H152.672ZM161.233 30V18.8H168.129V20.016H162.577V23.76H167.681V24.976H162.577V28.784H168.209V30H161.233ZM172.745 30L169.369 18.8H170.761L173.817 29.184H174.025L177.081 18.8H178.473L175.097 30H172.745ZM180.155 30V18.8H182.715L185.691 29.152H185.899L188.875 18.8H191.435V30H190.139V19.68H189.915L186.955 30H184.635L181.675 19.68H181.451V30H180.155Z" fill="white"/>
<rect x="97.5" y="9.5" width="29" height="29" rx="7.5" fill="black" fill-opacity="0.4" stroke="#1D1D20"/>
<path d="M114.946 20L118.556 23.6099" stroke="#3DC1F2" stroke-width="2" stroke-linecap="round"/>
<path d="M114.946 27.2197L118.556 23.6098" stroke="#3DC1F2" stroke-width="2" stroke-linecap="round"/>
<path d="M117.598 23.647L105 23.647" stroke="#3DC1F2" stroke-width="2" stroke-linecap="round"/>
<rect opacity="0.2" x="13" y="49" width="293" height="17" rx="8.5" fill="url(#paint0_linear_114_1378)"/>
<rect opacity="0.2" x="13" y="71" width="293" height="12" rx="6" fill="url(#paint1_linear_114_1378)"/>
<path d="M0 111C0 108.791 1.79086 107 4 107H317C319.209 107 321 108.791 321 111V195C321 197.209 319.209 199 317 199H4C1.79086 199 0 197.209 0 195V111Z" fill="#1D1D20"/>
<path d="M273.25 137.224C271.917 137.224 270.855 136.84 270.066 136.072C269.277 135.293 268.882 134.163 268.882 132.68V130.12C268.882 128.637 269.277 127.512 270.066 126.744C270.855 125.965 271.917 125.576 273.25 125.576C274.573 125.576 275.586 125.944 276.29 126.68C277.005 127.416 277.362 128.424 277.362 129.704V129.784H276.034V129.656C276.034 128.813 275.805 128.125 275.346 127.592C274.898 127.048 274.199 126.776 273.25 126.776C272.301 126.776 271.559 127.069 271.026 127.656C270.493 128.232 270.226 129.043 270.226 130.088V132.712C270.226 133.757 270.493 134.573 271.026 135.16C271.559 135.736 272.301 136.024 273.25 136.024C274.199 136.024 274.898 135.757 275.346 135.224C275.805 134.68 276.034 133.987 276.034 133.144V132.888H277.362V133.096C277.362 134.376 277.005 135.384 276.29 136.12C275.586 136.856 274.573 137.224 273.25 137.224ZM279.516 137V125.8H280.78V137H279.516ZM285.837 137.224C285.293 137.224 284.797 137.128 284.349 136.936C283.901 136.744 283.549 136.467 283.293 136.104C283.037 135.741 282.909 135.299 282.909 134.776C282.909 134.243 283.037 133.805 283.293 133.464C283.549 133.112 283.901 132.851 284.349 132.68C284.797 132.499 285.299 132.408 285.853 132.408H288.493V131.832C288.493 131.277 288.328 130.84 287.997 130.52C287.677 130.2 287.197 130.04 286.557 130.04C285.928 130.04 285.437 130.195 285.085 130.504C284.733 130.803 284.493 131.208 284.365 131.72L283.181 131.336C283.309 130.899 283.512 130.504 283.789 130.152C284.067 129.789 284.435 129.501 284.893 129.288C285.363 129.064 285.923 128.952 286.573 128.952C287.576 128.952 288.355 129.213 288.909 129.736C289.464 130.248 289.741 130.973 289.741 131.912V135.448C289.741 135.768 289.891 135.928 290.189 135.928H290.909V137H289.805C289.453 137 289.171 136.904 288.957 136.712C288.744 136.509 288.637 136.243 288.637 135.912V135.832H288.445C288.328 136.035 288.168 136.248 287.965 136.472C287.773 136.685 287.507 136.861 287.165 137C286.824 137.149 286.381 137.224 285.837 137.224ZM285.981 136.136C286.728 136.136 287.331 135.917 287.789 135.48C288.259 135.032 288.493 134.408 288.493 133.608V133.432H285.901C285.4 133.432 284.984 133.544 284.653 133.768C284.333 133.981 284.173 134.307 284.173 134.744C284.173 135.181 284.339 135.523 284.669 135.768C285.011 136.013 285.448 136.136 285.981 136.136ZM292.641 137V129.176H293.905V137H292.641ZM293.281 127.96C293.003 127.96 292.769 127.869 292.577 127.688C292.395 127.507 292.305 127.277 292.305 127C292.305 126.712 292.395 126.477 292.577 126.296C292.769 126.115 293.003 126.024 293.281 126.024C293.558 126.024 293.787 126.115 293.969 126.296C294.15 126.477 294.241 126.712 294.241 127C294.241 127.277 294.15 127.507 293.969 127.688C293.787 127.869 293.558 127.96 293.281 127.96ZM296.562 137V129.176H297.794V130.152H298.018C298.168 129.875 298.413 129.619 298.754 129.384C299.096 129.149 299.576 129.032 300.194 129.032C300.802 129.032 301.293 129.165 301.666 129.432C302.05 129.699 302.328 130.024 302.498 130.408H302.722C302.904 130.024 303.176 129.699 303.538 129.432C303.912 129.165 304.429 129.032 305.09 129.032C305.613 129.032 306.072 129.139 306.466 129.352C306.861 129.565 307.17 129.875 307.394 130.28C307.629 130.675 307.746 131.149 307.746 131.704V137H306.482V131.816C306.482 131.293 306.328 130.883 306.018 130.584C305.72 130.275 305.298 130.12 304.754 130.12C304.178 130.12 303.704 130.307 303.33 130.68C302.968 131.053 302.786 131.592 302.786 132.296V137H301.522V131.816C301.522 131.293 301.368 130.883 301.058 130.584C300.76 130.275 300.338 130.12 299.794 130.12C299.218 130.12 298.744 130.307 298.37 130.68C298.008 131.053 297.826 131.592 297.826 132.296V137H296.562Z" fill="#00B7FF"/>
<path d="M14.28 137V125.8H21.176V127.016H15.624V130.76H20.728V131.976H15.624V135.784H21.256V137H14.28ZM26.2236 137C25.7756 137 25.429 136.877 25.1836 136.632C24.949 136.387 24.8316 136.051 24.8316 135.624V130.28H22.4796V129.176H24.8316V126.392H26.0956V129.176H28.6556V130.28H26.0956V135.432C26.0956 135.752 26.2503 135.912 26.5596 135.912H28.3036V137H26.2236ZM30.703 137V125.8H31.967V130.424H32.191C32.2977 130.189 32.4577 129.971 32.671 129.768C32.895 129.555 33.1777 129.379 33.519 129.24C33.871 129.101 34.3137 129.032 34.847 129.032C35.4337 129.032 35.9563 129.16 36.415 129.416C36.8843 129.661 37.2577 130.024 37.535 130.504C37.8123 130.973 37.951 131.56 37.951 132.264V137H36.687V132.36C36.687 131.581 36.4897 131.016 36.095 130.664C35.711 130.312 35.1883 130.136 34.527 130.136C33.7697 130.136 33.151 130.381 32.671 130.872C32.2017 131.363 31.967 132.093 31.967 133.064V137H30.703ZM44.0995 137.224C43.3102 137.224 42.6168 137.059 42.0195 136.728C41.4222 136.387 40.9582 135.912 40.6275 135.304C40.2968 134.696 40.1315 133.992 40.1315 133.192V133C40.1315 132.189 40.2968 131.48 40.6275 130.872C40.9582 130.264 41.4168 129.795 42.0035 129.464C42.5902 129.123 43.2622 128.952 44.0195 128.952C44.7555 128.952 45.4062 129.112 45.9715 129.432C46.5368 129.741 46.9795 130.189 47.2995 130.776C47.6195 131.363 47.7795 132.051 47.7795 132.84V133.416H41.3955C41.4275 134.259 41.6995 134.92 42.2115 135.4C42.7235 135.869 43.3635 136.104 44.1315 136.104C44.8035 136.104 45.3208 135.949 45.6835 135.64C46.0462 135.331 46.3235 134.963 46.5155 134.536L47.6035 135.064C47.4435 135.395 47.2195 135.725 46.9315 136.056C46.6542 136.387 46.2862 136.664 45.8275 136.888C45.3795 137.112 44.8035 137.224 44.0995 137.224ZM41.4115 132.376H46.4995C46.4568 131.651 46.2062 131.085 45.7475 130.68C45.2995 130.275 44.7235 130.072 44.0195 130.072C43.3048 130.072 42.7182 130.275 42.2595 130.68C41.8008 131.085 41.5182 131.651 41.4115 132.376ZM49.9843 137V129.176H51.2163V130.136H51.4403C51.5789 129.795 51.7923 129.544 52.0803 129.384C52.3683 129.224 52.7469 129.144 53.2163 129.144H54.1443V130.296H53.1363C52.5709 130.296 52.1123 130.456 51.7603 130.776C51.4189 131.085 51.2483 131.571 51.2483 132.232V137H49.9843ZM59.3183 137.224C58.5289 137.224 57.8356 137.059 57.2383 136.728C56.6409 136.387 56.1769 135.912 55.8463 135.304C55.5156 134.696 55.3503 133.992 55.3503 133.192V133C55.3503 132.189 55.5156 131.48 55.8463 130.872C56.1769 130.264 56.6356 129.795 57.2223 129.464C57.8089 129.123 58.4809 128.952 59.2383 128.952C59.9743 128.952 60.6249 129.112 61.1903 129.432C61.7556 129.741 62.1983 130.189 62.5183 130.776C62.8383 131.363 62.9983 132.051 62.9983 132.84V133.416H56.6143C56.6463 134.259 56.9183 134.92 57.4303 135.4C57.9423 135.869 58.5823 136.104 59.3503 136.104C60.0223 136.104 60.5396 135.949 60.9023 135.64C61.2649 135.331 61.5423 134.963 61.7343 134.536L62.8223 135.064C62.6623 135.395 62.4383 135.725 62.1503 136.056C61.8729 136.387 61.5049 136.664 61.0463 136.888C60.5983 137.112 60.0223 137.224 59.3183 137.224ZM56.6303 132.376H61.7183C61.6756 131.651 61.4249 131.085 60.9663 130.68C60.5183 130.275 59.9423 130.072 59.2383 130.072C58.5236 130.072 57.9369 130.275 57.4783 130.68C57.0196 131.085 56.7369 131.651 56.6303 132.376ZM68.195 137.144C67.6297 137.144 67.107 137.021 66.627 136.776C66.1577 136.531 65.7843 136.168 65.507 135.688C65.2403 135.197 65.107 134.605 65.107 133.912V129.176H66.371V133.816C66.371 134.595 66.563 135.16 66.947 135.512C67.3417 135.864 67.8697 136.04 68.531 136.04C69.2777 136.04 69.891 135.795 70.371 135.304C70.851 134.813 71.091 134.083 71.091 133.112V129.176H72.355V137H71.123V135.672H70.899C70.7283 136.045 70.435 136.387 70.019 136.696C69.603 136.995 68.995 137.144 68.195 137.144ZM74.9999 137V129.176H76.2319V130.152H76.4559C76.6052 129.875 76.8505 129.619 77.1919 129.384C77.5332 129.149 78.0132 129.032 78.6319 129.032C79.2399 129.032 79.7305 129.165 80.1039 129.432C80.4879 129.699 80.7652 130.024 80.9359 130.408H81.1599C81.3412 130.024 81.6132 129.699 81.9759 129.432C82.3492 129.165 82.8665 129.032 83.5279 129.032C84.0505 129.032 84.5092 129.139 84.9039 129.352C85.2985 129.565 85.6079 129.875 85.8319 130.28C86.0665 130.675 86.1839 131.149 86.1839 131.704V137H84.9199V131.816C84.9199 131.293 84.7652 130.883 84.4559 130.584C84.1572 130.275 83.7359 130.12 83.1919 130.12C82.6159 130.12 82.1412 130.307 81.7679 130.68C81.4052 131.053 81.2239 131.592 81.2239 132.296V137H79.9599V131.816C79.9599 131.293 79.8052 130.883 79.4959 130.584C79.1972 130.275 78.7759 130.12 78.2319 130.12C77.6559 130.12 77.1812 130.307 76.8079 130.68C76.4452 131.053 76.2639 131.592 76.2639 132.296V137H74.9999Z" fill="white"/>
<path d="M143.976 137V135.368L148.952 130.456V130.28H144.136V129.176H150.28V130.808L145.288 135.72V135.912H150.408V137H143.976ZM152.672 137V125.8H153.936V132.392H154.16L157.744 129.176H159.504L155.168 132.984L159.632 137H157.888L154.16 133.592H153.936V137H152.672ZM161.233 137V125.8H168.129V127.016H162.577V130.76H167.681V131.976H162.577V135.784H168.209V137H161.233ZM172.745 137L169.369 125.8H170.761L173.817 136.184H174.025L177.081 125.8H178.473L175.097 137H172.745ZM180.155 137V125.8H182.715L185.691 136.152H185.899L188.875 125.8H191.435V137H190.139V126.68H189.915L186.955 137H184.635L181.675 126.68H181.451V137H180.155Z" fill="white"/>
<rect x="97.5" y="116.5" width="29" height="29" rx="7.5" fill="black" fill-opacity="0.4" stroke="#1D1D20"/>
<path d="M114.946 127L118.556 130.61" stroke="#3DC1F2" stroke-width="2" stroke-linecap="round"/>
<path d="M114.946 134.22L118.556 130.61" stroke="#3DC1F2" stroke-width="2" stroke-linecap="round"/>
<path d="M117.598 130.647L105 130.647" stroke="#3DC1F2" stroke-width="2" stroke-linecap="round"/>
<rect opacity="0.2" x="13" y="156" width="293" height="17" rx="8.5" fill="url(#paint2_linear_114_1378)"/>
<rect opacity="0.2" x="13" y="178" width="293" height="12" rx="6" fill="url(#paint3_linear_114_1378)"/>
<path d="M0 218C0 215.791 1.79086 214 4 214H317C319.209 214 321 215.791 321 218V302C321 304.209 319.209 306 317 306H4C1.79086 306 0 304.209 0 302V218Z" fill="#1D1D20"/>
<path d="M230.203 244.224C228.87 244.224 227.808 243.84 227.019 243.072C226.23 242.293 225.835 241.163 225.835 239.68V237.12C225.835 235.637 226.23 234.512 227.019 233.744C227.808 232.965 228.87 232.576 230.203 232.576C231.526 232.576 232.539 232.944 233.243 233.68C233.958 234.416 234.315 235.424 234.315 236.704V236.784H232.987V236.656C232.987 235.813 232.758 235.125 232.299 234.592C231.851 234.048 231.152 233.776 230.203 233.776C229.254 233.776 228.512 234.069 227.979 234.656C227.446 235.232 227.179 236.043 227.179 237.088V239.712C227.179 240.757 227.446 241.573 227.979 242.16C228.512 242.736 229.254 243.024 230.203 243.024C231.152 243.024 231.851 242.757 232.299 242.224C232.758 241.68 232.987 240.987 232.987 240.144V239.888H234.315V240.096C234.315 241.376 233.958 242.384 233.243 243.12C232.539 243.856 231.526 244.224 230.203 244.224ZM240.085 244.224C239.295 244.224 238.597 244.059 237.989 243.728C237.391 243.397 236.922 242.933 236.581 242.336C236.25 241.728 236.085 241.013 236.085 240.192V239.984C236.085 239.173 236.25 238.464 236.581 237.856C236.922 237.248 237.391 236.779 237.989 236.448C238.597 236.117 239.295 235.952 240.085 235.952C240.874 235.952 241.567 236.117 242.165 236.448C242.773 236.779 243.242 237.248 243.573 237.856C243.914 238.464 244.085 239.173 244.085 239.984V240.192C244.085 241.013 243.914 241.728 243.573 242.336C243.242 242.933 242.773 243.397 242.165 243.728C241.567 244.059 240.874 244.224 240.085 244.224ZM240.085 243.088C240.917 243.088 241.578 242.827 242.069 242.304C242.57 241.771 242.821 241.056 242.821 240.16V240.016C242.821 239.12 242.57 238.411 242.069 237.888C241.578 237.355 240.917 237.088 240.085 237.088C239.263 237.088 238.602 237.355 238.101 237.888C237.599 238.411 237.349 239.12 237.349 240.016V240.16C237.349 241.056 237.599 241.771 238.101 242.304C238.602 242.827 239.263 243.088 240.085 243.088ZM246.359 244V236.176H247.591V237.152H247.815C247.965 236.875 248.21 236.619 248.551 236.384C248.893 236.149 249.373 236.032 249.991 236.032C250.599 236.032 251.09 236.165 251.463 236.432C251.847 236.699 252.125 237.024 252.295 237.408H252.519C252.701 237.024 252.973 236.699 253.335 236.432C253.709 236.165 254.226 236.032 254.887 236.032C255.41 236.032 255.869 236.139 256.263 236.352C256.658 236.565 256.967 236.875 257.191 237.28C257.426 237.675 257.543 238.149 257.543 238.704V244H256.279V238.816C256.279 238.293 256.125 237.883 255.815 237.584C255.517 237.275 255.095 237.12 254.551 237.12C253.975 237.12 253.501 237.307 253.127 237.68C252.765 238.053 252.583 238.592 252.583 239.296V244H251.319V238.816C251.319 238.293 251.165 237.883 250.855 237.584C250.557 237.275 250.135 237.12 249.591 237.12C249.015 237.12 248.541 237.307 248.167 237.68C247.805 238.053 247.623 238.592 247.623 239.296V244H246.359ZM260.125 247.2V236.176H261.357V237.472H261.581C261.784 237.077 262.109 236.725 262.557 236.416C263.016 236.107 263.65 235.952 264.461 235.952C265.133 235.952 265.746 236.117 266.301 236.448C266.866 236.768 267.314 237.227 267.645 237.824C267.986 238.421 268.157 239.141 268.157 239.984V240.192C268.157 241.024 267.992 241.744 267.661 242.352C267.33 242.96 266.882 243.424 266.317 243.744C265.762 244.064 265.144 244.224 264.461 244.224C263.917 244.224 263.453 244.149 263.069 244C262.696 243.861 262.392 243.68 262.157 243.456C261.922 243.232 261.741 243.003 261.613 242.768H261.389V247.2H260.125ZM264.125 243.104C264.936 243.104 265.592 242.848 266.093 242.336C266.605 241.813 266.861 241.088 266.861 240.16V240.016C266.861 239.088 266.605 238.368 266.093 237.856C265.592 237.333 264.936 237.072 264.125 237.072C263.325 237.072 262.664 237.333 262.141 237.856C261.629 238.368 261.373 239.088 261.373 240.016V240.16C261.373 241.088 261.629 241.813 262.141 242.336C262.664 242.848 263.325 243.104 264.125 243.104ZM270.422 244V232.8H271.686V244H270.422ZM277.928 244.224C277.138 244.224 276.445 244.059 275.848 243.728C275.25 243.387 274.786 242.912 274.456 242.304C274.125 241.696 273.96 240.992 273.96 240.192V240C273.96 239.189 274.125 238.48 274.456 237.872C274.786 237.264 275.245 236.795 275.832 236.464C276.418 236.123 277.09 235.952 277.848 235.952C278.584 235.952 279.234 236.112 279.8 236.432C280.365 236.741 280.808 237.189 281.128 237.776C281.448 238.363 281.608 239.051 281.608 239.84V240.416H275.224C275.256 241.259 275.528 241.92 276.04 242.4C276.552 242.869 277.192 243.104 277.96 243.104C278.632 243.104 279.149 242.949 279.512 242.64C279.874 242.331 280.152 241.963 280.344 241.536L281.432 242.064C281.272 242.395 281.048 242.725 280.76 243.056C280.482 243.387 280.114 243.664 279.656 243.888C279.208 244.112 278.632 244.224 277.928 244.224ZM275.24 239.376H280.328C280.285 238.651 280.034 238.085 279.576 237.68C279.128 237.275 278.552 237.072 277.848 237.072C277.133 237.072 276.546 237.275 276.088 237.68C275.629 238.085 275.346 238.651 275.24 239.376ZM286.364 244C285.916 244 285.57 243.877 285.324 243.632C285.09 243.387 284.972 243.051 284.972 242.624V237.28H282.62V236.176H284.972V233.392H286.236V236.176H288.796V237.28H286.236V242.432C286.236 242.752 286.391 242.912 286.7 242.912H288.444V244H286.364ZM294.146 244.224C293.357 244.224 292.664 244.059 292.066 243.728C291.469 243.387 291.005 242.912 290.674 242.304C290.344 241.696 290.178 240.992 290.178 240.192V240C290.178 239.189 290.344 238.48 290.674 237.872C291.005 237.264 291.464 236.795 292.05 236.464C292.637 236.123 293.309 235.952 294.066 235.952C294.802 235.952 295.453 236.112 296.018 236.432C296.584 236.741 297.026 237.189 297.346 237.776C297.666 238.363 297.826 239.051 297.826 239.84V240.416H291.442C291.474 241.259 291.746 241.92 292.258 242.4C292.77 242.869 293.41 243.104 294.178 243.104C294.85 243.104 295.368 242.949 295.73 242.64C296.093 242.331 296.37 241.963 296.562 241.536L297.65 242.064C297.49 242.395 297.266 242.725 296.978 243.056C296.701 243.387 296.333 243.664 295.874 243.888C295.426 244.112 294.85 244.224 294.146 244.224ZM291.458 239.376H296.546C296.504 238.651 296.253 238.085 295.794 237.68C295.346 237.275 294.77 237.072 294.066 237.072C293.352 237.072 292.765 237.275 292.306 237.68C291.848 238.085 291.565 238.651 291.458 239.376ZM303.343 244.224C302.671 244.224 302.052 244.064 301.487 243.744C300.922 243.424 300.474 242.96 300.143 242.352C299.812 241.744 299.647 241.024 299.647 240.192V239.984C299.647 239.152 299.812 238.437 300.143 237.84C300.474 237.232 300.916 236.768 301.471 236.448C302.036 236.117 302.66 235.952 303.343 235.952C303.887 235.952 304.346 236.027 304.719 236.176C305.103 236.315 305.412 236.496 305.647 236.72C305.882 236.933 306.063 237.163 306.191 237.408H306.415V232.8H307.679V244H306.447V242.704H306.223C306.01 243.099 305.679 243.451 305.231 243.76C304.783 244.069 304.154 244.224 303.343 244.224ZM303.679 243.104C304.49 243.104 305.146 242.848 305.647 242.336C306.159 241.813 306.415 241.088 306.415 240.16V240.016C306.415 239.088 306.159 238.368 305.647 237.856C305.146 237.333 304.49 237.072 303.679 237.072C302.879 237.072 302.218 237.333 301.695 237.856C301.183 238.368 300.927 239.088 300.927 240.016V240.16C300.927 241.088 301.183 241.813 301.695 242.336C302.218 242.848 302.879 243.104 303.679 243.104Z" fill="#14FF00" fill-opacity="0.8"/>
<path d="M14.28 244V232.8H21.176V234.016H15.624V237.76H20.728V238.976H15.624V242.784H21.256V244H14.28ZM26.2236 244C25.7756 244 25.429 243.877 25.1836 243.632C24.949 243.387 24.8316 243.051 24.8316 242.624V237.28H22.4796V236.176H24.8316V233.392H26.0956V236.176H28.6556V237.28H26.0956V242.432C26.0956 242.752 26.2503 242.912 26.5596 242.912H28.3036V244H26.2236ZM30.703 244V232.8H31.967V237.424H32.191C32.2977 237.189 32.4577 236.971 32.671 236.768C32.895 236.555 33.1777 236.379 33.519 236.24C33.871 236.101 34.3137 236.032 34.847 236.032C35.4337 236.032 35.9563 236.16 36.415 236.416C36.8843 236.661 37.2577 237.024 37.535 237.504C37.8123 237.973 37.951 238.56 37.951 239.264V244H36.687V239.36C36.687 238.581 36.4897 238.016 36.095 237.664C35.711 237.312 35.1883 237.136 34.527 237.136C33.7697 237.136 33.151 237.381 32.671 237.872C32.2017 238.363 31.967 239.093 31.967 240.064V244H30.703ZM44.0995 244.224C43.3102 244.224 42.6168 244.059 42.0195 243.728C41.4222 243.387 40.9582 242.912 40.6275 242.304C40.2968 241.696 40.1315 240.992 40.1315 240.192V240C40.1315 239.189 40.2968 238.48 40.6275 237.872C40.9582 237.264 41.4168 236.795 42.0035 236.464C42.5902 236.123 43.2622 235.952 44.0195 235.952C44.7555 235.952 45.4062 236.112 45.9715 236.432C46.5368 236.741 46.9795 237.189 47.2995 237.776C47.6195 238.363 47.7795 239.051 47.7795 239.84V240.416H41.3955C41.4275 241.259 41.6995 241.92 42.2115 242.4C42.7235 242.869 43.3635 243.104 44.1315 243.104C44.8035 243.104 45.3208 242.949 45.6835 242.64C46.0462 242.331 46.3235 241.963 46.5155 241.536L47.6035 242.064C47.4435 242.395 47.2195 242.725 46.9315 243.056C46.6542 243.387 46.2862 243.664 45.8275 243.888C45.3795 244.112 44.8035 244.224 44.0995 244.224ZM41.4115 239.376H46.4995C46.4568 238.651 46.2062 238.085 45.7475 237.68C45.2995 237.275 44.7235 237.072 44.0195 237.072C43.3048 237.072 42.7182 237.275 42.2595 237.68C41.8008 238.085 41.5182 238.651 41.4115 239.376ZM49.9843 244V236.176H51.2163V237.136H51.4403C51.5789 236.795 51.7923 236.544 52.0803 236.384C52.3683 236.224 52.7469 236.144 53.2163 236.144H54.1443V237.296H53.1363C52.5709 237.296 52.1123 237.456 51.7603 237.776C51.4189 238.085 51.2483 238.571 51.2483 239.232V244H49.9843ZM59.3183 244.224C58.5289 244.224 57.8356 244.059 57.2383 243.728C56.6409 243.387 56.1769 242.912 55.8463 242.304C55.5156 241.696 55.3503 240.992 55.3503 240.192V240C55.3503 239.189 55.5156 238.48 55.8463 237.872C56.1769 237.264 56.6356 236.795 57.2223 236.464C57.8089 236.123 58.4809 235.952 59.2383 235.952C59.9743 235.952 60.6249 236.112 61.1903 236.432C61.7556 236.741 62.1983 237.189 62.5183 237.776C62.8383 238.363 62.9983 239.051 62.9983 239.84V240.416H56.6143C56.6463 241.259 56.9183 241.92 57.4303 242.4C57.9423 242.869 58.5823 243.104 59.3503 243.104C60.0223 243.104 60.5396 242.949 60.9023 242.64C61.2649 242.331 61.5423 241.963 61.7343 241.536L62.8223 242.064C62.6623 242.395 62.4383 242.725 62.1503 243.056C61.8729 243.387 61.5049 243.664 61.0463 243.888C60.5983 244.112 60.0223 244.224 59.3183 244.224ZM56.6303 239.376H61.7183C61.6756 238.651 61.4249 238.085 60.9663 237.68C60.5183 237.275 59.9423 237.072 59.2383 237.072C58.5236 237.072 57.9369 237.275 57.4783 237.68C57.0196 238.085 56.7369 238.651 56.6303 239.376ZM68.195 244.144C67.6297 244.144 67.107 244.021 66.627 243.776C66.1577 243.531 65.7843 243.168 65.507 242.688C65.2403 242.197 65.107 241.605 65.107 240.912V236.176H66.371V240.816C66.371 241.595 66.563 242.16 66.947 242.512C67.3417 242.864 67.8697 243.04 68.531 243.04C69.2777 243.04 69.891 242.795 70.371 242.304C70.851 241.813 71.091 241.083 71.091 240.112V236.176H72.355V244H71.123V242.672H70.899C70.7283 243.045 70.435 243.387 70.019 243.696C69.603 243.995 68.995 244.144 68.195 244.144ZM74.9999 244V236.176H76.2319V237.152H76.4559C76.6052 236.875 76.8505 236.619 77.1919 236.384C77.5332 236.149 78.0132 236.032 78.6319 236.032C79.2399 236.032 79.7305 236.165 80.1039 236.432C80.4879 236.699 80.7652 237.024 80.9359 237.408H81.1599C81.3412 237.024 81.6132 236.699 81.9759 236.432C82.3492 236.165 82.8665 236.032 83.5279 236.032C84.0505 236.032 84.5092 236.139 84.9039 236.352C85.2985 236.565 85.6079 236.875 85.8319 237.28C86.0665 237.675 86.1839 238.149 86.1839 238.704V244H84.9199V238.816C84.9199 238.293 84.7652 237.883 84.4559 237.584C84.1572 237.275 83.7359 237.12 83.1919 237.12C82.6159 237.12 82.1412 237.307 81.7679 237.68C81.4052 238.053 81.2239 238.592 81.2239 239.296V244H79.9599V238.816C79.9599 238.293 79.8052 237.883 79.4959 237.584C79.1972 237.275 78.7759 237.12 78.2319 237.12C77.6559 237.12 77.1812 237.307 76.8079 237.68C76.4452 238.053 76.2639 238.592 76.2639 239.296V244H74.9999Z" fill="white"/>
<path d="M143.976 244V242.368L148.952 237.456V237.28H144.136V236.176H150.28V237.808L145.288 242.72V242.912H150.408V244H143.976ZM152.672 244V232.8H153.936V239.392H154.16L157.744 236.176H159.504L155.168 239.984L159.632 244H157.888L154.16 240.592H153.936V244H152.672ZM161.233 244V232.8H168.129V234.016H162.577V237.76H167.681V238.976H162.577V242.784H168.209V244H161.233ZM172.745 244L169.369 232.8H170.761L173.817 243.184H174.025L177.081 232.8H178.473L175.097 244H172.745ZM180.155 244V232.8H182.715L185.691 243.152H185.899L188.875 232.8H191.435V244H190.139V233.68H189.915L186.955 244H184.635L181.675 233.68H181.451V244H180.155Z" fill="white"/>
<rect x="97.5" y="223.5" width="29" height="29" rx="7.5" fill="black" fill-opacity="0.4" stroke="#1D1D20"/>
<path d="M114.946 234L118.556 237.61" stroke="#3DC1F2" stroke-width="2" stroke-linecap="round"/>
<path d="M114.946 241.22L118.556 237.61" stroke="#3DC1F2" stroke-width="2" stroke-linecap="round"/>
<path d="M117.598 237.647L105 237.647" stroke="#3DC1F2" stroke-width="2" stroke-linecap="round"/>
<rect opacity="0.2" x="13" y="263" width="293" height="17" rx="8.5" fill="url(#paint4_linear_114_1378)"/>
<rect opacity="0.2" x="13" y="285" width="293" height="12" rx="6" fill="url(#paint5_linear_114_1378)"/>
<defs>
<linearGradient id="paint0_linear_114_1378" x1="13" y1="57.5" x2="306" y2="57.5" gradientUnits="userSpaceOnUse">
<stop stop-color="#737373"/>
<stop offset="0.82" stop-color="#D9D9D9" stop-opacity="0"/>
</linearGradient>
<linearGradient id="paint1_linear_114_1378" x1="13" y1="77" x2="306" y2="77" gradientUnits="userSpaceOnUse">
<stop stop-color="#737373"/>
<stop offset="0.82" stop-color="#D9D9D9" stop-opacity="0"/>
</linearGradient>
<linearGradient id="paint2_linear_114_1378" x1="13" y1="164.5" x2="306" y2="164.5" gradientUnits="userSpaceOnUse">
<stop stop-color="#737373"/>
<stop offset="0.82" stop-color="#D9D9D9" stop-opacity="0"/>
</linearGradient>
<linearGradient id="paint3_linear_114_1378" x1="13" y1="184" x2="306" y2="184" gradientUnits="userSpaceOnUse">
<stop stop-color="#737373"/>
<stop offset="0.82" stop-color="#D9D9D9" stop-opacity="0"/>
</linearGradient>
<linearGradient id="paint4_linear_114_1378" x1="13" y1="271.5" x2="306" y2="271.5" gradientUnits="userSpaceOnUse">
<stop stop-color="#737373"/>
<stop offset="0.82" stop-color="#D9D9D9" stop-opacity="0"/>
</linearGradient>
<linearGradient id="paint5_linear_114_1378" x1="13" y1="291" x2="306" y2="291" gradientUnits="userSpaceOnUse">
<stop stop-color="#737373"/>
<stop offset="0.82" stop-color="#D9D9D9" stop-opacity="0"/>
</linearGradient>
</defs>
</svg>
