<svg width="20" height="20" viewBox="0 0 20 20" fill="none" xmlns="http://www.w3.org/2000/svg">
<path d="M10.8863 20C10.2865 20 9.6866 20 9.09195 20C9.02414 19.9791 8.96154 19.9531 8.89373 19.9322C8.36167 19.7861 7.97567 19.4679 7.72007 18.9776C7.54272 18.6386 7.51142 18.2734 7.52707 17.8979C7.53229 17.7727 7.49577 17.7153 7.37058 17.6736C7.1202 17.5901 6.87504 17.4858 6.62987 17.3815C6.26473 17.225 6.26473 17.225 5.97784 17.5014C5.2267 18.2265 4.1365 18.2369 3.38014 17.5223C3.05151 17.2093 2.72811 16.8859 2.42035 16.5521C2.00826 16.1035 1.86742 15.561 1.98218 14.9611C2.05521 14.5543 2.26907 14.2256 2.56119 13.944C2.78548 13.7249 2.78027 13.7249 2.65508 13.4484C2.55597 13.2241 2.45686 12.9946 2.3734 12.7651C2.25864 12.4678 2.26386 12.4625 1.94567 12.4678C1.18409 12.4782 0.59987 12.16 0.224299 11.4975C0.119974 11.315 0.0730277 11.1011 0 10.9029C0 10.303 0 9.70315 0 9.1085C0.0156488 9.07199 0.0312976 9.04069 0.0365138 9.00418C0.177353 8.40431 0.526843 7.96615 1.08498 7.70012C1.40839 7.54885 1.74745 7.52798 2.09694 7.54363C2.22213 7.54885 2.27951 7.50712 2.31602 7.38715C2.38905 7.15763 2.45686 6.91769 2.58205 6.71947C2.78549 6.40128 2.72289 6.20306 2.45686 5.93703C1.77875 5.25892 1.7631 4.17916 2.39426 3.48019C2.73332 3.10462 3.09324 2.7447 3.47403 2.40564C3.9122 2.00921 4.43904 1.88924 5.01805 1.98834C5.49273 2.0718 5.85265 2.33783 6.16041 2.6821C6.23865 2.76556 6.30125 2.78121 6.41079 2.72905C6.63509 2.61429 6.87504 2.5204 7.10455 2.42129C7.24017 2.36391 7.43318 2.34826 7.50099 2.24394C7.57402 2.13962 7.52185 1.95705 7.52707 1.80578C7.54793 0.919016 8.17389 0.162662 9.05543 0.0479053C9.58749 -0.0199058 10.1352 0.000959183 10.6725 0.0113917C11.5332 0.0218241 12.2582 0.642556 12.4199 1.48759C12.4564 1.69624 12.4408 1.91532 12.4617 2.12918C12.4669 2.18656 12.5034 2.27524 12.5451 2.2961C12.9311 2.45781 13.3276 2.60908 13.7709 2.78643C13.8648 2.6821 13.9692 2.53605 14.0996 2.42129C14.7985 1.79534 15.8418 1.79534 16.5356 2.42651C16.9007 2.76035 17.2502 3.10983 17.584 3.47497C17.9857 3.91835 18.1109 4.45041 18.0065 5.03462C17.9335 5.44671 17.7301 5.79098 17.4171 6.06222C17.2398 6.21349 17.198 6.3439 17.3284 6.54733C17.4328 6.71425 17.4953 6.91247 17.5684 7.10025C17.7353 7.52798 17.7353 7.52798 18.1943 7.53842C19.0811 7.55928 19.8427 8.19045 19.947 9.07199C20.0148 9.66142 20.0148 10.2717 19.9626 10.8612C19.9 11.5706 19.4827 12.0818 18.8151 12.3321C18.5386 12.4365 18.2204 12.4417 17.9179 12.4625C17.7718 12.473 17.704 12.5095 17.6571 12.6503C17.584 12.8798 17.4901 13.0989 17.3962 13.3232C17.3441 13.4536 17.2137 13.5945 17.2398 13.7092C17.2658 13.8344 17.4223 13.9335 17.5214 14.0431C18.21 14.7786 18.2308 15.8479 17.5475 16.5834C17.2293 16.9276 16.8955 17.2563 16.5512 17.5745C16.0974 17.9918 15.5497 18.1274 14.9394 18.0126C14.4908 17.9292 14.1413 17.6736 13.844 17.3397C13.7501 17.2354 13.6718 17.225 13.5466 17.2928C13.3171 17.4127 13.072 17.5119 12.832 17.6057C12.4617 17.7518 12.4617 17.7466 12.4564 18.1535C12.4408 18.9724 11.9557 19.6453 11.1993 19.9009C11.095 19.9374 10.9907 19.9687 10.8863 20ZM5.63878 10.0109C5.644 12.4104 7.58445 14.3508 9.98915 14.3508C12.3886 14.3508 14.3343 12.4104 14.3343 10.0057C14.3395 7.5958 12.3834 5.64492 9.97871 5.65536C7.57402 5.66579 5.63878 7.60623 5.63878 10.0109Z" fill="black"/>
</svg>
