<svg width="48" height="48" viewBox="0 0 48 48" fill="none" xmlns="http://www.w3.org/2000/svg">
<rect width="48" height="48" rx="6" fill="#3DC1F2"/>
<path d="M25.2764 38.4001C24.4126 38.4001 23.5488 38.4001 22.6925 38.4001C22.5949 38.3701 22.5047 38.3325 22.4071 38.3025C21.6409 38.0921 21.0851 37.6339 20.717 36.9279C20.4616 36.4396 20.4165 35.9138 20.4391 35.373C20.4466 35.1927 20.394 35.1101 20.2137 35.05C19.8532 34.9298 19.5001 34.7796 19.1471 34.6294C18.6213 34.404 18.6213 34.404 18.2082 34.8021C17.1265 35.8462 15.5567 35.8613 14.4675 34.8322C13.9943 34.3815 13.5286 33.9158 13.0854 33.4351C12.492 32.7891 12.2892 32.0079 12.4544 31.1441C12.5596 30.5582 12.8676 30.085 13.2882 29.6794C13.6112 29.3639 13.6037 29.3639 13.4234 28.9658C13.2807 28.6428 13.138 28.3123 13.0178 27.9818C12.8525 27.5537 12.8601 27.5462 12.4019 27.5537C11.3052 27.5687 10.4639 27.1105 9.92309 26.1566C9.77286 25.8937 9.70526 25.5857 9.6001 25.3003C9.6001 24.4364 9.6001 23.5726 9.6001 22.7163C9.62263 22.6638 9.64517 22.6187 9.65268 22.5661C9.85549 21.7023 10.3588 21.0714 11.1625 20.6883C11.6282 20.4704 12.1164 20.4404 12.6197 20.4629C12.8 20.4704 12.8826 20.4104 12.9352 20.2376C13.0403 19.9071 13.138 19.5616 13.3183 19.2761C13.6112 18.8179 13.5211 18.5325 13.138 18.1494C12.1615 17.1729 12.139 15.6181 13.0478 14.6116C13.5361 14.0707 14.0544 13.5525 14.6027 13.0642C15.2337 12.4934 15.9923 12.3206 16.8261 12.4633C17.5096 12.5835 18.0279 12.9666 18.4711 13.4623C18.5838 13.5825 18.6739 13.605 18.8316 13.5299C19.1546 13.3647 19.5001 13.2295 19.8307 13.0868C20.0259 13.0041 20.3039 12.9816 20.4015 12.8314C20.5067 12.6811 20.4316 12.4182 20.4391 12.2004C20.4691 10.9235 21.3705 9.83433 22.6399 9.66908C23.4061 9.57143 24.1948 9.60148 24.9685 9.6165C26.2078 9.63152 27.2519 10.5254 27.4848 11.7422C27.5374 12.0427 27.5148 12.3582 27.5449 12.6661C27.5524 12.7487 27.605 12.8764 27.6651 12.9065C28.2209 13.1393 28.7918 13.3572 29.4302 13.6126C29.5655 13.4623 29.7157 13.252 29.9035 13.0868C30.91 12.1854 32.4123 12.1854 33.4113 13.0943C33.9371 13.575 34.4404 14.0783 34.9211 14.6041C35.4995 15.2425 35.6797 16.0087 35.5295 16.85C35.4244 17.4434 35.1314 17.9391 34.6807 18.3297C34.4253 18.5475 34.3652 18.7353 34.553 19.0283C34.7033 19.2686 34.7934 19.5541 34.8986 19.8245C35.1389 20.4404 35.1389 20.4404 35.7999 20.4554C37.0769 20.4855 38.1735 21.3943 38.3238 22.6638C38.4214 23.5125 38.4214 24.3914 38.3463 25.2402C38.2562 26.2617 37.6552 26.9978 36.6938 27.3584C36.2957 27.5086 35.8375 27.5161 35.4018 27.5462C35.1915 27.5612 35.0939 27.6138 35.0263 27.8166C34.9211 28.1471 34.7859 28.4625 34.6507 28.7855C34.5756 28.9733 34.3878 29.1761 34.4253 29.3414C34.4629 29.5216 34.6882 29.6644 34.831 29.8221C35.8225 30.8812 35.8525 32.421 34.8685 33.4801C34.4103 33.9759 33.9296 34.4491 33.4338 34.9073C32.7803 35.5082 31.9916 35.7035 31.1128 35.5383C30.4668 35.4181 29.9636 35.05 29.5354 34.5693C29.4002 34.4191 29.2875 34.404 29.1073 34.5017C28.7768 34.6745 28.4237 34.8172 28.0782 34.9524C27.5449 35.1627 27.5449 35.1552 27.5374 35.7411C27.5148 36.9204 26.8163 37.8893 25.7271 38.2574C25.5769 38.31 25.4267 38.355 25.2764 38.4001ZM17.7199 24.0158C17.7275 27.471 20.5217 30.2653 23.9845 30.2653C27.4397 30.2653 30.2415 27.471 30.2415 24.0083C30.249 20.538 27.4322 17.7288 23.9694 17.7438C20.5067 17.7588 17.7199 20.5531 17.7199 24.0158Z" fill="white"/>
</svg>
