<svg width="1068" height="76" viewBox="0 0 1068 76" fill="none" xmlns="http://www.w3.org/2000/svg">
<mask id="path-1-inside-1_847_7" fill="white">
<path fill-rule="evenodd" clip-rule="evenodd" d="M4 0C1.79086 0 0 1.79086 0 4V72C0 74.2091 1.79086 76 4 76H1064C1066.21 76 1068 74.2091 1068 72V4C1068 1.79086 1066.21 0 1064 0H632C615.271 37.7011 577.677 64 534 64C490.323 64 452.729 37.7011 436 0H4Z"/>
</mask>
<path fill-rule="evenodd" clip-rule="evenodd" d="M4 0C1.79086 0 0 1.79086 0 4V72C0 74.2091 1.79086 76 4 76H1064C1066.21 76 1068 74.2091 1068 72V4C1068 1.79086 1066.21 0 1064 0H632C615.271 37.7011 577.677 64 534 64C490.323 64 452.729 37.7011 436 0H4Z" fill="#F1F2F4"/>
<path d="M632 0V-1H631.35L631.086 -0.405586L632 0ZM436 0L436.914 -0.405585L436.65 -1H436V0ZM1 4C1 2.34314 2.34315 1 4 1V-1C1.23858 -1 -1 1.23857 -1 4H1ZM1 72V4H-1V72H1ZM4 75C2.34315 75 1 73.6569 1 72H-1C-1 74.7614 1.23857 77 4 77V75ZM1064 75H4V77H1064V75ZM1067 72C1067 73.6568 1065.66 75 1064 75V77C1066.76 77 1069 74.7614 1069 72H1067ZM1067 4V72H1069V4H1067ZM1064 1C1065.66 1 1067 2.34315 1067 4H1069C1069 1.23857 1066.76 -1 1064 -1V1ZM632 1H1064V-1H632V1ZM631.086 -0.405586C614.51 36.9501 577.265 63 534 63V65C578.09 65 616.032 38.4522 632.914 0.405586L631.086 -0.405586ZM534 63C490.735 63 453.49 36.9501 436.914 -0.405585L435.086 0.405585C451.968 38.4522 489.91 65 534 65V63ZM4 1H436V-1H4V1Z" fill="#3DC1F2" mask="url(#path-1-inside-1_847_7)"/>
</svg>
