<svg width="1068" height="77" viewBox="0 0 1068 77" fill="none" xmlns="http://www.w3.org/2000/svg">
<path d="M632 0C615.271 37.7011 577.677 64 534 64C490.323 64 452.729 37.7011 436 0H632Z" fill="#080808"/>
<mask id="path-2-inside-1_847_2" fill="white">
<path fill-rule="evenodd" clip-rule="evenodd" d="M4 1C1.79086 1 0 2.79086 0 5V73C0 75.2091 1.79086 77 4 77H1064C1066.21 77 1068 75.2091 1068 73V5C1068 2.79086 1066.21 1 1064 1H632C615.271 38.7011 577.677 65 534 65C490.323 65 452.729 38.7011 436 1H4Z"/>
</mask>
<path fill-rule="evenodd" clip-rule="evenodd" d="M4 1C1.79086 1 0 2.79086 0 5V73C0 75.2091 1.79086 77 4 77H1064C1066.21 77 1068 75.2091 1068 73V5C1068 2.79086 1066.21 1 1064 1H632C615.271 38.7011 577.677 65 534 65C490.323 65 452.729 38.7011 436 1H4Z" fill="black"/>
<path d="M632 1V0H631.35L631.086 0.594414L632 1ZM436 1L436.914 0.594415L436.65 0H436V1ZM1 5C1 3.34314 2.34315 2 4 2V0C1.23858 0 -1 2.23857 -1 5H1ZM1 73V5H-1V73H1ZM4 76C2.34315 76 1 74.6569 1 73H-1C-1 75.7614 1.23857 78 4 78V76ZM1064 76H4V78H1064V76ZM1067 73C1067 74.6568 1065.66 76 1064 76V78C1066.76 78 1069 75.7614 1069 73H1067ZM1067 5V73H1069V5H1067ZM1064 2C1065.66 2 1067 3.34315 1067 5H1069C1069 2.23857 1066.76 0 1064 0V2ZM632 2H1064V0H632V2ZM631.086 0.594414C614.51 37.9501 577.265 64 534 64V66C578.09 66 616.032 39.4522 632.914 1.40559L631.086 0.594414ZM534 64C490.735 64 453.49 37.9501 436.914 0.594415L435.086 1.40558C451.968 39.4522 489.91 66 534 66V64ZM4 2H436V0H4V2Z" fill="#1D1D20" mask="url(#path-2-inside-1_847_2)"/>
</svg>
