<svg width="22" height="22" viewBox="0 0 22 22" fill="none" xmlns="http://www.w3.org/2000/svg">
<path d="M22 11C22 17.0751 17.0751 22 11 22C4.92487 22 0 17.0751 0 11C0 4.92487 4.92487 0 11 0C17.0751 0 22 4.92487 22 11Z" fill="#2A2A30"/>
<path d="M10.0099 14.3472V13.3886C10.0099 12.9067 10.099 12.5295 10.2771 12.2572C10.4552 11.9743 10.7695 11.7333 11.2199 11.5343L11.6599 11.3457C12.2047 11.1153 12.629 10.8429 12.9328 10.5286C13.2366 10.2038 13.3885 9.75335 13.3885 9.17716C13.3885 8.74763 13.2785 8.38621 13.0585 8.09287C12.8385 7.79954 12.5399 7.5743 12.1628 7.41716C11.7857 7.26002 11.3614 7.18144 10.8899 7.18144C10.4185 7.18144 9.97851 7.26525 9.56994 7.43287C9.17184 7.59002 8.84708 7.83621 8.59565 8.17144C8.3547 8.49621 8.23422 8.91002 8.23422 9.41287V9.96287H6.96136V9.41287C6.96136 8.69001 7.12898 8.0824 7.46422 7.59001C7.80994 7.08716 8.27613 6.71002 8.86279 6.45859C9.45994 6.19668 10.1357 6.06573 10.8899 6.06573C11.6337 6.06573 12.2885 6.20192 12.8542 6.4743C13.4304 6.73621 13.8757 7.10287 14.1899 7.5743C14.5147 8.03525 14.6771 8.56954 14.6771 9.17716C14.6771 9.7743 14.5618 10.2719 14.3314 10.67C14.1114 11.0576 13.8233 11.3824 13.4671 11.6443C13.1109 11.8957 12.718 12.1157 12.2885 12.3043L11.8642 12.4929C11.6652 12.5767 11.5237 12.6867 11.4399 12.8229C11.3561 12.9591 11.3142 13.1529 11.3142 13.4043V14.3472H10.0099ZM10.6857 17.5057C10.3714 17.5057 10.1147 17.4062 9.91565 17.2072C9.7166 17.0081 9.61708 16.7514 9.61708 16.4372C9.61708 16.1229 9.7166 15.8662 9.91565 15.6672C10.1147 15.4681 10.3714 15.3686 10.6857 15.3686C10.9895 15.3686 11.2409 15.4681 11.4399 15.6672C11.6495 15.8662 11.7542 16.1229 11.7542 16.4372C11.7542 16.7514 11.6495 17.0081 11.4399 17.2072C11.2409 17.4062 10.9895 17.5057 10.6857 17.5057Z" fill="white"/>
</svg>
