<svg width="40" height="40" viewBox="0 0 40 40" fill="none" xmlns="http://www.w3.org/2000/svg">
<path d="M20 40C31.0457 40 40 31.0457 40 20C40 8.9543 31.0457 0 20 0C8.9543 0 0 8.9543 0 20C0 31.0457 8.9543 40 20 40Z" fill="url(#paint0_linear_109_4089)"/>
<path d="M28.7527 27.9695L21.9897 11.6191C21.6083 10.7737 21.0413 10.3613 20.2938 10.3613H19.6958C18.9485 10.3613 18.3815 10.7737 18 11.6191L15.0567 18.7428H12.8299C12.165 18.748 11.6237 19.284 11.6186 19.9542V19.9695C11.6237 20.6345 12.165 21.1758 12.8299 21.1808H14.0258L11.2165 27.9695C11.165 28.119 11.134 28.2737 11.134 28.4335C11.134 28.815 11.2526 29.1138 11.4639 29.3458C11.6753 29.5778 11.9794 29.6912 12.3608 29.6912C12.6134 29.686 12.8557 29.6088 13.0567 29.4593C13.2732 29.3098 13.4227 29.0933 13.5413 28.8458L16.634 21.1758H18.7783C19.4433 21.1707 19.9845 20.6345 19.9897 19.9645V19.9335C19.9845 19.2685 19.4433 18.7273 18.7783 18.7222H17.634L19.9948 12.8407L26.4278 28.8407C26.5463 29.0882 26.6958 29.3047 26.9123 29.4542C27.1133 29.6037 27.3608 29.681 27.6083 29.686C27.9897 29.686 28.2887 29.5727 28.5052 29.3407C28.7217 29.1088 28.835 28.8098 28.835 28.4283C28.8402 28.2737 28.8145 28.1138 28.7527 27.9695Z" fill="white"/>
<path d="M39.1667 20C39.1667 30.5855 30.5855 39.1667 20 39.1667C9.41459 39.1667 0.833374 30.5855 0.833374 20C0.833374 9.41454 9.41459 0.833328 20 0.833328C30.5855 0.833328 39.1667 9.41454 39.1667 20Z" stroke="white" stroke-opacity="0.3"/>
<defs>
<linearGradient id="paint0_linear_109_4089" x1="34.9117" y1="7.4529" x2="5.15172" y2="32.4928" gradientUnits="userSpaceOnUse">
<stop stop-color="#B6509E"/>
<stop offset="1" stop-color="#2EBAC6"/>
</linearGradient>
</defs>
</svg>
