<svg width="40" height="40" viewBox="0 0 40 40" fill="none" xmlns="http://www.w3.org/2000/svg">
<path d="M20 40C31.0457 40 40 31.0457 40 20C40 8.9543 31.0457 0 20 0C8.9543 0 0 8.9543 0 20C0 31.0457 8.9543 40 20 40Z" fill="#F5F5F5"/>
<path d="M39.1667 20C39.1667 30.5855 30.5855 39.1667 20 39.1667C9.41459 39.1667 0.833374 30.5855 0.833374 20C0.833374 9.41454 9.41459 0.833328 20 0.833328C30.5855 0.833328 39.1667 9.41454 39.1667 20Z" stroke="black" stroke-opacity="0.097"/>
<path d="M29.4617 11.2961L28.6381 12.1198C30.6036 14.2693 31.6936 17.0765 31.6936 19.9892C31.6936 22.9017 30.6036 25.709 28.6381 27.8583L29.4617 28.6822C31.6476 26.3112 32.8612 23.2043 32.8612 19.9795C32.8612 16.7547 31.6476 13.6479 29.4617 11.2769V11.2961Z" fill="#5A5564"/>
<path d="M12.139 11.3676C14.2884 9.40201 17.0955 8.31203 20.0082 8.31203C22.9209 8.31203 25.728 9.40201 27.8775 11.3676L28.7012 10.5438C26.3302 8.35795 23.2235 7.14436 19.9987 7.14436C16.7737 7.14436 13.667 8.35795 11.296 10.5438L12.139 11.3676Z" fill="#5A5564"/>
<path d="M11.3673 27.8668C9.40415 25.7178 8.31558 22.9123 8.31558 20.0015C8.31558 17.0908 9.40415 14.2854 11.3673 12.1364L10.5436 11.3127C8.35775 13.6837 7.14417 16.7905 7.14417 20.0153C7.14417 23.2402 8.35775 26.347 10.5436 28.718L11.3673 27.8668Z" fill="#5A5564"/>
<path d="M27.8664 28.6272C25.717 30.5927 22.9097 31.6827 19.997 31.6827C17.0845 31.6827 14.2773 30.5927 12.1278 28.6272L11.3041 29.4508C13.6751 31.6367 16.7819 32.8503 20.0067 32.8503C23.2315 32.8503 26.3384 31.6367 28.7094 29.4508L27.8664 28.6272Z" fill="#5A5564"/>
<path d="M25.2005 17.2517C25.0356 15.5329 23.553 14.9563 21.6776 14.7806V12.4137H20.2278V14.7366C19.8461 14.7366 19.4563 14.7366 19.0691 14.7366V12.4137H17.6305V14.7971H14.6897V16.3484C14.6897 16.3484 15.7605 16.3292 15.7441 16.3484C15.9371 16.3272 16.1309 16.3817 16.2846 16.5005C16.4382 16.6194 16.5398 16.7932 16.5678 16.9853V23.5093C16.5637 23.577 16.546 23.6433 16.5158 23.7042C16.4856 23.765 16.4435 23.8192 16.3921 23.8635C16.3415 23.9087 16.2824 23.9432 16.2183 23.9648C16.1541 23.9865 16.0862 23.995 16.0186 23.9898C16.0379 24.0063 14.9643 23.9898 14.9643 23.9898L14.6897 25.7223H17.603V28.1442H19.0526V25.758H20.2115V28.1332H21.664V25.7388C24.1131 25.5905 25.821 24.9865 26.0351 22.6938C26.2081 20.8487 25.3405 20.025 23.9538 19.6927C24.7968 19.2782 25.3185 18.5093 25.2005 17.2517ZM23.1686 22.4082C23.1686 24.2095 20.0823 24.0035 19.0993 24.0035V20.8075C20.0823 20.8102 23.1686 20.5273 23.1686 22.4082ZM22.4958 17.9052C22.4958 19.5527 19.9203 19.3522 19.1021 19.3522V16.4472C19.9203 16.4472 22.4958 16.1891 22.4958 17.9052Z" fill="#F09242"/>
<path d="M19.9973 35C17.0308 34.9995 14.131 34.1193 11.6647 32.4708C9.19841 30.8225 7.27626 28.4798 6.14128 25.739C5.00631 22.9982 4.7095 19.9825 5.28836 17.073C5.86723 14.1635 7.29578 11.491 9.3934 9.3934C11.491 7.29578 14.1635 5.86723 17.073 5.28836C19.9825 4.7095 22.9982 5.00631 25.739 6.14128C28.4798 7.27626 30.8225 9.19841 32.4708 11.6647C34.1193 14.131 34.9995 17.0308 35 19.9973C35.0003 21.9675 34.6125 23.9187 33.8587 25.739C33.1048 27.5593 31.9998 29.2133 30.6067 30.6067C29.2133 31.9998 27.5593 33.1048 25.739 33.8587C23.9187 34.6125 21.9675 35.0003 19.9973 35ZM19.9973 6.1697C17.2642 6.17186 14.5931 6.98421 12.3217 8.50408C10.0502 10.0239 8.28031 12.1831 7.23568 14.7086C6.19105 17.2342 5.91856 20.0127 6.4527 22.693C6.98681 25.3733 8.30356 27.8352 10.2365 29.7673C12.1694 31.6995 14.6318 33.0153 17.3123 33.5483C19.993 34.0815 22.7713 33.8078 25.2965 32.7622C27.8215 31.7165 29.98 29.9458 31.499 27.6737C33.018 25.4017 33.8292 22.7303 33.8303 19.9973C33.831 18.1807 33.4737 16.3819 32.7787 14.7035C32.0837 13.0252 31.0647 11.5004 29.78 10.2161C28.4952 8.93191 26.97 7.91353 25.2913 7.2192C23.6128 6.52488 21.8138 6.16825 19.9973 6.1697Z" fill="#282138"/>
</svg>
