<svg width="41" height="41" viewBox="0 0 41 41" fill="none" xmlns="http://www.w3.org/2000/svg">
<mask id="mask0_109_4110" style="mask-type:luminance" maskUnits="userSpaceOnUse" x="0" y="0" width="41" height="41">
<path d="M20.09 40.09C31.1357 40.09 40.09 31.1357 40.09 20.09C40.09 9.04433 31.1357 0.0900269 20.09 0.0900269C9.04427 0.0900269 0.0899658 9.04433 0.0899658 20.09C0.0899658 31.1357 9.04427 40.09 20.09 40.09Z" fill="white"/>
</mask>
<g mask="url(#mask0_109_4110)">
<path d="M41.9837 -1.80373H-1.80383V41.9838H41.9837V-1.80373Z" fill="url(#paint0_linear_109_4110)"/>
</g>
<path d="M25.8742 24.4059L31.5326 21.1386C31.8323 20.9655 32.0176 20.6437 32.0176 20.2975V13.7636C32.0176 13.4182 31.8315 13.0956 31.5326 12.9225L25.8742 9.65517C25.5745 9.48205 25.2029 9.48287 24.9032 9.65517L19.2448 12.9225C18.9451 13.0956 18.7597 13.4182 18.7597 13.7636V25.4406L14.7917 27.7312L10.8237 25.4406V20.8585L14.7917 18.5678L17.409 20.0786V17.0048L15.2768 15.7742C15.1298 15.6892 14.9616 15.6443 14.7909 15.6443C14.6202 15.6443 14.452 15.6892 14.3058 15.7742L8.64743 19.0415C8.34773 19.2146 8.16235 19.5364 8.16235 19.8826V26.4164C8.16235 26.7619 8.34854 27.0844 8.64743 27.2576L14.3058 30.5249C14.6047 30.6972 14.9771 30.6972 15.2768 30.5249L20.9352 27.2584C21.2349 27.0853 21.4203 26.7627 21.4203 26.4173V14.7403L21.4921 14.6995L25.3883 12.4497L29.3563 14.7403V19.3224L25.3883 21.613L22.7751 20.1039V23.1777L24.9032 24.4067C25.2029 24.579 25.5745 24.579 25.8742 24.4067V24.4059Z" fill="white"/>
<defs>
<linearGradient id="paint0_linear_109_4110" x1="-9.80596" y1="1.79514" x2="35.3976" y2="29.4575" gradientUnits="userSpaceOnUse">
<stop stop-color="#A229C5"/>
<stop offset="1" stop-color="#7B3FE4"/>
</linearGradient>
</defs>
</svg>
