<svg width="40" height="40" viewBox="0 0 40 40" fill="none" xmlns="http://www.w3.org/2000/svg">
<path d="M20 40C31.0457 40 40 31.0457 40 20C40 8.9543 31.0457 0 20 0C8.9543 0 0 8.9543 0 20C0 31.0457 8.9543 40 20 40Z" fill="#CF1011"/>
<path d="M20 6.66666V8.38709C26.4193 8.38709 31.6128 13.5806 31.6128 20C31.6128 26.4087 26.4193 31.6128 20 31.6128C13.5806 31.6128 8.38706 26.4087 8.38706 20C8.38706 17.3978 9.24728 14.9892 10.6989 13.0538C11.215 13.3656 11.8279 13.5484 12.4731 13.5484C14.3763 13.5484 15.9139 12.0107 15.9139 10.1075C15.9139 8.20429 14.3763 6.66666 12.4731 6.66666C10.5699 6.66666 9.03221 8.20429 9.03221 10.1075C9.03221 10.7312 9.19351 11.3011 9.48383 11.8064C7.72039 14.0645 6.66663 16.914 6.66663 20C6.66663 27.3657 12.6344 33.3333 20 33.3333C27.3656 33.3333 33.3333 27.3657 33.3333 20C33.3333 12.6344 27.3656 6.66666 20 6.66666ZM12.4731 8.38709C13.4193 8.38709 14.1935 9.16127 14.1935 10.1075C14.1935 11.0538 13.4193 11.8279 12.4731 11.8279C12.258 11.8279 12.0537 11.7849 11.8602 11.7204C11.2903 11.5054 10.8709 11 10.7742 10.3763C10.7634 10.2903 10.7526 10.2043 10.7526 10.1075C10.7526 9.16127 11.5268 8.38709 12.4731 8.38709Z" fill="white"/>
<path d="M19.9999 25.1612C22.8504 25.1612 25.161 22.8505 25.161 20C25.161 17.1495 22.8504 14.8387 19.9999 14.8387C17.1492 14.8387 14.8385 17.1495 14.8385 20C14.8385 22.8505 17.1492 25.1612 19.9999 25.1612Z" fill="white"/>
<path d="M39.1667 20C39.1667 30.5855 30.5855 39.1667 20 39.1667C9.41459 39.1667 0.833374 30.5855 0.833374 20C0.833374 9.41456 9.41459 0.833344 20 0.833344C30.5855 0.833344 39.1667 9.41456 39.1667 20Z" stroke="black" stroke-opacity="0.097"/>
</svg>
