<svg width="40" height="40" viewBox="0 0 40 40" fill="none" xmlns="http://www.w3.org/2000/svg">
<path d="M20 40C31.0457 40 40 31.0457 40 20C40 8.9543 31.0457 0 20 0C8.9543 0 0 8.9543 0 20C0 31.0457 8.9543 40 20 40Z" fill="#F9A606"/>
<path d="M39.1667 20C39.1667 30.5855 30.5855 39.1667 20 39.1667C9.41459 39.1667 0.833374 30.5855 0.833374 20C0.833374 9.41455 9.41459 0.833336 20 0.833336C30.5855 0.833336 39.1667 9.41455 39.1667 20Z" stroke="black" stroke-opacity="0.097"/>
<path fill-rule="evenodd" clip-rule="evenodd" d="M10.0618 8.33334H19.8323C25.7755 8.33334 30.2805 11.4187 31.9565 15.9083H35V18.6218H32.5973C32.6443 19.0507 32.6683 19.4875 32.6683 19.9313V19.998C32.6683 20.4977 32.638 20.9888 32.5786 21.47H35V24.1837H31.8985C30.1783 28.6107 25.7083 31.6667 19.8323 31.6667H10.0618V24.1837H6.66663V21.47H10.0618V18.6218H6.66663V15.9083H10.0618V8.33334ZM12.7932 24.1837V29.2323H19.8323C24.1761 29.2323 27.4033 27.2103 28.9056 24.1837H12.7932ZM29.7423 21.47H12.7932V18.6218H29.7468C29.8096 19.07 29.8416 19.5295 29.8416 19.998V20.0647C29.8416 20.544 29.8081 21.0132 29.7423 21.47ZM19.8323 10.7636C24.1961 10.7636 27.433 12.8391 28.9263 15.9083H12.7932V10.7636H19.8323Z" fill="white"/>
</svg>
