<svg width="79" height="79" viewBox="0 0 79 79" fill="none" xmlns="http://www.w3.org/2000/svg">
<path d="M0 0H76C77.6569 0 79 1.34315 79 3V79C35.3695 79 0 43.6305 0 0Z" fill="#3096BB"/>
<path d="M23.3262 24.1113C23.4723 23.2103 23.5575 22.2971 23.7767 21.4326C25.737 13.9809 30.4978 9.3418 37.9983 7.75892C45.2795 6.21257 52.9504 9.87754 56.7249 16.4161C62.9225 27.1553 56.7615 40.0375 44.9995 42.8014C41.5049 43.6172 38.0591 43.3372 34.7229 42.0344C34.4672 41.9369 34.2967 41.9613 34.0654 42.1196C30.9362 44.2139 27.6852 44.4209 24.3368 42.7162C23.5088 42.2901 23.2409 41.4621 23.7158 40.6828C25.3717 37.9189 25.6274 35.0332 24.6777 31.9648C24.2028 30.4063 23.8619 28.799 23.4723 27.204C23.4114 26.9361 23.3749 26.6682 23.3262 26.4004C23.3262 25.6333 23.3262 24.8662 23.3262 24.1113ZM26.8937 40.7681C27.0155 40.8046 27.1616 40.8533 27.3077 40.8776C29.4629 41.316 31.3745 40.8289 33.0183 39.38C33.6149 38.8442 34.2115 38.759 34.9299 39.0999C37.6939 40.3784 40.5917 40.7559 43.587 40.2567C51.5501 38.9295 57.6868 31.3804 56.1648 22.6989C54.8133 15.028 47.5321 9.42703 39.7759 10.2915C34.2724 10.9003 30.2178 13.7617 27.673 18.6808C26.3215 21.3108 25.7857 24.1356 26.2606 27.0701C26.4798 28.4338 26.8937 29.7853 27.3077 31.1125C28.0139 33.4625 28.2818 35.8368 27.6852 38.2476C27.4782 39.0878 27.1616 39.9157 26.8937 40.7681Z" fill="white"/>
<path d="M63.714 54.1007C63.2513 54.0033 62.8008 53.9303 62.3381 53.8085C61.2544 53.5285 60.2438 53.0901 59.3428 52.4205C59.0627 52.2135 58.8557 52.2013 58.527 52.3109C51.9519 54.6 45.9248 53.6015 40.4578 49.2669C39.9221 48.8407 39.7394 48.2563 39.9342 47.684C40.1291 47.1239 40.5309 46.8195 41.1153 46.7464C41.5658 46.6977 41.9311 46.8804 42.272 47.1726C44.4759 49.0234 47.0207 50.1435 49.8577 50.5575C52.7677 50.9837 55.5804 50.6184 58.2713 49.413C59.0993 49.0355 59.7324 49.1451 60.4264 49.7417C62.1798 51.2637 64.2132 51.6168 66.4657 51.0567C66.4414 50.935 66.4292 50.8498 66.3927 50.7645C64.9803 47.5135 65.029 44.2747 66.2344 40.9385C68.1582 35.6054 67.3668 30.6132 63.9088 26.0716C63.714 25.8159 63.5191 25.5115 63.4461 25.2071C63.3 24.5739 63.6409 23.9651 64.2132 23.7094C64.822 23.4416 65.4308 23.5877 65.8935 24.1234C67.0867 25.548 68.0243 27.1187 68.6939 28.8355C70.4108 33.2798 70.4473 37.7484 68.7305 42.217C67.6103 45.127 67.9512 47.9275 69.4489 50.6306C69.5828 50.8741 69.7289 51.1054 69.802 51.3611C69.9603 51.9943 69.668 52.5787 69.0592 52.9197C68.0364 53.4919 66.9528 53.8572 65.7961 54.0033C65.6743 54.0155 65.5647 54.052 65.443 54.0886C64.8707 54.1007 64.2862 54.1007 63.714 54.1007Z" fill="white"/>
<path d="M33.1887 27.5937C31.9589 27.6059 30.9849 26.6318 30.9849 25.4142C30.9849 24.1966 31.9711 23.2103 33.1765 23.2103C34.3698 23.2103 35.3439 24.1844 35.356 25.3777C35.3682 26.6074 34.4063 27.5815 33.1887 27.5937Z" fill="white"/>
<path d="M41.2736 27.5937C40.0438 27.6059 39.0697 26.644 39.0697 25.4142C39.0697 24.1966 40.0438 23.2103 41.2614 23.2103C42.4425 23.2103 43.4287 24.1844 43.4531 25.3777C43.4774 26.5831 42.4912 27.5815 41.2736 27.5937Z" fill="white"/>
<path d="M51.5136 25.402C51.5136 26.6318 50.5517 27.5937 49.3219 27.5815C48.1043 27.5815 47.1181 26.583 47.1302 25.3776C47.1424 24.1966 48.1287 23.2103 49.3097 23.1981C50.5273 23.2103 51.5136 24.1844 51.5136 25.402Z" fill="white"/>
</svg>
