<svg width="79" height="79" viewBox="0 0 79 79" fill="none" xmlns="http://www.w3.org/2000/svg">
<path d="M0 0H76C77.6569 0 79 1.34315 79 3V79C35.3695 79 0 43.6305 0 0Z" fill="#3096BB"/>
<path d="M35.7469 47.7923C34.6591 47.7923 33.6446 47.8045 32.6179 47.7923C30.8578 47.7679 29.5011 46.7412 29.1222 45.14C29.0367 44.7856 29.0122 44.4189 29.0122 44.0522C29.0122 35.8508 29.0122 27.6495 29 19.4359C29 18.8858 29.1711 18.4458 29.5622 18.0547C32.0923 15.5491 34.598 13.0434 37.1036 10.5256C37.4703 10.1589 37.8614 10 38.3625 10C44.6449 10.0122 50.9274 10 57.2098 10.0122C59.3732 10.0122 60.8155 11.4789 60.8155 13.6423C60.8155 14.6446 60.8155 15.6468 60.8155 16.7102C60.9988 16.7224 61.1577 16.7347 61.3166 16.7347C62.1722 16.7347 63.0278 16.7347 63.8833 16.7347C66.0956 16.7469 67.5501 18.1892 67.5501 20.4014C67.5623 24.056 67.5501 27.7228 67.5501 31.3774C67.5501 37.8431 67.5501 44.3089 67.5501 50.7746C67.5501 52.0336 67.1468 53.0725 66.1201 53.8425C65.4723 54.3192 64.7389 54.5148 63.9322 54.5148C60.3755 54.5025 56.8187 54.5148 53.2741 54.5148C48.6662 54.5148 44.0583 54.5148 39.4503 54.5148C37.1403 54.5148 35.7224 53.0969 35.7224 50.7746C35.7469 49.7968 35.7469 48.819 35.7469 47.7923ZM31.3467 20.267C31.3467 20.487 31.3467 20.6337 31.3467 20.7803C31.3467 28.5295 31.3467 36.2664 31.3467 44.0155C31.3467 45.0422 31.7256 45.4211 32.7523 45.4211C40.8559 45.4211 48.9473 45.4211 57.0509 45.4211C58.1143 45.4211 58.4809 45.0667 58.4809 43.9911C58.4809 33.9074 58.4809 23.836 58.4809 13.7523C58.4809 12.689 58.1143 12.3101 57.0509 12.3101C51.3063 12.3101 45.5494 12.3101 39.8048 12.3101C39.6459 12.3101 39.487 12.3223 39.3037 12.3345C39.3037 13.7768 39.3159 15.1579 39.3037 16.5513C39.3037 16.9302 39.267 17.3213 39.1814 17.6758C38.7903 19.1914 37.4703 20.2181 35.9058 20.2426C34.4024 20.2792 32.9112 20.267 31.3467 20.267ZM38.167 47.7923C38.1303 47.8779 38.1058 47.9023 38.1058 47.9268C38.1058 48.8435 38.0936 49.7602 38.0936 50.6769C38.0936 51.8258 38.4359 52.1802 39.597 52.1802C47.6395 52.1802 55.6697 52.1802 63.7122 52.1802C64.8612 52.1802 65.2278 51.8136 65.2278 50.6891C65.2278 40.6421 65.2278 30.5951 65.2278 20.5359C65.2278 20.3892 65.2401 20.2303 65.2156 20.0837C65.1667 19.5948 64.8 19.1303 64.3234 19.1181C63.1744 19.0814 62.0133 19.1058 60.8399 19.1058C60.8399 19.3259 60.8399 19.5092 60.8399 19.6925C60.8399 27.8083 60.8399 35.9242 60.8277 44.0278C60.8277 44.4678 60.791 44.92 60.6688 45.3356C60.2288 46.8879 58.8965 47.7923 57.1242 47.8045C51.0129 47.8045 44.8894 47.8045 38.7781 47.8045C38.5703 47.7923 38.3747 47.7923 38.167 47.7923ZM36.9447 14.1557C35.6735 15.4146 34.4268 16.6735 33.2046 17.908C34.1091 17.908 35.0869 17.9447 36.0524 17.8958C36.5658 17.8714 36.9203 17.4191 36.9325 16.8936C36.9569 15.9769 36.9447 15.0602 36.9447 14.1557Z" fill="black"/>
<path d="M44.9016 30.0571C42.6893 30.0571 40.4771 30.0571 38.2648 30.0571C37.6414 30.0571 37.1769 29.7026 37.0425 29.1526C36.9203 28.627 37.1647 28.077 37.6659 27.857C37.8859 27.7592 38.1303 27.7226 38.3748 27.7103C42.7382 27.6981 47.1017 27.6981 51.453 27.7103C52.3941 27.7103 52.9563 28.3337 52.773 29.1404C52.6508 29.7026 52.1863 30.0449 51.5263 30.0449C49.314 30.0571 47.1139 30.0571 44.9016 30.0571Z" fill="black"/>
<path d="M47.4806 21.3057C46.1239 21.3057 44.7672 21.3179 43.4105 21.3057C42.5182 21.2935 41.9805 20.5479 42.2494 19.7656C42.4205 19.2645 42.836 18.9834 43.4594 18.9834C45.7328 18.9834 47.994 18.9834 50.2674 18.9834C50.6952 18.9834 51.123 18.9834 51.5508 18.9834C52.3086 18.9956 52.8097 19.4479 52.8219 20.1201C52.8341 20.8168 52.3208 21.2935 51.5385 21.3057C50.1818 21.3057 48.8251 21.3057 47.4806 21.3057Z" fill="black"/>
<path d="M42.1393 36.4619C43.4227 36.4619 44.6938 36.4619 45.9772 36.4619C46.4783 36.4619 46.8695 36.6697 47.0895 37.1342C47.285 37.5497 47.285 38.0142 46.955 38.332C46.6983 38.5764 46.3072 38.7964 45.9772 38.7964C43.3982 38.8331 40.8315 38.8331 38.2525 38.8087C37.5069 38.8087 37.018 38.2831 37.0303 37.6108C37.0425 36.9386 37.5558 36.4741 38.3014 36.4741C39.5848 36.4619 40.8559 36.4619 42.1393 36.4619Z" fill="black"/>
</svg>
