<svg width="217" height="56" viewBox="0 0 217 56" fill="none" xmlns="http://www.w3.org/2000/svg">
<path fill-rule="evenodd" clip-rule="evenodd" d="M12.313 4.6297C16.4108 1.87158 21.2966 0.216709 26.537 0V11.0325C23.7001 11.2098 21.0602 12.116 18.7946 13.5542L12.313 4.6297Z" fill="black"/>
<path fill-rule="evenodd" clip-rule="evenodd" d="M1.71362 18.0263C3.4867 13.2192 6.56003 9.04267 10.5199 5.92993L17.0015 14.8544C14.8935 16.6078 13.2386 18.8734 12.2142 21.4542L1.71362 18.0263Z" fill="black"/>
<path fill-rule="evenodd" clip-rule="evenodd" d="M1.02444 35.1067C0.354615 32.7229 0 30.2209 0 27.6204C0 25.0198 0.354615 22.5178 1.02444 20.134L11.525 23.5423C11.1901 24.8425 11.0128 26.2019 11.0128 27.6204C11.0128 29.0191 11.1901 30.3982 11.525 31.6984L1.02444 35.1067Z" fill="black"/>
<path fill-rule="evenodd" clip-rule="evenodd" d="M10.5199 49.331C6.57973 46.2182 3.4867 42.0417 1.71362 37.2347L12.2142 33.8264C13.2386 36.4072 14.9132 38.6728 17.0015 40.4262L10.5199 49.331Z" fill="black"/>
<path fill-rule="evenodd" clip-rule="evenodd" d="M26.537 55.2607C21.2769 55.044 16.4108 53.3891 12.313 50.631L18.7946 41.7065C21.0602 43.1447 23.7001 44.0312 26.537 44.2283V55.2607Z" fill="black"/>
<path fill-rule="evenodd" clip-rule="evenodd" d="M42.9873 50.631C38.8895 53.3694 34.0037 55.044 28.7633 55.2607V44.2283C31.6002 44.0509 34.2401 43.1447 36.5057 41.7065L42.9873 50.631Z" fill="black"/>
<path fill-rule="evenodd" clip-rule="evenodd" d="M53.5864 37.2146C51.8134 42.0216 48.74 46.1982 44.7802 49.3109L38.2986 40.3864C40.4066 38.633 42.0614 36.3674 43.0859 33.7866L53.5864 37.2146Z" fill="black"/>
<path fill-rule="evenodd" clip-rule="evenodd" d="M54.2762 20.134C54.946 22.5178 55.3006 25.0198 55.3006 27.6204C55.3006 30.2209 54.946 32.7229 54.2762 35.1067L43.7756 31.6984C44.1105 30.3982 44.2879 29.0388 44.2879 27.6204C44.2879 26.2216 44.1105 24.8425 43.7756 23.5423L54.2762 20.134Z" fill="black"/>
<path fill-rule="evenodd" clip-rule="evenodd" d="M44.7997 5.92993C48.7399 9.04267 51.8329 13.2192 53.606 18.0263L43.1054 21.4345C42.081 18.8537 40.4064 16.5881 38.3181 14.8347L44.7997 5.92993Z" fill="black"/>
<path fill-rule="evenodd" clip-rule="evenodd" d="M28.7633 0C34.0234 0.216709 38.8895 1.87158 42.9873 4.6297L36.5057 13.5542C34.2401 12.116 31.6002 11.2098 28.7633 11.0325V0Z" fill="black"/>
<path d="M16.6772 29.0203H15.9373L15.4169 28.321H14.2541V29.0203H13.6605V27.7193H15.7015C15.8072 27.7193 15.8966 27.6787 15.9698 27.6055C16.043 27.5323 16.0836 27.4429 16.0836 27.3372C16.0836 27.2314 16.043 27.142 15.9698 27.0607C15.8966 26.9794 15.8072 26.9469 15.7015 26.9469H13.6605V26.3533H15.7015C15.8397 26.3533 15.9617 26.3777 16.0836 26.4346C16.3276 26.5403 16.4983 26.7192 16.604 26.955C16.6528 27.0851 16.6854 27.2071 16.6854 27.3372C16.6854 27.4591 16.661 27.5892 16.604 27.7193C16.4983 27.9551 16.3276 28.1259 16.0999 28.2316L16.6772 29.0203Z" fill="black"/>
<path d="M20.7184 29.0203H20.0354L18.9702 27.1095L17.8969 29.0203H17.2139L18.71 26.3533H19.2304L20.7184 29.0203Z" fill="black"/>
<path d="M24.7597 29.0203H24.1661V27.2721L23.2554 28.5731H22.7675L21.8568 27.2721V29.0122H21.2551V26.3533H21.93L23.0034 27.8901L24.0848 26.3533H24.7597V29.0203Z" fill="black"/>
<path d="M28.5163 26.9633H25.4996V26.3616H28.5163V26.9633ZM28.5163 29.0205H25.4996V28.4269H28.5163V29.0205ZM28.2724 27.9878H25.7354V27.3942H28.2724V27.9878Z" fill="black"/>
<path d="M31.2646 29.0204H29.9799C29.8661 29.0204 29.7522 28.996 29.6465 28.9554C29.4351 28.874 29.2806 28.7277 29.183 28.5244C29.1343 28.4268 29.1099 28.313 29.1099 28.1991H29.7116C29.7116 28.2479 29.7278 28.2886 29.7522 28.3211C29.7766 28.3536 29.8173 28.378 29.8579 28.3943C29.8986 28.4106 29.9393 28.4187 29.9799 28.4187H31.2646C31.3053 28.4187 31.346 28.4106 31.3866 28.3943C31.4273 28.378 31.4598 28.3536 31.4923 28.3211C31.5249 28.2886 31.533 28.2479 31.533 28.1991C31.533 28.1504 31.5167 28.1178 31.4923 28.0853C31.4679 28.0528 31.4273 28.0284 31.3866 28.0121C31.346 27.9959 31.3053 27.9877 31.2646 27.9877H29.9799C29.8661 27.9877 29.7522 27.9715 29.6465 27.9227C29.4351 27.8414 29.2806 27.695 29.183 27.4917C29.1343 27.3941 29.1099 27.2803 29.1099 27.1665C29.1099 27.0526 29.1343 26.9469 29.183 26.8412C29.2806 26.6379 29.4351 26.4916 29.6465 26.4103C29.7522 26.3696 29.8579 26.3452 29.9799 26.3452H31.2646C31.3785 26.3452 31.4923 26.3615 31.598 26.4103C31.8094 26.4916 31.9639 26.6379 32.0615 26.8412C32.1103 26.9388 32.1347 27.0526 32.1347 27.1665H31.5411C31.5411 27.1177 31.5248 27.0852 31.5005 27.0526C31.4761 27.0201 31.4354 26.9957 31.3948 26.9795C31.3541 26.9632 31.3134 26.9551 31.2728 26.9551H29.988C29.9474 26.9551 29.9067 26.9632 29.8661 26.9795C29.8254 26.9957 29.7929 27.0201 29.7604 27.0526C29.7278 27.0852 29.7197 27.1258 29.7197 27.1665C29.7197 27.2153 29.736 27.2559 29.7604 27.2884C29.7848 27.321 29.8254 27.3454 29.8661 27.3616C29.9067 27.3779 29.9474 27.386 29.988 27.386H31.2728C31.3866 27.386 31.5005 27.4104 31.6062 27.4511C31.8176 27.5324 31.9721 27.6787 32.0696 27.882C32.1184 27.9796 32.1428 28.0853 32.1428 28.1991C32.1428 28.313 32.1184 28.4187 32.0696 28.5244C31.9721 28.7277 31.8176 28.874 31.6062 28.9554C31.4842 28.996 31.3785 29.0204 31.2646 29.0204Z" fill="black"/>
<path d="M34.257 29.0203H33.6634V26.9469H32.6876V26.3533H35.2246V26.9469H34.257V29.0203Z" fill="black"/>
<path d="M37.4282 29.0203H36.8346V26.9469H35.8589V26.3533H38.3958V26.9469H37.4282V29.0203Z" fill="black"/>
<path d="M41.5914 29.0203H40.9083L39.8431 27.1095L38.7698 29.0203H38.0868L39.5748 26.3533H40.0952L41.5914 29.0203Z" fill="black"/>
<path d="M65.32 34V20H71.4C72.28 20 73.0467 20.1533 73.7 20.46C74.3533 20.7667 74.86 21.2 75.22 21.76C75.58 22.32 75.76 22.98 75.76 23.74V23.98C75.76 24.82 75.56 25.5 75.16 26.02C74.76 26.54 74.2667 26.92 73.68 27.16V27.52C74.2133 27.5467 74.6267 27.7333 74.92 28.08C75.2133 28.4133 75.36 28.86 75.36 29.42V34H72.72V29.8C72.72 29.48 72.6333 29.22 72.46 29.02C72.3 28.82 72.0267 28.72 71.64 28.72H67.96V34H65.32ZM67.96 26.32H71.12C71.7467 26.32 72.2333 26.1533 72.58 25.82C72.94 25.4733 73.12 25.02 73.12 24.46V24.26C73.12 23.7 72.9467 23.2533 72.6 22.92C72.2533 22.5733 71.76 22.4 71.12 22.4H67.96V26.32ZM81.1167 34.28C80.4101 34.28 79.7767 34.16 79.2167 33.92C78.6567 33.6667 78.2101 33.3067 77.8767 32.84C77.5567 32.36 77.3967 31.78 77.3967 31.1C77.3967 30.42 77.5567 29.8533 77.8767 29.4C78.2101 28.9333 78.6634 28.5867 79.2367 28.36C79.8234 28.12 80.4901 28 81.2367 28H83.9567V27.44C83.9567 26.9733 83.8101 26.5933 83.5167 26.3C83.2234 25.9933 82.7567 25.84 82.1167 25.84C81.4901 25.84 81.0234 25.9867 80.7167 26.28C80.4101 26.56 80.2101 26.9267 80.1167 27.38L77.7967 26.6C77.9567 26.0933 78.2101 25.6333 78.5567 25.22C78.9167 24.7933 79.3901 24.4533 79.9767 24.2C80.5767 23.9333 81.3034 23.8 82.1567 23.8C83.4634 23.8 84.4967 24.1267 85.2567 24.78C86.0167 25.4333 86.3967 26.38 86.3967 27.62V31.32C86.3967 31.72 86.5834 31.92 86.9567 31.92H87.7567V34H86.0767C85.5834 34 85.1767 33.88 84.8567 33.64C84.5367 33.4 84.3767 33.08 84.3767 32.68V32.66H83.9967C83.9434 32.82 83.8234 33.0333 83.6367 33.3C83.4501 33.5533 83.1567 33.78 82.7567 33.98C82.3567 34.18 81.8101 34.28 81.1167 34.28ZM81.5567 32.24C82.2634 32.24 82.8367 32.0467 83.2767 31.66C83.7301 31.26 83.9567 30.7333 83.9567 30.08V29.88H81.4167C80.9501 29.88 80.5834 29.98 80.3167 30.18C80.0501 30.38 79.9167 30.66 79.9167 31.02C79.9167 31.38 80.0567 31.6733 80.3367 31.9C80.6167 32.1267 81.0234 32.24 81.5567 32.24ZM89.5992 34V24.08H92.0792V25.16H92.4392C92.6126 24.8267 92.8992 24.54 93.2992 24.3C93.6992 24.0467 94.2259 23.92 94.8792 23.92C95.5859 23.92 96.1526 24.06 96.5792 24.34C97.0059 24.6067 97.3326 24.96 97.5592 25.4H97.9192C98.1459 24.9733 98.4659 24.62 98.8792 24.34C99.2926 24.06 99.8792 23.92 100.639 23.92C101.253 23.92 101.806 24.0533 102.299 24.32C102.806 24.5733 103.206 24.9667 103.499 25.5C103.806 26.02 103.959 26.68 103.959 27.48V34H101.439V27.66C101.439 27.1133 101.299 26.7067 101.019 26.44C100.739 26.16 100.346 26.02 99.8392 26.02C99.2659 26.02 98.8192 26.2067 98.4992 26.58C98.1926 26.94 98.0392 27.46 98.0392 28.14V34H95.5192V27.66C95.5192 27.1133 95.3792 26.7067 95.0992 26.44C94.8192 26.16 94.4259 26.02 93.9192 26.02C93.3459 26.02 92.8992 26.2067 92.5792 26.58C92.2726 26.94 92.1192 27.46 92.1192 28.14V34H89.5992ZM111.19 34.28C110.203 34.28 109.33 34.0733 108.57 33.66C107.823 33.2333 107.236 32.64 106.81 31.88C106.396 31.1067 106.19 30.2 106.19 29.16V28.92C106.19 27.88 106.396 26.98 106.81 26.22C107.223 25.4467 107.803 24.8533 108.55 24.44C109.296 24.0133 110.163 23.8 111.15 23.8C112.123 23.8 112.97 24.02 113.69 24.46C114.41 24.8867 114.97 25.4867 115.37 26.26C115.77 27.02 115.97 27.9067 115.97 28.92V29.78H108.75C108.776 30.46 109.03 31.0133 109.51 31.44C109.99 31.8667 110.576 32.08 111.27 32.08C111.976 32.08 112.496 31.9267 112.83 31.62C113.163 31.3133 113.416 30.9733 113.59 30.6L115.65 31.68C115.463 32.0267 115.19 32.4067 114.83 32.82C114.483 33.22 114.016 33.5667 113.43 33.86C112.843 34.14 112.096 34.28 111.19 34.28ZM108.77 27.9H113.41C113.356 27.3267 113.123 26.8667 112.71 26.52C112.31 26.1733 111.783 26 111.13 26C110.45 26 109.91 26.1733 109.51 26.52C109.11 26.8667 108.863 27.3267 108.77 27.9ZM122.333 34.28C121.039 34.28 119.979 34 119.153 33.44C118.326 32.88 117.826 32.08 117.653 31.04L119.973 30.44C120.066 30.9067 120.219 31.2733 120.433 31.54C120.659 31.8067 120.933 32 121.253 32.12C121.586 32.2267 121.946 32.28 122.333 32.28C122.919 32.28 123.353 32.18 123.633 31.98C123.913 31.7667 124.053 31.5067 124.053 31.2C124.053 30.8933 123.919 30.66 123.653 30.5C123.386 30.3267 122.959 30.1867 122.373 30.08L121.812 29.98C121.119 29.8467 120.486 29.6667 119.913 29.44C119.339 29.2 118.879 28.8733 118.533 28.46C118.186 28.0467 118.013 27.5133 118.013 26.86C118.013 25.8733 118.373 25.12 119.093 24.6C119.813 24.0667 120.759 23.8 121.933 23.8C123.039 23.8 123.959 24.0467 124.693 24.54C125.426 25.0333 125.906 25.68 126.133 26.48L123.793 27.2C123.686 26.6933 123.466 26.3333 123.133 26.12C122.813 25.9067 122.413 25.8 121.933 25.8C121.453 25.8 121.086 25.8867 120.833 26.06C120.579 26.22 120.453 26.4467 120.453 26.74C120.453 27.06 120.586 27.3 120.853 27.46C121.119 27.6067 121.479 27.72 121.933 27.8L122.493 27.9C123.239 28.0333 123.913 28.2133 124.513 28.44C125.126 28.6533 125.606 28.9667 125.953 29.38C126.313 29.78 126.493 30.3267 126.493 31.02C126.493 32.06 126.113 32.8667 125.353 33.44C124.606 34 123.599 34.28 122.333 34.28ZM132.501 34C131.847 34 131.314 33.8 130.901 33.4C130.501 32.9867 130.301 32.44 130.301 31.76V26.16H127.821V24.08H130.301V21H132.821V24.08H134.941V26.16H132.821V31.32C132.821 31.72 133.007 31.92 133.381 31.92H135.301V34H132.501ZM139.021 34C138.367 34 137.834 33.8 137.421 33.4C137.021 32.9867 136.821 32.44 136.821 31.76V26.16H134.941V24.08H136.821V21H139.341V24.08H142.061V26.16H139.341V31.32C139.341 31.72 139.527 31.92 139.901 31.92H141.821V34H139.021ZM147.425 34.28C146.719 34.28 146.085 34.16 145.525 33.92C144.965 33.6667 144.519 33.3067 144.185 32.84C143.865 32.36 143.705 31.78 143.705 31.1C143.705 30.42 143.865 29.8533 144.185 29.4C144.519 28.9333 144.972 28.5867 145.545 28.36C146.132 28.12 146.799 28 147.545 28H150.265V27.44C150.265 26.9733 150.119 26.5933 149.825 26.3C149.532 25.9933 149.065 25.84 148.425 25.84C147.799 25.84 147.332 25.9867 147.025 26.28C146.719 26.56 146.519 26.9267 146.425 27.38L144.105 26.6C144.265 26.0933 144.519 25.6333 144.865 25.22C145.225 24.7933 145.699 24.4533 146.285 24.2C146.885 23.9333 147.612 23.8 148.465 23.8C149.772 23.8 150.805 24.1267 151.565 24.78C152.325 25.4333 152.705 26.38 152.705 27.62V31.32C152.705 31.72 152.892 31.92 153.265 31.92H154.065V34H152.385C151.892 34 151.485 33.88 151.165 33.64C150.845 33.4 150.685 33.08 150.685 32.68V32.66H150.305C150.252 32.82 150.132 33.0333 149.945 33.3C149.759 33.5533 149.465 33.78 149.065 33.98C148.665 34.18 148.119 34.28 147.425 34.28ZM147.865 32.24C148.572 32.24 149.145 32.0467 149.585 31.66C150.039 31.26 150.265 30.7333 150.265 30.08V29.88H147.725C147.259 29.88 146.892 29.98 146.625 30.18C146.359 30.38 146.225 30.66 146.225 31.02C146.225 31.38 146.365 31.6733 146.645 31.9C146.925 32.1267 147.332 32.24 147.865 32.24ZM161.245 34V20H166.605C167.445 20 168.191 20.1667 168.845 20.5C169.511 20.82 170.038 21.28 170.425 21.88C170.811 22.48 171.005 23.2067 171.005 24.06V24.32C171.005 25.16 170.805 25.8867 170.405 26.5C170.018 27.1 169.491 27.56 168.825 27.88C168.158 28.2 167.418 28.36 166.605 28.36H162.925V34H161.245ZM162.925 26.84H166.425C167.318 26.84 168.025 26.62 168.545 26.18C169.065 25.7267 169.325 25.0933 169.325 24.28V24.08C169.325 23.2667 169.065 22.64 168.545 22.2C168.038 21.7467 167.331 21.52 166.425 21.52H162.925V26.84ZM177.524 34.28C176.537 34.28 175.664 34.0733 174.904 33.66C174.157 33.2467 173.57 32.6667 173.144 31.92C172.73 31.16 172.524 30.2667 172.524 29.24V28.98C172.524 27.9667 172.73 27.08 173.144 26.32C173.57 25.56 174.157 24.9733 174.904 24.56C175.664 24.1467 176.537 23.94 177.524 23.94C178.51 23.94 179.377 24.1467 180.124 24.56C180.884 24.9733 181.47 25.56 181.884 26.32C182.31 27.08 182.524 27.9667 182.524 28.98V29.24C182.524 30.2667 182.31 31.16 181.884 31.92C181.47 32.6667 180.884 33.2467 180.124 33.66C179.377 34.0733 178.51 34.28 177.524 34.28ZM177.524 32.86C178.564 32.86 179.39 32.5333 180.004 31.88C180.63 31.2133 180.944 30.32 180.944 29.2V29.02C180.944 27.9 180.63 27.0133 180.004 26.36C179.39 25.6933 178.564 25.36 177.524 25.36C176.497 25.36 175.67 25.6933 175.044 26.36C174.417 27.0133 174.104 27.9 174.104 29.02V29.2C174.104 30.32 174.417 31.2133 175.044 31.88C175.67 32.5333 176.497 32.86 177.524 32.86ZM185.367 34V24.22H186.907V25.42H187.187C187.36 24.9933 187.627 24.68 187.987 24.48C188.347 24.28 188.82 24.18 189.407 24.18H190.567V25.62H189.307C188.6 25.62 188.027 25.82 187.587 26.22C187.16 26.6067 186.947 27.2133 186.947 28.04V34H185.367ZM196.506 34C195.946 34 195.513 33.8467 195.206 33.54C194.913 33.2333 194.766 32.8133 194.766 32.28V25.6H191.826V24.22H194.766V20.74H196.346V24.22H199.546V25.6H196.346V32.04C196.346 32.44 196.539 32.64 196.926 32.64H199.106V34H196.506ZM205.047 34.28C204.367 34.28 203.747 34.16 203.187 33.92C202.627 33.68 202.187 33.3333 201.867 32.88C201.547 32.4267 201.387 31.8733 201.387 31.22C201.387 30.5533 201.547 30.0067 201.867 29.58C202.187 29.14 202.627 28.8133 203.187 28.6C203.747 28.3733 204.373 28.26 205.067 28.26H208.367V27.54C208.367 26.8467 208.16 26.3 207.747 25.9C207.347 25.5 206.747 25.3 205.947 25.3C205.16 25.3 204.547 25.4933 204.107 25.88C203.667 26.2533 203.367 26.76 203.207 27.4L201.727 26.92C201.887 26.3733 202.14 25.88 202.487 25.44C202.833 24.9867 203.293 24.6267 203.867 24.36C204.453 24.08 205.153 23.94 205.967 23.94C207.22 23.94 208.193 24.2667 208.887 24.92C209.58 25.56 209.927 26.4667 209.927 27.64V32.06C209.927 32.46 210.113 32.66 210.487 32.66H211.387V34H210.007C209.567 34 209.213 33.88 208.947 33.64C208.68 33.3867 208.547 33.0533 208.547 32.64V32.54H208.307C208.16 32.7933 207.96 33.06 207.707 33.34C207.467 33.6067 207.133 33.8267 206.707 34C206.28 34.1867 205.727 34.28 205.047 34.28ZM205.227 32.92C206.16 32.92 206.913 32.6467 207.487 32.1C208.073 31.54 208.367 30.76 208.367 29.76V29.54H205.127C204.5 29.54 203.98 29.68 203.567 29.96C203.167 30.2267 202.967 30.6333 202.967 31.18C202.967 31.7267 203.173 32.1533 203.587 32.46C204.013 32.7667 204.56 32.92 205.227 32.92ZM213.551 34V20H215.131V34H213.551Z" fill="black"/>
</svg>
