<svg width="56" height="56" viewBox="0 0 56 56" fill="none" xmlns="http://www.w3.org/2000/svg">
<path d="M18.9269 12.8856L13.025 4.75925C16.8183 2.31248 21.2694 0.812549 26.037 0.525981V10.5693C23.455 10.8031 21.0419 11.6232 18.9269 12.8856Z" fill="white" stroke="black"/>
<path d="M11.929 20.8351L2.36721 17.7137C4.06837 13.3625 6.86285 9.55956 10.4235 6.64806L16.3256 14.7746C14.4396 16.4335 12.9311 18.5012 11.929 20.8351Z" fill="white" stroke="black"/>
<path d="M10.93 31.3659L1.36983 34.4689C0.800381 32.2805 0.5 29.9927 0.5 27.6204C0.5 25.248 0.800381 22.9602 1.36983 20.7718L10.9299 23.8748C10.6564 25.0762 10.5128 26.3249 10.5128 27.6204C10.5128 28.8983 10.6564 30.1608 10.93 31.3659Z" fill="white" stroke="black"/>
<path d="M16.3264 40.5041L10.4246 48.6122C6.87949 45.7002 4.06943 41.8975 2.36759 37.5481L11.9288 34.4447C12.9331 36.7799 14.4565 38.8468 16.3264 40.5041Z" fill="white" stroke="black"/>
<path d="M26.037 44.6885V54.7347C21.2531 54.4485 16.8177 52.9486 13.025 50.5014L18.927 42.3749C21.0443 43.6368 23.4577 44.4409 26.037 44.6885Z" fill="white" stroke="black"/>
<path d="M36.3734 42.375L42.2743 50.5C38.4799 52.9315 34.0289 54.4469 29.2633 54.7346V44.6913C31.8453 44.4575 34.2584 43.6374 36.3734 42.375Z" fill="white" stroke="black"/>
<path d="M43.3711 34.4058L52.9329 37.5273C51.2317 41.8784 48.4372 45.6814 44.8766 48.5929L38.9745 40.4663C40.8605 38.8075 42.3689 36.7397 43.3711 34.4058Z" fill="white" stroke="black"/>
<path d="M44.3706 23.8748L53.9308 20.7718C54.5003 22.9602 54.8006 25.248 54.8006 27.6204C54.8006 29.9927 54.5003 32.2805 53.9308 34.4689L44.3707 31.3659C44.6442 30.1645 44.7879 28.9158 44.7879 27.6204C44.7879 26.3424 44.6442 25.0799 44.3706 23.8748Z" fill="white" stroke="black"/>
<path d="M38.9932 14.7568L44.8949 6.6487C48.4401 9.5607 51.2502 13.3635 52.952 17.7128L43.3908 20.8162C42.3865 18.481 40.8631 16.4142 38.9932 14.7568Z" fill="white" stroke="black"/>
<path d="M29.2633 10.5693V0.525869C34.0473 0.812145 38.4826 2.31203 42.2753 4.75922L36.3734 12.8856C34.2584 11.6232 31.8453 10.8031 29.2633 10.5693Z" fill="white" stroke="black"/>
<path d="M16.6772 29.3705H17.3671L16.9597 28.8138L16.5969 28.3182C16.7332 28.194 16.8433 28.0415 16.9234 27.8627L16.9234 27.8627L16.9247 27.8598C17.0015 27.6843 17.0354 27.5063 17.0354 27.3373C17.0354 27.1474 16.9873 26.9805 16.9318 26.8323L16.9279 26.822L16.9234 26.812C16.7851 26.5034 16.5545 26.2586 16.2272 26.1155C16.0555 26.0362 15.8836 26.0035 15.7015 26.0035H13.6605H13.3105V26.3535V26.947V27.297H13.6605H15.7015C15.7059 27.297 15.7093 27.2972 15.7118 27.2974C15.7256 27.3132 15.7303 27.3227 15.7317 27.3261C15.7328 27.3286 15.7336 27.3311 15.7336 27.3373C15.7336 27.3412 15.7333 27.3432 15.7331 27.3439L15.7328 27.3449C15.7327 27.3452 15.7323 27.3462 15.7309 27.3482C15.7295 27.3503 15.7268 27.3537 15.7223 27.3582C15.7178 27.3627 15.7144 27.3653 15.7124 27.3668C15.7104 27.3681 15.7093 27.3686 15.7091 27.3687L15.708 27.369C15.7074 27.3691 15.7053 27.3695 15.7015 27.3695H13.6605H13.3105V27.7195V29.0205V29.3705H13.6605H14.2541H14.6041V29.0205V28.6712H15.2411L15.6565 29.2295L15.7615 29.3705H15.9373H16.6772Z" fill="white" stroke="black" stroke-width="0.7"/>
<path d="M20.7184 29.3705H21.3145L21.0241 28.85L19.5361 26.1829L19.4359 26.0035H19.2304H18.71H18.5051L18.4048 26.1822L16.9086 28.8493L16.6162 29.3705H17.2139H17.8969H18.1017L18.202 29.1919L18.9691 27.8264L19.7297 29.1909L19.8298 29.3705H20.0354H20.7184Z" fill="white" stroke="black" stroke-width="0.7"/>
<path d="M24.7597 29.3705H25.1097V29.0205V26.3535V26.0035H24.7597H24.0848H23.9031L23.7986 26.152L23.0044 27.2806L22.217 26.153L22.1125 26.0035H21.93H21.2551H20.9051V26.3535V29.0124V29.3624H21.2551H21.8568H22.2068V29.0124V28.3826L22.4808 28.774L22.5853 28.9233H22.7675H23.2554H23.4376L23.5422 28.774L23.8161 28.3826V29.0205V29.3705H24.1661H24.7597Z" fill="white" stroke="black" stroke-width="0.7"/>
<path d="M28.6224 27.3133H28.8663V26.9633V26.3616V26.0116H28.5163H25.4996H25.1496V26.3616V26.9633V27.3133H25.3854V27.3943V27.9879V28.077H25.1496V28.427V29.0206V29.3706H25.4996H28.5163H28.8663V29.0206V28.427V28.077H28.6224V27.9879V27.3943V27.3133Z" fill="white" stroke="black" stroke-width="0.7"/>
<mask id="path-15-outside-1_779_109" maskUnits="userSpaceOnUse" x="28.1099" y="25.3453" width="5" height="5" fill="black">
<rect fill="white" x="28.1099" y="25.3453" width="5" height="5"/>
<path d="M31.2646 29.0205H29.9799C29.8661 29.0205 29.7522 28.9961 29.6465 28.9555C29.4351 28.8742 29.2806 28.7278 29.183 28.5245C29.1343 28.4269 29.1099 28.3131 29.1099 28.1993H29.7116C29.7116 28.2481 29.7278 28.2887 29.7522 28.3212C29.7766 28.3538 29.8173 28.3782 29.8579 28.3944C29.8986 28.4107 29.9393 28.4188 29.9799 28.4188H31.2646C31.3053 28.4188 31.346 28.4107 31.3866 28.3944C31.4273 28.3782 31.4598 28.3538 31.4923 28.3212C31.5249 28.2887 31.533 28.2481 31.533 28.1993C31.533 28.1505 31.5167 28.118 31.4923 28.0854C31.4679 28.0529 31.4273 28.0285 31.3866 28.0122C31.346 27.996 31.3053 27.9879 31.2646 27.9879H29.9799C29.8661 27.9879 29.7522 27.9716 29.6465 27.9228C29.4351 27.8415 29.2806 27.6951 29.183 27.4918C29.1343 27.3943 29.1099 27.2804 29.1099 27.1666C29.1099 27.0528 29.1343 26.9471 29.183 26.8413C29.2806 26.6381 29.4351 26.4917 29.6465 26.4104C29.7522 26.3697 29.8579 26.3453 29.9799 26.3453H31.2646C31.3785 26.3453 31.4923 26.3616 31.598 26.4104C31.8094 26.4917 31.9639 26.6381 32.0615 26.8413C32.1103 26.9389 32.1347 27.0528 32.1347 27.1666H31.5411C31.5411 27.1178 31.5248 27.0853 31.5005 27.0528C31.4761 27.0202 31.4354 26.9958 31.3948 26.9796C31.3541 26.9633 31.3134 26.9552 31.2728 26.9552H29.988C29.9474 26.9552 29.9067 26.9633 29.8661 26.9796C29.8254 26.9958 29.7929 27.0202 29.7604 27.0528C29.7278 27.0853 29.7197 27.1259 29.7197 27.1666C29.7197 27.2154 29.736 27.256 29.7604 27.2886C29.7848 27.3211 29.8254 27.3455 29.8661 27.3617C29.9067 27.378 29.9474 27.3861 29.988 27.3861H31.2728C31.3866 27.3861 31.5005 27.4105 31.6062 27.4512C31.8176 27.5325 31.9721 27.6789 32.0696 27.8821C32.1184 27.9797 32.1428 28.0854 32.1428 28.1993C32.1428 28.3131 32.1184 28.4188 32.0696 28.5245C31.9721 28.7278 31.8176 28.8742 31.6062 28.9555C31.4842 28.9961 31.3785 29.0205 31.2646 29.0205Z"/>
</mask>
<path d="M31.2646 29.0205H29.9799C29.8661 29.0205 29.7522 28.9961 29.6465 28.9555C29.4351 28.8742 29.2806 28.7278 29.183 28.5245C29.1343 28.4269 29.1099 28.3131 29.1099 28.1993H29.7116C29.7116 28.2481 29.7278 28.2887 29.7522 28.3212C29.7766 28.3538 29.8173 28.3782 29.8579 28.3944C29.8986 28.4107 29.9393 28.4188 29.9799 28.4188H31.2646C31.3053 28.4188 31.346 28.4107 31.3866 28.3944C31.4273 28.3782 31.4598 28.3538 31.4923 28.3212C31.5249 28.2887 31.533 28.2481 31.533 28.1993C31.533 28.1505 31.5167 28.118 31.4923 28.0854C31.4679 28.0529 31.4273 28.0285 31.3866 28.0122C31.346 27.996 31.3053 27.9879 31.2646 27.9879H29.9799C29.8661 27.9879 29.7522 27.9716 29.6465 27.9228C29.4351 27.8415 29.2806 27.6951 29.183 27.4918C29.1343 27.3943 29.1099 27.2804 29.1099 27.1666C29.1099 27.0528 29.1343 26.9471 29.183 26.8413C29.2806 26.6381 29.4351 26.4917 29.6465 26.4104C29.7522 26.3697 29.8579 26.3453 29.9799 26.3453H31.2646C31.3785 26.3453 31.4923 26.3616 31.598 26.4104C31.8094 26.4917 31.9639 26.6381 32.0615 26.8413C32.1103 26.9389 32.1347 27.0528 32.1347 27.1666H31.5411C31.5411 27.1178 31.5248 27.0853 31.5005 27.0528C31.4761 27.0202 31.4354 26.9958 31.3948 26.9796C31.3541 26.9633 31.3134 26.9552 31.2728 26.9552H29.988C29.9474 26.9552 29.9067 26.9633 29.8661 26.9796C29.8254 26.9958 29.7929 27.0202 29.7604 27.0528C29.7278 27.0853 29.7197 27.1259 29.7197 27.1666C29.7197 27.2154 29.736 27.256 29.7604 27.2886C29.7848 27.3211 29.8254 27.3455 29.8661 27.3617C29.9067 27.378 29.9474 27.3861 29.988 27.3861H31.2728C31.3866 27.3861 31.5005 27.4105 31.6062 27.4512C31.8176 27.5325 31.9721 27.6789 32.0696 27.8821C32.1184 27.9797 32.1428 28.0854 32.1428 28.1993C32.1428 28.3131 32.1184 28.4188 32.0696 28.5245C31.9721 28.7278 31.8176 28.8742 31.6062 28.9555C31.4842 28.9961 31.3785 29.0205 31.2646 29.0205Z" fill="white"/>
<path d="M29.183 28.5245L29.8142 28.2216L29.8091 28.2115L29.183 28.5245ZM29.1099 28.1993V27.4993H28.4099V28.1993H29.1099ZM29.7116 28.1993H30.4116V27.4993H29.7116V28.1993ZM29.6465 27.9228L29.9399 27.2872L29.9191 27.2777L29.8978 27.2695L29.6465 27.9228ZM29.183 27.4918L29.8142 27.1889L29.8091 27.1788L29.183 27.4918ZM29.183 26.8413L28.5519 26.5384L28.5475 26.548L29.183 26.8413ZM31.598 26.4104L31.3047 27.046L31.3254 27.0555L31.3467 27.0637L31.598 26.4104ZM32.0615 26.8413L31.4304 27.1443L31.4354 27.1544L32.0615 26.8413ZM32.1347 27.1666V27.8666H32.8347V27.1666H32.1347ZM31.5411 27.1666H30.8411V27.8666H31.5411V27.1666ZM32.0696 27.8821L31.4385 28.1851L31.4435 28.1952L32.0696 27.8821ZM32.0696 28.5245L32.7008 28.8275L32.7052 28.8179L32.0696 28.5245ZM31.6062 28.9555L31.8275 29.6196L31.8426 29.6145L31.8574 29.6088L31.6062 28.9555ZM31.2646 28.3205H29.9799V29.7205H31.2646V28.3205ZM29.9799 28.3205C29.9646 28.3205 29.936 28.3168 29.8978 28.3021L29.3952 29.6088C29.5684 29.6754 29.7675 29.7205 29.9799 29.7205V28.3205ZM29.8978 28.3021C29.8588 28.2871 29.8371 28.2695 29.8141 28.2216L28.552 28.8274C28.7241 29.1861 29.0114 29.4612 29.3952 29.6088L29.8978 28.3021ZM29.8091 28.2115C29.8124 28.2179 29.8123 28.2198 29.8115 28.2161C29.8107 28.2126 29.8099 28.2067 29.8099 28.1993H28.4099C28.4099 28.4088 28.4541 28.6318 28.5569 28.8376L29.8091 28.2115ZM29.1099 28.8993H29.7116V27.4993H29.1099V28.8993ZM29.0116 28.1993C29.0116 28.4139 29.086 28.5996 29.1922 28.7412L30.3122 27.9012C30.3697 27.9779 30.4116 28.0822 30.4116 28.1993H29.0116ZM29.1922 28.7412C29.3275 28.9215 29.5043 29.0069 29.598 29.0444L30.1179 27.7445C30.1331 27.7505 30.1575 27.7617 30.1873 27.7815C30.2156 27.8004 30.2646 27.8377 30.3122 27.9012L29.1922 28.7412ZM29.598 29.0444C29.7149 29.0911 29.8435 29.1188 29.9799 29.1188V27.7188C30.035 27.7188 30.0823 27.7302 30.1179 27.7445L29.598 29.0444ZM29.9799 29.1188H31.2646V27.7188H29.9799V29.1188ZM31.2646 29.1188C31.401 29.1188 31.5297 29.0911 31.6466 29.0444L31.1266 27.7445C31.1623 27.7302 31.2096 27.7188 31.2646 27.7188V29.1188ZM31.6466 29.0444C31.8011 28.9825 31.9108 28.8928 31.9873 28.8162L30.9974 27.8263C31.0014 27.8222 31.0156 27.8085 31.0388 27.792C31.0634 27.7747 31.093 27.7579 31.1266 27.7445L31.6466 29.0444ZM31.9873 28.8162C32.2145 28.589 32.233 28.3191 32.233 28.1993H30.833C30.833 28.1897 30.833 28.1363 30.8544 28.0652C30.8786 27.9843 30.9248 27.8988 30.9974 27.8263L31.9873 28.8162ZM32.233 28.1993C32.233 27.9543 32.1365 27.7776 32.0523 27.6654L30.9323 28.5054C30.9227 28.4926 30.8936 28.4521 30.8694 28.39C30.8435 28.3234 30.833 28.2573 30.833 28.1993H32.233ZM32.0523 27.6654C31.9171 27.4851 31.7402 27.3998 31.6466 27.3623L31.1266 28.6622C31.1115 28.6561 31.087 28.645 31.0573 28.6252C31.0289 28.6063 30.98 28.5689 30.9323 28.5054L32.0523 27.6654ZM31.6466 27.3623C31.5297 27.3155 31.401 27.2879 31.2646 27.2879V28.6879C31.2096 28.6879 31.1623 28.6764 31.1266 28.6622L31.6466 27.3623ZM31.2646 27.2879H29.9799V28.6879H31.2646V27.2879ZM29.9799 27.2879C29.9298 27.2879 29.9247 27.2802 29.9399 27.2872L29.3532 28.5584C29.5798 28.663 29.8024 28.6879 29.9799 28.6879V27.2879ZM29.8978 27.2695C29.8588 27.2545 29.8371 27.2369 29.8141 27.1889L28.552 27.7948C28.7241 28.1534 29.0114 28.4285 29.3952 28.5761L29.8978 27.2695ZM29.8091 27.1788C29.8124 27.1853 29.8123 27.1871 29.8115 27.1835C29.8107 27.1799 29.8099 27.174 29.8099 27.1666H28.4099C28.4099 27.3761 28.4541 27.5992 28.5569 27.8049L29.8091 27.1788ZM29.8099 27.1666C29.8099 27.1606 29.8104 27.1576 29.8109 27.1555C29.8114 27.1532 29.8131 27.1467 29.8186 27.1347L28.5475 26.548C28.4589 26.74 28.4099 26.9454 28.4099 27.1666H29.8099ZM29.8141 27.1443C29.8371 27.0963 29.8588 27.0787 29.8978 27.0637L29.3952 25.757C29.0114 25.9047 28.7241 26.1798 28.552 26.5384L29.8141 27.1443ZM29.8978 27.0637C29.9212 27.0547 29.9365 27.0506 29.9468 27.0485C29.9566 27.0465 29.9667 27.0453 29.9799 27.0453V25.6453C29.7563 25.6453 29.565 25.6917 29.3952 25.757L29.8978 27.0637ZM29.9799 27.0453H31.2646V25.6453H29.9799V27.0453ZM31.2646 27.0453C31.3148 27.0453 31.3199 27.053 31.3047 27.046L31.8914 25.7748C31.6648 25.6702 31.4422 25.6453 31.2646 25.6453V27.0453ZM31.3467 27.0637C31.3858 27.0787 31.4074 27.0963 31.4304 27.1443L32.6926 26.5384C32.5204 26.1798 32.2331 25.9047 31.8493 25.757L31.3467 27.0637ZM31.4354 27.1544C31.4322 27.1479 31.4323 27.1461 31.4331 27.1497C31.4339 27.1533 31.4347 27.1592 31.4347 27.1666H32.8347C32.8347 26.9571 32.7905 26.734 32.6876 26.5283L31.4354 27.1544ZM32.1347 26.4666H31.5411V27.8666H32.1347V26.4666ZM32.2411 27.1666C32.2411 26.9216 32.1446 26.7449 32.0605 26.6328L30.9405 27.4728C30.9309 27.46 30.9017 27.4194 30.8775 27.3573C30.8517 27.2907 30.8411 27.2246 30.8411 27.1666H32.2411ZM32.0605 26.6328C31.9252 26.4525 31.7484 26.3671 31.6547 26.3296L31.1348 27.6295C31.1196 27.6234 31.0952 27.6123 31.0654 27.5925C31.0371 27.5736 30.9881 27.5363 30.9405 27.4728L32.0605 26.6328ZM31.6547 26.3296C31.5378 26.2829 31.4092 26.2552 31.2728 26.2552V27.6552C31.2177 27.6552 31.1704 27.6438 31.1348 27.6295L31.6547 26.3296ZM31.2728 26.2552H29.988V27.6552H31.2728V26.2552ZM29.988 26.2552C29.8517 26.2552 29.723 26.2829 29.6061 26.3296L30.126 27.6295C30.0904 27.6438 30.0431 27.6552 29.988 27.6552V26.2552ZM29.6061 26.3296C29.4515 26.3915 29.3419 26.4812 29.2654 26.5578L30.2553 27.5477C30.2513 27.5518 30.2371 27.5655 30.2138 27.5819C30.1893 27.5993 30.1597 27.6161 30.126 27.6295L29.6061 26.3296ZM29.2654 26.5578C29.0461 26.777 29.0197 27.0371 29.0197 27.1666H30.4197C30.4197 27.2148 30.4095 27.3935 30.2553 27.5477L29.2654 26.5578ZM29.0197 27.1666C29.0197 27.3812 29.0941 27.5669 29.2004 27.7086L30.3204 26.8686C30.3778 26.9452 30.4197 27.0496 30.4197 27.1666H29.0197ZM29.2004 27.7086C29.3356 27.8889 29.5125 27.9742 29.6061 28.0117L30.126 26.7118C30.1412 26.7179 30.1657 26.729 30.1954 26.7488C30.2238 26.7677 30.2727 26.8051 30.3204 26.8686L29.2004 27.7086ZM29.6061 28.0117C29.723 28.0584 29.8517 28.0861 29.988 28.0861V26.6861C30.0431 26.6861 30.0904 26.6976 30.126 26.7118L29.6061 28.0117ZM29.988 28.0861H31.2728V26.6861H29.988V28.0861ZM31.2728 28.0861C31.2881 28.0861 31.3167 28.0898 31.3549 28.1045L31.8574 26.7978C31.6842 26.7312 31.4852 26.6861 31.2728 26.6861V28.0861ZM31.3549 28.1045C31.3939 28.1195 31.4156 28.1371 31.4386 28.1851L32.7007 27.5792C32.5286 27.2206 32.2413 26.9455 31.8574 26.7978L31.3549 28.1045ZM31.4435 28.1952C31.4436 28.1952 31.4435 28.1951 31.4434 28.1949C31.4433 28.1946 31.4432 28.1943 31.443 28.194C31.4428 28.1932 31.4426 28.1925 31.4425 28.192C31.4422 28.1908 31.4428 28.1927 31.4428 28.1993H32.8428C32.8428 27.9816 32.7953 27.7681 32.6957 27.5691L31.4435 28.1952ZM31.4428 28.1993C31.4428 28.2053 31.4423 28.2083 31.4418 28.2104C31.4413 28.2127 31.4396 28.2191 31.4341 28.2312L32.7052 28.8179C32.7938 28.6259 32.8428 28.4205 32.8428 28.1993H31.4428ZM31.4386 28.2216C31.4156 28.2695 31.3939 28.2871 31.3549 28.3021L31.8574 29.6088C32.2413 29.4612 32.5286 29.1861 32.7007 28.8274L31.4386 28.2216ZM31.3848 28.2914C31.2978 28.3204 31.2726 28.3205 31.2646 28.3205V29.7205C31.4844 29.7205 31.6706 29.6719 31.8275 29.6196L31.3848 28.2914Z" fill="black" mask="url(#path-15-outside-1_779_109)"/>
<path d="M34.257 29.3705H34.607V29.0205V27.297H35.2246H35.5746V26.947V26.3535V26.0035H35.2246H32.6876H32.3376V26.3535V26.947V27.297H32.6876H33.3134V29.0205V29.3705H33.6634H34.257Z" fill="white" stroke="black" stroke-width="0.7"/>
<path d="M37.4282 29.3705H37.7782V29.0205V27.297H38.3958H38.7458V26.947V26.3535V26.0035H38.3958H35.8589H35.5089V26.3535V26.947V27.297H35.8589H36.4846V29.0205V29.3705H36.8346H37.4282Z" fill="white" stroke="black" stroke-width="0.7"/>
<path d="M41.5914 29.3705H42.189L41.8966 28.8493L40.4005 26.1822L40.3002 26.0035H40.0952H39.5748H39.3693L39.2692 26.1829L37.7811 28.85L37.4907 29.3705H38.0868H38.7698H38.9747L39.075 29.1919L39.842 27.8264L40.6026 29.1909L40.7027 29.3705H40.9083H41.5914Z" fill="white" stroke="black" stroke-width="0.7"/>
</svg>
