<svg width="56" height="56" viewBox="0 0 56 56" fill="none" xmlns="http://www.w3.org/2000/svg">
<path fill-rule="evenodd" clip-rule="evenodd" d="M12.313 4.6297C16.4108 1.87158 21.2966 0.216709 26.537 0V11.0325C23.7001 11.2098 21.0602 12.116 18.7946 13.5542L12.313 4.6297Z" fill="black"/>
<path fill-rule="evenodd" clip-rule="evenodd" d="M1.71362 18.0263C3.4867 13.2192 6.56003 9.04267 10.5199 5.92993L17.0015 14.8544C14.8935 16.6078 13.2386 18.8734 12.2142 21.4542L1.71362 18.0263Z" fill="black"/>
<path fill-rule="evenodd" clip-rule="evenodd" d="M1.02444 35.1067C0.354615 32.7229 0 30.2209 0 27.6204C0 25.0198 0.354615 22.5178 1.02444 20.134L11.525 23.5423C11.1901 24.8425 11.0128 26.2019 11.0128 27.6204C11.0128 29.0191 11.1901 30.3982 11.525 31.6984L1.02444 35.1067Z" fill="black"/>
<path fill-rule="evenodd" clip-rule="evenodd" d="M10.5199 49.331C6.57973 46.2182 3.4867 42.0417 1.71362 37.2347L12.2142 33.8264C13.2386 36.4072 14.9132 38.6728 17.0015 40.4262L10.5199 49.331Z" fill="black"/>
<path fill-rule="evenodd" clip-rule="evenodd" d="M26.537 55.2607C21.2769 55.044 16.4108 53.3891 12.313 50.631L18.7946 41.7065C21.0602 43.1447 23.7001 44.0312 26.537 44.2283V55.2607Z" fill="black"/>
<path fill-rule="evenodd" clip-rule="evenodd" d="M42.9873 50.631C38.8895 53.3694 34.0037 55.044 28.7633 55.2607V44.2283C31.6002 44.0509 34.2401 43.1447 36.5057 41.7065L42.9873 50.631Z" fill="black"/>
<path fill-rule="evenodd" clip-rule="evenodd" d="M53.5864 37.2146C51.8134 42.0216 48.74 46.1982 44.7802 49.3109L38.2986 40.3864C40.4066 38.633 42.0614 36.3674 43.0859 33.7866L53.5864 37.2146Z" fill="black"/>
<path fill-rule="evenodd" clip-rule="evenodd" d="M54.2762 20.134C54.946 22.5178 55.3006 25.0198 55.3006 27.6204C55.3006 30.2209 54.946 32.7229 54.2762 35.1067L43.7756 31.6984C44.1105 30.3982 44.2879 29.0388 44.2879 27.6204C44.2879 26.2216 44.1105 24.8425 43.7756 23.5423L54.2762 20.134Z" fill="black"/>
<path fill-rule="evenodd" clip-rule="evenodd" d="M44.7997 5.92993C48.7399 9.04267 51.8329 13.2192 53.606 18.0263L43.1054 21.4345C42.081 18.8537 40.4064 16.5881 38.3181 14.8347L44.7997 5.92993Z" fill="black"/>
<path fill-rule="evenodd" clip-rule="evenodd" d="M28.7633 0C34.0234 0.216709 38.8895 1.87158 42.9873 4.6297L36.5057 13.5542C34.2401 12.116 31.6002 11.2098 28.7633 11.0325V0Z" fill="black"/>
<path d="M16.6772 29.0203H15.9373L15.4169 28.321H14.2541V29.0203H13.6605V27.7193H15.7015C15.8072 27.7193 15.8966 27.6787 15.9698 27.6055C16.043 27.5323 16.0836 27.4429 16.0836 27.3372C16.0836 27.2314 16.043 27.142 15.9698 27.0607C15.8966 26.9794 15.8072 26.9469 15.7015 26.9469H13.6605V26.3533H15.7015C15.8397 26.3533 15.9617 26.3777 16.0836 26.4346C16.3276 26.5403 16.4983 26.7192 16.604 26.955C16.6528 27.0851 16.6854 27.2071 16.6854 27.3372C16.6854 27.4591 16.661 27.5892 16.604 27.7193C16.4983 27.9551 16.3276 28.1259 16.0999 28.2316L16.6772 29.0203Z" fill="black"/>
<path d="M20.7184 29.0203H20.0354L18.9702 27.1095L17.8969 29.0203H17.2139L18.71 26.3533H19.2304L20.7184 29.0203Z" fill="black"/>
<path d="M24.7597 29.0203H24.1661V27.2721L23.2554 28.5731H22.7675L21.8568 27.2721V29.0122H21.2551V26.3533H21.93L23.0034 27.8901L24.0848 26.3533H24.7597V29.0203Z" fill="black"/>
<path d="M28.5163 26.9633H25.4996V26.3616H28.5163V26.9633ZM28.5163 29.0205H25.4996V28.4269H28.5163V29.0205ZM28.2724 27.9878H25.7354V27.3942H28.2724V27.9878Z" fill="black"/>
<path d="M31.2646 29.0204H29.9799C29.8661 29.0204 29.7522 28.996 29.6465 28.9554C29.4351 28.874 29.2806 28.7277 29.183 28.5244C29.1343 28.4268 29.1099 28.313 29.1099 28.1991H29.7116C29.7116 28.2479 29.7278 28.2886 29.7522 28.3211C29.7766 28.3536 29.8173 28.378 29.8579 28.3943C29.8986 28.4106 29.9393 28.4187 29.9799 28.4187H31.2646C31.3053 28.4187 31.346 28.4106 31.3866 28.3943C31.4273 28.378 31.4598 28.3536 31.4923 28.3211C31.5249 28.2886 31.533 28.2479 31.533 28.1991C31.533 28.1504 31.5167 28.1178 31.4923 28.0853C31.4679 28.0528 31.4273 28.0284 31.3866 28.0121C31.346 27.9959 31.3053 27.9877 31.2646 27.9877H29.9799C29.8661 27.9877 29.7522 27.9715 29.6465 27.9227C29.4351 27.8414 29.2806 27.695 29.183 27.4917C29.1343 27.3941 29.1099 27.2803 29.1099 27.1665C29.1099 27.0526 29.1343 26.9469 29.183 26.8412C29.2806 26.6379 29.4351 26.4916 29.6465 26.4103C29.7522 26.3696 29.8579 26.3452 29.9799 26.3452H31.2646C31.3785 26.3452 31.4923 26.3615 31.598 26.4103C31.8094 26.4916 31.9639 26.6379 32.0615 26.8412C32.1103 26.9388 32.1347 27.0526 32.1347 27.1665H31.5411C31.5411 27.1177 31.5248 27.0852 31.5005 27.0526C31.4761 27.0201 31.4354 26.9957 31.3948 26.9795C31.3541 26.9632 31.3134 26.9551 31.2728 26.9551H29.988C29.9474 26.9551 29.9067 26.9632 29.8661 26.9795C29.8254 26.9957 29.7929 27.0201 29.7604 27.0526C29.7278 27.0852 29.7197 27.1258 29.7197 27.1665C29.7197 27.2153 29.736 27.2559 29.7604 27.2884C29.7848 27.321 29.8254 27.3454 29.8661 27.3616C29.9067 27.3779 29.9474 27.386 29.988 27.386H31.2728C31.3866 27.386 31.5005 27.4104 31.6062 27.4511C31.8176 27.5324 31.9721 27.6787 32.0696 27.882C32.1184 27.9796 32.1428 28.0853 32.1428 28.1991C32.1428 28.313 32.1184 28.4187 32.0696 28.5244C31.9721 28.7277 31.8176 28.874 31.6062 28.9554C31.4842 28.996 31.3785 29.0204 31.2646 29.0204Z" fill="black"/>
<path d="M34.257 29.0203H33.6634V26.9469H32.6876V26.3533H35.2246V26.9469H34.257V29.0203Z" fill="black"/>
<path d="M37.4282 29.0203H36.8346V26.9469H35.8589V26.3533H38.3958V26.9469H37.4282V29.0203Z" fill="black"/>
<path d="M41.5914 29.0203H40.9083L39.8431 27.1095L38.7698 29.0203H38.0868L39.5748 26.3533H40.0952L41.5914 29.0203Z" fill="black"/>
</svg>
