<svg width="510" height="360" viewBox="0 0 510 360" fill="none" xmlns="http://www.w3.org/2000/svg">
<rect x="0.5" y="0.5" width="509" height="359" rx="7.5" fill="black" stroke="#1D1D20"/>
<rect x="1" y="16" width="508" height="40" fill="url(#paint0_linear_809_8)"/>
<path d="M89.8451 45.336C88.6931 45.336 87.6451 45.08 86.7011 44.568C85.7731 44.04 85.0291 43.28 84.4691 42.288C83.9251 41.28 83.6531 40.056 83.6531 38.616V34.584C83.6531 32.424 84.2611 30.768 85.4771 29.616C86.6931 28.448 88.3411 27.864 90.4211 27.864C92.4851 27.864 94.0771 28.416 95.1971 29.52C96.3331 30.608 96.9011 32.088 96.9011 33.96V34.056H93.7811V33.864C93.7811 33.272 93.6531 32.736 93.3971 32.256C93.1571 31.776 92.7891 31.4 92.2931 31.128C91.7971 30.84 91.1731 30.696 90.4211 30.696C89.3011 30.696 88.4211 31.04 87.7811 31.728C87.1411 32.416 86.8211 33.352 86.8211 34.536V38.664C86.8211 39.832 87.1411 40.776 87.7811 41.496C88.4211 42.2 89.3171 42.552 90.4691 42.552C91.6211 42.552 92.4611 42.248 92.9891 41.64C93.5171 41.032 93.7811 40.264 93.7811 39.336V39.096H89.7971V36.408H96.9011V45H93.9731V43.392H93.5411C93.4291 43.664 93.2451 43.952 92.9891 44.256C92.7491 44.56 92.3811 44.816 91.8851 45.024C91.3891 45.232 90.7091 45.336 89.8451 45.336ZM105.688 45.336C104.504 45.336 103.44 45.096 102.496 44.616C101.552 44.136 100.808 43.44 100.264 42.528C99.7198 41.616 99.4478 40.52 99.4478 39.24V38.856C99.4478 37.576 99.7198 36.48 100.264 35.568C100.808 34.656 101.552 33.96 102.496 33.48C103.44 33 104.504 32.76 105.688 32.76C106.872 32.76 107.936 33 108.88 33.48C109.824 33.96 110.568 34.656 111.112 35.568C111.656 36.48 111.928 37.576 111.928 38.856V39.24C111.928 40.52 111.656 41.616 111.112 42.528C110.568 43.44 109.824 44.136 108.88 44.616C107.936 45.096 106.872 45.336 105.688 45.336ZM105.688 42.648C106.616 42.648 107.384 42.352 107.992 41.76C108.6 41.152 108.904 40.288 108.904 39.168V38.928C108.904 37.808 108.6 36.952 107.992 36.36C107.4 35.752 106.632 35.448 105.688 35.448C104.76 35.448 103.992 35.752 103.384 36.36C102.776 36.952 102.472 37.808 102.472 38.928V39.168C102.472 40.288 102.776 41.152 103.384 41.76C103.992 42.352 104.76 42.648 105.688 42.648ZM125.373 45C124.589 45 123.949 44.76 123.453 44.28C122.973 43.784 122.733 43.128 122.733 42.312V35.592H119.757V33.096H122.733V29.4H125.757V33.096H129.021V35.592H125.757V41.784C125.757 42.264 125.981 42.504 126.429 42.504H128.733V45H125.373ZM131.758 45V28.2H134.782V34.56H135.214C135.342 34.304 135.542 34.048 135.814 33.792C136.086 33.536 136.446 33.328 136.894 33.168C137.358 32.992 137.942 32.904 138.646 32.904C139.574 32.904 140.382 33.12 141.07 33.552C141.774 33.968 142.318 34.552 142.702 35.304C143.086 36.04 143.278 36.904 143.278 37.896V45H140.254V38.136C140.254 37.24 140.03 36.568 139.582 36.12C139.15 35.672 138.526 35.448 137.71 35.448C136.782 35.448 136.062 35.76 135.55 36.384C135.038 36.992 134.782 37.848 134.782 38.952V45H131.758ZM146.547 45V33.096H149.523V34.44H149.955C150.131 33.96 150.419 33.608 150.819 33.384C151.235 33.16 151.715 33.048 152.259 33.048H153.699V35.736H152.211C151.443 35.736 150.811 35.944 150.315 36.36C149.819 36.76 149.571 37.384 149.571 38.232V45H146.547ZM161.305 45.336C160.121 45.336 159.057 45.096 158.113 44.616C157.169 44.136 156.425 43.44 155.881 42.528C155.337 41.616 155.065 40.52 155.065 39.24V38.856C155.065 37.576 155.337 36.48 155.881 35.568C156.425 34.656 157.169 33.96 158.113 33.48C159.057 33 160.121 32.76 161.305 32.76C162.489 32.76 163.553 33 164.497 33.48C165.441 33.96 166.185 34.656 166.729 35.568C167.273 36.48 167.545 37.576 167.545 38.856V39.24C167.545 40.52 167.273 41.616 166.729 42.528C166.185 43.44 165.441 44.136 164.497 44.616C163.553 45.096 162.489 45.336 161.305 45.336ZM161.305 42.648C162.233 42.648 163.001 42.352 163.609 41.76C164.217 41.152 164.521 40.288 164.521 39.168V38.928C164.521 37.808 164.217 36.952 163.609 36.36C163.017 35.752 162.249 35.448 161.305 35.448C160.377 35.448 159.609 35.752 159.001 36.36C158.393 36.952 158.089 37.808 158.089 38.928V39.168C158.089 40.288 158.393 41.152 159.001 41.76C159.609 42.352 160.377 42.648 161.305 42.648ZM174.872 45.192C173.944 45.192 173.128 44.984 172.424 44.568C171.736 44.136 171.2 43.544 170.816 42.792C170.432 42.04 170.24 41.176 170.24 40.2V33.096H173.264V39.96C173.264 40.856 173.48 41.528 173.912 41.976C174.36 42.424 174.992 42.648 175.808 42.648C176.736 42.648 177.456 42.344 177.968 41.736C178.48 41.112 178.736 40.248 178.736 39.144V33.096H181.76V45H178.784V43.44H178.352C178.16 43.84 177.8 44.232 177.272 44.616C176.744 45 175.944 45.192 174.872 45.192ZM184.549 39.096V38.712C184.549 37.464 184.797 36.4 185.293 35.52C185.789 34.624 186.445 33.944 187.261 33.48C188.093 33 188.997 32.76 189.973 32.76C191.061 32.76 191.885 32.952 192.445 33.336C193.005 33.72 193.413 34.12 193.669 34.536H194.101V33.096H197.077V47.112C197.077 47.928 196.837 48.576 196.357 49.056C195.877 49.552 195.237 49.8 194.437 49.8H186.469V47.16H193.381C193.829 47.16 194.053 46.92 194.053 46.44V43.344H193.621C193.461 43.6 193.237 43.864 192.949 44.136C192.661 44.392 192.277 44.608 191.797 44.784C191.317 44.96 190.709 45.048 189.973 45.048C188.997 45.048 188.093 44.816 187.261 44.352C186.445 43.872 185.789 43.192 185.293 42.312C184.797 41.416 184.549 40.344 184.549 39.096ZM190.837 42.408C191.765 42.408 192.541 42.112 193.165 41.52C193.789 40.928 194.101 40.096 194.101 39.024V38.784C194.101 37.696 193.789 36.864 193.165 36.288C192.557 35.696 191.781 35.4 190.837 35.4C189.909 35.4 189.133 35.696 188.509 36.288C187.885 36.864 187.573 37.696 187.573 38.784V39.024C187.573 40.096 187.885 40.928 188.509 41.52C189.133 42.112 189.909 42.408 190.837 42.408ZM200.43 45V28.2H203.454V34.56H203.886C204.014 34.304 204.214 34.048 204.486 33.792C204.758 33.536 205.118 33.328 205.566 33.168C206.03 32.992 206.614 32.904 207.318 32.904C208.246 32.904 209.054 33.12 209.742 33.552C210.446 33.968 210.99 34.552 211.374 35.304C211.758 36.04 211.95 36.904 211.95 37.896V45H208.926V38.136C208.926 37.24 208.702 36.568 208.254 36.12C207.822 35.672 207.198 35.448 206.382 35.448C205.454 35.448 204.734 35.76 204.222 36.384C203.71 36.992 203.454 37.848 203.454 38.952V45H200.43ZM222.609 49.8V47.16H229.089C229.537 47.16 229.761 46.92 229.761 46.44V43.44H229.329C229.201 43.712 229.001 43.984 228.729 44.256C228.457 44.528 228.089 44.752 227.625 44.928C227.161 45.104 226.569 45.192 225.849 45.192C224.921 45.192 224.105 44.984 223.401 44.568C222.713 44.136 222.177 43.544 221.793 42.792C221.409 42.04 221.217 41.176 221.217 40.2V33.096H224.241V39.96C224.241 40.856 224.457 41.528 224.889 41.976C225.337 42.424 225.969 42.648 226.785 42.648C227.713 42.648 228.433 42.344 228.945 41.736C229.457 41.112 229.713 40.248 229.713 39.144V33.096H232.737V47.112C232.737 47.928 232.497 48.576 232.017 49.056C231.537 49.552 230.897 49.8 230.097 49.8H222.609ZM241.766 45.336C240.582 45.336 239.518 45.096 238.574 44.616C237.63 44.136 236.886 43.44 236.342 42.528C235.798 41.616 235.526 40.52 235.526 39.24V38.856C235.526 37.576 235.798 36.48 236.342 35.568C236.886 34.656 237.63 33.96 238.574 33.48C239.518 33 240.582 32.76 241.766 32.76C242.95 32.76 244.014 33 244.958 33.48C245.902 33.96 246.646 34.656 247.19 35.568C247.734 36.48 248.006 37.576 248.006 38.856V39.24C248.006 40.52 247.734 41.616 247.19 42.528C246.646 43.44 245.902 44.136 244.958 44.616C244.014 45.096 242.95 45.336 241.766 45.336ZM241.766 42.648C242.694 42.648 243.462 42.352 244.07 41.76C244.678 41.152 244.982 40.288 244.982 39.168V38.928C244.982 37.808 244.678 36.952 244.07 36.36C243.478 35.752 242.71 35.448 241.766 35.448C240.838 35.448 240.07 35.752 239.462 36.36C238.854 36.952 238.55 37.808 238.55 38.928V39.168C238.55 40.288 238.854 41.152 239.462 41.76C240.07 42.352 240.838 42.648 241.766 42.648ZM255.333 45.192C254.405 45.192 253.589 44.984 252.885 44.568C252.197 44.136 251.661 43.544 251.277 42.792C250.893 42.04 250.701 41.176 250.701 40.2V33.096H253.725V39.96C253.725 40.856 253.941 41.528 254.373 41.976C254.821 42.424 255.453 42.648 256.269 42.648C257.197 42.648 257.917 42.344 258.429 41.736C258.941 41.112 259.197 40.248 259.197 39.144V33.096H262.221V45H259.245V43.44H258.813C258.621 43.84 258.261 44.232 257.733 44.616C257.205 45 256.405 45.192 255.333 45.192ZM265.586 45V33.096H268.562V34.44H268.994C269.17 33.96 269.458 33.608 269.858 33.384C270.274 33.16 270.754 33.048 271.298 33.048H272.738V35.736H271.25C270.482 35.736 269.85 35.944 269.354 36.36C268.858 36.76 268.61 37.384 268.61 38.232V45H265.586ZM285.756 45C284.972 45 284.332 44.76 283.836 44.28C283.356 43.784 283.116 43.128 283.116 42.312V35.592H280.14V33.096H283.116V29.4H286.14V33.096H289.404V35.592H286.14V41.784C286.14 42.264 286.364 42.504 286.812 42.504H289.116V45H285.756ZM292.141 45V33.096H295.117V34.44H295.549C295.725 33.96 296.013 33.608 296.413 33.384C296.829 33.16 297.309 33.048 297.853 33.048H299.293V35.736H297.805C297.037 35.736 296.405 35.944 295.909 36.36C295.413 36.76 295.165 37.384 295.165 38.232V45H292.141ZM305.071 45.336C304.223 45.336 303.463 45.192 302.791 44.904C302.119 44.6 301.583 44.168 301.183 43.608C300.799 43.032 300.607 42.336 300.607 41.52C300.607 40.704 300.799 40.024 301.183 39.48C301.583 38.92 302.127 38.504 302.815 38.232C303.519 37.944 304.319 37.8 305.215 37.8H308.479V37.128C308.479 36.568 308.303 36.112 307.951 35.76C307.599 35.392 307.039 35.208 306.271 35.208C305.519 35.208 304.959 35.384 304.591 35.736C304.223 36.072 303.983 36.512 303.871 37.056L301.087 36.12C301.279 35.512 301.583 34.96 301.999 34.464C302.431 33.952 302.999 33.544 303.703 33.24C304.423 32.92 305.295 32.76 306.319 32.76C307.887 32.76 309.127 33.152 310.039 33.936C310.951 34.72 311.407 35.856 311.407 37.344V41.784C311.407 42.264 311.631 42.504 312.079 42.504H313.039V45H311.023C310.431 45 309.943 44.856 309.559 44.568C309.175 44.28 308.983 43.896 308.983 43.416V43.392H308.527C308.463 43.584 308.319 43.84 308.095 44.16C307.871 44.464 307.519 44.736 307.039 44.976C306.559 45.216 305.903 45.336 305.071 45.336ZM305.599 42.888C306.447 42.888 307.135 42.656 307.663 42.192C308.207 41.712 308.479 41.08 308.479 40.296V40.056H305.431C304.871 40.056 304.431 40.176 304.111 40.416C303.791 40.656 303.631 40.992 303.631 41.424C303.631 41.856 303.799 42.208 304.135 42.48C304.471 42.752 304.959 42.888 305.599 42.888ZM315.25 45V33.096H318.226V34.656H318.658C318.85 34.24 319.21 33.848 319.738 33.48C320.266 33.096 321.066 32.904 322.138 32.904C323.066 32.904 323.874 33.12 324.562 33.552C325.266 33.968 325.81 34.552 326.194 35.304C326.578 36.04 326.77 36.904 326.77 37.896V45H323.746V38.136C323.746 37.24 323.522 36.568 323.074 36.12C322.642 35.672 322.018 35.448 321.202 35.448C320.274 35.448 319.554 35.76 319.042 36.384C318.53 36.992 318.274 37.848 318.274 38.952V45H315.25ZM334.983 45.336C333.431 45.336 332.159 45 331.167 44.328C330.175 43.656 329.575 42.696 329.367 41.448L332.151 40.728C332.263 41.288 332.447 41.728 332.703 42.048C332.975 42.368 333.303 42.6 333.687 42.744C334.087 42.872 334.519 42.936 334.983 42.936C335.687 42.936 336.207 42.816 336.543 42.576C336.879 42.32 337.047 42.008 337.047 41.64C337.047 41.272 336.887 40.992 336.567 40.8C336.247 40.592 335.735 40.424 335.031 40.296L334.359 40.176C333.527 40.016 332.767 39.8 332.079 39.528C331.391 39.24 330.839 38.848 330.423 38.352C330.007 37.856 329.799 37.216 329.799 36.432C329.799 35.248 330.231 34.344 331.095 33.72C331.959 33.08 333.095 32.76 334.503 32.76C335.831 32.76 336.935 33.056 337.815 33.648C338.695 34.24 339.271 35.016 339.543 35.976L336.735 36.84C336.607 36.232 336.343 35.8 335.943 35.544C335.559 35.288 335.079 35.16 334.503 35.16C333.927 35.16 333.487 35.264 333.183 35.472C332.879 35.664 332.727 35.936 332.727 36.288C332.727 36.672 332.887 36.96 333.207 37.152C333.527 37.328 333.959 37.464 334.503 37.56L335.175 37.68C336.071 37.84 336.879 38.056 337.599 38.328C338.335 38.584 338.911 38.96 339.327 39.456C339.759 39.936 339.975 40.592 339.975 41.424C339.975 42.672 339.519 43.64 338.607 44.328C337.711 45 336.503 45.336 334.983 45.336ZM346.228 45.336C345.38 45.336 344.62 45.192 343.948 44.904C343.276 44.6 342.74 44.168 342.34 43.608C341.956 43.032 341.764 42.336 341.764 41.52C341.764 40.704 341.956 40.024 342.34 39.48C342.74 38.92 343.284 38.504 343.972 38.232C344.676 37.944 345.476 37.8 346.372 37.8H349.636V37.128C349.636 36.568 349.46 36.112 349.108 35.76C348.756 35.392 348.196 35.208 347.428 35.208C346.676 35.208 346.116 35.384 345.748 35.736C345.38 36.072 345.14 36.512 345.028 37.056L342.244 36.12C342.436 35.512 342.74 34.96 343.156 34.464C343.588 33.952 344.156 33.544 344.86 33.24C345.58 32.92 346.452 32.76 347.476 32.76C349.044 32.76 350.284 33.152 351.196 33.936C352.108 34.72 352.564 35.856 352.564 37.344V41.784C352.564 42.264 352.788 42.504 353.236 42.504H354.196V45H352.18C351.588 45 351.1 44.856 350.716 44.568C350.332 44.28 350.14 43.896 350.14 43.416V43.392H349.684C349.62 43.584 349.476 43.84 349.252 44.16C349.028 44.464 348.676 44.736 348.196 44.976C347.716 45.216 347.06 45.336 346.228 45.336ZM346.756 42.888C347.604 42.888 348.292 42.656 348.82 42.192C349.364 41.712 349.636 41.08 349.636 40.296V40.056H346.588C346.028 40.056 345.588 40.176 345.268 40.416C344.948 40.656 344.788 40.992 344.788 41.424C344.788 41.856 344.956 42.208 345.292 42.48C345.628 42.752 346.116 42.888 346.756 42.888ZM361.764 45.336C360.612 45.336 359.564 45.096 358.62 44.616C357.692 44.136 356.956 43.44 356.412 42.528C355.868 41.616 355.596 40.512 355.596 39.216V38.88C355.596 37.584 355.868 36.48 356.412 35.568C356.956 34.656 357.692 33.96 358.62 33.48C359.564 33 360.612 32.76 361.764 32.76C362.9 32.76 363.876 32.96 364.692 33.36C365.508 33.76 366.164 34.312 366.66 35.016C367.172 35.704 367.508 36.488 367.668 37.368L364.74 37.992C364.676 37.512 364.532 37.08 364.308 36.696C364.084 36.312 363.764 36.008 363.348 35.784C362.948 35.56 362.444 35.448 361.836 35.448C361.228 35.448 360.676 35.584 360.18 35.856C359.7 36.112 359.316 36.504 359.028 37.032C358.756 37.544 358.62 38.176 358.62 38.928V39.168C358.62 39.92 358.756 40.56 359.028 41.088C359.316 41.6 359.7 41.992 360.18 42.264C360.676 42.52 361.228 42.648 361.836 42.648C362.748 42.648 363.436 42.416 363.9 41.952C364.38 41.472 364.684 40.848 364.812 40.08L367.74 40.776C367.532 41.624 367.172 42.4 366.66 43.104C366.164 43.792 365.508 44.336 364.692 44.736C363.876 45.136 362.9 45.336 361.764 45.336ZM374.396 45C373.612 45 372.972 44.76 372.476 44.28C371.996 43.784 371.756 43.128 371.756 42.312V35.592H368.78V33.096H371.756V29.4H374.78V33.096H378.044V35.592H374.78V41.784C374.78 42.264 375.004 42.504 375.452 42.504H377.756V45H374.396ZM380.782 45V33.096H383.806V45H380.782ZM382.294 31.704C381.75 31.704 381.286 31.528 380.902 31.176C380.534 30.824 380.35 30.36 380.35 29.784C380.35 29.208 380.534 28.744 380.902 28.392C381.286 28.04 381.75 27.864 382.294 27.864C382.854 27.864 383.318 28.04 383.686 28.392C384.054 28.744 384.238 29.208 384.238 29.784C384.238 30.36 384.054 30.824 383.686 31.176C383.318 31.528 382.854 31.704 382.294 31.704ZM392.821 45.336C391.637 45.336 390.573 45.096 389.629 44.616C388.685 44.136 387.941 43.44 387.397 42.528C386.853 41.616 386.581 40.52 386.581 39.24V38.856C386.581 37.576 386.853 36.48 387.397 35.568C387.941 34.656 388.685 33.96 389.629 33.48C390.573 33 391.637 32.76 392.821 32.76C394.005 32.76 395.069 33 396.013 33.48C396.957 33.96 397.701 34.656 398.245 35.568C398.789 36.48 399.061 37.576 399.061 38.856V39.24C399.061 40.52 398.789 41.616 398.245 42.528C397.701 43.44 396.957 44.136 396.013 44.616C395.069 45.096 394.005 45.336 392.821 45.336ZM392.821 42.648C393.749 42.648 394.517 42.352 395.125 41.76C395.733 41.152 396.037 40.288 396.037 39.168V38.928C396.037 37.808 395.733 36.952 395.125 36.36C394.533 35.752 393.765 35.448 392.821 35.448C391.893 35.448 391.125 35.752 390.517 36.36C389.909 36.952 389.605 37.808 389.605 38.928V39.168C389.605 40.288 389.909 41.152 390.517 41.76C391.125 42.352 391.893 42.648 392.821 42.648ZM401.852 45V33.096H404.828V34.656H405.26C405.452 34.24 405.812 33.848 406.34 33.48C406.868 33.096 407.668 32.904 408.74 32.904C409.668 32.904 410.476 33.12 411.164 33.552C411.868 33.968 412.412 34.552 412.796 35.304C413.18 36.04 413.372 36.904 413.372 37.896V45H410.348V38.136C410.348 37.24 410.124 36.568 409.676 36.12C409.244 35.672 408.62 35.448 407.804 35.448C406.876 35.448 406.156 35.76 405.644 36.384C405.132 36.992 404.876 37.848 404.876 38.952V45H401.852ZM421.585 45.336C420.033 45.336 418.761 45 417.769 44.328C416.777 43.656 416.177 42.696 415.969 41.448L418.753 40.728C418.865 41.288 419.049 41.728 419.305 42.048C419.577 42.368 419.905 42.6 420.289 42.744C420.689 42.872 421.121 42.936 421.585 42.936C422.289 42.936 422.809 42.816 423.145 42.576C423.481 42.32 423.649 42.008 423.649 41.64C423.649 41.272 423.489 40.992 423.169 40.8C422.849 40.592 422.337 40.424 421.633 40.296L420.961 40.176C420.129 40.016 419.369 39.8 418.681 39.528C417.993 39.24 417.441 38.848 417.025 38.352C416.609 37.856 416.401 37.216 416.401 36.432C416.401 35.248 416.833 34.344 417.697 33.72C418.561 33.08 419.697 32.76 421.105 32.76C422.433 32.76 423.537 33.056 424.417 33.648C425.297 34.24 425.873 35.016 426.145 35.976L423.337 36.84C423.209 36.232 422.945 35.8 422.545 35.544C422.161 35.288 421.681 35.16 421.105 35.16C420.529 35.16 420.089 35.264 419.785 35.472C419.481 35.664 419.329 35.936 419.329 36.288C419.329 36.672 419.489 36.96 419.809 37.152C420.129 37.328 420.561 37.464 421.105 37.56L421.777 37.68C422.673 37.84 423.481 38.056 424.201 38.328C424.937 38.584 425.513 38.96 425.929 39.456C426.361 39.936 426.577 40.592 426.577 41.424C426.577 42.672 426.121 43.64 425.209 44.328C424.313 45 423.105 45.336 421.585 45.336Z" fill="white"/>
<path d="M49 124C49 121.791 50.7909 120 53 120H510V240H53C50.7909 240 49 238.209 49 236V124Z" fill="#1D1D20"/>
<path d="M62.6337 142.024C61.733 142.024 60.874 142.024 60.0067 142.024C59.8482 146.192 62.5086 151.643 68.4214 153.465C74.1507 155.221 80.297 152.533 82.8322 147.191C85.3925 141.782 83.6245 135.317 78.6874 132.038C74.159 129.026 67.554 129.259 63.5927 133.361C63.9013 133.694 64.2098 134.027 64.5184 134.352C64.827 134.676 65.1272 135.001 65.4358 135.325C68.9384 131.897 74.2341 131.947 77.5949 134.427C80.9642 136.915 82.2651 141.333 80.7473 145.302C79.2462 149.238 75.4517 151.426 71.532 151.202C69.0885 151.06 66.9786 150.128 65.294 148.348C63.6094 146.592 62.7004 144.487 62.6337 142.024Z" fill="#FF8A00"/>
<path d="M93.28 148V136.8H97.568C98.24 136.8 98.8373 136.933 99.36 137.2C99.8933 137.456 100.315 137.824 100.624 138.304C100.933 138.784 101.088 139.365 101.088 140.048V140.256C101.088 140.928 100.928 141.509 100.608 142C100.299 142.48 99.8773 142.848 99.344 143.104C98.8107 143.36 98.2187 143.488 97.568 143.488H94.624V148H93.28ZM94.624 142.272H97.424C98.1387 142.272 98.704 142.096 99.12 141.744C99.536 141.381 99.744 140.875 99.744 140.224V140.064C99.744 139.413 99.536 138.912 99.12 138.56C98.7147 138.197 98.1493 138.016 97.424 138.016H94.624V142.272ZM106.271 148.224C105.482 148.224 104.789 148.059 104.191 147.728C103.594 147.387 103.13 146.912 102.799 146.304C102.469 145.696 102.303 144.992 102.303 144.192V144C102.303 143.189 102.469 142.48 102.799 141.872C103.13 141.264 103.589 140.795 104.175 140.464C104.762 140.123 105.434 139.952 106.191 139.952C106.927 139.952 107.578 140.112 108.143 140.432C108.709 140.741 109.151 141.189 109.471 141.776C109.791 142.363 109.951 143.051 109.951 143.84V144.416H103.567C103.599 145.259 103.871 145.92 104.383 146.4C104.895 146.869 105.535 147.104 106.303 147.104C106.975 147.104 107.493 146.949 107.855 146.64C108.218 146.331 108.495 145.963 108.687 145.536L109.775 146.064C109.615 146.395 109.391 146.725 109.103 147.056C108.826 147.387 108.458 147.664 107.999 147.888C107.551 148.112 106.975 148.224 106.271 148.224ZM103.583 143.376H108.671C108.629 142.651 108.378 142.085 107.919 141.68C107.471 141.275 106.895 141.072 106.191 141.072C105.477 141.072 104.89 141.275 104.431 141.68C103.973 142.085 103.69 142.651 103.583 143.376ZM112.156 148V140.176H113.388V141.504H113.612C113.783 141.131 114.071 140.795 114.476 140.496C114.892 140.187 115.5 140.032 116.3 140.032C116.887 140.032 117.409 140.155 117.868 140.4C118.337 140.645 118.711 141.008 118.988 141.488C119.265 141.968 119.404 142.56 119.404 143.264V148H118.14V143.36C118.14 142.581 117.943 142.016 117.548 141.664C117.164 141.312 116.641 141.136 115.98 141.136C115.223 141.136 114.604 141.381 114.124 141.872C113.655 142.363 113.42 143.093 113.42 144.064V148H112.156ZM125.281 148.224C124.609 148.224 123.99 148.064 123.425 147.744C122.859 147.424 122.411 146.96 122.081 146.352C121.75 145.744 121.585 145.024 121.585 144.192V143.984C121.585 143.152 121.75 142.437 122.081 141.84C122.411 141.232 122.854 140.768 123.409 140.448C123.974 140.117 124.598 139.952 125.281 139.952C125.825 139.952 126.283 140.027 126.657 140.176C127.041 140.315 127.35 140.496 127.585 140.72C127.819 140.933 128.001 141.163 128.129 141.408H128.353V136.8H129.617V148H128.385V146.704H128.161C127.947 147.099 127.617 147.451 127.169 147.76C126.721 148.069 126.091 148.224 125.281 148.224ZM125.617 147.104C126.427 147.104 127.083 146.848 127.585 146.336C128.097 145.813 128.353 145.088 128.353 144.16V144.016C128.353 143.088 128.097 142.368 127.585 141.856C127.083 141.333 126.427 141.072 125.617 141.072C124.817 141.072 124.155 141.333 123.633 141.856C123.121 142.368 122.865 143.088 122.865 144.016V144.16C122.865 145.088 123.121 145.813 123.633 146.336C124.155 146.848 124.817 147.104 125.617 147.104ZM132.266 148V140.176H133.53V148H132.266ZM132.906 138.96C132.628 138.96 132.394 138.869 132.202 138.688C132.02 138.507 131.93 138.277 131.93 138C131.93 137.712 132.02 137.477 132.202 137.296C132.394 137.115 132.628 137.024 132.906 137.024C133.183 137.024 133.412 137.115 133.594 137.296C133.775 137.477 133.866 137.712 133.866 138C133.866 138.277 133.775 138.507 133.594 138.688C133.412 138.869 133.183 138.96 132.906 138.96ZM136.187 148V140.176H137.419V141.504H137.643C137.814 141.131 138.102 140.795 138.507 140.496C138.923 140.187 139.531 140.032 140.331 140.032C140.918 140.032 141.441 140.155 141.899 140.4C142.369 140.645 142.742 141.008 143.019 141.488C143.297 141.968 143.435 142.56 143.435 143.264V148H142.171V143.36C142.171 142.581 141.974 142.016 141.579 141.664C141.195 141.312 140.673 141.136 140.011 141.136C139.254 141.136 138.635 141.381 138.155 141.872C137.686 142.363 137.451 143.093 137.451 144.064V148H136.187ZM145.616 144.128V143.904C145.616 143.083 145.781 142.379 146.112 141.792C146.443 141.205 146.891 140.752 147.456 140.432C148.021 140.112 148.64 139.952 149.312 139.952C150.133 139.952 150.763 140.112 151.2 140.432C151.648 140.741 151.979 141.088 152.192 141.472H152.416V140.176H153.616V149.824C153.616 150.251 153.499 150.587 153.264 150.832C153.029 151.077 152.688 151.2 152.24 151.2H146.928V150.08H151.904C152.224 150.08 152.384 149.92 152.384 149.6V146.624H152.16C152.032 146.859 151.851 147.088 151.616 147.312C151.381 147.536 151.077 147.723 150.704 147.872C150.331 148.011 149.867 148.08 149.312 148.08C148.64 148.08 148.021 147.92 147.456 147.6C146.891 147.28 146.443 146.827 146.112 146.24C145.781 145.643 145.616 144.939 145.616 144.128ZM149.648 146.96C150.459 146.96 151.115 146.704 151.616 146.192C152.128 145.68 152.384 144.976 152.384 144.08V143.952C152.384 143.045 152.128 142.341 151.616 141.84C151.115 141.328 150.459 141.072 149.648 141.072C148.848 141.072 148.187 141.328 147.664 141.84C147.152 142.341 146.896 143.045 146.896 143.952V144.08C146.896 144.976 147.152 145.68 147.664 146.192C148.187 146.704 148.848 146.96 149.648 146.96Z" fill="#FF8A00"/>
<path d="M258.976 148V146.368L263.952 141.456V141.28H259.136V140.176H265.28V141.808L260.288 146.72V146.912H265.408V148H258.976ZM267.672 148V136.8H268.936V143.392H269.16L272.744 140.176H274.504L270.168 143.984L274.632 148H272.888L269.16 144.592H268.936V148H267.672ZM276.233 148V136.8H283.129V138.016H277.577V141.76H282.681V142.976H277.577V146.784H283.209V148H276.233ZM287.745 148L284.369 136.8H285.761L288.817 147.184H289.025L292.081 136.8H293.473L290.097 148H287.745ZM295.155 148V136.8H297.715L300.691 147.152H300.899L303.875 136.8H306.435V148H305.139V137.68H304.915L301.955 148H299.635L296.675 137.68H296.451V148H295.155Z" fill="white"/>
<rect x="365" y="140" width="54" height="5" rx="2.5" fill="black"/>
<rect x="365" y="140" width="32" height="5" rx="2.5" fill="#3DC1F2"/>
<path d="M417.5 142C417.5 133.992 423.992 127.5 432 127.5H509.5V156.5H432C423.992 156.5 417.5 150.008 417.5 142Z" fill="black" stroke="#999999"/>
<path d="M432.662 147.196C431.495 147.196 430.567 146.86 429.876 146.188C429.185 145.507 428.84 144.517 428.84 143.22V140.98C428.84 139.683 429.185 138.698 429.876 138.026C430.567 137.345 431.495 137.004 432.662 137.004C433.819 137.004 434.706 137.326 435.322 137.97C435.947 138.614 436.26 139.496 436.26 140.616V140.686H435.098V140.574C435.098 139.837 434.897 139.235 434.496 138.768C434.104 138.292 433.493 138.054 432.662 138.054C431.831 138.054 431.183 138.311 430.716 138.824C430.249 139.328 430.016 140.037 430.016 140.952V143.248C430.016 144.163 430.249 144.877 430.716 145.39C431.183 145.894 431.831 146.146 432.662 146.146C433.493 146.146 434.104 145.913 434.496 145.446C434.897 144.97 435.098 144.363 435.098 143.626V143.402H436.26V143.584C436.26 144.704 435.947 145.586 435.322 146.23C434.706 146.874 433.819 147.196 432.662 147.196ZM438.144 147V137.2H439.25V147H438.144ZM443.676 147.196C443.2 147.196 442.766 147.112 442.374 146.944C441.982 146.776 441.674 146.533 441.45 146.216C441.226 145.899 441.114 145.511 441.114 145.054C441.114 144.587 441.226 144.205 441.45 143.906C441.674 143.598 441.982 143.369 442.374 143.22C442.766 143.061 443.205 142.982 443.69 142.982H446V142.478C446 141.993 445.855 141.61 445.566 141.33C445.286 141.05 444.866 140.91 444.306 140.91C443.755 140.91 443.326 141.045 443.018 141.316C442.71 141.577 442.5 141.932 442.388 142.38L441.352 142.044C441.464 141.661 441.641 141.316 441.884 141.008C442.127 140.691 442.449 140.439 442.85 140.252C443.261 140.056 443.751 139.958 444.32 139.958C445.197 139.958 445.879 140.187 446.364 140.644C446.849 141.092 447.092 141.727 447.092 142.548V145.642C447.092 145.922 447.223 146.062 447.484 146.062H448.114V147H447.148C446.84 147 446.593 146.916 446.406 146.748C446.219 146.571 446.126 146.337 446.126 146.048V145.978H445.958C445.855 146.155 445.715 146.342 445.538 146.538C445.37 146.725 445.137 146.879 444.838 147C444.539 147.131 444.152 147.196 443.676 147.196ZM443.802 146.244C444.455 146.244 444.983 146.053 445.384 145.67C445.795 145.278 446 144.732 446 144.032V143.878H443.732C443.293 143.878 442.929 143.976 442.64 144.172C442.36 144.359 442.22 144.643 442.22 145.026C442.22 145.409 442.365 145.707 442.654 145.922C442.953 146.137 443.335 146.244 443.802 146.244ZM449.629 147V140.154H450.735V147H449.629ZM450.189 139.09C449.946 139.09 449.741 139.011 449.573 138.852C449.414 138.693 449.335 138.493 449.335 138.25C449.335 137.998 449.414 137.793 449.573 137.634C449.741 137.475 449.946 137.396 450.189 137.396C450.431 137.396 450.632 137.475 450.791 137.634C450.949 137.793 451.029 137.998 451.029 138.25C451.029 138.493 450.949 138.693 450.791 138.852C450.632 139.011 450.431 139.09 450.189 139.09ZM453.06 147V140.154H454.138V141.008H454.334C454.465 140.765 454.68 140.541 454.978 140.336C455.277 140.131 455.697 140.028 456.238 140.028C456.77 140.028 457.2 140.145 457.526 140.378C457.862 140.611 458.105 140.896 458.254 141.232H458.45C458.609 140.896 458.847 140.611 459.164 140.378C459.491 140.145 459.944 140.028 460.522 140.028C460.98 140.028 461.381 140.121 461.726 140.308C462.072 140.495 462.342 140.765 462.538 141.12C462.744 141.465 462.846 141.881 462.846 142.366V147H461.74V142.464C461.74 142.007 461.605 141.647 461.334 141.386C461.073 141.115 460.704 140.98 460.228 140.98C459.724 140.98 459.309 141.143 458.982 141.47C458.665 141.797 458.506 142.268 458.506 142.884V147H457.4V142.464C457.4 142.007 457.265 141.647 456.994 141.386C456.733 141.115 456.364 140.98 455.888 140.98C455.384 140.98 454.969 141.143 454.642 141.47C454.325 141.797 454.166 142.268 454.166 142.884V147H453.06ZM469.653 147L468.281 140.154H469.401L470.535 146.258H470.731L472.229 140.154H474.063L475.561 146.258H475.757L476.891 140.154H478.011L476.639 147H474.749L473.237 140.896H473.055L471.543 147H469.653ZM479.912 147V140.154H481.018V147H479.912ZM480.472 139.09C480.229 139.09 480.024 139.011 479.856 138.852C479.697 138.693 479.618 138.493 479.618 138.25C479.618 137.998 479.697 137.793 479.856 137.634C480.024 137.475 480.229 137.396 480.472 137.396C480.715 137.396 480.915 137.475 481.074 137.634C481.233 137.793 481.312 137.998 481.312 138.25C481.312 138.493 481.233 138.693 481.074 138.852C480.915 139.011 480.715 139.09 480.472 139.09ZM483.344 147V137.2H484.45V147H483.344ZM486.775 147V137.2H487.881V147H486.775ZM495.903 147.196C495.427 147.196 494.993 147.112 494.601 146.944C494.209 146.776 493.901 146.533 493.677 146.216C493.453 145.899 493.341 145.511 493.341 145.054C493.341 144.587 493.453 144.205 493.677 143.906C493.901 143.598 494.209 143.369 494.601 143.22C494.993 143.061 495.431 142.982 495.917 142.982H498.227V142.478C498.227 141.993 498.082 141.61 497.793 141.33C497.513 141.05 497.093 140.91 496.533 140.91C495.982 140.91 495.553 141.045 495.245 141.316C494.937 141.577 494.727 141.932 494.615 142.38L493.579 142.044C493.691 141.661 493.868 141.316 494.111 141.008C494.353 140.691 494.675 140.439 495.077 140.252C495.487 140.056 495.977 139.958 496.547 139.958C497.424 139.958 498.105 140.187 498.591 140.644C499.076 141.092 499.319 141.727 499.319 142.548V145.642C499.319 145.922 499.449 146.062 499.711 146.062H500.341V147H499.375C499.067 147 498.819 146.916 498.633 146.748C498.446 146.571 498.353 146.337 498.353 146.048V145.978H498.185C498.082 146.155 497.942 146.342 497.765 146.538C497.597 146.725 497.363 146.879 497.065 147C496.766 147.131 496.379 147.196 495.903 147.196ZM496.029 146.244C496.682 146.244 497.209 146.053 497.611 145.67C498.021 145.278 498.227 144.732 498.227 144.032V143.878H495.959C495.52 143.878 495.156 143.976 494.867 144.172C494.587 144.359 494.447 144.643 494.447 145.026C494.447 145.409 494.591 145.707 494.881 145.922C495.179 146.137 495.562 146.244 496.029 146.244ZM501.855 147V140.154H502.933V140.994H503.129C503.251 140.695 503.437 140.476 503.689 140.336C503.941 140.196 504.273 140.126 504.683 140.126H505.495V141.134H504.613C504.119 141.134 503.717 141.274 503.409 141.554C503.111 141.825 502.961 142.249 502.961 142.828V147H501.855Z" fill="white"/>
<g clip-path="url(#clip0_809_8)">
<path d="M72.1879 168C72.5871 168.153 72.8748 168.399 72.8982 168.863C72.9217 169.344 72.6047 169.737 72.1233 169.79C71.6125 169.849 71.0959 169.849 70.5851 169.919C68.6888 170.172 66.998 170.917 65.5303 172.138C63.8513 173.535 62.6712 175.278 62.1546 177.409C61.2975 180.913 62.0372 184.065 64.4325 186.782C66.0176 188.584 68.0196 189.687 70.3855 190.045C73.4971 190.521 76.2857 189.729 78.681 187.668C80.2603 186.307 81.3405 184.61 81.8454 182.58C82.0274 181.852 82.0744 181.089 82.18 180.343C82.1977 180.214 82.1859 180.079 82.2035 179.944C82.2681 179.398 82.6438 179.07 83.1605 179.099C83.6478 179.123 84 179.522 84 180.044C83.9941 181.101 83.8767 182.151 83.5714 183.167C82.227 187.58 79.3386 190.486 74.8708 191.624C68.9178 193.139 62.9061 189.905 60.7456 184.158C60.3523 183.114 60.1174 182.04 60.0411 180.924C60.0352 180.848 60.0117 180.772 60 180.701C60 180.232 60 179.762 60 179.293C60.0176 179.123 60.0411 178.958 60.0587 178.788C60.3464 176.205 61.3327 173.928 63.0705 171.997C64.9198 169.949 67.2094 168.669 69.9335 168.188C70.3855 168.106 70.8434 168.065 71.2955 168C71.5949 168 71.8885 168 72.1879 168Z" fill="#14FF00"/>
<path d="M71.2309 182.151C71.2896 182.057 71.3249 181.963 71.3895 181.899C74.8943 178.401 78.4051 174.902 81.91 171.404C82.1742 171.14 82.456 170.964 82.8435 171.04C83.501 171.17 83.8004 171.927 83.3953 172.461C83.3366 172.543 83.2603 172.613 83.1898 172.684C79.4325 176.428 75.6752 180.173 71.9178 183.918C71.3836 184.452 70.8787 184.44 70.3679 183.889C68.912 182.31 67.456 180.731 66 179.146C65.6125 178.723 65.5949 178.183 65.9531 177.825C66.3229 177.45 66.8983 177.467 67.2857 177.878C67.8141 178.442 68.3366 179.011 68.8591 179.58C69.6341 180.414 70.4031 181.247 71.2309 182.151Z" fill="#14FF00"/>
</g>
<path d="M97.328 186.224C95.9947 186.224 94.9333 185.84 94.144 185.072C93.3547 184.293 92.96 183.163 92.96 181.68V179.12C92.96 177.637 93.3547 176.512 94.144 175.744C94.9333 174.965 95.9947 174.576 97.328 174.576C98.6507 174.576 99.664 174.944 100.368 175.68C101.083 176.416 101.44 177.424 101.44 178.704V178.784H100.112V178.656C100.112 177.813 99.8827 177.125 99.424 176.592C98.976 176.048 98.2773 175.776 97.328 175.776C96.3787 175.776 95.6373 176.069 95.104 176.656C94.5707 177.232 94.304 178.043 94.304 179.088V181.712C94.304 182.757 94.5707 183.573 95.104 184.16C95.6373 184.736 96.3787 185.024 97.328 185.024C98.2773 185.024 98.976 184.757 99.424 184.224C99.8827 183.68 100.112 182.987 100.112 182.144V181.888H101.44V182.096C101.44 183.376 101.083 184.384 100.368 185.12C99.664 185.856 98.6507 186.224 97.328 186.224ZM107.21 186.224C106.42 186.224 105.722 186.059 105.114 185.728C104.516 185.397 104.047 184.933 103.706 184.336C103.375 183.728 103.21 183.013 103.21 182.192V181.984C103.21 181.173 103.375 180.464 103.706 179.856C104.047 179.248 104.516 178.779 105.114 178.448C105.722 178.117 106.42 177.952 107.21 177.952C107.999 177.952 108.692 178.117 109.29 178.448C109.898 178.779 110.367 179.248 110.698 179.856C111.039 180.464 111.21 181.173 111.21 181.984V182.192C111.21 183.013 111.039 183.728 110.698 184.336C110.367 184.933 109.898 185.397 109.29 185.728C108.692 186.059 107.999 186.224 107.21 186.224ZM107.21 185.088C108.042 185.088 108.703 184.827 109.194 184.304C109.695 183.771 109.946 183.056 109.946 182.16V182.016C109.946 181.12 109.695 180.411 109.194 179.888C108.703 179.355 108.042 179.088 107.21 179.088C106.388 179.088 105.727 179.355 105.226 179.888C104.724 180.411 104.474 181.12 104.474 182.016V182.16C104.474 183.056 104.724 183.771 105.226 184.304C105.727 184.827 106.388 185.088 107.21 185.088ZM113.484 186V178.176H114.716V179.152H114.94C115.09 178.875 115.335 178.619 115.676 178.384C116.018 178.149 116.498 178.032 117.116 178.032C117.724 178.032 118.215 178.165 118.588 178.432C118.972 178.699 119.25 179.024 119.42 179.408H119.644C119.826 179.024 120.098 178.699 120.46 178.432C120.834 178.165 121.351 178.032 122.012 178.032C122.535 178.032 122.994 178.139 123.388 178.352C123.783 178.565 124.092 178.875 124.316 179.28C124.551 179.675 124.668 180.149 124.668 180.704V186H123.404V180.816C123.404 180.293 123.25 179.883 122.94 179.584C122.642 179.275 122.22 179.12 121.676 179.12C121.1 179.12 120.626 179.307 120.252 179.68C119.89 180.053 119.708 180.592 119.708 181.296V186H118.444V180.816C118.444 180.293 118.29 179.883 117.98 179.584C117.682 179.275 117.26 179.12 116.716 179.12C116.14 179.12 115.666 179.307 115.292 179.68C114.93 180.053 114.748 180.592 114.748 181.296V186H113.484ZM127.25 189.2V178.176H128.482V179.472H128.706C128.909 179.077 129.234 178.725 129.682 178.416C130.141 178.107 130.775 177.952 131.586 177.952C132.258 177.952 132.871 178.117 133.426 178.448C133.991 178.768 134.439 179.227 134.77 179.824C135.111 180.421 135.282 181.141 135.282 181.984V182.192C135.282 183.024 135.117 183.744 134.786 184.352C134.455 184.96 134.007 185.424 133.442 185.744C132.887 186.064 132.269 186.224 131.586 186.224C131.042 186.224 130.578 186.149 130.194 186C129.821 185.861 129.517 185.68 129.282 185.456C129.047 185.232 128.866 185.003 128.738 184.768H128.514V189.2H127.25ZM131.25 185.104C132.061 185.104 132.717 184.848 133.218 184.336C133.73 183.813 133.986 183.088 133.986 182.16V182.016C133.986 181.088 133.73 180.368 133.218 179.856C132.717 179.333 132.061 179.072 131.25 179.072C130.45 179.072 129.789 179.333 129.266 179.856C128.754 180.368 128.498 181.088 128.498 182.016V182.16C128.498 183.088 128.754 183.813 129.266 184.336C129.789 184.848 130.45 185.104 131.25 185.104ZM137.547 186V174.8H138.811V186H137.547ZM145.053 186.224C144.263 186.224 143.57 186.059 142.973 185.728C142.375 185.387 141.911 184.912 141.581 184.304C141.25 183.696 141.085 182.992 141.085 182.192V182C141.085 181.189 141.25 180.48 141.581 179.872C141.911 179.264 142.37 178.795 142.957 178.464C143.543 178.123 144.215 177.952 144.973 177.952C145.709 177.952 146.359 178.112 146.925 178.432C147.49 178.741 147.933 179.189 148.253 179.776C148.573 180.363 148.733 181.051 148.733 181.84V182.416H142.349C142.381 183.259 142.653 183.92 143.165 184.4C143.677 184.869 144.317 185.104 145.085 185.104C145.757 185.104 146.274 184.949 146.637 184.64C146.999 184.331 147.277 183.963 147.469 183.536L148.557 184.064C148.397 184.395 148.173 184.725 147.885 185.056C147.607 185.387 147.239 185.664 146.781 185.888C146.333 186.112 145.757 186.224 145.053 186.224ZM142.365 181.376H147.453C147.41 180.651 147.159 180.085 146.701 179.68C146.253 179.275 145.677 179.072 144.973 179.072C144.258 179.072 143.671 179.275 143.213 179.68C142.754 180.085 142.471 180.651 142.365 181.376ZM153.489 186C153.041 186 152.695 185.877 152.449 185.632C152.215 185.387 152.097 185.051 152.097 184.624V179.28H149.745V178.176H152.097V175.392H153.361V178.176H155.921V179.28H153.361V184.432C153.361 184.752 153.516 184.912 153.825 184.912H155.569V186H153.489ZM161.271 186.224C160.482 186.224 159.789 186.059 159.191 185.728C158.594 185.387 158.13 184.912 157.799 184.304C157.469 183.696 157.303 182.992 157.303 182.192V182C157.303 181.189 157.469 180.48 157.799 179.872C158.13 179.264 158.589 178.795 159.175 178.464C159.762 178.123 160.434 177.952 161.191 177.952C161.927 177.952 162.578 178.112 163.143 178.432C163.709 178.741 164.151 179.189 164.471 179.776C164.791 180.363 164.951 181.051 164.951 181.84V182.416H158.567C158.599 183.259 158.871 183.92 159.383 184.4C159.895 184.869 160.535 185.104 161.303 185.104C161.975 185.104 162.493 184.949 162.855 184.64C163.218 184.331 163.495 183.963 163.687 183.536L164.775 184.064C164.615 184.395 164.391 184.725 164.103 185.056C163.826 185.387 163.458 185.664 162.999 185.888C162.551 186.112 161.975 186.224 161.271 186.224ZM158.583 181.376H163.671C163.629 180.651 163.378 180.085 162.919 179.68C162.471 179.275 161.895 179.072 161.191 179.072C160.477 179.072 159.89 179.275 159.431 179.68C158.973 180.085 158.69 180.651 158.583 181.376ZM170.468 186.224C169.796 186.224 169.177 186.064 168.612 185.744C168.047 185.424 167.599 184.96 167.268 184.352C166.937 183.744 166.772 183.024 166.772 182.192V181.984C166.772 181.152 166.937 180.437 167.268 179.84C167.599 179.232 168.041 178.768 168.596 178.448C169.161 178.117 169.785 177.952 170.468 177.952C171.012 177.952 171.471 178.027 171.844 178.176C172.228 178.315 172.537 178.496 172.772 178.72C173.007 178.933 173.188 179.163 173.316 179.408H173.54V174.8H174.804V186H173.572V184.704H173.348C173.135 185.099 172.804 185.451 172.356 185.76C171.908 186.069 171.279 186.224 170.468 186.224ZM170.804 185.104C171.615 185.104 172.271 184.848 172.772 184.336C173.284 183.813 173.54 183.088 173.54 182.16V182.016C173.54 181.088 173.284 180.368 172.772 179.856C172.271 179.333 171.615 179.072 170.804 179.072C170.004 179.072 169.343 179.333 168.82 179.856C168.308 180.368 168.052 181.088 168.052 182.016V182.16C168.052 183.088 168.308 183.813 168.82 184.336C169.343 184.848 170.004 185.104 170.804 185.104Z" fill="#14FF00"/>
<path d="M259.28 186V174.8H263.568C264.24 174.8 264.837 174.933 265.36 175.2C265.893 175.456 266.315 175.824 266.624 176.304C266.933 176.784 267.088 177.365 267.088 178.048V178.256C267.088 178.928 266.928 179.509 266.608 180C266.299 180.48 265.877 180.848 265.344 181.104C264.811 181.36 264.219 181.488 263.568 181.488H260.624V186H259.28ZM260.624 180.272H263.424C264.139 180.272 264.704 180.096 265.12 179.744C265.536 179.381 265.744 178.875 265.744 178.224V178.064C265.744 177.413 265.536 176.912 265.12 176.56C264.715 176.197 264.149 176.016 263.424 176.016H260.624V180.272ZM272.303 186.224C271.514 186.224 270.815 186.059 270.207 185.728C269.61 185.397 269.141 184.933 268.799 184.336C268.469 183.728 268.303 183.013 268.303 182.192V181.984C268.303 181.173 268.469 180.464 268.799 179.856C269.141 179.248 269.61 178.779 270.207 178.448C270.815 178.117 271.514 177.952 272.303 177.952C273.093 177.952 273.786 178.117 274.383 178.448C274.991 178.779 275.461 179.248 275.791 179.856C276.133 180.464 276.303 181.173 276.303 181.984V182.192C276.303 183.013 276.133 183.728 275.791 184.336C275.461 184.933 274.991 185.397 274.383 185.728C273.786 186.059 273.093 186.224 272.303 186.224ZM272.303 185.088C273.135 185.088 273.797 184.827 274.287 184.304C274.789 183.771 275.039 183.056 275.039 182.16V182.016C275.039 181.12 274.789 180.411 274.287 179.888C273.797 179.355 273.135 179.088 272.303 179.088C271.482 179.088 270.821 179.355 270.319 179.888C269.818 180.411 269.567 181.12 269.567 182.016V182.16C269.567 183.056 269.818 183.771 270.319 184.304C270.821 184.827 271.482 185.088 272.303 185.088ZM282.258 186.224C281.447 186.224 280.722 186.08 280.082 185.792C279.442 185.504 278.935 185.072 278.562 184.496C278.199 183.909 278.018 183.179 278.018 182.304V181.968H279.346V182.304C279.346 183.232 279.618 183.925 280.162 184.384C280.706 184.832 281.405 185.056 282.258 185.056C283.133 185.056 283.799 184.859 284.258 184.464C284.717 184.069 284.946 183.573 284.946 182.976C284.946 182.56 284.839 182.229 284.626 181.984C284.423 181.739 284.135 181.541 283.762 181.392C283.389 181.232 282.951 181.093 282.45 180.976L281.618 180.768C280.967 180.597 280.391 180.389 279.89 180.144C279.389 179.899 278.994 179.579 278.706 179.184C278.429 178.779 278.29 178.261 278.29 177.632C278.29 177.003 278.445 176.459 278.754 176C279.074 175.541 279.517 175.189 280.082 174.944C280.658 174.699 281.319 174.576 282.066 174.576C282.823 174.576 283.501 174.709 284.098 174.976C284.706 175.232 285.181 175.616 285.522 176.128C285.874 176.629 286.05 177.264 286.05 178.032V178.704H284.722V178.032C284.722 177.488 284.605 177.051 284.37 176.72C284.146 176.389 283.831 176.144 283.426 175.984C283.031 175.824 282.578 175.744 282.066 175.744C281.33 175.744 280.738 175.909 280.29 176.24C279.842 176.56 279.618 177.019 279.618 177.616C279.618 178.011 279.714 178.331 279.906 178.576C280.098 178.821 280.37 179.024 280.722 179.184C281.074 179.333 281.495 179.467 281.986 179.584L282.818 179.792C283.469 179.931 284.05 180.123 284.562 180.368C285.085 180.603 285.501 180.928 285.81 181.344C286.119 181.749 286.274 182.283 286.274 182.944C286.274 183.605 286.109 184.181 285.778 184.672C285.447 185.163 284.978 185.547 284.37 185.824C283.773 186.091 283.069 186.224 282.258 186.224Z" fill="white"/>
<rect x="365" y="177" width="99" height="5" rx="2.5" fill="#3DC1F2"/>
<path d="M459.5 180C459.5 171.992 465.992 165.5 474 165.5H509.5V194.5H474C465.992 194.5 459.5 188.008 459.5 180Z" fill="black" stroke="#999999"/>
<path d="M471.598 185V175.956H471.388L469.484 179.442H468.252L470.59 175.2H472.732V185H471.598ZM478.08 185.196C477.361 185.196 476.74 185.061 476.218 184.79C475.695 184.51 475.289 184.127 475 183.642C474.71 183.147 474.566 182.578 474.566 181.934V181.766H475.7V181.892C475.7 182.629 475.914 183.194 476.344 183.586C476.773 183.978 477.342 184.174 478.052 184.174C478.798 184.174 479.382 183.964 479.802 183.544C480.222 183.124 480.432 182.55 480.432 181.822V181.696C480.432 180.996 480.226 180.441 479.816 180.03C479.414 179.61 478.892 179.4 478.248 179.4C477.874 179.4 477.566 179.461 477.324 179.582C477.081 179.694 476.89 179.839 476.75 180.016C476.61 180.184 476.493 180.347 476.4 180.506H474.86V175.2H481.3V176.222H475.994V179.61H476.19C476.292 179.423 476.432 179.241 476.61 179.064C476.796 178.887 477.044 178.737 477.352 178.616C477.66 178.495 478.042 178.434 478.5 178.434C479.069 178.434 479.582 178.565 480.04 178.826C480.506 179.087 480.875 179.461 481.146 179.946C481.426 180.431 481.566 181.01 481.566 181.682V181.836C481.566 182.499 481.426 183.082 481.146 183.586C480.866 184.09 480.464 184.487 479.942 184.776C479.419 185.056 478.798 185.196 478.08 185.196ZM486.99 185V178.154H488.068V179.008H488.264C488.395 178.765 488.609 178.541 488.908 178.336C489.207 178.131 489.627 178.028 490.168 178.028C490.7 178.028 491.129 178.145 491.456 178.378C491.792 178.611 492.035 178.896 492.184 179.232H492.38C492.539 178.896 492.777 178.611 493.094 178.378C493.421 178.145 493.873 178.028 494.452 178.028C494.909 178.028 495.311 178.121 495.656 178.308C496.001 178.495 496.272 178.765 496.468 179.12C496.673 179.465 496.776 179.881 496.776 180.366V185H495.67V180.464C495.67 180.007 495.535 179.647 495.264 179.386C495.003 179.115 494.634 178.98 494.158 178.98C493.654 178.98 493.239 179.143 492.912 179.47C492.595 179.797 492.436 180.268 492.436 180.884V185H491.33V180.464C491.33 180.007 491.195 179.647 490.924 179.386C490.663 179.115 490.294 178.98 489.818 178.98C489.314 178.98 488.899 179.143 488.572 179.47C488.255 179.797 488.096 180.268 488.096 180.884V185H486.99ZM499.035 185V178.154H500.141V185H499.035ZM499.595 177.09C499.352 177.09 499.147 177.011 498.979 176.852C498.82 176.693 498.741 176.493 498.741 176.25C498.741 175.998 498.82 175.793 498.979 175.634C499.147 175.475 499.352 175.396 499.595 175.396C499.838 175.396 500.038 175.475 500.197 175.634C500.356 175.793 500.435 175.998 500.435 176.25C500.435 176.493 500.356 176.693 500.197 176.852C500.038 177.011 499.838 177.09 499.595 177.09Z" fill="white"/>
<path d="M81.1626 220.195C82.0432 220.384 82.883 220.565 83.731 220.747C84.7612 216.704 83.3044 210.817 77.906 207.794C72.673 204.874 66.0994 206.212 62.4991 210.902C58.8603 215.653 59.2315 222.346 63.3702 226.587C67.1652 230.483 73.6719 231.642 78.4062 228.463C78.1744 228.073 77.9426 227.683 77.7091 227.301C77.4755 226.919 77.2501 226.538 77.0166 226.156C72.8722 228.773 67.7051 227.612 64.9397 224.482C62.168 221.342 61.8236 216.749 64.1409 213.187C66.435 209.654 70.6044 208.311 74.3895 209.354C76.7488 210.005 78.6161 211.359 79.8893 213.454C81.1677 215.524 81.6145 217.773 81.1626 220.195Z" fill="#00B7FF"/>
<path d="M93.28 224.252V213.052H97.808C98.5013 213.052 99.1093 213.175 99.632 213.42C100.165 213.655 100.581 213.996 100.88 214.444C101.179 214.881 101.328 215.409 101.328 216.028V216.204C101.328 216.94 101.152 217.521 100.8 217.948C100.448 218.375 100.032 218.663 99.552 218.812V219.036C99.936 219.047 100.251 219.175 100.496 219.42C100.752 219.655 100.88 220.012 100.88 220.492V224.252H99.552V220.652C99.552 220.332 99.4613 220.087 99.28 219.916C99.1093 219.745 98.848 219.66 98.496 219.66H94.624V224.252H93.28ZM94.624 218.444H97.68C98.416 218.444 98.9813 218.268 99.376 217.916C99.7813 217.553 99.984 217.052 99.984 216.412V216.3C99.984 215.66 99.7867 215.164 99.392 214.812C98.9973 214.449 98.4267 214.268 97.68 214.268H94.624V218.444ZM107.006 224.476C106.216 224.476 105.523 224.311 104.926 223.98C104.328 223.639 103.864 223.164 103.534 222.556C103.203 221.948 103.038 221.244 103.038 220.444V220.252C103.038 219.441 103.203 218.732 103.534 218.124C103.864 217.516 104.323 217.047 104.91 216.716C105.496 216.375 106.168 216.204 106.926 216.204C107.662 216.204 108.312 216.364 108.878 216.684C109.443 216.993 109.886 217.441 110.206 218.028C110.526 218.615 110.686 219.303 110.686 220.092V220.668H104.302C104.334 221.511 104.606 222.172 105.118 222.652C105.63 223.121 106.27 223.356 107.038 223.356C107.71 223.356 108.227 223.201 108.59 222.892C108.952 222.583 109.23 222.215 109.422 221.788L110.51 222.316C110.35 222.647 110.126 222.977 109.838 223.308C109.56 223.639 109.192 223.916 108.734 224.14C108.286 224.364 107.71 224.476 107.006 224.476ZM104.318 219.628H109.406C109.363 218.903 109.112 218.337 108.654 217.932C108.206 217.527 107.63 217.324 106.926 217.324C106.211 217.324 105.624 217.527 105.166 217.932C104.707 218.337 104.424 218.903 104.318 219.628ZM115.291 224.476C114.747 224.476 114.251 224.38 113.803 224.188C113.355 223.996 113.003 223.719 112.747 223.356C112.491 222.993 112.363 222.551 112.363 222.028C112.363 221.495 112.491 221.057 112.747 220.716C113.003 220.364 113.355 220.103 113.803 219.932C114.251 219.751 114.752 219.66 115.307 219.66H117.947V219.084C117.947 218.529 117.781 218.092 117.451 217.772C117.131 217.452 116.651 217.292 116.011 217.292C115.381 217.292 114.891 217.447 114.539 217.756C114.187 218.055 113.947 218.46 113.819 218.972L112.635 218.588C112.763 218.151 112.965 217.756 113.243 217.404C113.52 217.041 113.888 216.753 114.347 216.54C114.816 216.316 115.376 216.204 116.027 216.204C117.029 216.204 117.808 216.465 118.363 216.988C118.917 217.5 119.195 218.225 119.195 219.164V222.7C119.195 223.02 119.344 223.18 119.642 223.18H120.363V224.252H119.259C118.907 224.252 118.624 224.156 118.411 223.964C118.197 223.761 118.091 223.495 118.091 223.164V223.084H117.899C117.781 223.287 117.621 223.5 117.419 223.724C117.227 223.937 116.96 224.113 116.619 224.252C116.277 224.401 115.835 224.476 115.291 224.476ZM115.435 223.388C116.181 223.388 116.784 223.169 117.243 222.732C117.712 222.284 117.947 221.66 117.947 220.86V220.684H115.355C114.853 220.684 114.437 220.796 114.107 221.02C113.787 221.233 113.627 221.559 113.627 221.996C113.627 222.433 113.792 222.775 114.123 223.02C114.464 223.265 114.901 223.388 115.435 223.388ZM125.187 224.476C124.515 224.476 123.896 224.316 123.331 223.996C122.766 223.676 122.318 223.212 121.987 222.604C121.656 221.996 121.491 221.276 121.491 220.444V220.236C121.491 219.404 121.656 218.689 121.987 218.092C122.318 217.484 122.76 217.02 123.315 216.7C123.88 216.369 124.504 216.204 125.187 216.204C125.731 216.204 126.19 216.279 126.563 216.428C126.947 216.567 127.256 216.748 127.491 216.972C127.726 217.185 127.907 217.415 128.035 217.66H128.259V213.052H129.523V224.252H128.291V222.956H128.067C127.854 223.351 127.523 223.703 127.075 224.012C126.627 224.321 125.998 224.476 125.187 224.476ZM125.523 223.356C126.334 223.356 126.99 223.1 127.491 222.588C128.003 222.065 128.259 221.34 128.259 220.412V220.268C128.259 219.34 128.003 218.62 127.491 218.108C126.99 217.585 126.334 217.324 125.523 217.324C124.723 217.324 124.062 217.585 123.539 218.108C123.027 218.62 122.771 219.34 122.771 220.268V220.412C122.771 221.34 123.027 222.065 123.539 222.588C124.062 223.1 124.723 223.356 125.523 223.356ZM133.116 227.452V226.332H137.596C137.905 226.332 138.06 226.172 138.06 225.852V223.004H137.836C137.729 223.228 137.564 223.452 137.34 223.676C137.126 223.889 136.844 224.065 136.492 224.204C136.14 224.332 135.697 224.396 135.164 224.396C134.598 224.396 134.076 224.273 133.596 224.028C133.126 223.783 132.753 223.42 132.476 222.94C132.209 222.46 132.076 221.873 132.076 221.18V216.428H133.34V221.084C133.34 221.852 133.532 222.412 133.916 222.764C134.31 223.116 134.838 223.292 135.5 223.292C136.246 223.292 136.86 223.047 137.34 222.556C137.82 222.065 138.06 221.335 138.06 220.364V216.428H139.324V226.076C139.324 226.503 139.201 226.839 138.956 227.084C138.721 227.329 138.374 227.452 137.916 227.452H133.116ZM148.958 224.252C148.51 224.252 148.163 224.129 147.918 223.884C147.683 223.639 147.566 223.303 147.566 222.876V217.532H145.214V216.428H147.566V213.644H148.83V216.428H151.39V217.532H148.83V222.684C148.83 223.004 148.985 223.164 149.294 223.164H151.038V224.252H148.958ZM156.772 224.476C155.983 224.476 155.284 224.311 154.676 223.98C154.079 223.649 153.609 223.185 153.268 222.588C152.937 221.98 152.772 221.265 152.772 220.444V220.236C152.772 219.425 152.937 218.716 153.268 218.108C153.609 217.5 154.079 217.031 154.676 216.7C155.284 216.369 155.983 216.204 156.772 216.204C157.561 216.204 158.255 216.369 158.852 216.7C159.46 217.031 159.929 217.5 160.26 218.108C160.601 218.716 160.772 219.425 160.772 220.236V220.444C160.772 221.265 160.601 221.98 160.26 222.588C159.929 223.185 159.46 223.649 158.852 223.98C158.255 224.311 157.561 224.476 156.772 224.476ZM156.772 223.34C157.604 223.34 158.265 223.079 158.756 222.556C159.257 222.023 159.508 221.308 159.508 220.412V220.268C159.508 219.372 159.257 218.663 158.756 218.14C158.265 217.607 157.604 217.34 156.772 217.34C155.951 217.34 155.289 217.607 154.788 218.14C154.287 218.663 154.036 219.372 154.036 220.268V220.412C154.036 221.308 154.287 222.023 154.788 222.556C155.289 223.079 155.951 223.34 156.772 223.34ZM170.756 224.476C169.999 224.476 169.316 224.316 168.708 223.996C168.111 223.665 167.636 223.196 167.284 222.588C166.943 221.98 166.772 221.26 166.772 220.428V220.252C166.772 219.409 166.943 218.689 167.284 218.092C167.636 217.484 168.111 217.02 168.708 216.7C169.316 216.369 169.999 216.204 170.756 216.204C171.503 216.204 172.137 216.343 172.66 216.62C173.193 216.897 173.609 217.265 173.908 217.724C174.217 218.183 174.415 218.673 174.5 219.196L173.268 219.452C173.215 219.068 173.087 218.716 172.884 218.396C172.692 218.076 172.42 217.82 172.068 217.628C171.716 217.436 171.284 217.34 170.772 217.34C170.249 217.34 169.78 217.457 169.364 217.692C168.959 217.927 168.633 218.263 168.388 218.7C168.153 219.137 168.036 219.66 168.036 220.268V220.412C168.036 221.02 168.153 221.543 168.388 221.98C168.633 222.417 168.959 222.753 169.364 222.988C169.78 223.223 170.249 223.34 170.772 223.34C171.551 223.34 172.143 223.137 172.548 222.732C172.964 222.327 173.22 221.825 173.316 221.228L174.564 221.5C174.447 222.012 174.233 222.497 173.924 222.956C173.615 223.415 173.193 223.783 172.66 224.06C172.137 224.337 171.503 224.476 170.756 224.476ZM176.719 224.252V213.052H177.983V224.252H176.719ZM183.041 224.476C182.497 224.476 182.001 224.38 181.553 224.188C181.105 223.996 180.753 223.719 180.497 223.356C180.241 222.993 180.113 222.551 180.113 222.028C180.113 221.495 180.241 221.057 180.497 220.716C180.753 220.364 181.105 220.103 181.553 219.932C182.001 219.751 182.502 219.66 183.057 219.66H185.697V219.084C185.697 218.529 185.531 218.092 185.201 217.772C184.881 217.452 184.401 217.292 183.761 217.292C183.131 217.292 182.641 217.447 182.289 217.756C181.937 218.055 181.697 218.46 181.569 218.972L180.385 218.588C180.513 218.151 180.715 217.756 180.993 217.404C181.27 217.041 181.638 216.753 182.097 216.54C182.566 216.316 183.126 216.204 183.777 216.204C184.779 216.204 185.558 216.465 186.113 216.988C186.667 217.5 186.945 218.225 186.945 219.164V222.7C186.945 223.02 187.094 223.18 187.392 223.18H188.113V224.252H187.009C186.657 224.252 186.374 224.156 186.161 223.964C185.947 223.761 185.841 223.495 185.841 223.164V223.084H185.649C185.531 223.287 185.371 223.5 185.169 223.724C184.977 223.937 184.71 224.113 184.369 224.252C184.027 224.401 183.585 224.476 183.041 224.476ZM183.185 223.388C183.931 223.388 184.534 223.169 184.993 222.732C185.462 222.284 185.697 221.66 185.697 220.86V220.684H183.105C182.603 220.684 182.187 220.796 181.857 221.02C181.537 221.233 181.377 221.559 181.377 221.996C181.377 222.433 181.542 222.775 181.873 223.02C182.214 223.265 182.651 223.388 183.185 223.388ZM189.844 224.252V216.428H191.108V224.252H189.844ZM190.484 215.212C190.206 215.212 189.972 215.121 189.78 214.94C189.598 214.759 189.508 214.529 189.508 214.252C189.508 213.964 189.598 213.729 189.78 213.548C189.972 213.367 190.206 213.276 190.484 213.276C190.761 213.276 190.99 213.367 191.172 213.548C191.353 213.729 191.444 213.964 191.444 214.252C191.444 214.529 191.353 214.759 191.172 214.94C190.99 215.121 190.761 215.212 190.484 215.212ZM193.766 224.252V216.428H194.998V217.404H195.222C195.371 217.127 195.616 216.871 195.958 216.636C196.299 216.401 196.779 216.284 197.398 216.284C198.006 216.284 198.496 216.417 198.87 216.684C199.254 216.951 199.531 217.276 199.702 217.66H199.926C200.107 217.276 200.379 216.951 200.742 216.684C201.115 216.417 201.632 216.284 202.294 216.284C202.816 216.284 203.275 216.391 203.67 216.604C204.064 216.817 204.374 217.127 204.598 217.532C204.832 217.927 204.95 218.401 204.95 218.956V224.252H203.686V219.068C203.686 218.545 203.531 218.135 203.222 217.836C202.923 217.527 202.502 217.372 201.958 217.372C201.382 217.372 200.907 217.559 200.534 217.932C200.171 218.305 199.99 218.844 199.99 219.548V224.252H198.726V219.068C198.726 218.545 198.571 218.135 198.262 217.836C197.963 217.527 197.542 217.372 196.998 217.372C196.422 217.372 195.947 217.559 195.574 217.932C195.211 218.305 195.03 218.844 195.03 219.548V224.252H193.766Z" fill="#00B7FF"/>
<path fill-rule="evenodd" clip-rule="evenodd" d="M229.355 208.9C231.037 207.768 233.042 207.088 235.193 206.999V211.528C234.029 211.601 232.945 211.973 232.015 212.563L229.355 208.9Z" fill="#3DC1F2"/>
<path fill-rule="evenodd" clip-rule="evenodd" d="M225.004 214.399C225.732 212.425 226.994 210.711 228.619 209.433L231.279 213.097C230.414 213.816 229.735 214.746 229.314 215.806L225.004 214.399Z" fill="#3DC1F2"/>
<path fill-rule="evenodd" clip-rule="evenodd" d="M224.721 221.41C224.446 220.431 224.301 219.404 224.301 218.337C224.301 217.269 224.446 216.242 224.721 215.264L229.032 216.663C228.894 217.196 228.821 217.754 228.821 218.337C228.821 218.911 228.894 219.477 229.032 220.011L224.721 221.41Z" fill="#3DC1F2"/>
<path fill-rule="evenodd" clip-rule="evenodd" d="M228.619 227.248C227.002 225.97 225.732 224.256 225.004 222.283L229.314 220.884C229.735 221.943 230.422 222.873 231.279 223.593L228.619 227.248Z" fill="#3DC1F2"/>
<path fill-rule="evenodd" clip-rule="evenodd" d="M235.193 229.682C233.034 229.593 231.037 228.914 229.355 227.782L232.015 224.118C232.945 224.709 234.029 225.073 235.193 225.154V229.682Z" fill="#3DC1F2"/>
<path fill-rule="evenodd" clip-rule="evenodd" d="M241.946 227.782C240.264 228.906 238.258 229.593 236.107 229.682V225.154C237.272 225.081 238.355 224.709 239.285 224.118L241.946 227.782Z" fill="#3DC1F2"/>
<path fill-rule="evenodd" clip-rule="evenodd" d="M246.296 222.275C245.568 224.248 244.307 225.962 242.682 227.24L240.021 223.577C240.886 222.857 241.566 221.927 241.986 220.868L246.296 222.275Z" fill="#3DC1F2"/>
<path fill-rule="evenodd" clip-rule="evenodd" d="M246.579 215.264C246.854 216.242 247 217.269 247 218.337C247 219.404 246.854 220.431 246.579 221.41L242.269 220.011C242.407 219.477 242.48 218.919 242.48 218.337C242.48 217.762 242.407 217.196 242.269 216.663L246.579 215.264Z" fill="#3DC1F2"/>
<path fill-rule="evenodd" clip-rule="evenodd" d="M242.69 209.433C244.307 210.711 245.577 212.425 246.304 214.399L241.994 215.798C241.574 214.738 240.886 213.808 240.029 213.089L242.69 209.433Z" fill="#3DC1F2"/>
<path fill-rule="evenodd" clip-rule="evenodd" d="M236.107 206.999C238.266 207.088 240.264 207.768 241.946 208.9L239.285 212.563C238.355 211.973 237.272 211.601 236.107 211.528V206.999Z" fill="#3DC1F2"/>
<path d="M231.146 218.911H230.843L230.629 218.624H230.152V218.911H229.908V218.377H230.746C230.789 218.377 230.826 218.361 230.856 218.331C230.886 218.3 230.903 218.264 230.903 218.22C230.903 218.177 230.886 218.14 230.856 218.107C230.826 218.074 230.789 218.06 230.746 218.06H229.908V217.817H230.746C230.803 217.817 230.853 217.827 230.903 217.85C231.003 217.893 231.073 217.967 231.116 218.064C231.136 218.117 231.15 218.167 231.15 218.22C231.15 218.27 231.14 218.324 231.116 218.377C231.073 218.474 231.003 218.544 230.909 218.588L231.146 218.911Z" fill="#3DC1F2"/>
<path d="M232.805 218.911H232.525L232.088 218.127L231.647 218.911H231.367L231.981 217.817H232.194L232.805 218.911Z" fill="#3DC1F2"/>
<path d="M234.464 218.911H234.22V218.194L233.846 218.728H233.646L233.272 218.194V218.908H233.025V217.817H233.302L233.743 218.447L234.187 217.817H234.464V218.911Z" fill="#3DC1F2"/>
<path d="M236.006 218.067H234.768V217.82H236.006V218.067ZM236.006 218.911H234.768V218.668H236.006V218.911ZM235.906 218.487H234.864V218.244H235.906V218.487Z" fill="#3DC1F2"/>
<path d="M237.134 218.911H236.607C236.56 218.911 236.513 218.901 236.47 218.885C236.383 218.851 236.32 218.791 236.28 218.708C236.26 218.668 236.25 218.621 236.25 218.574H236.496C236.496 218.594 236.503 218.611 236.513 218.624C236.523 218.638 236.54 218.648 236.557 218.654C236.573 218.661 236.59 218.664 236.607 218.664H237.134C237.151 218.664 237.167 218.661 237.184 218.654C237.201 218.648 237.214 218.638 237.227 218.624C237.241 218.611 237.244 218.594 237.244 218.574C237.244 218.554 237.237 218.541 237.227 218.527C237.217 218.514 237.201 218.504 237.184 218.497C237.167 218.491 237.151 218.487 237.134 218.487H236.607C236.56 218.487 236.513 218.481 236.47 218.461C236.383 218.427 236.32 218.367 236.28 218.284C236.26 218.244 236.25 218.197 236.25 218.15C236.25 218.104 236.26 218.06 236.28 218.017C236.32 217.933 236.383 217.873 236.47 217.84C236.513 217.823 236.557 217.813 236.607 217.813H237.134C237.181 217.813 237.227 217.82 237.271 217.84C237.358 217.873 237.421 217.933 237.461 218.017C237.481 218.057 237.491 218.104 237.491 218.15H237.247C237.247 218.13 237.241 218.117 237.231 218.104C237.221 218.09 237.204 218.08 237.187 218.074C237.171 218.067 237.154 218.064 237.137 218.064H236.61C236.593 218.064 236.577 218.067 236.56 218.074C236.543 218.08 236.53 218.09 236.517 218.104C236.503 218.117 236.5 218.134 236.5 218.15C236.5 218.17 236.507 218.187 236.517 218.2C236.527 218.214 236.543 218.224 236.56 218.23C236.577 218.237 236.593 218.24 236.61 218.24H237.137C237.184 218.24 237.231 218.25 237.274 218.267C237.361 218.301 237.424 218.361 237.464 218.444C237.484 218.484 237.494 218.527 237.494 218.574C237.494 218.621 237.484 218.664 237.464 218.708C237.424 218.791 237.361 218.851 237.274 218.885C237.224 218.901 237.181 218.911 237.134 218.911Z" fill="#3DC1F2"/>
<path d="M238.362 218.911H238.118V218.06H237.718V217.817H238.759V218.06H238.362V218.911Z" fill="#3DC1F2"/>
<path d="M239.664 218.911H239.42V218.06H239.02V217.817H240.061V218.06H239.664V218.911Z" fill="#3DC1F2"/>
<path d="M241.373 218.911H241.092L240.655 218.127L240.215 218.911H239.934L240.545 217.817H240.759L241.373 218.911Z" fill="#3DC1F2"/>
<path fill-rule="evenodd" clip-rule="evenodd" d="M229.355 170.9C231.037 169.768 233.042 169.088 235.193 168.999V173.528C234.029 173.601 232.945 173.973 232.015 174.563L229.355 170.9Z" fill="#3DC1F2"/>
<path fill-rule="evenodd" clip-rule="evenodd" d="M225.004 176.399C225.732 174.425 226.994 172.711 228.619 171.433L231.279 175.097C230.414 175.816 229.735 176.746 229.314 177.806L225.004 176.399Z" fill="#3DC1F2"/>
<path fill-rule="evenodd" clip-rule="evenodd" d="M224.721 183.41C224.446 182.431 224.301 181.404 224.301 180.337C224.301 179.269 224.446 178.242 224.721 177.264L229.032 178.663C228.894 179.196 228.821 179.754 228.821 180.337C228.821 180.911 228.894 181.477 229.032 182.011L224.721 183.41Z" fill="#3DC1F2"/>
<path fill-rule="evenodd" clip-rule="evenodd" d="M228.619 189.248C227.002 187.97 225.732 186.256 225.004 184.283L229.314 182.884C229.735 183.943 230.422 184.873 231.279 185.593L228.619 189.248Z" fill="#3DC1F2"/>
<path fill-rule="evenodd" clip-rule="evenodd" d="M235.193 191.682C233.034 191.593 231.037 190.914 229.355 189.782L232.015 186.118C232.945 186.709 234.029 187.073 235.193 187.154V191.682Z" fill="#3DC1F2"/>
<path fill-rule="evenodd" clip-rule="evenodd" d="M241.946 189.782C240.264 190.906 238.258 191.593 236.107 191.682V187.154C237.272 187.081 238.355 186.709 239.285 186.118L241.946 189.782Z" fill="#3DC1F2"/>
<path fill-rule="evenodd" clip-rule="evenodd" d="M246.296 184.275C245.568 186.248 244.307 187.962 242.682 189.24L240.021 185.577C240.886 184.857 241.566 183.927 241.986 182.868L246.296 184.275Z" fill="#3DC1F2"/>
<path fill-rule="evenodd" clip-rule="evenodd" d="M246.579 177.264C246.854 178.242 247 179.269 247 180.337C247 181.404 246.854 182.431 246.579 183.41L242.269 182.011C242.407 181.477 242.48 180.919 242.48 180.337C242.48 179.762 242.407 179.196 242.269 178.663L246.579 177.264Z" fill="#3DC1F2"/>
<path fill-rule="evenodd" clip-rule="evenodd" d="M242.69 171.433C244.307 172.711 245.577 174.425 246.304 176.399L241.994 177.798C241.574 176.738 240.886 175.808 240.029 175.089L242.69 171.433Z" fill="#3DC1F2"/>
<path fill-rule="evenodd" clip-rule="evenodd" d="M236.107 168.999C238.266 169.088 240.264 169.768 241.946 170.9L239.285 174.563C238.355 173.973 237.272 173.601 236.107 173.528V168.999Z" fill="#3DC1F2"/>
<path d="M231.146 180.911H230.843L230.629 180.624H230.152V180.911H229.908V180.377H230.746C230.789 180.377 230.826 180.361 230.856 180.331C230.886 180.3 230.903 180.264 230.903 180.22C230.903 180.177 230.886 180.14 230.856 180.107C230.826 180.074 230.789 180.06 230.746 180.06H229.908V179.817H230.746C230.803 179.817 230.853 179.827 230.903 179.85C231.003 179.893 231.073 179.967 231.116 180.064C231.136 180.117 231.15 180.167 231.15 180.22C231.15 180.27 231.14 180.324 231.116 180.377C231.073 180.474 231.003 180.544 230.909 180.588L231.146 180.911Z" fill="#3DC1F2"/>
<path d="M232.805 180.911H232.525L232.088 180.127L231.647 180.911H231.367L231.981 179.817H232.194L232.805 180.911Z" fill="#3DC1F2"/>
<path d="M234.464 180.911H234.22V180.194L233.846 180.728H233.646L233.272 180.194V180.908H233.025V179.817H233.302L233.743 180.447L234.187 179.817H234.464V180.911Z" fill="#3DC1F2"/>
<path d="M236.006 180.067H234.768V179.82H236.006V180.067ZM236.006 180.911H234.768V180.668H236.006V180.911ZM235.906 180.487H234.864V180.244H235.906V180.487Z" fill="#3DC1F2"/>
<path d="M237.134 180.911H236.607C236.56 180.911 236.513 180.901 236.47 180.885C236.383 180.851 236.32 180.791 236.28 180.708C236.26 180.668 236.25 180.621 236.25 180.574H236.496C236.496 180.594 236.503 180.611 236.513 180.624C236.523 180.638 236.54 180.648 236.557 180.654C236.573 180.661 236.59 180.664 236.607 180.664H237.134C237.151 180.664 237.167 180.661 237.184 180.654C237.201 180.648 237.214 180.638 237.227 180.624C237.241 180.611 237.244 180.594 237.244 180.574C237.244 180.554 237.237 180.541 237.227 180.527C237.217 180.514 237.201 180.504 237.184 180.497C237.167 180.491 237.151 180.487 237.134 180.487H236.607C236.56 180.487 236.513 180.481 236.47 180.461C236.383 180.427 236.32 180.367 236.28 180.284C236.26 180.244 236.25 180.197 236.25 180.15C236.25 180.104 236.26 180.06 236.28 180.017C236.32 179.933 236.383 179.873 236.47 179.84C236.513 179.823 236.557 179.813 236.607 179.813H237.134C237.181 179.813 237.227 179.82 237.271 179.84C237.358 179.873 237.421 179.933 237.461 180.017C237.481 180.057 237.491 180.104 237.491 180.15H237.247C237.247 180.13 237.241 180.117 237.231 180.104C237.221 180.09 237.204 180.08 237.187 180.074C237.171 180.067 237.154 180.064 237.137 180.064H236.61C236.593 180.064 236.577 180.067 236.56 180.074C236.543 180.08 236.53 180.09 236.517 180.104C236.503 180.117 236.5 180.134 236.5 180.15C236.5 180.17 236.507 180.187 236.517 180.2C236.527 180.214 236.543 180.224 236.56 180.23C236.577 180.237 236.593 180.24 236.61 180.24H237.137C237.184 180.24 237.231 180.25 237.274 180.267C237.361 180.301 237.424 180.361 237.464 180.444C237.484 180.484 237.494 180.527 237.494 180.574C237.494 180.621 237.484 180.664 237.464 180.708C237.424 180.791 237.361 180.851 237.274 180.885C237.224 180.901 237.181 180.911 237.134 180.911Z" fill="#3DC1F2"/>
<path d="M238.362 180.911H238.118V180.06H237.718V179.817H238.759V180.06H238.362V180.911Z" fill="#3DC1F2"/>
<path d="M239.664 180.911H239.42V180.06H239.02V179.817H240.061V180.06H239.664V180.911Z" fill="#3DC1F2"/>
<path d="M241.373 180.911H241.092L240.655 180.127L240.215 180.911H239.934L240.545 179.817H240.759L241.373 180.911Z" fill="#3DC1F2"/>
<path fill-rule="evenodd" clip-rule="evenodd" d="M229.355 132.9C231.037 131.768 233.042 131.088 235.193 130.999V135.528C234.029 135.601 232.945 135.973 232.015 136.563L229.355 132.9Z" fill="#3DC1F2"/>
<path fill-rule="evenodd" clip-rule="evenodd" d="M225.004 138.399C225.732 136.425 226.994 134.711 228.619 133.433L231.279 137.097C230.414 137.816 229.735 138.746 229.314 139.806L225.004 138.399Z" fill="#3DC1F2"/>
<path fill-rule="evenodd" clip-rule="evenodd" d="M224.721 145.41C224.446 144.431 224.301 143.404 224.301 142.337C224.301 141.269 224.446 140.242 224.721 139.264L229.032 140.663C228.894 141.196 228.821 141.754 228.821 142.337C228.821 142.911 228.894 143.477 229.032 144.011L224.721 145.41Z" fill="#3DC1F2"/>
<path fill-rule="evenodd" clip-rule="evenodd" d="M228.619 151.248C227.002 149.97 225.732 148.256 225.004 146.283L229.314 144.884C229.735 145.943 230.422 146.873 231.279 147.593L228.619 151.248Z" fill="#3DC1F2"/>
<path fill-rule="evenodd" clip-rule="evenodd" d="M235.193 153.682C233.034 153.593 231.037 152.914 229.355 151.782L232.015 148.118C232.945 148.709 234.029 149.073 235.193 149.154V153.682Z" fill="#3DC1F2"/>
<path fill-rule="evenodd" clip-rule="evenodd" d="M241.946 151.782C240.264 152.906 238.258 153.593 236.107 153.682V149.154C237.272 149.081 238.355 148.709 239.285 148.118L241.946 151.782Z" fill="#3DC1F2"/>
<path fill-rule="evenodd" clip-rule="evenodd" d="M246.296 146.275C245.568 148.248 244.307 149.962 242.682 151.24L240.021 147.577C240.886 146.857 241.566 145.927 241.986 144.868L246.296 146.275Z" fill="#3DC1F2"/>
<path fill-rule="evenodd" clip-rule="evenodd" d="M246.579 139.264C246.854 140.242 247 141.269 247 142.337C247 143.404 246.854 144.431 246.579 145.41L242.269 144.011C242.407 143.477 242.48 142.919 242.48 142.337C242.48 141.762 242.407 141.196 242.269 140.663L246.579 139.264Z" fill="#3DC1F2"/>
<path fill-rule="evenodd" clip-rule="evenodd" d="M242.69 133.433C244.307 134.711 245.577 136.425 246.304 138.399L241.994 139.798C241.574 138.738 240.886 137.808 240.029 137.089L242.69 133.433Z" fill="#3DC1F2"/>
<path fill-rule="evenodd" clip-rule="evenodd" d="M236.107 130.999C238.266 131.088 240.264 131.768 241.946 132.9L239.285 136.563C238.355 135.973 237.272 135.601 236.107 135.528V130.999Z" fill="#3DC1F2"/>
<path d="M231.146 142.911H230.843L230.629 142.624H230.152V142.911H229.908V142.377H230.746C230.789 142.377 230.826 142.361 230.856 142.331C230.886 142.3 230.903 142.264 230.903 142.22C230.903 142.177 230.886 142.14 230.856 142.107C230.826 142.074 230.789 142.06 230.746 142.06H229.908V141.817H230.746C230.803 141.817 230.853 141.827 230.903 141.85C231.003 141.893 231.073 141.967 231.116 142.064C231.136 142.117 231.15 142.167 231.15 142.22C231.15 142.27 231.14 142.324 231.116 142.377C231.073 142.474 231.003 142.544 230.909 142.588L231.146 142.911Z" fill="#3DC1F2"/>
<path d="M232.805 142.911H232.525L232.088 142.127L231.647 142.911H231.367L231.981 141.817H232.194L232.805 142.911Z" fill="#3DC1F2"/>
<path d="M234.464 142.911H234.22V142.194L233.846 142.728H233.646L233.272 142.194V142.908H233.025V141.817H233.302L233.743 142.447L234.187 141.817H234.464V142.911Z" fill="#3DC1F2"/>
<path d="M236.006 142.067H234.768V141.82H236.006V142.067ZM236.006 142.911H234.768V142.668H236.006V142.911ZM235.906 142.487H234.864V142.244H235.906V142.487Z" fill="#3DC1F2"/>
<path d="M237.134 142.911H236.607C236.56 142.911 236.513 142.901 236.47 142.885C236.383 142.851 236.32 142.791 236.28 142.708C236.26 142.668 236.25 142.621 236.25 142.574H236.496C236.496 142.594 236.503 142.611 236.513 142.624C236.523 142.638 236.54 142.648 236.557 142.654C236.573 142.661 236.59 142.664 236.607 142.664H237.134C237.151 142.664 237.167 142.661 237.184 142.654C237.201 142.648 237.214 142.638 237.227 142.624C237.241 142.611 237.244 142.594 237.244 142.574C237.244 142.554 237.237 142.541 237.227 142.527C237.217 142.514 237.201 142.504 237.184 142.497C237.167 142.491 237.151 142.487 237.134 142.487H236.607C236.56 142.487 236.513 142.481 236.47 142.461C236.383 142.427 236.32 142.367 236.28 142.284C236.26 142.244 236.25 142.197 236.25 142.15C236.25 142.104 236.26 142.06 236.28 142.017C236.32 141.933 236.383 141.873 236.47 141.84C236.513 141.823 236.557 141.813 236.607 141.813H237.134C237.181 141.813 237.227 141.82 237.271 141.84C237.358 141.873 237.421 141.933 237.461 142.017C237.481 142.057 237.491 142.104 237.491 142.15H237.247C237.247 142.13 237.241 142.117 237.231 142.104C237.221 142.09 237.204 142.08 237.187 142.074C237.171 142.067 237.154 142.064 237.137 142.064H236.61C236.593 142.064 236.577 142.067 236.56 142.074C236.543 142.08 236.53 142.09 236.517 142.104C236.503 142.117 236.5 142.134 236.5 142.15C236.5 142.17 236.507 142.187 236.517 142.2C236.527 142.214 236.543 142.224 236.56 142.23C236.577 142.237 236.593 142.24 236.61 142.24H237.137C237.184 142.24 237.231 142.25 237.274 142.267C237.361 142.301 237.424 142.361 237.464 142.444C237.484 142.484 237.494 142.527 237.494 142.574C237.494 142.621 237.484 142.664 237.464 142.708C237.424 142.791 237.361 142.851 237.274 142.885C237.224 142.901 237.181 142.911 237.134 142.911Z" fill="#3DC1F2"/>
<path d="M238.362 142.911H238.118V142.06H237.718V141.817H238.759V142.06H238.362V142.911Z" fill="#3DC1F2"/>
<path d="M239.664 142.911H239.42V142.06H239.02V141.817H240.061V142.06H239.664V142.911Z" fill="#3DC1F2"/>
<path d="M241.373 142.911H241.092L240.655 142.127L240.215 142.911H239.934L240.545 141.817H240.759L241.373 142.911Z" fill="#3DC1F2"/>
<path d="M259.28 224V212.8H263.808C264.501 212.8 265.109 212.923 265.632 213.168C266.165 213.403 266.581 213.744 266.88 214.192C267.179 214.629 267.328 215.157 267.328 215.776V215.952C267.328 216.688 267.152 217.269 266.8 217.696C266.448 218.123 266.032 218.411 265.552 218.56V218.784C265.936 218.795 266.251 218.923 266.496 219.168C266.752 219.403 266.88 219.76 266.88 220.24V224H265.552V220.4C265.552 220.08 265.461 219.835 265.28 219.664C265.109 219.493 264.848 219.408 264.496 219.408H260.624V224H259.28ZM260.624 218.192H263.68C264.416 218.192 264.981 218.016 265.376 217.664C265.781 217.301 265.984 216.8 265.984 216.16V216.048C265.984 215.408 265.787 214.912 265.392 214.56C264.997 214.197 264.427 214.016 263.68 214.016H260.624V218.192ZM271.822 224.224C271.278 224.224 270.782 224.128 270.334 223.936C269.886 223.744 269.534 223.467 269.278 223.104C269.022 222.741 268.894 222.299 268.894 221.776C268.894 221.243 269.022 220.805 269.278 220.464C269.534 220.112 269.886 219.851 270.334 219.68C270.782 219.499 271.283 219.408 271.838 219.408H274.478V218.832C274.478 218.277 274.312 217.84 273.982 217.52C273.662 217.2 273.182 217.04 272.542 217.04C271.912 217.04 271.422 217.195 271.07 217.504C270.718 217.803 270.478 218.208 270.35 218.72L269.166 218.336C269.294 217.899 269.496 217.504 269.774 217.152C270.051 216.789 270.419 216.501 270.878 216.288C271.347 216.064 271.907 215.952 272.558 215.952C273.56 215.952 274.339 216.213 274.894 216.736C275.448 217.248 275.726 217.973 275.726 218.912V222.448C275.726 222.768 275.875 222.928 276.174 222.928H276.894V224H275.79C275.438 224 275.155 223.904 274.942 223.712C274.728 223.509 274.622 223.243 274.622 222.912V222.832H274.43C274.312 223.035 274.152 223.248 273.95 223.472C273.758 223.685 273.491 223.861 273.15 224C272.808 224.149 272.366 224.224 271.822 224.224ZM271.966 223.136C272.712 223.136 273.315 222.917 273.774 222.48C274.243 222.032 274.478 221.408 274.478 220.608V220.432H271.886C271.384 220.432 270.968 220.544 270.638 220.768C270.318 220.981 270.158 221.307 270.158 221.744C270.158 222.181 270.323 222.523 270.654 222.768C270.995 223.013 271.432 223.136 271.966 223.136ZM278.625 224V216.176H279.857V217.152H280.081C280.23 216.875 280.476 216.619 280.817 216.384C281.158 216.149 281.638 216.032 282.257 216.032C282.865 216.032 283.356 216.165 283.729 216.432C284.113 216.699 284.39 217.024 284.561 217.408H284.785C284.966 217.024 285.238 216.699 285.601 216.432C285.974 216.165 286.492 216.032 287.153 216.032C287.676 216.032 288.134 216.139 288.529 216.352C288.924 216.565 289.233 216.875 289.457 217.28C289.692 217.675 289.809 218.149 289.809 218.704V224H288.545V218.816C288.545 218.293 288.39 217.883 288.081 217.584C287.782 217.275 287.361 217.12 286.817 217.12C286.241 217.12 285.766 217.307 285.393 217.68C285.03 218.053 284.849 218.592 284.849 219.296V224H283.585V218.816C283.585 218.293 283.43 217.883 283.121 217.584C282.822 217.275 282.401 217.12 281.857 217.12C281.281 217.12 280.806 217.307 280.433 217.68C280.07 218.053 279.889 218.592 279.889 219.296V224H278.625ZM295.975 224.224C295.185 224.224 294.492 224.059 293.895 223.728C293.297 223.387 292.833 222.912 292.503 222.304C292.172 221.696 292.007 220.992 292.007 220.192V220C292.007 219.189 292.172 218.48 292.503 217.872C292.833 217.264 293.292 216.795 293.879 216.464C294.465 216.123 295.137 215.952 295.895 215.952C296.631 215.952 297.281 216.112 297.847 216.432C298.412 216.741 298.855 217.189 299.175 217.776C299.495 218.363 299.655 219.051 299.655 219.84V220.416H293.271C293.303 221.259 293.575 221.92 294.087 222.4C294.599 222.869 295.239 223.104 296.007 223.104C296.679 223.104 297.196 222.949 297.559 222.64C297.921 222.331 298.199 221.963 298.391 221.536L299.479 222.064C299.319 222.395 299.095 222.725 298.807 223.056C298.529 223.387 298.161 223.664 297.703 223.888C297.255 224.112 296.679 224.224 295.975 224.224ZM293.287 219.376H298.375C298.332 218.651 298.081 218.085 297.623 217.68C297.175 217.275 296.599 217.072 295.895 217.072C295.18 217.072 294.593 217.275 294.135 217.68C293.676 218.085 293.393 218.651 293.287 219.376ZM305.011 224.224C304.041 224.224 303.219 224 302.547 223.552C301.886 223.104 301.486 222.395 301.347 221.424L302.547 221.152C302.633 221.664 302.793 222.069 303.027 222.368C303.262 222.656 303.55 222.864 303.891 222.992C304.243 223.109 304.617 223.168 305.011 223.168C305.598 223.168 306.062 223.051 306.403 222.816C306.745 222.581 306.915 222.267 306.915 221.872C306.915 221.467 306.75 221.184 306.419 221.024C306.099 220.853 305.657 220.715 305.091 220.608L304.435 220.496C303.934 220.411 303.475 220.277 303.059 220.096C302.643 219.915 302.313 219.669 302.067 219.36C301.822 219.051 301.699 218.661 301.699 218.192C301.699 217.488 301.971 216.939 302.515 216.544C303.059 216.149 303.779 215.952 304.675 215.952C305.561 215.952 306.275 216.155 306.819 216.56C307.374 216.955 307.731 217.515 307.891 218.24L306.707 218.544C306.611 217.979 306.382 217.584 306.019 217.36C305.657 217.125 305.209 217.008 304.675 217.008C304.142 217.008 303.721 217.109 303.411 217.312C303.102 217.504 302.947 217.792 302.947 218.176C302.947 218.549 303.091 218.827 303.379 219.008C303.678 219.179 304.073 219.307 304.563 219.392L305.219 219.504C305.774 219.6 306.27 219.733 306.707 219.904C307.155 220.064 307.507 220.299 307.763 220.608C308.03 220.917 308.163 221.323 308.163 221.824C308.163 222.592 307.875 223.184 307.299 223.6C306.734 224.016 305.971 224.224 305.011 224.224ZM313.177 224C312.729 224 312.382 223.877 312.137 223.632C311.902 223.387 311.785 223.051 311.785 222.624V217.28H309.433V216.176H311.785V213.392H313.049V216.176H315.097V217.28H313.049V222.432C313.049 222.752 313.203 222.912 313.513 222.912H315.257V224H313.177ZM318.329 224C317.881 224 317.534 223.877 317.289 223.632C317.043 223.387 316.921 223.051 316.921 222.624V217.28H315.097V216.176H316.921V213.392H318.185V216.176H320.761V217.28H318.185V222.432C318.185 222.752 318.345 222.912 318.665 222.912H320.409V224H318.329ZM325.212 224.224C324.668 224.224 324.172 224.128 323.724 223.936C323.276 223.744 322.924 223.467 322.668 223.104C322.412 222.741 322.284 222.299 322.284 221.776C322.284 221.243 322.412 220.805 322.668 220.464C322.924 220.112 323.276 219.851 323.724 219.68C324.172 219.499 324.674 219.408 325.228 219.408H327.868V218.832C327.868 218.277 327.703 217.84 327.372 217.52C327.052 217.2 326.572 217.04 325.932 217.04C325.303 217.04 324.812 217.195 324.46 217.504C324.108 217.803 323.868 218.208 323.74 218.72L322.556 218.336C322.684 217.899 322.887 217.504 323.164 217.152C323.442 216.789 323.81 216.501 324.268 216.288C324.738 216.064 325.298 215.952 325.948 215.952C326.951 215.952 327.73 216.213 328.284 216.736C328.839 217.248 329.116 217.973 329.116 218.912V222.448C329.116 222.768 329.266 222.928 329.564 222.928H330.284V224H329.18C328.828 224 328.546 223.904 328.332 223.712C328.119 223.509 328.012 223.243 328.012 222.912V222.832H327.82C327.703 223.035 327.543 223.248 327.34 223.472C327.148 223.685 326.882 223.861 326.54 224C326.199 224.149 325.756 224.224 325.212 224.224ZM325.356 223.136C326.103 223.136 326.706 222.917 327.164 222.48C327.634 222.032 327.868 221.408 327.868 220.608V220.432H325.276C324.775 220.432 324.359 220.544 324.028 220.768C323.708 220.981 323.548 221.307 323.548 221.744C323.548 222.181 323.714 222.523 324.044 222.768C324.386 223.013 324.823 223.136 325.356 223.136Z" fill="white"/>
<rect x="365" y="216" width="99" height="5" rx="2.5" fill="#3DC1F2"/>
<path d="M446.5 218C446.5 209.992 452.992 203.5 461 203.5H509.5V232.5H461C452.992 232.5 446.5 226.008 446.5 218Z" fill="black" stroke="#999999"/>
<path d="M458.35 223L461.374 213.2H463.446L466.47 223H465.252L464.496 220.522H460.324L459.568 223H458.35ZM460.618 219.458H464.188L462.508 213.914H462.312L460.618 219.458ZM467.98 223V213.2H469.086V223H467.98ZM471.412 223V216.154H472.49V217.008H472.686C472.817 216.765 473.031 216.541 473.33 216.336C473.629 216.131 474.049 216.028 474.59 216.028C475.122 216.028 475.551 216.145 475.878 216.378C476.214 216.611 476.457 216.896 476.606 217.232H476.802C476.961 216.896 477.199 216.611 477.516 216.378C477.843 216.145 478.295 216.028 478.874 216.028C479.331 216.028 479.733 216.121 480.078 216.308C480.423 216.495 480.694 216.765 480.89 217.12C481.095 217.465 481.198 217.881 481.198 218.366V223H480.092V218.464C480.092 218.007 479.957 217.647 479.686 217.386C479.425 217.115 479.056 216.98 478.58 216.98C478.076 216.98 477.661 217.143 477.334 217.47C477.017 217.797 476.858 218.268 476.858 218.884V223H475.752V218.464C475.752 218.007 475.617 217.647 475.346 217.386C475.085 217.115 474.716 216.98 474.24 216.98C473.736 216.98 473.321 217.143 472.994 217.47C472.677 217.797 472.518 218.268 472.518 218.884V223H471.412ZM486.621 223.196C485.93 223.196 485.319 223.051 484.787 222.762C484.264 222.473 483.854 222.067 483.555 221.544C483.266 221.012 483.121 220.387 483.121 219.668V219.486C483.121 218.777 483.266 218.156 483.555 217.624C483.854 217.092 484.264 216.681 484.787 216.392C485.319 216.103 485.93 215.958 486.621 215.958C487.312 215.958 487.918 216.103 488.441 216.392C488.973 216.681 489.384 217.092 489.673 217.624C489.972 218.156 490.121 218.777 490.121 219.486V219.668C490.121 220.387 489.972 221.012 489.673 221.544C489.384 222.067 488.973 222.473 488.441 222.762C487.918 223.051 487.312 223.196 486.621 223.196ZM486.621 222.202C487.349 222.202 487.928 221.973 488.357 221.516C488.796 221.049 489.015 220.424 489.015 219.64V219.514C489.015 218.73 488.796 218.109 488.357 217.652C487.928 217.185 487.349 216.952 486.621 216.952C485.902 216.952 485.324 217.185 484.885 217.652C484.446 218.109 484.227 218.73 484.227 219.514V219.64C484.227 220.424 484.446 221.049 484.885 221.516C485.324 221.973 485.902 222.202 486.621 222.202ZM494.869 223.196C494.02 223.196 493.301 223 492.713 222.608C492.135 222.216 491.785 221.595 491.663 220.746L492.713 220.508C492.788 220.956 492.928 221.311 493.133 221.572C493.339 221.824 493.591 222.006 493.889 222.118C494.197 222.221 494.524 222.272 494.869 222.272C495.383 222.272 495.789 222.169 496.087 221.964C496.386 221.759 496.535 221.483 496.535 221.138C496.535 220.783 496.391 220.536 496.101 220.396C495.821 220.247 495.434 220.125 494.939 220.032L494.365 219.934C493.927 219.859 493.525 219.743 493.161 219.584C492.797 219.425 492.508 219.211 492.293 218.94C492.079 218.669 491.971 218.329 491.971 217.918C491.971 217.302 492.209 216.821 492.685 216.476C493.161 216.131 493.791 215.958 494.575 215.958C495.35 215.958 495.975 216.135 496.451 216.49C496.937 216.835 497.249 217.325 497.389 217.96L496.353 218.226C496.269 217.731 496.069 217.386 495.751 217.19C495.434 216.985 495.042 216.882 494.575 216.882C494.109 216.882 493.74 216.971 493.469 217.148C493.199 217.316 493.063 217.568 493.063 217.904C493.063 218.231 493.189 218.473 493.441 218.632C493.703 218.781 494.048 218.893 494.477 218.968L495.051 219.066C495.537 219.15 495.971 219.267 496.353 219.416C496.745 219.556 497.053 219.761 497.277 220.032C497.511 220.303 497.627 220.657 497.627 221.096C497.627 221.768 497.375 222.286 496.871 222.65C496.377 223.014 495.709 223.196 494.869 223.196ZM501.864 223C501.472 223 501.168 222.893 500.954 222.678C500.748 222.463 500.646 222.169 500.646 221.796V217.12H498.588V216.154H500.646V213.718H501.752V216.154H503.992V217.12H501.752V221.628C501.752 221.908 501.887 222.048 502.158 222.048H503.684V223H501.864Z" fill="white"/>
<defs>
<linearGradient id="paint0_linear_809_8" x1="1" y1="36" x2="509" y2="36" gradientUnits="userSpaceOnUse">
<stop/>
<stop offset="0.5" stop-color="#3DC1F2"/>
<stop offset="1"/>
</linearGradient>
<clipPath id="clip0_809_8">
<rect width="24" height="24" fill="white" transform="translate(60 168)"/>
</clipPath>
</defs>
</svg>
