<svg width="510" height="360" viewBox="0 0 510 360" fill="none" xmlns="http://www.w3.org/2000/svg">
<rect x="0.5" y="0.5" width="509" height="359" rx="7.5" fill="black" stroke="#1D1D20"/>
<rect x="157.5" y="83.5" width="194" height="194" rx="97" fill="#0B1518" stroke="#3DC1F2"/>
<path d="M303.939 149C291.121 171.576 278.549 193.66 265.732 216.174C278.488 216.174 290.937 216.174 304 216.174C278.795 247.424 253.957 278.243 229.12 309C228.936 308.938 228.814 308.877 228.63 308.815C235.866 286.916 243.103 265.017 250.401 242.933C235.498 242.933 220.902 242.933 206 242.933C206.307 242.195 206.491 241.641 206.736 241.211C223.907 211.007 241.14 180.742 258.373 150.599C258.741 149.923 259.661 149.062 260.274 149.062C274.686 149 289.036 149 303.939 149Z" fill="#3DC1F2"/>
<rect x="1" y="16" width="508" height="40" fill="url(#paint0_linear_809_9)"/>
<path d="M171.771 45V28.2H182.332V31.08H174.94V35.136H181.756V38.016H174.94V45H171.771ZM188.196 45.336C187.348 45.336 186.588 45.192 185.916 44.904C185.244 44.6 184.708 44.168 184.308 43.608C183.924 43.032 183.732 42.336 183.732 41.52C183.732 40.704 183.924 40.024 184.308 39.48C184.708 38.92 185.252 38.504 185.94 38.232C186.644 37.944 187.444 37.8 188.34 37.8H191.604V37.128C191.604 36.568 191.428 36.112 191.076 35.76C190.724 35.392 190.164 35.208 189.396 35.208C188.644 35.208 188.084 35.384 187.716 35.736C187.348 36.072 187.108 36.512 186.996 37.056L184.212 36.12C184.404 35.512 184.708 34.96 185.124 34.464C185.556 33.952 186.124 33.544 186.828 33.24C187.548 32.92 188.42 32.76 189.444 32.76C191.012 32.76 192.252 33.152 193.164 33.936C194.076 34.72 194.532 35.856 194.532 37.344V41.784C194.532 42.264 194.756 42.504 195.204 42.504H196.164V45H194.148C193.556 45 193.068 44.856 192.684 44.568C192.3 44.28 192.108 43.896 192.108 43.416V43.392H191.652C191.588 43.584 191.444 43.84 191.22 44.16C190.996 44.464 190.644 44.736 190.164 44.976C189.684 45.216 189.028 45.336 188.196 45.336ZM188.724 42.888C189.572 42.888 190.26 42.656 190.788 42.192C191.332 41.712 191.604 41.08 191.604 40.296V40.056H188.556C187.996 40.056 187.556 40.176 187.236 40.416C186.916 40.656 186.756 40.992 186.756 41.424C186.756 41.856 186.924 42.208 187.26 42.48C187.596 42.752 188.084 42.888 188.724 42.888ZM203.226 45.336C201.674 45.336 200.402 45 199.41 44.328C198.418 43.656 197.818 42.696 197.61 41.448L200.394 40.728C200.506 41.288 200.69 41.728 200.946 42.048C201.218 42.368 201.546 42.6 201.93 42.744C202.33 42.872 202.762 42.936 203.226 42.936C203.93 42.936 204.45 42.816 204.786 42.576C205.122 42.32 205.29 42.008 205.29 41.64C205.29 41.272 205.13 40.992 204.81 40.8C204.49 40.592 203.978 40.424 203.274 40.296L202.602 40.176C201.77 40.016 201.01 39.8 200.322 39.528C199.634 39.24 199.082 38.848 198.666 38.352C198.25 37.856 198.042 37.216 198.042 36.432C198.042 35.248 198.474 34.344 199.338 33.72C200.202 33.08 201.338 32.76 202.746 32.76C204.074 32.76 205.178 33.056 206.058 33.648C206.938 34.24 207.514 35.016 207.786 35.976L204.978 36.84C204.85 36.232 204.586 35.8 204.186 35.544C203.802 35.288 203.322 35.16 202.746 35.16C202.17 35.16 201.73 35.264 201.426 35.472C201.122 35.664 200.97 35.936 200.97 36.288C200.97 36.672 201.13 36.96 201.45 37.152C201.77 37.328 202.202 37.464 202.746 37.56L203.418 37.68C204.314 37.84 205.122 38.056 205.842 38.328C206.578 38.584 207.154 38.96 207.57 39.456C208.002 39.936 208.218 40.592 208.218 41.424C208.218 42.672 207.762 43.64 206.85 44.328C205.954 45 204.746 45.336 203.226 45.336ZM215.193 45C214.409 45 213.769 44.76 213.273 44.28C212.793 43.784 212.553 43.128 212.553 42.312V35.592H209.577V33.096H212.553V29.4H215.577V33.096H218.841V35.592H215.577V41.784C215.577 42.264 215.801 42.504 216.249 42.504H218.553V45H215.193ZM226.581 45.336C225.397 45.336 224.349 45.088 223.437 44.592C222.541 44.08 221.837 43.368 221.325 42.456C220.829 41.528 220.581 40.44 220.581 39.192V38.904C220.581 37.656 220.829 36.576 221.325 35.664C221.821 34.736 222.517 34.024 223.413 33.528C224.309 33.016 225.349 32.76 226.533 32.76C227.701 32.76 228.717 33.024 229.581 33.552C230.445 34.064 231.117 34.784 231.597 35.712C232.077 36.624 232.317 37.688 232.317 38.904V39.936H223.653C223.685 40.752 223.989 41.416 224.565 41.928C225.141 42.44 225.845 42.696 226.677 42.696C227.525 42.696 228.149 42.512 228.549 42.144C228.949 41.776 229.253 41.368 229.461 40.92L231.933 42.216C231.709 42.632 231.381 43.088 230.949 43.584C230.533 44.064 229.973 44.48 229.269 44.832C228.565 45.168 227.669 45.336 226.581 45.336ZM223.677 37.68H229.245C229.181 36.992 228.901 36.44 228.405 36.024C227.925 35.608 227.293 35.4 226.509 35.4C225.693 35.4 225.045 35.608 224.565 36.024C224.085 36.44 223.789 36.992 223.677 37.68ZM235.008 45V33.096H237.984V34.44H238.416C238.592 33.96 238.88 33.608 239.28 33.384C239.696 33.16 240.176 33.048 240.72 33.048H242.16V35.736H240.672C239.904 35.736 239.272 35.944 238.776 36.36C238.28 36.76 238.032 37.384 238.032 38.232V45H235.008ZM250.042 45V42.216H252.25V30.984H250.042V28.2H258.682C259.706 28.2 260.594 28.376 261.346 28.728C262.114 29.064 262.706 29.552 263.122 30.192C263.554 30.816 263.77 31.568 263.77 32.448V32.688C263.77 33.456 263.626 34.088 263.338 34.584C263.05 35.064 262.706 35.44 262.306 35.712C261.922 35.968 261.554 36.152 261.202 36.264V36.696C261.554 36.792 261.938 36.976 262.354 37.248C262.77 37.504 263.122 37.88 263.41 38.376C263.714 38.872 263.866 39.52 263.866 40.32V40.56C263.866 41.488 263.65 42.288 263.218 42.96C262.786 43.616 262.186 44.12 261.418 44.472C260.666 44.824 259.786 45 258.778 45H250.042ZM255.418 42.12H258.394C259.082 42.12 259.634 41.952 260.05 41.616C260.482 41.28 260.698 40.8 260.698 40.176V39.936C260.698 39.312 260.49 38.832 260.074 38.496C259.658 38.16 259.098 37.992 258.394 37.992H255.418V42.12ZM255.418 35.112H258.346C259.002 35.112 259.538 34.944 259.954 34.608C260.386 34.272 260.602 33.808 260.602 33.216V32.976C260.602 32.368 260.394 31.904 259.978 31.584C259.562 31.248 259.018 31.08 258.346 31.08H255.418V35.112ZM266.555 45V33.096H269.531V34.44H269.963C270.139 33.96 270.427 33.608 270.827 33.384C271.243 33.16 271.723 33.048 272.267 33.048H273.707V35.736H272.219C271.451 35.736 270.819 35.944 270.323 36.36C269.827 36.76 269.579 37.384 269.579 38.232V45H266.555ZM276.071 45V33.096H279.095V45H276.071ZM277.583 31.704C277.039 31.704 276.575 31.528 276.191 31.176C275.823 30.824 275.639 30.36 275.639 29.784C275.639 29.208 275.823 28.744 276.191 28.392C276.575 28.04 277.039 27.864 277.583 27.864C278.143 27.864 278.607 28.04 278.975 28.392C279.343 28.744 279.527 29.208 279.527 29.784C279.527 30.36 279.343 30.824 278.975 31.176C278.607 31.528 278.143 31.704 277.583 31.704ZM287.246 45.336C286.302 45.336 285.414 45.104 284.582 44.64C283.766 44.16 283.11 43.464 282.614 42.552C282.118 41.64 281.87 40.536 281.87 39.24V38.856C281.87 37.56 282.118 36.456 282.614 35.544C283.11 34.632 283.766 33.944 284.582 33.48C285.398 33 286.286 32.76 287.246 32.76C287.966 32.76 288.566 32.848 289.046 33.024C289.542 33.184 289.942 33.392 290.246 33.648C290.55 33.904 290.782 34.176 290.942 34.464H291.374V28.2H294.398V45H291.422V43.56H290.99C290.718 44.008 290.294 44.416 289.718 44.784C289.158 45.152 288.334 45.336 287.246 45.336ZM288.158 42.696C289.086 42.696 289.862 42.4 290.486 41.808C291.11 41.2 291.422 40.32 291.422 39.168V38.928C291.422 37.776 291.11 36.904 290.486 36.312C289.878 35.704 289.102 35.4 288.158 35.4C287.23 35.4 286.454 35.704 285.83 36.312C285.206 36.904 284.894 37.776 284.894 38.928V39.168C284.894 40.32 285.206 41.2 285.83 41.808C286.454 42.4 287.23 42.696 288.158 42.696ZM297.174 39.096V38.712C297.174 37.464 297.422 36.4 297.918 35.52C298.414 34.624 299.07 33.944 299.886 33.48C300.718 33 301.622 32.76 302.598 32.76C303.686 32.76 304.51 32.952 305.07 33.336C305.63 33.72 306.038 34.12 306.294 34.536H306.726V33.096H309.702V47.112C309.702 47.928 309.462 48.576 308.982 49.056C308.502 49.552 307.862 49.8 307.062 49.8H299.094V47.16H306.006C306.454 47.16 306.678 46.92 306.678 46.44V43.344H306.246C306.086 43.6 305.862 43.864 305.574 44.136C305.286 44.392 304.902 44.608 304.422 44.784C303.942 44.96 303.334 45.048 302.598 45.048C301.622 45.048 300.718 44.816 299.886 44.352C299.07 43.872 298.414 43.192 297.918 42.312C297.422 41.416 297.174 40.344 297.174 39.096ZM303.462 42.408C304.39 42.408 305.166 42.112 305.79 41.52C306.414 40.928 306.726 40.096 306.726 39.024V38.784C306.726 37.696 306.414 36.864 305.79 36.288C305.182 35.696 304.406 35.4 303.462 35.4C302.534 35.4 301.758 35.696 301.134 36.288C300.51 36.864 300.198 37.696 300.198 38.784V39.024C300.198 40.096 300.51 40.928 301.134 41.52C301.758 42.112 302.534 42.408 303.462 42.408ZM318.479 45.336C317.295 45.336 316.247 45.088 315.335 44.592C314.439 44.08 313.735 43.368 313.223 42.456C312.727 41.528 312.479 40.44 312.479 39.192V38.904C312.479 37.656 312.727 36.576 313.223 35.664C313.719 34.736 314.415 34.024 315.311 33.528C316.207 33.016 317.247 32.76 318.431 32.76C319.599 32.76 320.615 33.024 321.479 33.552C322.343 34.064 323.015 34.784 323.495 35.712C323.975 36.624 324.215 37.688 324.215 38.904V39.936H315.551C315.583 40.752 315.887 41.416 316.463 41.928C317.039 42.44 317.743 42.696 318.575 42.696C319.423 42.696 320.047 42.512 320.447 42.144C320.847 41.776 321.151 41.368 321.359 40.92L323.831 42.216C323.607 42.632 323.279 43.088 322.847 43.584C322.431 44.064 321.871 44.48 321.167 44.832C320.463 45.168 319.567 45.336 318.479 45.336ZM315.575 37.68H321.143C321.079 36.992 320.799 36.44 320.303 36.024C319.823 35.608 319.191 35.4 318.407 35.4C317.591 35.4 316.943 35.608 316.463 36.024C315.983 36.44 315.687 36.992 315.575 37.68ZM331.851 45.336C330.299 45.336 329.027 45 328.035 44.328C327.043 43.656 326.443 42.696 326.235 41.448L329.019 40.728C329.131 41.288 329.315 41.728 329.571 42.048C329.843 42.368 330.171 42.6 330.555 42.744C330.955 42.872 331.387 42.936 331.851 42.936C332.555 42.936 333.075 42.816 333.411 42.576C333.747 42.32 333.915 42.008 333.915 41.64C333.915 41.272 333.755 40.992 333.435 40.8C333.115 40.592 332.603 40.424 331.899 40.296L331.227 40.176C330.395 40.016 329.635 39.8 328.947 39.528C328.259 39.24 327.707 38.848 327.291 38.352C326.875 37.856 326.667 37.216 326.667 36.432C326.667 35.248 327.099 34.344 327.963 33.72C328.827 33.08 329.963 32.76 331.371 32.76C332.699 32.76 333.803 33.056 334.683 33.648C335.563 34.24 336.139 35.016 336.411 35.976L333.603 36.84C333.475 36.232 333.211 35.8 332.811 35.544C332.427 35.288 331.947 35.16 331.371 35.16C330.795 35.16 330.355 35.264 330.051 35.472C329.747 35.664 329.595 35.936 329.595 36.288C329.595 36.672 329.755 36.96 330.075 37.152C330.395 37.328 330.827 37.464 331.371 37.56L332.043 37.68C332.939 37.84 333.747 38.056 334.467 38.328C335.203 38.584 335.779 38.96 336.195 39.456C336.627 39.936 336.843 40.592 336.843 41.424C336.843 42.672 336.387 43.64 335.475 44.328C334.579 45 333.371 45.336 331.851 45.336Z" fill="white"/>
<defs>
<linearGradient id="paint0_linear_809_9" x1="1" y1="36" x2="509" y2="36" gradientUnits="userSpaceOnUse">
<stop/>
<stop offset="0.5" stop-color="#3DC1F2"/>
<stop offset="1"/>
</linearGradient>
</defs>
</svg>
