<svg width="510" height="360" viewBox="0 0 510 360" fill="none" xmlns="http://www.w3.org/2000/svg">
<rect x="0.5" y="0.5" width="509" height="359" rx="7.5" fill="#F1F2F4" stroke="#3DC1F2"/>
<rect x="1" y="16" width="508" height="40" fill="url(#paint0_linear_809_16)"/>
<path d="M195.865 45V28.2H203.161C204.217 28.2 205.137 28.384 205.921 28.752C206.705 29.12 207.313 29.64 207.745 30.312C208.177 30.984 208.393 31.776 208.393 32.688V32.976C208.393 33.984 208.153 34.8 207.673 35.424C207.193 36.048 206.601 36.504 205.897 36.792V37.224C206.537 37.256 207.033 37.48 207.385 37.896C207.737 38.296 207.913 38.832 207.913 39.504V45H204.745V39.96C204.745 39.576 204.641 39.264 204.433 39.024C204.241 38.784 203.913 38.664 203.449 38.664H199.033V45H195.865ZM199.033 35.784H202.825C203.577 35.784 204.161 35.584 204.577 35.184C205.009 34.768 205.225 34.224 205.225 33.552V33.312C205.225 32.64 205.017 32.104 204.601 31.704C204.185 31.288 203.593 31.08 202.825 31.08H199.033V35.784ZM216.549 45.336C215.365 45.336 214.317 45.088 213.405 44.592C212.509 44.08 211.805 43.368 211.293 42.456C210.797 41.528 210.549 40.44 210.549 39.192V38.904C210.549 37.656 210.797 36.576 211.293 35.664C211.789 34.736 212.485 34.024 213.381 33.528C214.277 33.016 215.317 32.76 216.501 32.76C217.669 32.76 218.685 33.024 219.549 33.552C220.413 34.064 221.085 34.784 221.565 35.712C222.045 36.624 222.285 37.688 222.285 38.904V39.936H213.621C213.653 40.752 213.957 41.416 214.533 41.928C215.109 42.44 215.813 42.696 216.645 42.696C217.493 42.696 218.117 42.512 218.517 42.144C218.917 41.776 219.221 41.368 219.429 40.92L221.901 42.216C221.677 42.632 221.349 43.088 220.917 43.584C220.501 44.064 219.941 44.48 219.237 44.832C218.533 45.168 217.637 45.336 216.549 45.336ZM213.645 37.68H219.213C219.149 36.992 218.869 36.44 218.373 36.024C217.893 35.608 217.261 35.4 216.477 35.4C215.661 35.4 215.013 35.608 214.533 36.024C214.053 36.44 213.757 36.992 213.645 37.68ZM226.546 45V35.592H223.522V33.096H226.546V30.888C226.546 30.072 226.786 29.424 227.266 28.944C227.762 28.448 228.402 28.2 229.186 28.2H232.306V30.696H230.242C229.794 30.696 229.57 30.936 229.57 31.416V33.096H232.69V35.592H229.57V45H226.546ZM239.568 45.192C238.64 45.192 237.824 44.984 237.12 44.568C236.432 44.136 235.896 43.544 235.512 42.792C235.128 42.04 234.936 41.176 234.936 40.2V33.096H237.96V39.96C237.96 40.856 238.176 41.528 238.608 41.976C239.056 42.424 239.688 42.648 240.504 42.648C241.432 42.648 242.152 42.344 242.664 41.736C243.176 41.112 243.432 40.248 243.432 39.144V33.096H246.456V45H243.48V43.44H243.048C242.856 43.84 242.496 44.232 241.968 44.616C241.44 45 240.64 45.192 239.568 45.192ZM255.245 45.336C254.061 45.336 253.013 45.088 252.101 44.592C251.205 44.08 250.501 43.368 249.989 42.456C249.493 41.528 249.245 40.44 249.245 39.192V38.904C249.245 37.656 249.493 36.576 249.989 35.664C250.485 34.736 251.181 34.024 252.077 33.528C252.973 33.016 254.013 32.76 255.197 32.76C256.365 32.76 257.381 33.024 258.245 33.552C259.109 34.064 259.781 34.784 260.261 35.712C260.741 36.624 260.981 37.688 260.981 38.904V39.936H252.317C252.349 40.752 252.653 41.416 253.229 41.928C253.805 42.44 254.509 42.696 255.341 42.696C256.189 42.696 256.813 42.512 257.213 42.144C257.613 41.776 257.917 41.368 258.125 40.92L260.597 42.216C260.373 42.632 260.045 43.088 259.613 43.584C259.197 44.064 258.637 44.48 257.933 44.832C257.229 45.168 256.333 45.336 255.245 45.336ZM252.341 37.68H257.909C257.845 36.992 257.565 36.44 257.069 36.024C256.589 35.608 255.957 35.4 255.173 35.4C254.357 35.4 253.709 35.608 253.229 36.024C252.749 36.44 252.453 36.992 252.341 37.68ZM263.672 45V28.2H266.696V45H263.672ZM281.853 45.336C280.701 45.336 279.653 45.08 278.709 44.568C277.781 44.04 277.037 43.28 276.477 42.288C275.933 41.28 275.661 40.056 275.661 38.616V34.584C275.661 32.424 276.269 30.768 277.485 29.616C278.701 28.448 280.349 27.864 282.429 27.864C284.493 27.864 286.085 28.416 287.205 29.52C288.341 30.608 288.909 32.088 288.909 33.96V34.056H285.789V33.864C285.789 33.272 285.661 32.736 285.405 32.256C285.165 31.776 284.797 31.4 284.301 31.128C283.805 30.84 283.181 30.696 282.429 30.696C281.309 30.696 280.429 31.04 279.789 31.728C279.149 32.416 278.829 33.352 278.829 34.536V38.664C278.829 39.832 279.149 40.776 279.789 41.496C280.429 42.2 281.325 42.552 282.477 42.552C283.629 42.552 284.469 42.248 284.997 41.64C285.525 41.032 285.789 40.264 285.789 39.336V39.096H281.805V36.408H288.909V45H285.981V43.392H285.549C285.437 43.664 285.253 43.952 284.997 44.256C284.757 44.56 284.389 44.816 283.893 45.024C283.397 45.232 282.717 45.336 281.853 45.336ZM295.728 45.336C294.88 45.336 294.12 45.192 293.448 44.904C292.776 44.6 292.24 44.168 291.84 43.608C291.456 43.032 291.264 42.336 291.264 41.52C291.264 40.704 291.456 40.024 291.84 39.48C292.24 38.92 292.784 38.504 293.472 38.232C294.176 37.944 294.976 37.8 295.872 37.8H299.136V37.128C299.136 36.568 298.96 36.112 298.608 35.76C298.256 35.392 297.696 35.208 296.928 35.208C296.176 35.208 295.616 35.384 295.248 35.736C294.88 36.072 294.64 36.512 294.528 37.056L291.744 36.12C291.936 35.512 292.24 34.96 292.656 34.464C293.088 33.952 293.656 33.544 294.36 33.24C295.08 32.92 295.952 32.76 296.976 32.76C298.544 32.76 299.784 33.152 300.696 33.936C301.608 34.72 302.064 35.856 302.064 37.344V41.784C302.064 42.264 302.288 42.504 302.736 42.504H303.696V45H301.68C301.088 45 300.6 44.856 300.216 44.568C299.832 44.28 299.64 43.896 299.64 43.416V43.392H299.184C299.12 43.584 298.976 43.84 298.752 44.16C298.528 44.464 298.176 44.736 297.696 44.976C297.216 45.216 296.56 45.336 295.728 45.336ZM296.256 42.888C297.104 42.888 297.792 42.656 298.32 42.192C298.864 41.712 299.136 41.08 299.136 40.296V40.056H296.088C295.528 40.056 295.088 40.176 294.768 40.416C294.448 40.656 294.288 40.992 294.288 41.424C294.288 41.856 294.456 42.208 294.792 42.48C295.128 42.752 295.616 42.888 296.256 42.888ZM310.757 45.336C309.205 45.336 307.933 45 306.941 44.328C305.949 43.656 305.349 42.696 305.141 41.448L307.925 40.728C308.037 41.288 308.221 41.728 308.477 42.048C308.749 42.368 309.077 42.6 309.461 42.744C309.861 42.872 310.293 42.936 310.757 42.936C311.461 42.936 311.981 42.816 312.317 42.576C312.653 42.32 312.821 42.008 312.821 41.64C312.821 41.272 312.661 40.992 312.341 40.8C312.021 40.592 311.509 40.424 310.805 40.296L310.133 40.176C309.301 40.016 308.541 39.8 307.853 39.528C307.165 39.24 306.613 38.848 306.197 38.352C305.781 37.856 305.573 37.216 305.573 36.432C305.573 35.248 306.005 34.344 306.869 33.72C307.733 33.08 308.869 32.76 310.277 32.76C311.605 32.76 312.709 33.056 313.589 33.648C314.469 34.24 315.045 35.016 315.317 35.976L312.509 36.84C312.381 36.232 312.117 35.8 311.717 35.544C311.333 35.288 310.853 35.16 310.277 35.16C309.701 35.16 309.261 35.264 308.957 35.472C308.653 35.664 308.501 35.936 308.501 36.288C308.501 36.672 308.661 36.96 308.981 37.152C309.301 37.328 309.733 37.464 310.277 37.56L310.949 37.68C311.845 37.84 312.653 38.056 313.373 38.328C314.109 38.584 314.685 38.96 315.101 39.456C315.533 39.936 315.749 40.592 315.749 41.424C315.749 42.672 315.293 43.64 314.381 44.328C313.485 45 312.277 45.336 310.757 45.336Z" fill="black"/>
<path d="M85.4071 85V75.2H89.1591C89.7471 75.2 90.2698 75.3167 90.7271 75.55C91.1938 75.774 91.5624 76.096 91.8331 76.516C92.1038 76.936 92.2391 77.4447 92.2391 78.042V78.224C92.2391 78.812 92.0991 79.3207 91.8191 79.75C91.5484 80.17 91.1798 80.492 90.7131 80.716C90.2464 80.94 89.7284 81.052 89.1591 81.052H86.5831V85H85.4071ZM86.5831 79.988H89.0331C89.6584 79.988 90.1531 79.834 90.5171 79.526C90.8811 79.2087 91.0631 78.7653 91.0631 78.196V78.056C91.0631 77.4867 90.8811 77.048 90.5171 76.74C90.1624 76.4227 89.6678 76.264 89.0331 76.264H86.5831V79.988ZM96.8026 85.196C96.1119 85.196 95.5006 85.0513 94.9686 84.762C94.4459 84.4727 94.0352 84.0667 93.7366 83.544C93.4472 83.012 93.3026 82.3867 93.3026 81.668V81.486C93.3026 80.7767 93.4472 80.156 93.7366 79.624C94.0352 79.092 94.4459 78.6813 94.9686 78.392C95.5006 78.1027 96.1119 77.958 96.8026 77.958C97.4932 77.958 98.0999 78.1027 98.6226 78.392C99.1546 78.6813 99.5652 79.092 99.8546 79.624C100.153 80.156 100.303 80.7767 100.303 81.486V81.668C100.303 82.3867 100.153 83.012 99.8546 83.544C99.5652 84.0667 99.1546 84.4727 98.6226 84.762C98.0999 85.0513 97.4932 85.196 96.8026 85.196ZM96.8026 84.202C97.5306 84.202 98.1092 83.9733 98.5386 83.516C98.9772 83.0493 99.1966 82.424 99.1966 81.64V81.514C99.1966 80.73 98.9772 80.1093 98.5386 79.652C98.1092 79.1853 97.5306 78.952 96.8026 78.952C96.0839 78.952 95.5052 79.1853 95.0666 79.652C94.6279 80.1093 94.4086 80.73 94.4086 81.514V81.64C94.4086 82.424 94.6279 83.0493 95.0666 83.516C95.5052 83.9733 96.0839 84.202 96.8026 84.202ZM103.108 85L101.736 78.154H102.856L103.99 84.258H104.186L105.684 78.154H107.518L109.016 84.258H109.212L110.346 78.154H111.466L110.094 85H108.204L106.692 78.896H106.51L104.998 85H103.108ZM116.366 85.196C115.676 85.196 115.069 85.0513 114.546 84.762C114.024 84.4633 113.618 84.048 113.328 83.516C113.039 82.984 112.894 82.368 112.894 81.668V81.5C112.894 80.7907 113.039 80.17 113.328 79.638C113.618 79.106 114.019 78.6953 114.532 78.406C115.046 78.1073 115.634 77.958 116.296 77.958C116.94 77.958 117.51 78.098 118.004 78.378C118.499 78.6487 118.886 79.0407 119.166 79.554C119.446 80.0673 119.586 80.6693 119.586 81.36V81.864H114C114.028 82.6013 114.266 83.18 114.714 83.6C115.162 84.0107 115.722 84.216 116.394 84.216C116.982 84.216 117.435 84.0807 117.752 83.81C118.07 83.5393 118.312 83.2173 118.48 82.844L119.432 83.306C119.292 83.5953 119.096 83.8847 118.844 84.174C118.602 84.4633 118.28 84.706 117.878 84.902C117.486 85.098 116.982 85.196 116.366 85.196ZM114.014 80.954H118.466C118.429 80.3193 118.21 79.8247 117.808 79.47C117.416 79.1153 116.912 78.938 116.296 78.938C115.671 78.938 115.158 79.1153 114.756 79.47C114.355 79.8247 114.108 80.3193 114.014 80.954ZM121.516 85V78.154H122.594V78.994H122.79C122.911 78.6953 123.098 78.476 123.35 78.336C123.602 78.196 123.933 78.126 124.344 78.126H125.156V79.134H124.274C123.779 79.134 123.378 79.274 123.07 79.554C122.771 79.8247 122.622 80.2493 122.622 80.828V85H121.516ZM129.683 85.196C128.992 85.196 128.385 85.0513 127.863 84.762C127.34 84.4633 126.934 84.048 126.645 83.516C126.355 82.984 126.211 82.368 126.211 81.668V81.5C126.211 80.7907 126.355 80.17 126.645 79.638C126.934 79.106 127.335 78.6953 127.849 78.406C128.362 78.1073 128.95 77.958 129.613 77.958C130.257 77.958 130.826 78.098 131.321 78.378C131.815 78.6487 132.203 79.0407 132.483 79.554C132.763 80.0673 132.903 80.6693 132.903 81.36V81.864H127.317C127.345 82.6013 127.583 83.18 128.031 83.6C128.479 84.0107 129.039 84.216 129.711 84.216C130.299 84.216 130.751 84.0807 131.069 83.81C131.386 83.5393 131.629 83.2173 131.797 82.844L132.749 83.306C132.609 83.5953 132.413 83.8847 132.161 84.174C131.918 84.4633 131.596 84.706 131.195 84.902C130.803 85.098 130.299 85.196 129.683 85.196ZM127.331 80.954H131.783C131.745 80.3193 131.526 79.8247 131.125 79.47C130.733 79.1153 130.229 78.938 129.613 78.938C128.987 78.938 128.474 79.1153 128.073 79.47C127.671 79.8247 127.424 80.3193 127.331 80.954ZM137.73 85.196C137.142 85.196 136.601 85.056 136.106 84.776C135.611 84.496 135.219 84.09 134.93 83.558C134.641 83.026 134.496 82.396 134.496 81.668V81.486C134.496 80.758 134.641 80.1327 134.93 79.61C135.219 79.078 135.607 78.672 136.092 78.392C136.587 78.1027 137.133 77.958 137.73 77.958C138.206 77.958 138.607 78.0233 138.934 78.154C139.27 78.2753 139.541 78.434 139.746 78.63C139.951 78.8167 140.11 79.0173 140.222 79.232H140.418V75.2H141.524V85H140.446V83.866H140.25C140.063 84.2113 139.774 84.5193 139.382 84.79C138.99 85.0607 138.439 85.196 137.73 85.196ZM138.024 84.216C138.733 84.216 139.307 83.992 139.746 83.544C140.194 83.0867 140.418 82.452 140.418 81.64V81.514C140.418 80.702 140.194 80.072 139.746 79.624C139.307 79.1667 138.733 78.938 138.024 78.938C137.324 78.938 136.745 79.1667 136.288 79.624C135.84 80.072 135.616 80.702 135.616 81.514V81.64C135.616 82.452 135.84 83.0867 136.288 83.544C136.745 83.992 137.324 84.216 138.024 84.216ZM151.231 85.196C150.522 85.196 149.967 85.0607 149.565 84.79C149.173 84.5193 148.889 84.2113 148.711 83.866H148.515V85H147.437V75.2H148.543V79.232H148.739C148.851 79.0173 149.01 78.8167 149.215 78.63C149.421 78.434 149.687 78.2753 150.013 78.154C150.349 78.0233 150.755 77.958 151.231 77.958C151.829 77.958 152.37 78.1027 152.855 78.392C153.35 78.672 153.742 79.078 154.031 79.61C154.321 80.1327 154.465 80.758 154.465 81.486V81.668C154.465 82.396 154.316 83.026 154.017 83.558C153.728 84.09 153.336 84.496 152.841 84.776C152.356 85.056 151.819 85.196 151.231 85.196ZM150.937 84.216C151.647 84.216 152.221 83.992 152.659 83.544C153.107 83.0867 153.331 82.452 153.331 81.64V81.514C153.331 80.702 153.107 80.072 152.659 79.624C152.221 79.1667 151.647 78.938 150.937 78.938C150.237 78.938 149.659 79.1667 149.201 79.624C148.753 80.072 148.529 80.702 148.529 81.514V81.64C148.529 82.452 148.753 83.0867 149.201 83.544C149.659 83.992 150.237 84.216 150.937 84.216ZM157.273 87.8V86.82H161.193C161.464 86.82 161.599 86.68 161.599 86.4V83.908H161.403C161.31 84.104 161.165 84.3 160.969 84.496C160.782 84.6827 160.535 84.8367 160.227 84.958C159.919 85.07 159.532 85.126 159.065 85.126C158.57 85.126 158.113 85.0187 157.693 84.804C157.282 84.5893 156.956 84.272 156.713 83.852C156.48 83.432 156.363 82.9187 156.363 82.312V78.154H157.469V82.228C157.469 82.9 157.637 83.39 157.973 83.698C158.318 84.006 158.78 84.16 159.359 84.16C160.012 84.16 160.549 83.9453 160.969 83.516C161.389 83.0867 161.599 82.4473 161.599 81.598V78.154H162.705V86.596C162.705 86.9693 162.598 87.2633 162.383 87.478C162.178 87.6927 161.874 87.8 161.473 87.8H157.273ZM171.933 85.196C170.822 85.196 169.936 84.8693 169.273 84.216C168.62 83.5533 168.293 82.564 168.293 81.248V78.952C168.293 77.6453 168.62 76.6607 169.273 75.998C169.936 75.3353 170.822 75.004 171.933 75.004C173.053 75.004 173.94 75.3353 174.593 75.998C175.256 76.6607 175.587 77.6453 175.587 78.952V81.248C175.587 82.564 175.256 83.5533 174.593 84.216C173.94 84.8693 173.053 85.196 171.933 85.196ZM171.933 84.174C172.773 84.174 173.403 83.922 173.823 83.418C174.243 82.914 174.453 82.2093 174.453 81.304V78.882C174.453 77.9767 174.238 77.2767 173.809 76.782C173.38 76.278 172.754 76.026 171.933 76.026C171.112 76.026 170.486 76.278 170.057 76.782C169.637 77.286 169.427 77.986 169.427 78.882V81.304C169.427 82.2187 169.637 82.928 170.057 83.432C170.477 83.9267 171.102 84.174 171.933 84.174ZM177.024 85L179.768 81.528L177.108 78.154H178.438L180.482 80.8H180.678L182.708 78.154H184.052L181.378 81.528L184.122 85H182.778L180.678 82.27H180.482L178.382 85H177.024ZM185.771 86.75V86.05H186.177C186.513 86.05 186.681 85.882 186.681 85.546V85.098H186.485C186.214 85.098 185.985 85.014 185.799 84.846C185.621 84.678 185.533 84.468 185.533 84.216C185.533 83.9453 185.621 83.726 185.799 83.558C185.985 83.39 186.214 83.306 186.485 83.306C186.755 83.306 186.979 83.3947 187.157 83.572C187.334 83.7493 187.423 83.9733 187.423 84.244V85.546C187.423 86.3487 187.021 86.75 186.219 86.75H185.771ZM192.485 85V75.2H196.447C197.054 75.2 197.586 75.3073 198.043 75.522C198.51 75.7273 198.874 76.026 199.135 76.418C199.397 76.8007 199.527 77.2627 199.527 77.804V77.958C199.527 78.602 199.373 79.1107 199.065 79.484C198.757 79.8573 198.393 80.1093 197.973 80.24V80.436C198.309 80.4453 198.585 80.5573 198.799 80.772C199.023 80.9773 199.135 81.29 199.135 81.71V85H197.973V81.85C197.973 81.57 197.894 81.3553 197.735 81.206C197.586 81.0567 197.357 80.982 197.049 80.982H193.661V85H192.485ZM193.661 79.918H196.335C196.979 79.918 197.474 79.764 197.819 79.456C198.174 79.1387 198.351 78.7 198.351 78.14V78.042C198.351 77.482 198.179 77.048 197.833 76.74C197.488 76.4227 196.989 76.264 196.335 76.264H193.661V79.918ZM204.495 85.196C203.805 85.196 203.198 85.0513 202.675 84.762C202.153 84.4633 201.747 84.048 201.457 83.516C201.168 82.984 201.023 82.368 201.023 81.668V81.5C201.023 80.7907 201.168 80.17 201.457 79.638C201.747 79.106 202.148 78.6953 202.661 78.406C203.175 78.1073 203.763 77.958 204.425 77.958C205.069 77.958 205.639 78.098 206.133 78.378C206.628 78.6487 207.015 79.0407 207.295 79.554C207.575 80.0673 207.715 80.6693 207.715 81.36V81.864H202.129C202.157 82.6013 202.395 83.18 202.843 83.6C203.291 84.0107 203.851 84.216 204.523 84.216C205.111 84.216 205.564 84.0807 205.881 83.81C206.199 83.5393 206.441 83.2173 206.609 82.844L207.561 83.306C207.421 83.5953 207.225 83.8847 206.973 84.174C206.731 84.4633 206.409 84.706 206.007 84.902C205.615 85.098 205.111 85.196 204.495 85.196ZM202.143 80.954H206.595C206.558 80.3193 206.339 79.8247 205.937 79.47C205.545 79.1153 205.041 78.938 204.425 78.938C203.8 78.938 203.287 79.1153 202.885 79.47C202.484 79.8247 202.237 80.3193 202.143 80.954ZM210.701 85V79.12H208.601V78.154H210.701V76.404C210.701 76.0307 210.804 75.7367 211.009 75.522C211.224 75.3073 211.527 75.2 211.919 75.2H213.641V76.152H212.227C211.947 76.152 211.807 76.292 211.807 76.572V78.154H213.963V79.12H211.807V85H210.701ZM218.169 85.126C217.674 85.126 217.217 85.0187 216.797 84.804C216.386 84.5893 216.059 84.272 215.817 83.852C215.583 83.4227 215.467 82.9047 215.467 82.298V78.154H216.573V82.214C216.573 82.8953 216.741 83.39 217.077 83.698C217.422 84.006 217.884 84.16 218.463 84.16C219.116 84.16 219.653 83.9453 220.073 83.516C220.493 83.0867 220.703 82.4473 220.703 81.598V78.154H221.809V85H220.731V83.838H220.535C220.385 84.1647 220.129 84.4633 219.765 84.734C219.401 84.9953 218.869 85.126 218.169 85.126ZM227.259 85.196C226.568 85.196 225.962 85.0513 225.439 84.762C224.916 84.4633 224.51 84.048 224.221 83.516C223.932 82.984 223.787 82.368 223.787 81.668V81.5C223.787 80.7907 223.932 80.17 224.221 79.638C224.51 79.106 224.912 78.6953 225.425 78.406C225.938 78.1073 226.526 77.958 227.189 77.958C227.833 77.958 228.402 78.098 228.897 78.378C229.392 78.6487 229.779 79.0407 230.059 79.554C230.339 80.0673 230.479 80.6693 230.479 81.36V81.864H224.893C224.921 82.6013 225.159 83.18 225.607 83.6C226.055 84.0107 226.615 84.216 227.287 84.216C227.875 84.216 228.328 84.0807 228.645 83.81C228.962 83.5393 229.205 83.2173 229.373 82.844L230.325 83.306C230.185 83.5953 229.989 83.8847 229.737 84.174C229.494 84.4633 229.172 84.706 228.771 84.902C228.379 85.098 227.875 85.196 227.259 85.196ZM224.907 80.954H229.359C229.322 80.3193 229.102 79.8247 228.701 79.47C228.309 79.1153 227.805 78.938 227.189 78.938C226.564 78.938 226.05 79.1153 225.649 79.47C225.248 79.8247 225 80.3193 224.907 80.954ZM232.408 85V75.2H233.514V85H232.408ZM242.809 85.196C242.081 85.196 241.437 85.0467 240.877 84.748C240.327 84.44 239.893 83.992 239.575 83.404C239.267 82.816 239.113 82.088 239.113 81.22V78.98C239.113 77.6827 239.459 76.698 240.149 76.026C240.84 75.3447 241.769 75.004 242.935 75.004C244.093 75.004 244.975 75.3213 245.581 75.956C246.188 76.5907 246.491 77.44 246.491 78.504V78.574H245.329V78.476C245.329 78.0093 245.245 77.594 245.077 77.23C244.909 76.866 244.648 76.5813 244.293 76.376C243.939 76.1613 243.486 76.054 242.935 76.054C242.105 76.054 241.456 76.3107 240.989 76.824C240.523 77.328 240.289 78.0373 240.289 78.952V81.248C240.289 82.1627 240.523 82.8767 240.989 83.39C241.456 83.894 242.109 84.146 242.949 84.146C243.771 84.146 244.373 83.9127 244.755 83.446C245.147 82.9793 245.343 82.3587 245.343 81.584V81.346H242.375V80.338H246.491V85H245.427V83.936H245.231C245.129 84.1413 244.984 84.342 244.797 84.538C244.611 84.734 244.359 84.8927 244.041 85.014C243.724 85.1353 243.313 85.196 242.809 85.196ZM250.778 85.196C250.302 85.196 249.868 85.112 249.476 84.944C249.084 84.776 248.776 84.5333 248.552 84.216C248.328 83.8987 248.216 83.5113 248.216 83.054C248.216 82.5873 248.328 82.2047 248.552 81.906C248.776 81.598 249.084 81.3693 249.476 81.22C249.868 81.0613 250.306 80.982 250.792 80.982H253.102V80.478C253.102 79.9927 252.957 79.61 252.668 79.33C252.388 79.05 251.968 78.91 251.408 78.91C250.857 78.91 250.428 79.0453 250.12 79.316C249.812 79.5773 249.602 79.932 249.49 80.38L248.454 80.044C248.566 79.6613 248.743 79.316 248.986 79.008C249.228 78.6907 249.55 78.4387 249.952 78.252C250.362 78.056 250.852 77.958 251.422 77.958C252.299 77.958 252.98 78.1867 253.466 78.644C253.951 79.092 254.194 79.7267 254.194 80.548V83.642C254.194 83.922 254.324 84.062 254.586 84.062H255.216V85H254.25C253.942 85 253.694 84.916 253.508 84.748C253.321 84.5707 253.228 84.3373 253.228 84.048V83.978H253.06C252.957 84.1553 252.817 84.342 252.64 84.538C252.472 84.7247 252.238 84.8787 251.94 85C251.641 85.1307 251.254 85.196 250.778 85.196ZM250.904 84.244C251.557 84.244 252.084 84.0527 252.486 83.67C252.896 83.278 253.102 82.732 253.102 82.032V81.878H250.834C250.395 81.878 250.031 81.976 249.742 82.172C249.462 82.3587 249.322 82.6433 249.322 83.026C249.322 83.4087 249.466 83.7073 249.756 83.922C250.054 84.1367 250.437 84.244 250.904 84.244ZM259.434 85.196C258.584 85.196 257.866 85 257.278 84.608C256.699 84.216 256.349 83.5953 256.228 82.746L257.278 82.508C257.352 82.956 257.492 83.3107 257.698 83.572C257.903 83.824 258.155 84.006 258.454 84.118C258.762 84.2207 259.088 84.272 259.434 84.272C259.947 84.272 260.353 84.1693 260.652 83.964C260.95 83.7587 261.1 83.4833 261.1 83.138C261.1 82.7833 260.955 82.536 260.666 82.396C260.386 82.2467 259.998 82.1253 259.504 82.032L258.93 81.934C258.491 81.8593 258.09 81.7427 257.726 81.584C257.362 81.4253 257.072 81.2107 256.858 80.94C256.643 80.6693 256.536 80.3287 256.536 79.918C256.536 79.302 256.774 78.8213 257.25 78.476C257.726 78.1307 258.356 77.958 259.14 77.958C259.914 77.958 260.54 78.1353 261.016 78.49C261.501 78.8353 261.814 79.3253 261.954 79.96L260.918 80.226C260.834 79.7313 260.633 79.386 260.316 79.19C259.998 78.9847 259.606 78.882 259.14 78.882C258.673 78.882 258.304 78.9707 258.034 79.148C257.763 79.316 257.628 79.568 257.628 79.904C257.628 80.2307 257.754 80.4733 258.006 80.632C258.267 80.7813 258.612 80.8933 259.042 80.968L259.616 81.066C260.101 81.15 260.535 81.2667 260.918 81.416C261.31 81.556 261.618 81.7613 261.842 82.032C262.075 82.3027 262.192 82.6573 262.192 83.096C262.192 83.768 261.94 84.286 261.436 84.65C260.941 85.014 260.274 85.196 259.434 85.196ZM269.754 85.196C269.278 85.196 268.844 85.112 268.452 84.944C268.06 84.776 267.752 84.5333 267.528 84.216C267.304 83.8987 267.192 83.5113 267.192 83.054C267.192 82.5873 267.304 82.2047 267.528 81.906C267.752 81.598 268.06 81.3693 268.452 81.22C268.844 81.0613 269.283 80.982 269.768 80.982H272.078V80.478C272.078 79.9927 271.934 79.61 271.644 79.33C271.364 79.05 270.944 78.91 270.384 78.91C269.834 78.91 269.404 79.0453 269.096 79.316C268.788 79.5773 268.578 79.932 268.466 80.38L267.43 80.044C267.542 79.6613 267.72 79.316 267.962 79.008C268.205 78.6907 268.527 78.4387 268.928 78.252C269.339 78.056 269.829 77.958 270.398 77.958C271.276 77.958 271.957 78.1867 272.442 78.644C272.928 79.092 273.17 79.7267 273.17 80.548V83.642C273.17 83.922 273.301 84.062 273.562 84.062H274.192V85H273.226C272.918 85 272.671 84.916 272.484 84.748C272.298 84.5707 272.204 84.3373 272.204 84.048V83.978H272.036C271.934 84.1553 271.794 84.342 271.616 84.538C271.448 84.7247 271.215 84.8787 270.916 85C270.618 85.1307 270.23 85.196 269.754 85.196ZM269.88 84.244C270.534 84.244 271.061 84.0527 271.462 83.67C271.873 83.278 272.078 82.732 272.078 82.032V81.878H269.81C269.372 81.878 269.008 81.976 268.718 82.172C268.438 82.3587 268.298 82.6433 268.298 83.026C268.298 83.4087 268.443 83.7073 268.732 83.922C269.031 84.1367 269.414 84.244 269.88 84.244ZM275.707 85V75.2H276.813V85H275.707ZM279.139 85V75.2H280.245V85H279.139ZM285.734 85.196C285.044 85.196 284.432 85.0513 283.9 84.762C283.378 84.4727 282.967 84.0667 282.668 83.544C282.379 83.012 282.234 82.3867 282.234 81.668V81.486C282.234 80.7767 282.379 80.156 282.668 79.624C282.967 79.092 283.378 78.6813 283.9 78.392C284.432 78.1027 285.044 77.958 285.734 77.958C286.425 77.958 287.032 78.1027 287.554 78.392C288.086 78.6813 288.497 79.092 288.786 79.624C289.085 80.156 289.234 80.7767 289.234 81.486V81.668C289.234 82.3867 289.085 83.012 288.786 83.544C288.497 84.0667 288.086 84.4727 287.554 84.762C287.032 85.0513 286.425 85.196 285.734 85.196ZM285.734 84.202C286.462 84.202 287.041 83.9733 287.47 83.516C287.909 83.0493 288.128 82.424 288.128 81.64V81.514C288.128 80.73 287.909 80.1093 287.47 79.652C287.041 79.1853 286.462 78.952 285.734 78.952C285.016 78.952 284.437 79.1853 283.998 79.652C283.56 80.1093 283.34 80.73 283.34 81.514V81.64C283.34 82.424 283.56 83.0493 283.998 83.516C284.437 83.9733 285.016 84.202 285.734 84.202ZM292.04 85L290.668 78.154H291.788L292.922 84.258H293.118L294.616 78.154H296.45L297.948 84.258H298.144L299.278 78.154H300.398L299.026 85H297.136L295.624 78.896H295.442L293.93 85H292.04ZM304.988 85.196C304.139 85.196 303.42 85 302.832 84.608C302.254 84.216 301.904 83.5953 301.782 82.746L302.832 82.508C302.907 82.956 303.047 83.3107 303.252 83.572C303.458 83.824 303.71 84.006 304.008 84.118C304.316 84.2207 304.643 84.272 304.988 84.272C305.502 84.272 305.908 84.1693 306.206 83.964C306.505 83.7587 306.654 83.4833 306.654 83.138C306.654 82.7833 306.51 82.536 306.22 82.396C305.94 82.2467 305.553 82.1253 305.058 82.032L304.484 81.934C304.046 81.8593 303.644 81.7427 303.28 81.584C302.916 81.4253 302.627 81.2107 302.412 80.94C302.198 80.6693 302.09 80.3287 302.09 79.918C302.09 79.302 302.328 78.8213 302.804 78.476C303.28 78.1307 303.91 77.958 304.694 77.958C305.469 77.958 306.094 78.1353 306.57 78.49C307.056 78.8353 307.368 79.3253 307.508 79.96L306.472 80.226C306.388 79.7313 306.188 79.386 305.87 79.19C305.553 78.9847 305.161 78.882 304.694 78.882C304.228 78.882 303.859 78.9707 303.588 79.148C303.318 79.316 303.182 79.568 303.182 79.904C303.182 80.2307 303.308 80.4733 303.56 80.632C303.822 80.7813 304.167 80.8933 304.596 80.968L305.17 81.066C305.656 81.15 306.09 81.2667 306.472 81.416C306.864 81.556 307.172 81.7613 307.396 82.032C307.63 82.3027 307.746 82.6573 307.746 83.096C307.746 83.768 307.494 84.286 306.99 84.65C306.496 85.014 305.828 85.196 304.988 85.196ZM314.035 87.8V86.82H317.955C318.226 86.82 318.361 86.68 318.361 86.4V83.908H318.165C318.072 84.104 317.927 84.3 317.731 84.496C317.544 84.6827 317.297 84.8367 316.989 84.958C316.681 85.07 316.294 85.126 315.827 85.126C315.332 85.126 314.875 85.0187 314.455 84.804C314.044 84.5893 313.718 84.272 313.475 83.852C313.242 83.432 313.125 82.9187 313.125 82.312V78.154H314.231V82.228C314.231 82.9 314.399 83.39 314.735 83.698C315.08 84.006 315.542 84.16 316.121 84.16C316.774 84.16 317.311 83.9453 317.731 83.516C318.151 83.0867 318.361 82.4473 318.361 81.598V78.154H319.467V86.596C319.467 86.9693 319.36 87.2633 319.145 87.478C318.94 87.6927 318.636 87.8 318.235 87.8H314.035ZM324.945 85.196C324.254 85.196 323.643 85.0513 323.111 84.762C322.588 84.4727 322.178 84.0667 321.879 83.544C321.59 83.012 321.445 82.3867 321.445 81.668V81.486C321.445 80.7767 321.59 80.156 321.879 79.624C322.178 79.092 322.588 78.6813 323.111 78.392C323.643 78.1027 324.254 77.958 324.945 77.958C325.636 77.958 326.242 78.1027 326.765 78.392C327.297 78.6813 327.708 79.092 327.997 79.624C328.296 80.156 328.445 80.7767 328.445 81.486V81.668C328.445 82.3867 328.296 83.012 327.997 83.544C327.708 84.0667 327.297 84.4727 326.765 84.762C326.242 85.0513 325.636 85.196 324.945 85.196ZM324.945 84.202C325.673 84.202 326.252 83.9733 326.681 83.516C327.12 83.0493 327.339 82.424 327.339 81.64V81.514C327.339 80.73 327.12 80.1093 326.681 79.652C326.252 79.1853 325.673 78.952 324.945 78.952C324.226 78.952 323.648 79.1853 323.209 79.652C322.77 80.1093 322.551 80.73 322.551 81.514V81.64C322.551 82.424 322.77 83.0493 323.209 83.516C323.648 83.9733 324.226 84.202 324.945 84.202ZM333.053 85.126C332.559 85.126 332.101 85.0187 331.681 84.804C331.271 84.5893 330.944 84.272 330.701 83.852C330.468 83.4227 330.351 82.9047 330.351 82.298V78.154H331.457V82.214C331.457 82.8953 331.625 83.39 331.961 83.698C332.307 84.006 332.769 84.16 333.347 84.16C334.001 84.16 334.537 83.9453 334.957 83.516C335.377 83.0867 335.587 82.4473 335.587 81.598V78.154H336.693V85H335.615V83.838H335.419C335.27 84.1647 335.013 84.4633 334.649 84.734C334.285 84.9953 333.753 85.126 333.053 85.126ZM345.123 85C344.731 85 344.428 84.8927 344.213 84.678C344.008 84.4633 343.905 84.1693 343.905 83.796V79.12H341.847V78.154H343.905V75.718H345.011V78.154H347.251V79.12H345.011V83.628C345.011 83.908 345.147 84.048 345.417 84.048H346.943V85H345.123ZM351.961 85.196C351.27 85.196 350.659 85.0513 350.127 84.762C349.604 84.4727 349.193 84.0667 348.895 83.544C348.605 83.012 348.461 82.3867 348.461 81.668V81.486C348.461 80.7767 348.605 80.156 348.895 79.624C349.193 79.092 349.604 78.6813 350.127 78.392C350.659 78.1027 351.27 77.958 351.961 77.958C352.651 77.958 353.258 78.1027 353.781 78.392C354.313 78.6813 354.723 79.092 355.013 79.624C355.311 80.156 355.461 80.7767 355.461 81.486V81.668C355.461 82.3867 355.311 83.012 355.013 83.544C354.723 84.0667 354.313 84.4727 353.781 84.762C353.258 85.0513 352.651 85.196 351.961 85.196ZM351.961 84.202C352.689 84.202 353.267 83.9733 353.697 83.516C354.135 83.0493 354.355 82.424 354.355 81.64V81.514C354.355 80.73 354.135 80.1093 353.697 79.652C353.267 79.1853 352.689 78.952 351.961 78.952C351.242 78.952 350.663 79.1853 350.225 79.652C349.786 80.1093 349.567 80.73 349.567 81.514V81.64C349.567 82.424 349.786 83.0493 350.225 83.516C350.663 83.9733 351.242 84.202 351.961 84.202ZM361.047 87.8V78.154H362.125V79.288H362.321C362.498 78.9427 362.783 78.6347 363.175 78.364C363.576 78.0933 364.131 77.958 364.841 77.958C365.429 77.958 365.965 78.1027 366.451 78.392C366.945 78.672 367.337 79.0733 367.627 79.596C367.925 80.1187 368.075 80.7487 368.075 81.486V81.668C368.075 82.396 367.93 83.026 367.641 83.558C367.351 84.09 366.959 84.496 366.465 84.776C365.979 85.056 365.438 85.196 364.841 85.196C364.365 85.196 363.959 85.1307 363.623 85C363.296 84.8787 363.03 84.72 362.825 84.524C362.619 84.328 362.461 84.1273 362.349 83.922H362.153V87.8H361.047ZM364.547 84.216C365.256 84.216 365.83 83.992 366.269 83.544C366.717 83.0867 366.941 82.452 366.941 81.64V81.514C366.941 80.702 366.717 80.072 366.269 79.624C365.83 79.1667 365.256 78.938 364.547 78.938C363.847 78.938 363.268 79.1667 362.811 79.624C362.363 80.072 362.139 80.702 362.139 81.514V81.64C362.139 82.452 362.363 83.0867 362.811 83.544C363.268 83.992 363.847 84.216 364.547 84.216ZM372.675 85.126C372.18 85.126 371.723 85.0187 371.303 84.804C370.892 84.5893 370.565 84.272 370.323 83.852C370.089 83.4227 369.973 82.9047 369.973 82.298V78.154H371.079V82.214C371.079 82.8953 371.247 83.39 371.583 83.698C371.928 84.006 372.39 84.16 372.969 84.16C373.622 84.16 374.159 83.9453 374.579 83.516C374.999 83.0867 375.209 82.4473 375.209 81.598V78.154H376.315V85H375.237V83.838H375.041C374.891 84.1647 374.635 84.4633 374.271 84.734C373.907 84.9953 373.375 85.126 372.675 85.126ZM378.629 85V78.154H379.707V78.994H379.903C380.024 78.6953 380.211 78.476 380.463 78.336C380.715 78.196 381.046 78.126 381.457 78.126H382.269V79.134H381.387C380.892 79.134 380.491 79.274 380.183 79.554C379.884 79.8247 379.735 80.2493 379.735 80.828V85H378.629ZM386.81 85.196C386.147 85.196 385.55 85.056 385.018 84.776C384.495 84.4867 384.08 84.076 383.772 83.544C383.473 83.012 383.324 82.382 383.324 81.654V81.5C383.324 80.7627 383.473 80.1327 383.772 79.61C384.08 79.078 384.495 78.672 385.018 78.392C385.55 78.1027 386.147 77.958 386.81 77.958C387.463 77.958 388.019 78.0793 388.476 78.322C388.943 78.5647 389.307 78.8867 389.568 79.288C389.839 79.6893 390.011 80.1187 390.086 80.576L389.008 80.8C388.961 80.464 388.849 80.156 388.672 79.876C388.504 79.596 388.266 79.372 387.958 79.204C387.65 79.036 387.272 78.952 386.824 78.952C386.367 78.952 385.956 79.0547 385.592 79.26C385.237 79.4653 384.953 79.7593 384.738 80.142C384.533 80.5247 384.43 80.982 384.43 81.514V81.64C384.43 82.172 384.533 82.6293 384.738 83.012C384.953 83.3947 385.237 83.6887 385.592 83.894C385.956 84.0993 386.367 84.202 386.824 84.202C387.505 84.202 388.023 84.0247 388.378 83.67C388.742 83.3153 388.966 82.8767 389.05 82.354L390.142 82.592C390.039 83.04 389.853 83.4647 389.582 83.866C389.311 84.2673 388.943 84.5893 388.476 84.832C388.019 85.0747 387.463 85.196 386.81 85.196ZM392.027 85V75.2H393.133V79.246H393.329C393.423 79.0407 393.563 78.8493 393.749 78.672C393.945 78.4853 394.193 78.3313 394.491 78.21C394.799 78.0887 395.187 78.028 395.653 78.028C396.167 78.028 396.624 78.14 397.025 78.364C397.436 78.5787 397.763 78.896 398.005 79.316C398.248 79.7267 398.369 80.24 398.369 80.856V85H397.263V80.94C397.263 80.2587 397.091 79.764 396.745 79.456C396.409 79.148 395.952 78.994 395.373 78.994C394.711 78.994 394.169 79.2087 393.749 79.638C393.339 80.0673 393.133 80.7067 393.133 81.556V85H392.027ZM402.713 85.196C402.237 85.196 401.803 85.112 401.411 84.944C401.019 84.776 400.711 84.5333 400.487 84.216C400.263 83.8987 400.151 83.5113 400.151 83.054C400.151 82.5873 400.263 82.2047 400.487 81.906C400.711 81.598 401.019 81.3693 401.411 81.22C401.803 81.0613 402.242 80.982 402.727 80.982H405.037V80.478C405.037 79.9927 404.893 79.61 404.603 79.33C404.323 79.05 403.903 78.91 403.343 78.91C402.793 78.91 402.363 79.0453 402.055 79.316C401.747 79.5773 401.537 79.932 401.425 80.38L400.389 80.044C400.501 79.6613 400.679 79.316 400.921 79.008C401.164 78.6907 401.486 78.4387 401.887 78.252C402.298 78.056 402.788 77.958 403.357 77.958C404.235 77.958 404.916 78.1867 405.401 78.644C405.887 79.092 406.129 79.7267 406.129 80.548V83.642C406.129 83.922 406.26 84.062 406.521 84.062H407.151V85H406.185C405.877 85 405.63 84.916 405.443 84.748C405.257 84.5707 405.163 84.3373 405.163 84.048V83.978H404.995C404.893 84.1553 404.753 84.342 404.575 84.538C404.407 84.7247 404.174 84.8787 403.875 85C403.577 85.1307 403.189 85.196 402.713 85.196ZM402.839 84.244C403.493 84.244 404.02 84.0527 404.421 83.67C404.832 83.278 405.037 82.732 405.037 82.032V81.878H402.769C402.331 81.878 401.967 81.976 401.677 82.172C401.397 82.3587 401.257 82.6433 401.257 83.026C401.257 83.4087 401.402 83.7073 401.691 83.922C401.99 84.1367 402.373 84.244 402.839 84.244ZM411.369 85.196C410.52 85.196 409.801 85 409.213 84.608C408.635 84.216 408.285 83.5953 408.163 82.746L409.213 82.508C409.288 82.956 409.428 83.3107 409.633 83.572C409.839 83.824 410.091 84.006 410.389 84.118C410.697 84.2207 411.024 84.272 411.369 84.272C411.883 84.272 412.289 84.1693 412.587 83.964C412.886 83.7587 413.035 83.4833 413.035 83.138C413.035 82.7833 412.891 82.536 412.601 82.396C412.321 82.2467 411.934 82.1253 411.439 82.032L410.865 81.934C410.427 81.8593 410.025 81.7427 409.661 81.584C409.297 81.4253 409.008 81.2107 408.793 80.94C408.579 80.6693 408.471 80.3287 408.471 79.918C408.471 79.302 408.709 78.8213 409.185 78.476C409.661 78.1307 410.291 77.958 411.075 77.958C411.85 77.958 412.475 78.1353 412.951 78.49C413.437 78.8353 413.749 79.3253 413.889 79.96L412.853 80.226C412.769 79.7313 412.569 79.386 412.251 79.19C411.934 78.9847 411.542 78.882 411.075 78.882C410.609 78.882 410.24 78.9707 409.969 79.148C409.699 79.316 409.563 79.568 409.563 79.904C409.563 80.2307 409.689 80.4733 409.941 80.632C410.203 80.7813 410.548 80.8933 410.977 80.968L411.551 81.066C412.037 81.15 412.471 81.2667 412.853 81.416C413.245 81.556 413.553 81.7613 413.777 82.032C414.011 82.3027 414.127 82.6573 414.127 83.096C414.127 83.768 413.875 84.286 413.371 84.65C412.877 85.014 412.209 85.196 411.369 85.196ZM419.13 85.196C418.439 85.196 417.833 85.0513 417.31 84.762C416.787 84.4633 416.381 84.048 416.092 83.516C415.803 82.984 415.658 82.368 415.658 81.668V81.5C415.658 80.7907 415.803 80.17 416.092 79.638C416.381 79.106 416.783 78.6953 417.296 78.406C417.809 78.1073 418.397 77.958 419.06 77.958C419.704 77.958 420.273 78.098 420.768 78.378C421.263 78.6487 421.65 79.0407 421.93 79.554C422.21 80.0673 422.35 80.6693 422.35 81.36V81.864H416.764C416.792 82.6013 417.03 83.18 417.478 83.6C417.926 84.0107 418.486 84.216 419.158 84.216C419.746 84.216 420.199 84.0807 420.516 83.81C420.833 83.5393 421.076 83.2173 421.244 82.844L422.196 83.306C422.056 83.5953 421.86 83.8847 421.608 84.174C421.365 84.4633 421.043 84.706 420.642 84.902C420.25 85.098 419.746 85.196 419.13 85.196ZM416.778 80.954H421.23C421.193 80.3193 420.973 79.8247 420.572 79.47C420.18 79.1153 419.676 78.938 419.06 78.938C418.435 78.938 417.921 79.1153 417.52 79.47C417.119 79.8247 416.871 80.3193 416.778 80.954ZM179.162 103V93.2H183.124C183.731 93.2 184.263 93.3073 184.72 93.522C185.187 93.7273 185.551 94.026 185.812 94.418C186.073 94.8007 186.204 95.2627 186.204 95.804V95.958C186.204 96.602 186.05 97.1107 185.742 97.484C185.434 97.8573 185.07 98.1093 184.65 98.24V98.436C184.986 98.4453 185.261 98.5573 185.476 98.772C185.7 98.9773 185.812 99.29 185.812 99.71V103H184.65V99.85C184.65 99.57 184.571 99.3553 184.412 99.206C184.263 99.0567 184.034 98.982 183.726 98.982H180.338V103H179.162ZM180.338 97.918H183.012C183.656 97.918 184.151 97.764 184.496 97.456C184.851 97.1387 185.028 96.7 185.028 96.14V96.042C185.028 95.482 184.855 95.048 184.51 94.74C184.165 94.4227 183.665 94.264 183.012 94.264H180.338V97.918ZM187.224 103L190.248 93.2H192.32L195.344 103H194.126L193.37 100.522H189.198L188.442 103H187.224ZM189.492 99.458H193.062L191.382 93.914H191.186L189.492 99.458ZM196.812 103V93.2H199.052L201.656 102.258H201.838L204.442 93.2H206.682V103H205.548V93.97H205.352L202.762 103H200.732L198.142 93.97H197.946V103H196.812ZM208.156 103L211.18 93.2H213.252L216.276 103H215.058L214.302 100.522H210.13L209.374 103H208.156ZM210.424 99.458H213.994L212.314 93.914H212.118L210.424 99.458ZM224.368 103.196C223.677 103.196 223.066 103.051 222.534 102.762C222.011 102.473 221.601 102.067 221.302 101.544C221.013 101.012 220.868 100.387 220.868 99.668V99.486C220.868 98.7767 221.013 98.156 221.302 97.624C221.601 97.092 222.011 96.6813 222.534 96.392C223.066 96.1027 223.677 95.958 224.368 95.958C225.059 95.958 225.665 96.1027 226.188 96.392C226.72 96.6813 227.131 97.092 227.42 97.624C227.719 98.156 227.868 98.7767 227.868 99.486V99.668C227.868 100.387 227.719 101.012 227.42 101.544C227.131 102.067 226.72 102.473 226.188 102.762C225.665 103.051 225.059 103.196 224.368 103.196ZM224.368 102.202C225.096 102.202 225.675 101.973 226.104 101.516C226.543 101.049 226.762 100.424 226.762 99.64V99.514C226.762 98.73 226.543 98.1093 226.104 97.652C225.675 97.1853 225.096 96.952 224.368 96.952C223.649 96.952 223.071 97.1853 222.632 97.652C222.193 98.1093 221.974 98.73 221.974 99.514V99.64C221.974 100.424 222.193 101.049 222.632 101.516C223.071 101.973 223.649 102.202 224.368 102.202ZM229.858 103V96.154H230.936V96.994H231.132C231.254 96.6953 231.44 96.476 231.692 96.336C231.944 96.196 232.276 96.126 232.686 96.126H233.498V97.134H232.616C232.122 97.134 231.72 97.274 231.412 97.554C231.114 97.8247 230.964 98.2493 230.964 98.828V103H229.858ZM238.689 103V93.2H240.929L243.533 102.258H243.715L246.319 93.2H248.559V103H247.425V93.97H247.229L244.639 103H242.609L240.019 93.97H239.823V103H238.689ZM250.033 103L253.057 93.2H255.129L258.153 103H256.935L256.179 100.522H252.007L251.251 103H250.033ZM252.301 99.458H255.871L254.191 93.914H253.995L252.301 99.458ZM260.976 103V94.264H257.826V93.2H265.302V94.264H262.152V103H260.976ZM266.799 103V93.2H267.975V103H266.799ZM273.759 103.196C272.592 103.196 271.663 102.86 270.973 102.188C270.282 101.507 269.937 100.517 269.937 99.22V96.98C269.937 95.6827 270.282 94.698 270.973 94.026C271.663 93.3447 272.592 93.004 273.759 93.004C274.916 93.004 275.803 93.326 276.419 93.97C277.044 94.614 277.357 95.496 277.357 96.616V96.686H276.195V96.574C276.195 95.8367 275.994 95.2347 275.593 94.768C275.201 94.292 274.589 94.054 273.759 94.054C272.928 94.054 272.279 94.3107 271.813 94.824C271.346 95.328 271.113 96.0373 271.113 96.952V99.248C271.113 100.163 271.346 100.877 271.813 101.39C272.279 101.894 272.928 102.146 273.759 102.146C274.589 102.146 275.201 101.913 275.593 101.446C275.994 100.97 276.195 100.363 276.195 99.626V99.402H277.357V99.584C277.357 100.704 277.044 101.586 276.419 102.23C275.803 102.874 274.916 103.196 273.759 103.196ZM284.181 103V97.12H282.081V96.154H284.181V94.404C284.181 94.0307 284.283 93.7367 284.489 93.522C284.703 93.3073 285.007 93.2 285.399 93.2H287.121V94.152H285.707C285.427 94.152 285.287 94.292 285.287 94.572V96.154H287.443V97.12H285.287V103H284.181ZM291.852 103.196C291.162 103.196 290.55 103.051 290.018 102.762C289.496 102.473 289.085 102.067 288.786 101.544C288.497 101.012 288.352 100.387 288.352 99.668V99.486C288.352 98.7767 288.497 98.156 288.786 97.624C289.085 97.092 289.496 96.6813 290.018 96.392C290.55 96.1027 291.162 95.958 291.852 95.958C292.543 95.958 293.15 96.1027 293.672 96.392C294.204 96.6813 294.615 97.092 294.904 97.624C295.203 98.156 295.352 98.7767 295.352 99.486V99.668C295.352 100.387 295.203 101.012 294.904 101.544C294.615 102.067 294.204 102.473 293.672 102.762C293.15 103.051 292.543 103.196 291.852 103.196ZM291.852 102.202C292.58 102.202 293.159 101.973 293.588 101.516C294.027 101.049 294.246 100.424 294.246 99.64V99.514C294.246 98.73 294.027 98.1093 293.588 97.652C293.159 97.1853 292.58 96.952 291.852 96.952C291.134 96.952 290.555 97.1853 290.116 97.652C289.678 98.1093 289.458 98.73 289.458 99.514V99.64C289.458 100.424 289.678 101.049 290.116 101.516C290.555 101.973 291.134 102.202 291.852 102.202ZM297.343 103V96.154H298.421V96.994H298.617C298.738 96.6953 298.925 96.476 299.177 96.336C299.429 96.196 299.76 96.126 300.171 96.126H300.983V97.134H300.101C299.606 97.134 299.205 97.274 298.897 97.554C298.598 97.8247 298.449 98.2493 298.449 98.828V103H297.343ZM305.88 99.612V99.416C305.88 98.6973 306.024 98.0813 306.314 97.568C306.603 97.0547 306.995 96.658 307.49 96.378C307.984 96.098 308.526 95.958 309.114 95.958C309.832 95.958 310.383 96.098 310.766 96.378C311.158 96.6487 311.447 96.952 311.634 97.288H311.83V96.154H312.88V104.596C312.88 104.969 312.777 105.263 312.572 105.478C312.366 105.693 312.068 105.8 311.676 105.8H307.028V104.82H311.382C311.662 104.82 311.802 104.68 311.802 104.4V101.796H311.606C311.494 102.001 311.335 102.202 311.13 102.398C310.924 102.594 310.658 102.757 310.332 102.888C310.005 103.009 309.599 103.07 309.114 103.07C308.526 103.07 307.984 102.93 307.49 102.65C306.995 102.37 306.603 101.973 306.314 101.46C306.024 100.937 305.88 100.321 305.88 99.612ZM309.408 102.09C310.117 102.09 310.691 101.866 311.13 101.418C311.578 100.97 311.802 100.354 311.802 99.57V99.458C311.802 98.6647 311.578 98.0487 311.13 97.61C310.691 97.162 310.117 96.938 309.408 96.938C308.708 96.938 308.129 97.162 307.672 97.61C307.224 98.0487 307 98.6647 307 99.458V99.57C307 100.354 307.224 100.97 307.672 101.418C308.129 101.866 308.708 102.09 309.408 102.09ZM317.298 103.196C316.822 103.196 316.388 103.112 315.996 102.944C315.604 102.776 315.296 102.533 315.072 102.216C314.848 101.899 314.736 101.511 314.736 101.054C314.736 100.587 314.848 100.205 315.072 99.906C315.296 99.598 315.604 99.3693 315.996 99.22C316.388 99.0613 316.827 98.982 317.312 98.982H319.622V98.478C319.622 97.9927 319.477 97.61 319.188 97.33C318.908 97.05 318.488 96.91 317.928 96.91C317.377 96.91 316.948 97.0453 316.64 97.316C316.332 97.5773 316.122 97.932 316.01 98.38L314.974 98.044C315.086 97.6613 315.263 97.316 315.506 97.008C315.749 96.6907 316.071 96.4387 316.472 96.252C316.883 96.056 317.373 95.958 317.942 95.958C318.819 95.958 319.501 96.1867 319.986 96.644C320.471 97.092 320.714 97.7267 320.714 98.548V101.642C320.714 101.922 320.845 102.062 321.106 102.062H321.736V103H320.77C320.462 103 320.215 102.916 320.028 102.748C319.841 102.571 319.748 102.337 319.748 102.048V101.978H319.58C319.477 102.155 319.337 102.342 319.16 102.538C318.992 102.725 318.759 102.879 318.46 103C318.161 103.131 317.774 103.196 317.298 103.196ZM317.424 102.244C318.077 102.244 318.605 102.053 319.006 101.67C319.417 101.278 319.622 100.732 319.622 100.032V99.878H317.354C316.915 99.878 316.551 99.976 316.262 100.172C315.982 100.359 315.842 100.643 315.842 101.026C315.842 101.409 315.987 101.707 316.276 101.922C316.575 102.137 316.957 102.244 317.424 102.244ZM325.954 103.196C325.105 103.196 324.386 103 323.798 102.608C323.22 102.216 322.87 101.595 322.748 100.746L323.798 100.508C323.873 100.956 324.013 101.311 324.218 101.572C324.424 101.824 324.676 102.006 324.974 102.118C325.282 102.221 325.609 102.272 325.954 102.272C326.468 102.272 326.874 102.169 327.172 101.964C327.471 101.759 327.62 101.483 327.62 101.138C327.62 100.783 327.476 100.536 327.186 100.396C326.906 100.247 326.519 100.125 326.024 100.032L325.45 99.934C325.012 99.8593 324.61 99.7427 324.246 99.584C323.882 99.4253 323.593 99.2107 323.378 98.94C323.164 98.6693 323.056 98.3287 323.056 97.918C323.056 97.302 323.294 96.8213 323.77 96.476C324.246 96.1307 324.876 95.958 325.66 95.958C326.435 95.958 327.06 96.1353 327.536 96.49C328.022 96.8353 328.334 97.3253 328.474 97.96L327.438 98.226C327.354 97.7313 327.154 97.386 326.836 97.19C326.519 96.9847 326.127 96.882 325.66 96.882C325.194 96.882 324.825 96.9707 324.554 97.148C324.284 97.316 324.148 97.568 324.148 97.904C324.148 98.2307 324.274 98.4733 324.526 98.632C324.788 98.7813 325.133 98.8933 325.562 98.968L326.136 99.066C326.622 99.15 327.056 99.2667 327.438 99.416C327.83 99.556 328.138 99.7613 328.362 100.032C328.596 100.303 328.712 100.657 328.712 101.096C328.712 101.768 328.46 102.286 327.956 102.65C327.462 103.014 326.794 103.196 325.954 103.196ZM331.181 103.196C330.91 103.196 330.682 103.107 330.495 102.93C330.318 102.753 330.229 102.524 330.229 102.244C330.229 101.964 330.318 101.735 330.495 101.558C330.682 101.381 330.91 101.292 331.181 101.292C331.461 101.292 331.69 101.381 331.867 101.558C332.044 101.735 332.133 101.964 332.133 102.244C332.133 102.524 332.044 102.753 331.867 102.93C331.69 103.107 331.461 103.196 331.181 103.196Z" fill="black"/>
<rect x="50.5" y="171.5" width="459" height="128" rx="3.5" stroke="#DCDFE4"/>
<circle cx="307" cy="188" r="8" fill="#DCDFE4"/>
<path d="M306.607 189.943V189.272C306.607 188.935 306.669 188.671 306.794 188.48C306.919 188.282 307.139 188.113 307.454 187.974L307.762 187.842C308.143 187.681 308.44 187.49 308.653 187.27C308.866 187.043 308.972 186.727 308.972 186.324C308.972 186.023 308.895 185.77 308.741 185.565C308.587 185.36 308.378 185.202 308.114 185.092C307.85 184.982 307.553 184.927 307.223 184.927C306.893 184.927 306.585 184.986 306.299 185.103C306.02 185.213 305.793 185.385 305.617 185.62C305.448 185.847 305.364 186.137 305.364 186.489V186.874H304.473V186.489C304.473 185.983 304.59 185.558 304.825 185.213C305.067 184.861 305.393 184.597 305.804 184.421C306.222 184.238 306.695 184.146 307.223 184.146C307.744 184.146 308.202 184.241 308.598 184.432C309.001 184.615 309.313 184.872 309.533 185.202C309.76 185.525 309.874 185.899 309.874 186.324C309.874 186.742 309.793 187.09 309.632 187.369C309.478 187.64 309.276 187.868 309.027 188.051C308.778 188.227 308.503 188.381 308.202 188.513L307.905 188.645C307.766 188.704 307.667 188.781 307.608 188.876C307.549 188.971 307.52 189.107 307.52 189.283V189.943H306.607ZM307.08 192.154C306.86 192.154 306.68 192.084 306.541 191.945C306.402 191.806 306.332 191.626 306.332 191.406C306.332 191.186 306.402 191.006 306.541 190.867C306.68 190.728 306.86 190.658 307.08 190.658C307.293 190.658 307.469 190.728 307.608 190.867C307.755 191.006 307.828 191.186 307.828 191.406C307.828 191.626 307.755 191.806 307.608 191.945C307.469 192.084 307.293 192.154 307.08 192.154Z" fill="black"/>
<path d="M62.36 194V182.1H67.171C67.9077 182.1 68.5537 182.23 69.109 182.491C69.6757 182.74 70.1177 183.103 70.435 183.579C70.7523 184.044 70.911 184.605 70.911 185.262V185.449C70.911 186.231 70.724 186.849 70.35 187.302C69.976 187.755 69.534 188.061 69.024 188.22V188.458C69.432 188.469 69.7663 188.605 70.027 188.866C70.299 189.115 70.435 189.495 70.435 190.005V194H69.024V190.175C69.024 189.835 68.9277 189.574 68.735 189.393C68.5537 189.212 68.276 189.121 67.902 189.121H63.788V194H62.36ZM63.788 187.829H67.035C67.817 187.829 68.4177 187.642 68.837 187.268C69.2677 186.883 69.483 186.35 69.483 185.67V185.551C69.483 184.871 69.2733 184.344 68.854 183.97C68.4347 183.585 67.8283 183.392 67.035 183.392H63.788V187.829ZM76.9436 194.238C76.1049 194.238 75.3683 194.062 74.7336 193.711C74.0989 193.348 73.6059 192.844 73.2546 192.198C72.9033 191.552 72.7276 190.804 72.7276 189.954V189.75C72.7276 188.889 72.9033 188.135 73.2546 187.489C73.6059 186.843 74.0933 186.344 74.7166 185.993C75.3399 185.63 76.0539 185.449 76.8586 185.449C77.6406 185.449 78.3319 185.619 78.9326 185.959C79.5333 186.288 80.0036 186.764 80.3436 187.387C80.6836 188.01 80.8536 188.741 80.8536 189.58V190.192H74.0706C74.1046 191.087 74.3936 191.79 74.9376 192.3C75.4816 192.799 76.1616 193.048 76.9776 193.048C77.6916 193.048 78.2413 192.884 78.6266 192.555C79.0119 192.226 79.3066 191.835 79.5106 191.382L80.6666 191.943C80.4966 192.294 80.2586 192.646 79.9526 192.997C79.6579 193.348 79.2669 193.643 78.7796 193.881C78.3036 194.119 77.6916 194.238 76.9436 194.238ZM74.0876 189.087H79.4936C79.4483 188.316 79.1819 187.716 78.6946 187.285C78.2186 186.854 77.6066 186.639 76.8586 186.639C76.0993 186.639 75.4759 186.854 74.9886 187.285C74.5013 187.716 74.2009 188.316 74.0876 189.087ZM84.4795 194V186.86H81.9295V185.687H84.4795V183.562C84.4795 183.109 84.6042 182.752 84.8535 182.491C85.1142 182.23 85.4825 182.1 85.9585 182.1H88.0495V183.256H86.3325C85.9925 183.256 85.8225 183.426 85.8225 183.766V185.687H88.4405V186.86H85.8225V194H84.4795ZM93.547 194.153C92.9464 194.153 92.391 194.023 91.881 193.762C91.3824 193.501 90.9857 193.116 90.691 192.606C90.4077 192.085 90.266 191.456 90.266 190.719V185.687H91.609V190.617C91.609 191.444 91.813 192.045 92.221 192.419C92.6404 192.793 93.2014 192.98 93.904 192.98C94.6974 192.98 95.349 192.719 95.859 192.198C96.369 191.677 96.624 190.9 96.624 189.869V185.687H97.967V194H96.658V192.589H96.42C96.2387 192.986 95.927 193.348 95.485 193.677C95.043 193.994 94.397 194.153 93.547 194.153ZM104.585 194.238C103.747 194.238 103.01 194.062 102.375 193.711C101.741 193.348 101.248 192.844 100.896 192.198C100.545 191.552 100.369 190.804 100.369 189.954V189.75C100.369 188.889 100.545 188.135 100.896 187.489C101.248 186.843 101.735 186.344 102.358 185.993C102.982 185.63 103.696 185.449 104.5 185.449C105.282 185.449 105.974 185.619 106.574 185.959C107.175 186.288 107.645 186.764 107.985 187.387C108.325 188.01 108.495 188.741 108.495 189.58V190.192H101.712C101.746 191.087 102.035 191.79 102.579 192.3C103.123 192.799 103.803 193.048 104.619 193.048C105.333 193.048 105.883 192.884 106.268 192.555C106.654 192.226 106.948 191.835 107.152 191.382L108.308 191.943C108.138 192.294 107.9 192.646 107.594 192.997C107.3 193.348 106.909 193.643 106.421 193.881C105.945 194.119 105.333 194.238 104.585 194.238ZM101.729 189.087H107.135C107.09 188.316 106.824 187.716 106.336 187.285C105.86 186.854 105.248 186.639 104.5 186.639C103.741 186.639 103.118 186.854 102.63 187.285C102.143 187.716 101.843 188.316 101.729 189.087ZM110.838 194V182.1H112.181V194H110.838ZM123.468 194.238C122.584 194.238 121.802 194.057 121.122 193.694C120.453 193.32 119.926 192.776 119.541 192.062C119.167 191.348 118.98 190.464 118.98 189.41V186.69C118.98 185.115 119.399 183.919 120.238 183.103C121.077 182.276 122.204 181.862 123.621 181.862C125.026 181.862 126.097 182.247 126.834 183.018C127.571 183.789 127.939 184.82 127.939 186.112V186.197H126.528V186.078C126.528 185.511 126.426 185.007 126.222 184.565C126.018 184.123 125.701 183.777 125.27 183.528C124.839 183.267 124.29 183.137 123.621 183.137C122.612 183.137 121.825 183.449 121.258 184.072C120.691 184.684 120.408 185.545 120.408 186.656V189.444C120.408 190.555 120.691 191.422 121.258 192.045C121.825 192.657 122.618 192.963 123.638 192.963C124.635 192.963 125.366 192.68 125.831 192.113C126.307 191.546 126.545 190.793 126.545 189.852V189.563H122.941V188.339H127.939V194H126.647V192.708H126.409C126.284 192.957 126.109 193.201 125.882 193.439C125.655 193.677 125.349 193.87 124.964 194.017C124.579 194.164 124.08 194.238 123.468 194.238ZM133.144 194.238C132.566 194.238 132.039 194.136 131.563 193.932C131.087 193.728 130.713 193.433 130.441 193.048C130.169 192.663 130.033 192.192 130.033 191.637C130.033 191.07 130.169 190.606 130.441 190.243C130.713 189.869 131.087 189.591 131.563 189.41C132.039 189.217 132.571 189.121 133.161 189.121H135.966V188.509C135.966 187.92 135.79 187.455 135.439 187.115C135.099 186.775 134.589 186.605 133.909 186.605C133.24 186.605 132.719 186.769 132.345 187.098C131.971 187.415 131.716 187.846 131.58 188.39L130.322 187.982C130.458 187.517 130.673 187.098 130.968 186.724C131.262 186.339 131.653 186.033 132.141 185.806C132.639 185.568 133.234 185.449 133.926 185.449C134.991 185.449 135.818 185.727 136.408 186.282C136.997 186.826 137.292 187.597 137.292 188.594V192.351C137.292 192.691 137.45 192.861 137.768 192.861H138.533V194H137.36C136.986 194 136.685 193.898 136.459 193.694C136.232 193.479 136.119 193.195 136.119 192.844V192.759H135.915C135.79 192.974 135.62 193.201 135.405 193.439C135.201 193.666 134.917 193.853 134.555 194C134.192 194.159 133.722 194.238 133.144 194.238ZM133.297 193.082C134.09 193.082 134.73 192.85 135.218 192.385C135.716 191.909 135.966 191.246 135.966 190.396V190.209H133.212C132.679 190.209 132.237 190.328 131.886 190.566C131.546 190.793 131.376 191.138 131.376 191.603C131.376 192.068 131.551 192.43 131.903 192.691C132.265 192.952 132.73 193.082 133.297 193.082ZM143.655 194.238C142.623 194.238 141.751 194 141.037 193.524C140.334 193.048 139.909 192.294 139.762 191.263L141.037 190.974C141.127 191.518 141.297 191.949 141.547 192.266C141.796 192.572 142.102 192.793 142.465 192.929C142.839 193.054 143.235 193.116 143.655 193.116C144.278 193.116 144.771 192.991 145.134 192.742C145.496 192.493 145.678 192.158 145.678 191.739C145.678 191.308 145.502 191.008 145.151 190.838C144.811 190.657 144.34 190.509 143.74 190.396L143.043 190.277C142.51 190.186 142.023 190.045 141.581 189.852C141.139 189.659 140.787 189.399 140.527 189.07C140.266 188.741 140.136 188.328 140.136 187.829C140.136 187.081 140.425 186.497 141.003 186.078C141.581 185.659 142.346 185.449 143.298 185.449C144.238 185.449 144.998 185.664 145.576 186.095C146.165 186.514 146.545 187.109 146.715 187.88L145.457 188.203C145.355 187.602 145.111 187.183 144.726 186.945C144.34 186.696 143.864 186.571 143.298 186.571C142.731 186.571 142.283 186.679 141.955 186.894C141.626 187.098 141.462 187.404 141.462 187.812C141.462 188.209 141.615 188.503 141.921 188.696C142.238 188.877 142.657 189.013 143.179 189.104L143.876 189.223C144.465 189.325 144.992 189.467 145.457 189.648C145.933 189.818 146.307 190.067 146.579 190.396C146.862 190.725 147.004 191.155 147.004 191.688C147.004 192.504 146.698 193.133 146.086 193.575C145.485 194.017 144.675 194.238 143.655 194.238Z" fill="black"/>
<path d="M154.28 194V182.8H158.568C159.24 182.8 159.837 182.933 160.36 183.2C160.893 183.456 161.315 183.824 161.624 184.304C161.933 184.784 162.088 185.365 162.088 186.048V186.256C162.088 186.928 161.928 187.509 161.608 188C161.299 188.48 160.877 188.848 160.344 189.104C159.811 189.36 159.219 189.488 158.568 189.488H155.624V194H154.28ZM155.624 188.272H158.424C159.139 188.272 159.704 188.096 160.12 187.744C160.536 187.381 160.744 186.875 160.744 186.224V186.064C160.744 185.413 160.536 184.912 160.12 184.56C159.715 184.197 159.149 184.016 158.424 184.016H155.624V188.272ZM167.303 194.224C166.514 194.224 165.815 194.059 165.207 193.728C164.61 193.397 164.141 192.933 163.799 192.336C163.469 191.728 163.303 191.013 163.303 190.192V189.984C163.303 189.173 163.469 188.464 163.799 187.856C164.141 187.248 164.61 186.779 165.207 186.448C165.815 186.117 166.514 185.952 167.303 185.952C168.093 185.952 168.786 186.117 169.383 186.448C169.991 186.779 170.461 187.248 170.791 187.856C171.133 188.464 171.303 189.173 171.303 189.984V190.192C171.303 191.013 171.133 191.728 170.791 192.336C170.461 192.933 169.991 193.397 169.383 193.728C168.786 194.059 168.093 194.224 167.303 194.224ZM167.303 193.088C168.135 193.088 168.797 192.827 169.287 192.304C169.789 191.771 170.039 191.056 170.039 190.16V190.016C170.039 189.12 169.789 188.411 169.287 187.888C168.797 187.355 168.135 187.088 167.303 187.088C166.482 187.088 165.821 187.355 165.319 187.888C164.818 188.411 164.567 189.12 164.567 190.016V190.16C164.567 191.056 164.818 191.771 165.319 192.304C165.821 192.827 166.482 193.088 167.303 193.088ZM174.51 194L172.942 186.176H174.222L175.518 193.152H175.742L177.454 186.176H179.55L181.262 193.152H181.486L182.782 186.176H184.062L182.494 194H180.334L178.606 187.024H178.398L176.67 194H174.51ZM189.662 194.224C188.873 194.224 188.179 194.059 187.582 193.728C186.985 193.387 186.521 192.912 186.19 192.304C185.859 191.696 185.694 190.992 185.694 190.192V190C185.694 189.189 185.859 188.48 186.19 187.872C186.521 187.264 186.979 186.795 187.566 186.464C188.153 186.123 188.825 185.952 189.582 185.952C190.318 185.952 190.969 186.112 191.534 186.432C192.099 186.741 192.542 187.189 192.862 187.776C193.182 188.363 193.342 189.051 193.342 189.84V190.416H186.958C186.99 191.259 187.262 191.92 187.774 192.4C188.286 192.869 188.926 193.104 189.694 193.104C190.366 193.104 190.883 192.949 191.246 192.64C191.609 192.331 191.886 191.963 192.078 191.536L193.166 192.064C193.006 192.395 192.782 192.725 192.494 193.056C192.217 193.387 191.849 193.664 191.39 193.888C190.942 194.112 190.366 194.224 189.662 194.224ZM186.974 189.376H192.062C192.019 188.651 191.769 188.085 191.31 187.68C190.862 187.275 190.286 187.072 189.582 187.072C188.867 187.072 188.281 187.275 187.822 187.68C187.363 188.085 187.081 188.651 186.974 189.376ZM195.547 194V186.176H196.779V187.136H197.003C197.141 186.795 197.355 186.544 197.643 186.384C197.931 186.224 198.309 186.144 198.779 186.144H199.707V187.296H198.699C198.133 187.296 197.675 187.456 197.323 187.776C196.981 188.085 196.811 188.571 196.811 189.232V194H195.547ZM204.881 194.224C204.091 194.224 203.398 194.059 202.801 193.728C202.203 193.387 201.739 192.912 201.409 192.304C201.078 191.696 200.913 190.992 200.913 190.192V190C200.913 189.189 201.078 188.48 201.409 187.872C201.739 187.264 202.198 186.795 202.785 186.464C203.371 186.123 204.043 185.952 204.801 185.952C205.537 185.952 206.187 186.112 206.753 186.432C207.318 186.741 207.761 187.189 208.081 187.776C208.401 188.363 208.561 189.051 208.561 189.84V190.416H202.177C202.209 191.259 202.481 191.92 202.993 192.4C203.505 192.869 204.145 193.104 204.913 193.104C205.585 193.104 206.102 192.949 206.465 192.64C206.827 192.331 207.105 191.963 207.297 191.536L208.385 192.064C208.225 192.395 208.001 192.725 207.713 193.056C207.435 193.387 207.067 193.664 206.609 193.888C206.161 194.112 205.585 194.224 204.881 194.224ZM202.193 189.376H207.281C207.238 188.651 206.987 188.085 206.529 187.68C206.081 187.275 205.505 187.072 204.801 187.072C204.086 187.072 203.499 187.275 203.041 187.68C202.582 188.085 202.299 188.651 202.193 189.376ZM214.078 194.224C213.406 194.224 212.787 194.064 212.222 193.744C211.656 193.424 211.208 192.96 210.878 192.352C210.547 191.744 210.382 191.024 210.382 190.192V189.984C210.382 189.152 210.547 188.437 210.878 187.84C211.208 187.232 211.651 186.768 212.206 186.448C212.771 186.117 213.395 185.952 214.078 185.952C214.622 185.952 215.08 186.027 215.454 186.176C215.838 186.315 216.147 186.496 216.382 186.72C216.616 186.933 216.798 187.163 216.926 187.408H217.15V182.8H218.414V194H217.182V192.704H216.958C216.744 193.099 216.414 193.451 215.966 193.76C215.518 194.069 214.888 194.224 214.078 194.224ZM214.414 193.104C215.224 193.104 215.88 192.848 216.382 192.336C216.894 191.813 217.15 191.088 217.15 190.16V190.016C217.15 189.088 216.894 188.368 216.382 187.856C215.88 187.333 215.224 187.072 214.414 187.072C213.614 187.072 212.952 187.333 212.43 187.856C211.918 188.368 211.662 189.088 211.662 190.016V190.16C211.662 191.088 211.918 191.813 212.43 192.336C212.952 192.848 213.614 193.104 214.414 193.104ZM229.508 194.224C228.697 194.224 228.062 194.069 227.604 193.76C227.156 193.451 226.83 193.099 226.628 192.704H226.404V194H225.172V182.8H226.436V187.408H226.66C226.788 187.163 226.969 186.933 227.204 186.72C227.438 186.496 227.742 186.315 228.116 186.176C228.5 186.027 228.964 185.952 229.508 185.952C230.19 185.952 230.809 186.117 231.364 186.448C231.929 186.768 232.377 187.232 232.708 187.84C233.038 188.437 233.204 189.152 233.204 189.984V190.192C233.204 191.024 233.033 191.744 232.692 192.352C232.361 192.96 231.913 193.424 231.348 193.744C230.793 194.064 230.18 194.224 229.508 194.224ZM229.172 193.104C229.982 193.104 230.638 192.848 231.14 192.336C231.652 191.813 231.908 191.088 231.908 190.16V190.016C231.908 189.088 231.652 188.368 231.14 187.856C230.638 187.333 229.982 187.072 229.172 187.072C228.372 187.072 227.71 187.333 227.188 187.856C226.676 188.368 226.42 189.088 226.42 190.016V190.16C226.42 191.088 226.676 191.813 227.188 192.336C227.71 192.848 228.372 193.104 229.172 193.104ZM236.413 197.2V196.08H240.893C241.202 196.08 241.357 195.92 241.357 195.6V192.752H241.133C241.026 192.976 240.861 193.2 240.637 193.424C240.423 193.637 240.141 193.813 239.789 193.952C239.437 194.08 238.994 194.144 238.461 194.144C237.895 194.144 237.373 194.021 236.893 193.776C236.423 193.531 236.05 193.168 235.773 192.688C235.506 192.208 235.373 191.621 235.373 190.928V186.176H236.637V190.832C236.637 191.6 236.829 192.16 237.213 192.512C237.607 192.864 238.135 193.04 238.797 193.04C239.543 193.04 240.157 192.795 240.637 192.304C241.117 191.813 241.357 191.083 241.357 190.112V186.176H242.621V195.824C242.621 196.251 242.498 196.587 242.253 196.832C242.018 197.077 241.671 197.2 241.213 197.2H236.413ZM253.391 194.224C252.058 194.224 250.991 193.84 250.191 193.072C249.402 192.293 249.007 191.163 249.007 189.68V187.12C249.007 185.637 249.402 184.512 250.191 183.744C250.991 182.965 252.058 182.576 253.391 182.576C254.735 182.576 255.802 182.965 256.591 183.744C257.391 184.512 257.791 185.637 257.791 187.12V189.68C257.791 191.163 257.391 192.293 256.591 193.072C255.802 193.84 254.735 194.224 253.391 194.224ZM253.391 193.024C254.362 193.024 255.114 192.736 255.647 192.16C256.18 191.573 256.447 190.763 256.447 189.728V187.072C256.447 186.037 256.18 185.232 255.647 184.656C255.114 184.069 254.362 183.776 253.391 183.776C252.431 183.776 251.684 184.069 251.151 184.656C250.618 185.232 250.351 186.037 250.351 187.072V189.728C250.351 190.763 250.618 191.573 251.151 192.16C251.684 192.736 252.431 193.024 253.391 193.024ZM259.438 194L262.574 190.032L259.534 186.176H261.054L263.39 189.2H263.614L265.934 186.176H267.47L264.414 190.032L267.55 194H266.014L263.614 190.88H263.39L260.99 194H259.438ZM268.634 194L272.09 182.8H274.458L277.914 194H276.522L275.658 191.168H270.89L270.026 194H268.634ZM271.226 189.952H275.306L273.386 183.616H273.162L271.226 189.952ZM279.593 194V182.8H283.881C284.553 182.8 285.15 182.933 285.673 183.2C286.206 183.456 286.627 183.824 286.937 184.304C287.246 184.784 287.401 185.365 287.401 186.048V186.256C287.401 186.928 287.241 187.509 286.921 188C286.611 188.48 286.19 188.848 285.657 189.104C285.123 189.36 284.531 189.488 283.881 189.488H280.937V194H279.593ZM280.937 188.272H283.737C284.451 188.272 285.017 188.096 285.433 187.744C285.849 187.381 286.057 186.875 286.057 186.224V186.064C286.057 185.413 285.849 184.912 285.433 184.56C285.027 184.197 284.462 184.016 283.737 184.016H280.937V188.272ZM289.202 194V182.8H290.546V194H289.202Z" fill="#999999"/>
<rect x="61" y="207" width="74" height="30" rx="4" fill="white"/>
<rect x="145" y="207" width="84" height="30" rx="4" fill="white"/>
<rect x="239" y="207" width="86" height="30" rx="4" fill="white"/>
<path d="M75.112 228V217.664H74.872L72.696 221.648H71.288L73.96 216.8H76.408V228H75.112ZM83.0769 228V216.8H87.6049C88.2982 216.8 88.9062 216.923 89.4289 217.168C89.9622 217.403 90.3782 217.744 90.6769 218.192C90.9755 218.629 91.1249 219.157 91.1249 219.776V219.952C91.1249 220.688 90.9489 221.269 90.5969 221.696C90.2449 222.123 89.8289 222.411 89.3489 222.56V222.784C89.7329 222.795 90.0475 222.923 90.2929 223.168C90.5489 223.403 90.6769 223.76 90.6769 224.24V228H89.3489V224.4C89.3489 224.08 89.2582 223.835 89.0769 223.664C88.9062 223.493 88.6449 223.408 88.2929 223.408H84.4209V228H83.0769ZM84.4209 222.192H87.4769C88.2129 222.192 88.7782 222.016 89.1729 221.664C89.5782 221.301 89.7809 220.8 89.7809 220.16V220.048C89.7809 219.408 89.5835 218.912 89.1889 218.56C88.7942 218.197 88.2235 218.016 87.4769 218.016H84.4209V222.192ZM92.2906 228L95.7466 216.8H98.1146L101.571 228H100.179L99.3146 225.168H94.5466L93.6826 228H92.2906ZM94.8826 223.952H98.9626L97.0426 217.616H96.8186L94.8826 223.952ZM103.249 228V216.8H105.809L108.785 227.152H108.993L111.969 216.8H114.529V228H113.233V217.68H113.009L110.049 228H107.729L104.769 217.68H104.545V228H103.249ZM116.213 228L119.669 216.8H122.037L125.493 228H124.101L123.237 225.168H118.469L117.605 228H116.213ZM118.805 223.952H122.885L120.965 217.616H120.741L118.805 223.952Z" fill="black"/>
<path d="M159.832 228.224C159.011 228.224 158.301 228.069 157.704 227.76C157.107 227.44 156.643 227.003 156.312 226.448C155.981 225.883 155.816 225.232 155.816 224.496V224.304H157.112V224.448C157.112 225.291 157.357 225.936 157.848 226.384C158.339 226.832 158.989 227.056 159.8 227.056C160.653 227.056 161.32 226.816 161.8 226.336C162.28 225.856 162.52 225.2 162.52 224.368V224.224C162.52 223.424 162.285 222.789 161.816 222.32C161.357 221.84 160.76 221.6 160.024 221.6C159.597 221.6 159.245 221.669 158.968 221.808C158.691 221.936 158.472 222.101 158.312 222.304C158.152 222.496 158.019 222.683 157.912 222.864H156.152V216.8H163.512V217.968H157.448V221.84H157.672C157.789 221.627 157.949 221.419 158.152 221.216C158.365 221.013 158.648 220.843 159 220.704C159.352 220.565 159.789 220.496 160.312 220.496C160.963 220.496 161.549 220.645 162.072 220.944C162.605 221.243 163.027 221.669 163.336 222.224C163.656 222.779 163.816 223.44 163.816 224.208V224.384C163.816 225.141 163.656 225.808 163.336 226.384C163.016 226.96 162.557 227.413 161.96 227.744C161.363 228.064 160.653 228.224 159.832 228.224ZM169.968 228V216.8H174.496C175.189 216.8 175.797 216.923 176.32 217.168C176.853 217.403 177.269 217.744 177.568 218.192C177.866 218.629 178.016 219.157 178.016 219.776V219.952C178.016 220.688 177.84 221.269 177.488 221.696C177.136 222.123 176.72 222.411 176.24 222.56V222.784C176.624 222.795 176.938 222.923 177.184 223.168C177.44 223.403 177.568 223.76 177.568 224.24V228H176.24V224.4C176.24 224.08 176.149 223.835 175.968 223.664C175.797 223.493 175.536 223.408 175.184 223.408H171.312V228H169.968ZM171.312 222.192H174.368C175.104 222.192 175.669 222.016 176.064 221.664C176.469 221.301 176.672 220.8 176.672 220.16V220.048C176.672 219.408 176.474 218.912 176.08 218.56C175.685 218.197 175.114 218.016 174.368 218.016H171.312V222.192ZM179.181 228L182.637 216.8H185.005L188.461 228H187.069L186.205 225.168H181.437L180.573 228H179.181ZM181.773 223.952H185.853L183.933 217.616H183.709L181.773 223.952ZM190.139 228V216.8H192.699L195.675 227.152H195.883L198.859 216.8H201.419V228H200.123V217.68H199.899L196.939 228H194.619L191.659 217.68H191.435V228H190.139ZM203.103 228L206.559 216.8H208.927L212.383 228H210.991L210.127 225.168H205.359L204.495 228H203.103ZM205.695 223.952H209.775L207.855 217.616H207.631L205.695 223.952Z" fill="black"/>
<path d="M253.112 228V217.664H252.872L250.696 221.648H249.288L251.96 216.8H254.408V228H253.112ZM260.808 228.224C259.538 228.224 258.525 227.851 257.768 227.104C257.021 226.347 256.648 225.216 256.648 223.712V221.088C256.648 219.595 257.021 218.469 257.768 217.712C258.525 216.955 259.538 216.576 260.808 216.576C262.088 216.576 263.101 216.955 263.848 217.712C264.605 218.469 264.984 219.595 264.984 221.088V223.712C264.984 225.216 264.605 226.347 263.848 227.104C263.101 227.851 262.088 228.224 260.808 228.224ZM260.808 227.056C261.768 227.056 262.488 226.768 262.968 226.192C263.448 225.616 263.688 224.811 263.688 223.776V221.008C263.688 219.973 263.442 219.173 262.952 218.608C262.461 218.032 261.746 217.744 260.808 217.744C259.869 217.744 259.154 218.032 258.664 218.608C258.184 219.184 257.944 219.984 257.944 221.008V223.776C257.944 224.821 258.184 225.632 258.664 226.208C259.144 226.773 259.858 227.056 260.808 227.056ZM271.327 228V216.8H275.855C276.548 216.8 277.156 216.923 277.679 217.168C278.212 217.403 278.628 217.744 278.927 218.192C279.226 218.629 279.375 219.157 279.375 219.776V219.952C279.375 220.688 279.199 221.269 278.847 221.696C278.495 222.123 278.079 222.411 277.599 222.56V222.784C277.983 222.795 278.298 222.923 278.543 223.168C278.799 223.403 278.927 223.76 278.927 224.24V228H277.599V224.4C277.599 224.08 277.508 223.835 277.327 223.664C277.156 223.493 276.895 223.408 276.543 223.408H272.671V228H271.327ZM272.671 222.192H275.727C276.463 222.192 277.028 222.016 277.423 221.664C277.828 221.301 278.031 220.8 278.031 220.16V220.048C278.031 219.408 277.834 218.912 277.439 218.56C277.044 218.197 276.474 218.016 275.727 218.016H272.671V222.192ZM280.541 228L283.997 216.8H286.365L289.821 228H288.429L287.565 225.168H282.797L281.933 228H280.541ZM283.133 223.952H287.213L285.293 217.616H285.069L283.133 223.952ZM291.499 228V216.8H294.059L297.035 227.152H297.243L300.219 216.8H302.779V228H301.483V217.68H301.259L298.299 228H295.979L293.019 217.68H292.795V228H291.499ZM304.463 228L307.919 216.8H310.287L313.743 228H312.351L311.487 225.168H306.719L305.855 228H304.463ZM307.055 223.952H311.135L309.215 217.616H308.991L307.055 223.952Z" fill="black"/>
<path d="M335 211C335 208.791 336.791 207 339 207H509V237H339C336.791 237 335 235.209 335 233V211Z" fill="white"/>
<path d="M346.28 228V216.8H353.176V218.016H347.624V221.76H352.728V222.976H347.624V226.784H353.256V228H346.28ZM355.344 228V220.176H356.576V221.504H356.8C356.97 221.131 357.258 220.795 357.664 220.496C358.08 220.187 358.688 220.032 359.488 220.032C360.074 220.032 360.597 220.155 361.056 220.4C361.525 220.645 361.898 221.008 362.176 221.488C362.453 221.968 362.592 222.56 362.592 223.264V228H361.328V223.36C361.328 222.581 361.13 222.016 360.736 221.664C360.352 221.312 359.829 221.136 359.168 221.136C358.41 221.136 357.792 221.381 357.312 221.872C356.842 222.363 356.608 223.093 356.608 224.064V228H355.344ZM367.817 228C367.369 228 367.023 227.877 366.777 227.632C366.543 227.387 366.425 227.051 366.425 226.624V221.28H364.073V220.176H366.425V217.392H367.689V220.176H370.249V221.28H367.689V226.432C367.689 226.752 367.844 226.912 368.153 226.912H369.897V228H367.817ZM375.6 228.224C374.81 228.224 374.117 228.059 373.52 227.728C372.922 227.387 372.458 226.912 372.128 226.304C371.797 225.696 371.632 224.992 371.632 224.192V224C371.632 223.189 371.797 222.48 372.128 221.872C372.458 221.264 372.917 220.795 373.504 220.464C374.09 220.123 374.762 219.952 375.52 219.952C376.256 219.952 376.906 220.112 377.472 220.432C378.037 220.741 378.48 221.189 378.8 221.776C379.12 222.363 379.28 223.051 379.28 223.84V224.416H372.896C372.928 225.259 373.2 225.92 373.712 226.4C374.224 226.869 374.864 227.104 375.632 227.104C376.304 227.104 376.821 226.949 377.184 226.64C377.546 226.331 377.824 225.963 378.016 225.536L379.104 226.064C378.944 226.395 378.72 226.725 378.432 227.056C378.154 227.387 377.786 227.664 377.328 227.888C376.88 228.112 376.304 228.224 375.6 228.224ZM372.912 223.376H378C377.957 222.651 377.706 222.085 377.248 221.68C376.8 221.275 376.224 221.072 375.52 221.072C374.805 221.072 374.218 221.275 373.76 221.68C373.301 222.085 373.018 222.651 372.912 223.376ZM381.484 228V220.176H382.716V221.136H382.94C383.079 220.795 383.292 220.544 383.58 220.384C383.868 220.224 384.247 220.144 384.716 220.144H385.644V221.296H384.636C384.071 221.296 383.612 221.456 383.26 221.776C382.919 222.085 382.748 222.571 382.748 223.232V228H381.484ZM390.494 228L393.95 216.8H396.318L399.774 228H398.382L397.518 225.168H392.75L391.886 228H390.494ZM393.086 223.952H397.166L395.246 217.616H395.022L393.086 223.952ZM401.5 228V220.176H402.732V221.152H402.956C403.105 220.875 403.351 220.619 403.692 220.384C404.033 220.149 404.513 220.032 405.132 220.032C405.74 220.032 406.231 220.165 406.604 220.432C406.988 220.699 407.265 221.024 407.436 221.408H407.66C407.841 221.024 408.113 220.699 408.476 220.432C408.849 220.165 409.367 220.032 410.028 220.032C410.551 220.032 411.009 220.139 411.404 220.352C411.799 220.565 412.108 220.875 412.332 221.28C412.567 221.675 412.684 222.149 412.684 222.704V228H411.42V222.816C411.42 222.293 411.265 221.883 410.956 221.584C410.657 221.275 410.236 221.12 409.692 221.12C409.116 221.12 408.641 221.307 408.268 221.68C407.905 222.053 407.724 222.592 407.724 223.296V228H406.46V222.816C406.46 222.293 406.305 221.883 405.996 221.584C405.697 221.275 405.276 221.12 404.732 221.12C404.156 221.12 403.681 221.307 403.308 221.68C402.945 222.053 402.764 222.592 402.764 223.296V228H401.5ZM418.882 228.224C418.092 228.224 417.394 228.059 416.786 227.728C416.188 227.397 415.719 226.933 415.378 226.336C415.047 225.728 414.882 225.013 414.882 224.192V223.984C414.882 223.173 415.047 222.464 415.378 221.856C415.719 221.248 416.188 220.779 416.786 220.448C417.394 220.117 418.092 219.952 418.882 219.952C419.671 219.952 420.364 220.117 420.962 220.448C421.57 220.779 422.039 221.248 422.37 221.856C422.711 222.464 422.882 223.173 422.882 223.984V224.192C422.882 225.013 422.711 225.728 422.37 226.336C422.039 226.933 421.57 227.397 420.962 227.728C420.364 228.059 419.671 228.224 418.882 228.224ZM418.882 227.088C419.714 227.088 420.375 226.827 420.866 226.304C421.367 225.771 421.618 225.056 421.618 224.16V224.016C421.618 223.12 421.367 222.411 420.866 221.888C420.375 221.355 419.714 221.088 418.882 221.088C418.06 221.088 417.399 221.355 416.898 221.888C416.396 222.411 416.146 223.12 416.146 224.016V224.16C416.146 225.056 416.396 225.771 416.898 226.304C417.399 226.827 418.06 227.088 418.882 227.088ZM428.148 228.144C427.583 228.144 427.06 228.021 426.58 227.776C426.111 227.531 425.737 227.168 425.46 226.688C425.193 226.197 425.06 225.605 425.06 224.912V220.176H426.324V224.816C426.324 225.595 426.516 226.16 426.9 226.512C427.295 226.864 427.823 227.04 428.484 227.04C429.231 227.04 429.844 226.795 430.324 226.304C430.804 225.813 431.044 225.083 431.044 224.112V220.176H432.308V228H431.076V226.672H430.852C430.681 227.045 430.388 227.387 429.972 227.696C429.556 227.995 428.948 228.144 428.148 228.144ZM434.953 228V220.176H436.185V221.504H436.409C436.58 221.131 436.868 220.795 437.273 220.496C437.689 220.187 438.297 220.032 439.097 220.032C439.684 220.032 440.206 220.155 440.665 220.4C441.134 220.645 441.508 221.008 441.785 221.488C442.062 221.968 442.201 222.56 442.201 223.264V228H440.937V223.36C440.937 222.581 440.74 222.016 440.345 221.664C439.961 221.312 439.438 221.136 438.777 221.136C438.02 221.136 437.401 221.381 436.921 221.872C436.452 222.363 436.217 223.093 436.217 224.064V228H434.953ZM447.427 228C446.979 228 446.632 227.877 446.387 227.632C446.152 227.387 446.035 227.051 446.035 226.624V221.28H443.683V220.176H446.035V217.392H447.299V220.176H449.859V221.28H447.299V226.432C447.299 226.752 447.453 226.912 447.763 226.912H449.507V228H447.427Z" fill="black"/>
<path d="M487.28 228V216.8H489.84L492.816 227.152H493.024L496 216.8H498.56V228H497.264V217.68H497.04L494.08 228H491.76L488.8 217.68H488.576V228H487.28ZM503.572 228.224C503.028 228.224 502.532 228.128 502.084 227.936C501.636 227.744 501.284 227.467 501.028 227.104C500.772 226.741 500.644 226.299 500.644 225.776C500.644 225.243 500.772 224.805 501.028 224.464C501.284 224.112 501.636 223.851 502.084 223.68C502.532 223.499 503.033 223.408 503.588 223.408H506.228V222.832C506.228 222.277 506.062 221.84 505.732 221.52C505.412 221.2 504.932 221.04 504.292 221.04C503.662 221.04 503.172 221.195 502.82 221.504C502.468 221.803 502.228 222.208 502.1 222.72L500.916 222.336C501.044 221.899 501.246 221.504 501.524 221.152C501.801 220.789 502.169 220.501 502.628 220.288C503.097 220.064 503.657 219.952 504.308 219.952C505.31 219.952 506.089 220.213 506.644 220.736C507.198 221.248 507.476 221.973 507.476 222.912V226.448C507.476 226.768 507.625 226.928 507.924 226.928H508.644V228H507.54C507.188 228 506.905 227.904 506.692 227.712C506.478 227.509 506.372 227.243 506.372 226.912V226.832H506.18C506.062 227.035 505.902 227.248 505.7 227.472C505.508 227.685 505.241 227.861 504.9 228C504.558 228.149 504.116 228.224 503.572 228.224ZM503.716 227.136C504.462 227.136 505.065 226.917 505.524 226.48C505.993 226.032 506.228 225.408 506.228 224.608V224.432H503.636C503.134 224.432 502.718 224.544 502.388 224.768C502.068 224.981 501.908 225.307 501.908 225.744C501.908 226.181 502.073 226.523 502.404 226.768C502.745 227.013 503.182 227.136 503.716 227.136Z" fill="black"/>
<path d="M61.5 252C61.5 250.067 63.067 248.5 65 248.5H509.5V287.5H65C63.067 287.5 61.5 285.933 61.5 284V252Z" fill="white" stroke="#3DC1F2"/>
<path d="M213.12 274.224C211.851 274.224 210.837 273.851 210.08 273.104C209.333 272.347 208.96 271.216 208.96 269.712V267.088C208.96 265.595 209.333 264.469 210.08 263.712C210.837 262.955 211.851 262.576 213.12 262.576C214.4 262.576 215.413 262.955 216.16 263.712C216.917 264.469 217.296 265.595 217.296 267.088V269.712C217.296 271.216 216.917 272.347 216.16 273.104C215.413 273.851 214.4 274.224 213.12 274.224ZM213.12 273.056C214.08 273.056 214.8 272.768 215.28 272.192C215.76 271.616 216 270.811 216 269.776V267.008C216 265.973 215.755 265.173 215.264 264.608C214.773 264.032 214.059 263.744 213.12 263.744C212.181 263.744 211.467 264.032 210.976 264.608C210.496 265.184 210.256 265.984 210.256 267.008V269.776C210.256 270.821 210.496 271.632 210.976 272.208C211.456 272.773 212.171 273.056 213.12 273.056ZM220.016 274.224C219.707 274.224 219.445 274.123 219.232 273.92C219.029 273.717 218.928 273.456 218.928 273.136C218.928 272.816 219.029 272.555 219.232 272.352C219.445 272.149 219.707 272.048 220.016 272.048C220.336 272.048 220.597 272.149 220.8 272.352C221.003 272.555 221.104 272.816 221.104 273.136C221.104 273.456 221.003 273.717 220.8 273.92C220.597 274.123 220.336 274.224 220.016 274.224ZM226.917 274.224C225.648 274.224 224.634 273.851 223.877 273.104C223.13 272.347 222.757 271.216 222.757 269.712V267.088C222.757 265.595 223.13 264.469 223.877 263.712C224.634 262.955 225.648 262.576 226.917 262.576C228.197 262.576 229.21 262.955 229.957 263.712C230.714 264.469 231.093 265.595 231.093 267.088V269.712C231.093 271.216 230.714 272.347 229.957 273.104C229.21 273.851 228.197 274.224 226.917 274.224ZM226.917 273.056C227.877 273.056 228.597 272.768 229.077 272.192C229.557 271.616 229.797 270.811 229.797 269.776V267.008C229.797 265.973 229.552 265.173 229.061 264.608C228.57 264.032 227.856 263.744 226.917 263.744C225.978 263.744 225.264 264.032 224.773 264.608C224.293 265.184 224.053 265.984 224.053 267.008V269.776C224.053 270.821 224.293 271.632 224.773 272.208C225.253 272.773 225.968 273.056 226.917 273.056ZM237.167 274.224C235.898 274.224 234.884 273.851 234.127 273.104C233.38 272.347 233.007 271.216 233.007 269.712V267.088C233.007 265.595 233.38 264.469 234.127 263.712C234.884 262.955 235.898 262.576 237.167 262.576C238.447 262.576 239.46 262.955 240.207 263.712C240.964 264.469 241.343 265.595 241.343 267.088V269.712C241.343 271.216 240.964 272.347 240.207 273.104C239.46 273.851 238.447 274.224 237.167 274.224ZM237.167 273.056C238.127 273.056 238.847 272.768 239.327 272.192C239.807 271.616 240.047 270.811 240.047 269.776V267.008C240.047 265.973 239.802 265.173 239.311 264.608C238.82 264.032 238.106 263.744 237.167 263.744C236.228 263.744 235.514 264.032 235.023 264.608C234.543 265.184 234.303 265.984 234.303 267.008V269.776C234.303 270.821 234.543 271.632 235.023 272.208C235.503 272.773 236.218 273.056 237.167 273.056ZM247.417 274.224C246.148 274.224 245.134 273.851 244.377 273.104C243.63 272.347 243.257 271.216 243.257 269.712V267.088C243.257 265.595 243.63 264.469 244.377 263.712C245.134 262.955 246.148 262.576 247.417 262.576C248.697 262.576 249.71 262.955 250.457 263.712C251.214 264.469 251.593 265.595 251.593 267.088V269.712C251.593 271.216 251.214 272.347 250.457 273.104C249.71 273.851 248.697 274.224 247.417 274.224ZM247.417 273.056C248.377 273.056 249.097 272.768 249.577 272.192C250.057 271.616 250.297 270.811 250.297 269.776V267.008C250.297 265.973 250.052 265.173 249.561 264.608C249.07 264.032 248.356 263.744 247.417 263.744C246.478 263.744 245.764 264.032 245.273 264.608C244.793 265.184 244.553 265.984 244.553 267.008V269.776C244.553 270.821 244.793 271.632 245.273 272.208C245.753 272.773 246.468 273.056 247.417 273.056ZM258.899 274V271.712H253.059V270.176L257.763 262.8H260.195V270.544H262.115V271.712H260.195V274H258.899ZM254.355 270.544H258.899V263.584H258.675L254.355 270.352V270.544ZM267.936 274V262.8H272.464C273.158 262.8 273.766 262.923 274.288 263.168C274.822 263.403 275.238 263.744 275.536 264.192C275.835 264.629 275.984 265.157 275.984 265.776V265.952C275.984 266.688 275.808 267.269 275.456 267.696C275.104 268.123 274.688 268.411 274.208 268.56V268.784C274.592 268.795 274.907 268.923 275.152 269.168C275.408 269.403 275.536 269.76 275.536 270.24V274H274.208V270.4C274.208 270.08 274.118 269.835 273.936 269.664C273.766 269.493 273.504 269.408 273.152 269.408H269.28V274H267.936ZM269.28 268.192H272.336C273.072 268.192 273.638 268.016 274.032 267.664C274.438 267.301 274.64 266.8 274.64 266.16V266.048C274.64 265.408 274.443 264.912 274.048 264.56C273.654 264.197 273.083 264.016 272.336 264.016H269.28V268.192ZM277.15 274L280.606 262.8H282.974L286.43 274H285.038L284.174 271.168H279.406L278.542 274H277.15ZM279.742 269.952H283.822L281.902 263.616H281.678L279.742 269.952ZM288.108 274V262.8H290.668L293.644 273.152H293.852L296.828 262.8H299.388V274H298.092V263.68H297.868L294.908 274H292.588L289.628 263.68H289.404V274H288.108ZM301.072 274L304.528 262.8H306.896L310.352 274H308.96L308.096 271.168H303.328L302.464 274H301.072ZM303.664 269.952H307.744L305.824 263.616H305.6L303.664 269.952ZM315.936 277.936V261.104H317.2V277.936H315.936ZM327.617 274.224C326.807 274.224 326.081 274.08 325.441 273.792C324.801 273.504 324.295 273.072 323.921 272.496C323.559 271.909 323.377 271.179 323.377 270.304V269.968H324.705V270.304C324.705 271.232 324.977 271.925 325.521 272.384C326.065 272.832 326.764 273.056 327.617 273.056C328.492 273.056 329.159 272.859 329.617 272.464C330.076 272.069 330.305 271.573 330.305 270.976C330.305 270.56 330.204 270.229 330.001 269.984C329.799 269.739 329.511 269.541 329.137 269.392C328.764 269.232 328.327 269.093 327.825 268.976L326.977 268.768C326.327 268.597 325.751 268.389 325.249 268.144C324.748 267.899 324.353 267.579 324.065 267.184C323.788 266.779 323.649 266.261 323.649 265.632C323.649 265.003 323.809 264.459 324.129 264C324.449 263.541 324.892 263.189 325.457 262.944C326.023 262.699 326.684 262.576 327.441 262.576C328.199 262.576 328.876 262.709 329.473 262.976C330.071 263.232 330.545 263.616 330.897 264.128C331.249 264.629 331.425 265.264 331.425 266.032V266.704H330.097V266.032C330.097 265.488 329.98 265.051 329.745 264.72C329.521 264.389 329.207 264.144 328.801 263.984C328.407 263.824 327.953 263.744 327.441 263.744C326.705 263.744 326.113 263.909 325.665 264.24C325.217 264.56 324.993 265.019 324.993 265.616C324.993 266.011 325.084 266.331 325.265 266.576C325.457 266.821 325.729 267.024 326.081 267.184C326.433 267.333 326.855 267.467 327.345 267.584L328.193 267.792C328.833 267.931 329.415 268.123 329.937 268.368C330.46 268.603 330.871 268.928 331.169 269.344C331.479 269.749 331.633 270.283 331.633 270.944C331.633 271.605 331.468 272.181 331.137 272.672C330.807 273.163 330.337 273.547 329.729 273.824C329.132 274.091 328.428 274.224 327.617 274.224ZM327.009 275.856V260.944H328.241V275.856H327.009ZM336.534 274V263.664H336.294L334.118 267.648H332.71L335.382 262.8H337.83V274H336.534ZM341.125 274.224C340.816 274.224 340.555 274.123 340.341 273.92C340.139 273.717 340.037 273.456 340.037 273.136C340.037 272.816 340.139 272.555 340.341 272.352C340.555 272.149 340.816 272.048 341.125 272.048C341.445 272.048 341.707 272.149 341.909 272.352C342.112 272.555 342.213 272.816 342.213 273.136C342.213 273.456 342.112 273.717 341.909 273.92C341.707 274.123 341.445 274.224 341.125 274.224ZM344.004 274V272.832C344.004 272.032 344.143 271.392 344.42 270.912C344.708 270.432 345.103 270.048 345.604 269.76C346.116 269.461 346.724 269.205 347.428 268.992L348.308 268.72C348.788 268.571 349.21 268.389 349.572 268.176C349.935 267.952 350.218 267.675 350.42 267.344C350.623 267.003 350.724 266.587 350.724 266.096V266.032C350.724 265.328 350.479 264.773 349.988 264.368C349.498 263.952 348.868 263.744 348.1 263.744C347.29 263.744 346.628 263.963 346.116 264.4C345.604 264.827 345.348 265.477 345.348 266.352V266.576H344.068V266.368C344.068 265.557 344.244 264.869 344.596 264.304C344.948 263.739 345.428 263.312 346.036 263.024C346.644 262.725 347.332 262.576 348.1 262.576C348.868 262.576 349.546 262.72 350.132 263.008C350.73 263.296 351.194 263.696 351.524 264.208C351.855 264.72 352.02 265.317 352.02 266V266.144C352.02 266.869 351.876 267.472 351.588 267.952C351.3 268.421 350.9 268.805 350.388 269.104C349.887 269.403 349.295 269.659 348.612 269.872L347.748 270.144C347.204 270.315 346.751 270.496 346.388 270.688C346.036 270.869 345.77 271.104 345.588 271.392C345.407 271.68 345.316 272.069 345.316 272.56V272.832H351.924V274H344.004ZM357.582 274.224C356.793 274.224 356.084 274.075 355.454 273.776C354.836 273.477 354.345 273.045 353.982 272.48C353.63 271.915 353.454 271.232 353.454 270.432V270.128H354.75V270.416C354.75 271.237 355.012 271.883 355.534 272.352C356.057 272.821 356.74 273.056 357.582 273.056C358.436 273.056 359.097 272.837 359.566 272.4C360.046 271.952 360.286 271.392 360.286 270.72V270.592C360.286 270.101 360.169 269.707 359.934 269.408C359.7 269.099 359.38 268.875 358.974 268.736C358.58 268.587 358.142 268.512 357.662 268.512H355.838V266.896L360.11 264.16V263.968H353.726V262.8H361.486V264.608L357.31 267.296V267.488H358.11C358.74 267.488 359.316 267.605 359.838 267.84C360.372 268.064 360.793 268.405 361.102 268.864C361.422 269.312 361.582 269.877 361.582 270.56V270.736C361.582 271.44 361.417 272.053 361.086 272.576C360.756 273.099 360.292 273.504 359.694 273.792C359.097 274.08 358.393 274.224 357.582 274.224Z" fill="black"/>
<defs>
<linearGradient id="paint0_linear_809_16" x1="1" y1="36" x2="509" y2="36" gradientUnits="userSpaceOnUse">
<stop stop-color="#F1F2F4"/>
<stop offset="0.5" stop-color="#3DC1F2"/>
<stop offset="1" stop-color="#F1F2F4"/>
</linearGradient>
</defs>
</svg>
