<svg width="492" height="195" viewBox="0 0 492 195" fill="none" xmlns="http://www.w3.org/2000/svg">
<rect x="0.5" y="23.5" width="333" height="149" rx="7.5" fill="black" stroke="#1D1D20"/>
<path d="M29.96 89.42C27.36 89.42 25.3 88.7 23.78 87.26C22.26 85.8 21.5 83.72 21.5 81.02V75.98C21.5 73.28 22.26 71.21 23.78 69.77C25.3 68.31 27.36 67.58 29.96 67.58C32.54 67.58 34.53 68.29 35.93 69.71C37.35 71.11 38.06 73.04 38.06 75.5V75.68H34.16V75.38C34.16 74.14 33.81 73.12 33.11 72.32C32.43 71.52 31.38 71.12 29.96 71.12C28.56 71.12 27.46 71.55 26.66 72.41C25.86 73.27 25.46 74.44 25.46 75.92V81.08C25.46 82.54 25.86 83.71 26.66 84.59C27.46 85.45 28.56 85.88 29.96 85.88C31.38 85.88 32.43 85.48 33.11 84.68C33.81 83.86 34.16 82.84 34.16 81.62V81.08H38.06V81.5C38.06 83.96 37.35 85.9 35.93 87.32C34.53 88.72 32.54 89.42 29.96 89.42ZM41.4066 89V68H45.1866V75.95H45.7266C45.8866 75.63 46.1366 75.31 46.4766 74.99C46.8166 74.67 47.2666 74.41 47.8266 74.21C48.4066 73.99 49.1366 73.88 50.0166 73.88C51.1766 73.88 52.1866 74.15 53.0466 74.69C53.9266 75.21 54.6066 75.94 55.0866 76.88C55.5666 77.8 55.8066 78.88 55.8066 80.12V89H52.0266V80.42C52.0266 79.3 51.7466 78.46 51.1866 77.9C50.6466 77.34 49.8666 77.06 48.8466 77.06C47.6866 77.06 46.7866 77.45 46.1466 78.23C45.5066 78.99 45.1866 80.06 45.1866 81.44V89H41.4066ZM64.513 89.42C63.453 89.42 62.503 89.24 61.663 88.88C60.823 88.5 60.153 87.96 59.653 87.26C59.173 86.54 58.933 85.67 58.933 84.65C58.933 83.63 59.173 82.78 59.653 82.1C60.153 81.4 60.833 80.88 61.693 80.54C62.573 80.18 63.573 80 64.693 80H68.773V79.16C68.773 78.46 68.553 77.89 68.113 77.45C67.673 76.99 66.973 76.76 66.013 76.76C65.073 76.76 64.373 76.98 63.913 77.42C63.453 77.84 63.153 78.39 63.013 79.07L59.533 77.9C59.773 77.14 60.153 76.45 60.673 75.83C61.213 75.19 61.923 74.68 62.803 74.3C63.703 73.9 64.793 73.7 66.073 73.7C68.033 73.7 69.583 74.19 70.723 75.17C71.863 76.15 72.433 77.57 72.433 79.43V84.98C72.433 85.58 72.713 85.88 73.273 85.88H74.473V89H71.953C71.213 89 70.603 88.82 70.123 88.46C69.643 88.1 69.403 87.62 69.403 87.02V86.99H68.833C68.753 87.23 68.573 87.55 68.293 87.95C68.013 88.33 67.573 88.67 66.973 88.97C66.373 89.27 65.553 89.42 64.513 89.42ZM65.173 86.36C66.233 86.36 67.093 86.07 67.753 85.49C68.433 84.89 68.773 84.1 68.773 83.12V82.82H64.963C64.263 82.82 63.713 82.97 63.313 83.27C62.913 83.57 62.713 83.99 62.713 84.53C62.713 85.07 62.923 85.51 63.343 85.85C63.763 86.19 64.373 86.36 65.173 86.36ZM77.2367 89V74.12H81.0167V89H77.2367ZM79.1267 72.38C78.4467 72.38 77.8667 72.16 77.3867 71.72C76.9267 71.28 76.6967 70.7 76.6967 69.98C76.6967 69.26 76.9267 68.68 77.3867 68.24C77.8667 67.8 78.4467 67.58 79.1267 67.58C79.8267 67.58 80.4067 67.8 80.8667 68.24C81.3267 68.68 81.5567 69.26 81.5567 69.98C81.5567 70.7 81.3267 71.28 80.8667 71.72C80.4067 72.16 79.8267 72.38 79.1267 72.38ZM85.2055 89V74.12H88.9255V76.07H89.4655C89.7055 75.55 90.1555 75.06 90.8155 74.6C91.4755 74.12 92.4755 73.88 93.8155 73.88C94.9755 73.88 95.9855 74.15 96.8455 74.69C97.7255 75.21 98.4055 75.94 98.8855 76.88C99.3655 77.8 99.6055 78.88 99.6055 80.12V89H95.8255V80.42C95.8255 79.3 95.5455 78.46 94.9855 77.9C94.4455 77.34 93.6655 77.06 92.6455 77.06C91.4855 77.06 90.5855 77.45 89.9455 78.23C89.3055 78.99 88.9855 80.06 88.9855 81.44V89H85.2055ZM111.189 89V68H115.149V89H111.189ZM119.219 89V74.12H122.939V76.07H123.479C123.719 75.55 124.169 75.06 124.829 74.6C125.489 74.12 126.489 73.88 127.829 73.88C128.989 73.88 129.999 74.15 130.859 74.69C131.739 75.21 132.419 75.94 132.899 76.88C133.379 77.8 133.619 78.88 133.619 80.12V89H129.839V80.42C129.839 79.3 129.559 78.46 128.999 77.9C128.459 77.34 127.679 77.06 126.659 77.06C125.499 77.06 124.599 77.45 123.959 78.23C123.319 78.99 122.999 80.06 122.999 81.44V89H119.219ZM143.705 89.42C142.525 89.42 141.415 89.13 140.375 88.55C139.355 87.95 138.535 87.08 137.915 85.94C137.295 84.8 136.985 83.42 136.985 81.8V81.32C136.985 79.7 137.295 78.32 137.915 77.18C138.535 76.04 139.355 75.18 140.375 74.6C141.395 74 142.505 73.7 143.705 73.7C144.605 73.7 145.355 73.81 145.955 74.03C146.575 74.23 147.075 74.49 147.455 74.81C147.835 75.13 148.125 75.47 148.325 75.83H148.865V68H152.645V89H148.925V87.2H148.385C148.045 87.76 147.515 88.27 146.795 88.73C146.095 89.19 145.065 89.42 143.705 89.42ZM144.845 86.12C146.005 86.12 146.975 85.75 147.755 85.01C148.535 84.25 148.925 83.15 148.925 81.71V81.41C148.925 79.97 148.535 78.88 147.755 78.14C146.995 77.38 146.025 77 144.845 77C143.685 77 142.715 77.38 141.935 78.14C141.155 78.88 140.765 79.97 140.765 81.41V81.71C140.765 83.15 141.155 84.25 141.935 85.01C142.715 85.75 143.685 86.12 144.845 86.12ZM163.616 89.42C162.136 89.42 160.826 89.11 159.686 88.49C158.566 87.85 157.686 86.96 157.046 85.82C156.426 84.66 156.116 83.3 156.116 81.74V81.38C156.116 79.82 156.426 78.47 157.046 77.33C157.666 76.17 158.536 75.28 159.656 74.66C160.776 74.02 162.076 73.7 163.556 73.7C165.016 73.7 166.286 74.03 167.366 74.69C168.446 75.33 169.286 76.23 169.886 77.39C170.486 78.53 170.786 79.86 170.786 81.38V82.67H159.956C159.996 83.69 160.376 84.52 161.096 85.16C161.816 85.8 162.696 86.12 163.736 86.12C164.796 86.12 165.576 85.89 166.076 85.43C166.576 84.97 166.956 84.46 167.216 83.9L170.306 85.52C170.026 86.04 169.616 86.61 169.076 87.23C168.556 87.83 167.856 88.35 166.976 88.79C166.096 89.21 164.976 89.42 163.616 89.42ZM159.986 79.85H166.946C166.866 78.99 166.516 78.3 165.896 77.78C165.296 77.26 164.506 77 163.526 77C162.506 77 161.696 77.26 161.096 77.78C160.496 78.3 160.126 78.99 159.986 79.85ZM171.864 89L177.264 81.5L171.924 74.12H176.304L179.694 79.07H180.234L183.624 74.12H188.004L182.664 81.5L188.064 89H183.624L180.234 83.99H179.694L176.304 89H171.864ZM196.751 89.42C195.271 89.42 193.961 89.11 192.821 88.49C191.701 87.85 190.821 86.96 190.181 85.82C189.561 84.66 189.251 83.3 189.251 81.74V81.38C189.251 79.82 189.561 78.47 190.181 77.33C190.801 76.17 191.671 75.28 192.791 74.66C193.911 74.02 195.211 73.7 196.691 73.7C198.151 73.7 199.421 74.03 200.501 74.69C201.581 75.33 202.421 76.23 203.021 77.39C203.621 78.53 203.921 79.86 203.921 81.38V82.67H193.091C193.131 83.69 193.511 84.52 194.231 85.16C194.951 85.8 195.831 86.12 196.871 86.12C197.931 86.12 198.711 85.89 199.211 85.43C199.711 84.97 200.091 84.46 200.351 83.9L203.441 85.52C203.161 86.04 202.751 86.61 202.211 87.23C201.691 87.83 200.991 88.35 200.111 88.79C199.231 89.21 198.111 89.42 196.751 89.42ZM193.121 79.85H200.081C200.001 78.99 199.651 78.3 199.031 77.78C198.431 77.26 197.641 77 196.661 77C195.641 77 194.831 77.26 194.231 77.78C193.631 78.3 193.261 78.99 193.121 79.85ZM207.286 89V74.12H211.006V75.8H211.546C211.766 75.2 212.126 74.76 212.626 74.48C213.146 74.2 213.746 74.06 214.426 74.06H216.226V77.42H214.366C213.406 77.42 212.616 77.68 211.996 78.2C211.376 78.7 211.066 79.48 211.066 80.54V89H207.286ZM21.98 127V106H35.18V109.6H25.94V114.67H34.46V118.27H25.94V127H21.98ZM38.1254 127V112.12H41.8454V113.8H42.3854C42.6054 113.2 42.9654 112.76 43.4654 112.48C43.9854 112.2 44.5854 112.06 45.2654 112.06H47.0654V115.42H45.2054C44.2454 115.42 43.4554 115.68 42.8354 116.2C42.2154 116.7 41.9054 117.48 41.9054 118.54V127H38.1254ZM54.2884 127.42C53.2284 127.42 52.2784 127.24 51.4384 126.88C50.5984 126.5 49.9284 125.96 49.4284 125.26C48.9484 124.54 48.7084 123.67 48.7084 122.65C48.7084 121.63 48.9484 120.78 49.4284 120.1C49.9284 119.4 50.6084 118.88 51.4684 118.54C52.3484 118.18 53.3484 118 54.4684 118H58.5484V117.16C58.5484 116.46 58.3284 115.89 57.8884 115.45C57.4484 114.99 56.7484 114.76 55.7884 114.76C54.8484 114.76 54.1484 114.98 53.6884 115.42C53.2284 115.84 52.9284 116.39 52.7884 117.07L49.3084 115.9C49.5484 115.14 49.9284 114.45 50.4484 113.83C50.9884 113.19 51.6984 112.68 52.5784 112.3C53.4784 111.9 54.5684 111.7 55.8484 111.7C57.8084 111.7 59.3584 112.19 60.4984 113.17C61.6384 114.15 62.2084 115.57 62.2084 117.43V122.98C62.2084 123.58 62.4884 123.88 63.0484 123.88H64.2484V127H61.7284C60.9884 127 60.3784 126.82 59.8984 126.46C59.4184 126.1 59.1784 125.62 59.1784 125.02V124.99H58.6084C58.5284 125.23 58.3484 125.55 58.0684 125.95C57.7884 126.33 57.3484 126.67 56.7484 126.97C56.1484 127.27 55.3284 127.42 54.2884 127.42ZM54.9484 124.36C56.0084 124.36 56.8684 124.07 57.5284 123.49C58.2084 122.89 58.5484 122.1 58.5484 121.12V120.82H54.7384C54.0384 120.82 53.4884 120.97 53.0884 121.27C52.6884 121.57 52.4884 121.99 52.4884 122.53C52.4884 123.07 52.6984 123.51 53.1184 123.85C53.5384 124.19 54.1484 124.36 54.9484 124.36ZM67.0121 127V112.12H70.7321V113.74H71.2721C71.5321 113.24 71.9621 112.81 72.5621 112.45C73.1621 112.07 73.9521 111.88 74.9321 111.88C75.9921 111.88 76.8421 112.09 77.4821 112.51C78.1221 112.91 78.6121 113.44 78.9521 114.1H79.4921C79.8321 113.46 80.3121 112.93 80.9321 112.51C81.5521 112.09 82.4321 111.88 83.5721 111.88C84.4921 111.88 85.3221 112.08 86.0621 112.48C86.8221 112.86 87.4221 113.45 87.8621 114.25C88.3221 115.03 88.5521 116.02 88.5521 117.22V127H84.7721V117.49C84.7721 116.67 84.5621 116.06 84.1421 115.66C83.7221 115.24 83.1321 115.03 82.3721 115.03C81.5121 115.03 80.8421 115.31 80.3621 115.87C79.9021 116.41 79.6721 117.19 79.6721 118.21V127H75.8921V117.49C75.8921 116.67 75.6821 116.06 75.2621 115.66C74.8421 115.24 74.2521 115.03 73.4921 115.03C72.6321 115.03 71.9621 115.31 71.4821 115.87C71.0221 116.41 70.7921 117.19 70.7921 118.21V127H67.0121ZM99.3976 127.42C97.9176 127.42 96.6076 127.11 95.4676 126.49C94.3476 125.85 93.4676 124.96 92.8276 123.82C92.2076 122.66 91.8976 121.3 91.8976 119.74V119.38C91.8976 117.82 92.2076 116.47 92.8276 115.33C93.4476 114.17 94.3176 113.28 95.4376 112.66C96.5576 112.02 97.8576 111.7 99.3376 111.7C100.798 111.7 102.068 112.03 103.148 112.69C104.228 113.33 105.068 114.23 105.668 115.39C106.268 116.53 106.568 117.86 106.568 119.38V120.67H95.7376C95.7776 121.69 96.1576 122.52 96.8776 123.16C97.5976 123.8 98.4776 124.12 99.5176 124.12C100.578 124.12 101.358 123.89 101.858 123.43C102.358 122.97 102.738 122.46 102.998 121.9L106.088 123.52C105.808 124.04 105.398 124.61 104.858 125.23C104.338 125.83 103.638 126.35 102.758 126.79C101.878 127.21 100.758 127.42 99.3976 127.42ZM95.7676 117.85H102.728C102.648 116.99 102.298 116.3 101.678 115.78C101.078 115.26 100.288 115 99.3076 115C98.2876 115 97.4776 115.26 96.8776 115.78C96.2776 116.3 95.9076 116.99 95.7676 117.85ZM111.073 127L108.973 112.12H112.723L114.043 124.45H114.583L116.503 112.12H122.563L124.483 124.45H125.023L126.343 112.12H130.093L127.993 127H121.723L119.803 114.67H119.263L117.343 127H111.073ZM140.42 127.42C138.94 127.42 137.61 127.12 136.43 126.52C135.25 125.92 134.32 125.05 133.64 123.91C132.96 122.77 132.62 121.4 132.62 119.8V119.32C132.62 117.72 132.96 116.35 133.64 115.21C134.32 114.07 135.25 113.2 136.43 112.6C137.61 112 138.94 111.7 140.42 111.7C141.9 111.7 143.23 112 144.41 112.6C145.59 113.2 146.52 114.07 147.2 115.21C147.88 116.35 148.22 117.72 148.22 119.32V119.8C148.22 121.4 147.88 122.77 147.2 123.91C146.52 125.05 145.59 125.92 144.41 126.52C143.23 127.12 141.9 127.42 140.42 127.42ZM140.42 124.06C141.58 124.06 142.54 123.69 143.3 122.95C144.06 122.19 144.44 121.11 144.44 119.71V119.41C144.44 118.01 144.06 116.94 143.3 116.2C142.56 115.44 141.6 115.06 140.42 115.06C139.26 115.06 138.3 115.44 137.54 116.2C136.78 116.94 136.4 118.01 136.4 119.41V119.71C136.4 121.11 136.78 122.19 137.54 122.95C138.3 123.69 139.26 124.06 140.42 124.06ZM151.709 127V112.12H155.429V113.8H155.969C156.189 113.2 156.549 112.76 157.049 112.48C157.569 112.2 158.169 112.06 158.849 112.06H160.649V115.42H158.789C157.829 115.42 157.039 115.68 156.419 116.2C155.799 116.7 155.489 117.48 155.489 118.54V127H151.709ZM163.604 127V106H167.384V117.61H167.924L172.844 112.12H177.764L170.894 119.32L178.004 127H173.144L167.924 121.09H167.384V127H163.604Z" fill="white"/>
<rect x="297.5" y="0.5" width="194" height="194" rx="97" fill="#0B1518" stroke="#3DC1F2"/>
<path d="M365.208 52.0001C374.257 52.0001 381.361 59.1314 381.361 68.1807C381.361 77.2569 374.203 84.3882 365.1 84.3612C356.077 84.3342 348.973 77.1758 349 68.1266C349.027 59.1044 356.158 52.0001 365.208 52.0001ZM365.181 71.4222C367.099 71.4222 368.395 70.0986 368.395 68.1807C368.395 66.2628 367.071 64.9662 365.154 64.9662C363.236 64.9662 361.939 66.2898 361.939 68.2077C361.939 70.1256 363.263 71.4222 365.181 71.4222Z" fill="#3DC1F2"/>
<path d="M375.283 142.627C372.771 142.627 371.637 141.493 371.637 138.981C371.637 133.713 371.637 128.473 371.637 123.205C371.637 122.584 371.529 122.179 370.961 121.801C368.773 120.261 367.882 117.344 368.692 114.777C369.53 112.13 372.015 110.293 374.77 110.266C377.552 110.239 380.038 111.968 380.956 114.615C381.847 117.181 381.064 120.072 378.903 121.693C378.282 122.152 378.066 122.584 378.093 123.34C378.12 127.203 378.12 131.093 378.12 134.956C378.12 135.307 378.12 135.685 378.12 136.117C392.193 136.117 406.105 136.117 420.178 136.117C420.178 135.793 420.178 135.469 420.178 135.145C420.178 131.147 420.178 127.122 420.205 123.124C420.205 122.53 420.043 122.179 419.53 121.801C417.342 120.261 416.423 117.371 417.234 114.777C418.071 112.13 420.556 110.266 423.285 110.239C426.067 110.212 428.552 111.941 429.498 114.561C430.416 117.154 429.606 120.072 427.391 121.693C426.796 122.125 426.634 122.584 426.634 123.259C426.661 128.473 426.661 133.713 426.634 138.927C426.634 141.439 425.5 142.573 422.988 142.573" fill="#3DC1F2"/>
<path d="M413.722 84.3612C404.673 84.3612 397.542 77.2298 397.542 68.2076C397.542 59.1044 404.673 51.9731 413.776 52.0001C422.826 52.0271 429.903 59.1584 429.903 68.2076C429.876 77.2568 422.772 84.3612 413.722 84.3612ZM410.481 68.1806C410.481 66.2627 409.184 64.9391 407.239 64.9391C405.321 64.9391 403.998 66.2357 403.998 68.1806C403.998 70.0985 405.294 71.4221 407.239 71.4221C409.184 71.4221 410.481 70.0985 410.481 68.1806ZM416.964 68.0996C416.937 70.0445 418.206 71.3951 420.124 71.4221C422.069 71.4491 423.393 70.1795 423.447 68.2617C423.474 66.3167 422.204 64.9661 420.286 64.9391C418.341 64.9121 416.991 66.1817 416.964 68.0996Z" fill="#3DC1F2"/>
<path d="M368.422 132.903C366.072 132.903 363.884 132.957 361.696 132.876C359.832 132.822 358.725 131.525 358.698 129.499C358.698 121.503 358.698 113.508 358.698 105.539C358.698 103.918 358.698 102.297 358.698 100.542C359.049 100.542 359.373 100.542 359.697 100.542C368.935 100.542 378.174 100.542 387.412 100.542C389.924 100.542 391.059 101.676 391.059 104.161C391.059 112.535 391.059 120.882 391.059 129.256C391.059 131.768 389.924 132.903 387.412 132.903C385.44 132.903 383.441 132.903 381.334 132.903C381.334 130.85 381.334 128.878 381.334 126.906C381.334 126.663 381.361 126.42 381.334 126.204C381.172 124.772 381.55 123.664 382.55 122.503C385.116 119.504 385.224 114.966 383.117 111.536C381.037 108.132 377.012 106.457 372.879 107.241C368.962 107.997 365.991 111.023 365.316 114.966C364.775 118.235 365.613 121.098 367.963 123.502C368.152 123.691 368.368 123.989 368.368 124.259C368.422 127.068 368.422 129.931 368.422 132.903Z" fill="#3DC1F2"/>
<path d="M439.6 129.31C439.6 131.768 438.466 132.903 436.035 132.93C434.144 132.93 432.253 132.93 430.362 132.93C430.254 132.93 430.173 132.903 429.903 132.903C429.903 132.417 429.903 131.93 429.903 131.444C429.903 129.175 429.876 126.933 429.93 124.664C429.93 124.259 430.119 123.746 430.389 123.448C434.036 119.64 434.036 113.562 430.335 109.861C426.634 106.16 420.286 106.133 416.532 109.807C412.777 113.508 412.75 119.613 416.451 123.475C416.694 123.719 416.883 124.097 416.91 124.421C416.937 127.23 416.937 130.012 416.937 132.957C414.533 132.957 412.264 133.038 409.967 132.93C408.239 132.849 407.239 131.525 407.212 129.661C407.185 125.123 407.212 120.558 407.212 116.02C407.212 111.293 407.212 106.593 407.212 101.865C407.212 101.487 407.212 101.136 407.212 100.65C407.644 100.65 407.996 100.65 408.347 100.65C417.504 100.65 426.688 100.65 435.846 100.65C438.439 100.65 439.573 101.757 439.573 104.323" fill="#3DC1F2"/>
<path d="M349.081 94.1396C351.161 96.2196 353.16 98.1915 355.105 100.19C355.321 100.407 355.456 100.785 355.456 101.082C355.483 110.509 355.483 119.937 355.483 129.472C355.321 129.391 355.186 129.364 355.132 129.283C353.214 127.392 351.296 125.474 349.432 123.556C349.216 123.313 349.054 122.908 349.054 122.584C349 113.265 349 103.945 349 94.6259C349 94.5178 349.027 94.4368 349.081 94.1396Z" fill="#3DC1F2"/>
<path d="M397.596 94.0857C399.73 96.2197 401.702 98.2186 403.647 100.218C403.836 100.407 403.971 100.731 403.971 101.001C403.998 110.455 403.998 119.937 403.998 129.661C403.43 129.094 402.971 128.662 402.539 128.203C401.026 126.69 399.514 125.204 398.055 123.691C397.785 123.421 397.542 122.962 397.542 122.584C397.515 113.292 397.515 103.999 397.515 94.68C397.542 94.5719 397.569 94.4369 397.596 94.0857Z" fill="#3DC1F2"/>
<path d="M352.323 90.8442C352.836 90.8442 353.16 90.8442 353.484 90.8442C362.452 90.8442 371.421 90.8442 380.389 90.8171C381.091 90.8171 381.577 91.0062 382.063 91.4925C383.684 93.1672 385.332 94.788 386.98 96.4358C387.196 96.6519 387.412 96.895 387.763 97.3002C387.25 97.3002 386.926 97.3002 386.602 97.3002C377.633 97.3002 368.665 97.3002 359.697 97.3272C358.995 97.3272 358.509 97.1651 358.022 96.6519C356.402 94.9771 354.754 93.3563 353.106 91.7086C352.89 91.4925 352.674 91.2223 352.323 90.8442Z" fill="#3DC1F2"/>
<path d="M400.891 90.8442C401.377 90.8442 401.702 90.8442 402.026 90.8442C410.994 90.8442 419.962 90.8442 428.93 90.8171C429.633 90.8171 430.119 91.0062 430.605 91.5195C432.442 93.4103 434.333 95.2472 436.332 97.2191C435.927 97.2731 435.71 97.3002 435.467 97.3272C426.337 97.3272 417.207 97.3272 408.077 97.3272C407.671 97.3272 407.185 97.1921 406.915 96.949C404.997 95.1121 403.133 93.1942 401.242 91.3034C401.134 91.1953 401.08 91.0873 400.891 90.8442Z" fill="#3DC1F2"/>
</svg>
