<svg width="56" height="56" viewBox="0 0 56 56" fill="none" xmlns="http://www.w3.org/2000/svg">
<path fill-rule="evenodd" clip-rule="evenodd" d="M12.313 4.6297C16.4108 1.87158 21.2966 0.216709 26.537 0V11.0325C23.7001 11.2098 21.0602 12.116 18.7946 13.5542L12.313 4.6297Z" fill="#3DC1F2"/>
<path fill-rule="evenodd" clip-rule="evenodd" d="M1.71362 18.0263C3.4867 13.2192 6.56003 9.04267 10.5199 5.92993L17.0015 14.8544C14.8935 16.6078 13.2386 18.8734 12.2142 21.4542L1.71362 18.0263Z" fill="#3DC1F2"/>
<path fill-rule="evenodd" clip-rule="evenodd" d="M1.02444 35.1067C0.354615 32.7229 0 30.2209 0 27.6204C0 25.0198 0.354615 22.5178 1.02444 20.134L11.525 23.5423C11.1901 24.8425 11.0128 26.2019 11.0128 27.6204C11.0128 29.0191 11.1901 30.3982 11.525 31.6984L1.02444 35.1067Z" fill="#3DC1F2"/>
<path fill-rule="evenodd" clip-rule="evenodd" d="M10.5199 49.331C6.57973 46.2182 3.4867 42.0417 1.71362 37.2347L12.2142 33.8264C13.2386 36.4072 14.9132 38.6728 17.0015 40.4262L10.5199 49.331Z" fill="#3DC1F2"/>
<path fill-rule="evenodd" clip-rule="evenodd" d="M26.537 55.2606C21.2769 55.0439 16.4108 53.389 12.313 50.6309L18.7946 41.7064C21.0602 43.1446 23.7001 44.0311 26.537 44.2281V55.2606Z" fill="#3DC1F2"/>
<path fill-rule="evenodd" clip-rule="evenodd" d="M42.9873 50.6309C38.8895 53.3693 34.0037 55.0439 28.7633 55.2606V44.2281C31.6002 44.0508 34.2401 43.1446 36.5057 41.7064L42.9873 50.6309Z" fill="#3DC1F2"/>
<path fill-rule="evenodd" clip-rule="evenodd" d="M53.5864 37.2147C51.8134 42.0217 48.74 46.1983 44.7802 49.311L38.2986 40.3865C40.4066 38.6332 42.0614 36.3676 43.0859 33.7867L53.5864 37.2147Z" fill="#3DC1F2"/>
<path fill-rule="evenodd" clip-rule="evenodd" d="M54.2762 20.134C54.946 22.5178 55.3006 25.0198 55.3006 27.6204C55.3006 30.2209 54.946 32.7229 54.2762 35.1067L43.7756 31.6984C44.1105 30.3982 44.2879 29.0388 44.2879 27.6204C44.2879 26.2216 44.1105 24.8425 43.7756 23.5423L54.2762 20.134Z" fill="#3DC1F2"/>
<path fill-rule="evenodd" clip-rule="evenodd" d="M44.7997 5.92993C48.7399 9.04267 51.8329 13.2192 53.606 18.0263L43.1054 21.4345C42.081 18.8537 40.4064 16.5881 38.3181 14.8347L44.7997 5.92993Z" fill="#3DC1F2"/>
<path fill-rule="evenodd" clip-rule="evenodd" d="M28.7633 0C34.0234 0.216709 38.8895 1.87158 42.9873 4.6297L36.5057 13.5542C34.2401 12.116 31.6002 11.2098 28.7633 11.0325V0Z" fill="#3DC1F2"/>
<path d="M16.6772 29.0205H15.9373L15.4169 28.3212H14.2541V29.0205H13.6605V27.7195H15.7015C15.8072 27.7195 15.8966 27.6789 15.9698 27.6057C16.043 27.5325 16.0836 27.443 16.0836 27.3373C16.0836 27.2316 16.043 27.1422 15.9698 27.0609C15.8966 26.9796 15.8072 26.947 15.7015 26.947H13.6605V26.3535H15.7015C15.8397 26.3535 15.9617 26.3778 16.0836 26.4348C16.3276 26.5405 16.4983 26.7194 16.604 26.9552C16.6528 27.0853 16.6854 27.2072 16.6854 27.3373C16.6854 27.4593 16.661 27.5894 16.604 27.7195C16.4983 27.9553 16.3276 28.1261 16.0999 28.2318L16.6772 29.0205Z" fill="#3DC1F2"/>
<path d="M20.7184 29.0205H20.0354L18.9702 27.1097L17.8969 29.0205H17.2139L18.71 26.3535H19.2304L20.7184 29.0205Z" fill="#3DC1F2"/>
<path d="M24.7597 29.0205H24.1661V27.2723L23.2554 28.5733H22.7675L21.8568 27.2723V29.0124H21.2551V26.3535H21.93L23.0034 27.8903L24.0848 26.3535H24.7597V29.0205Z" fill="#3DC1F2"/>
<path d="M28.5163 26.9633H25.4996V26.3616H28.5163V26.9633ZM28.5163 29.0206H25.4996V28.427H28.5163V29.0206ZM28.2724 27.9879H25.7354V27.3943H28.2724V27.9879Z" fill="#3DC1F2"/>
<path d="M31.2646 29.0205H29.9799C29.8661 29.0205 29.7522 28.9961 29.6465 28.9555C29.4351 28.8742 29.2806 28.7278 29.183 28.5245C29.1343 28.4269 29.1099 28.3131 29.1099 28.1993H29.7116C29.7116 28.2481 29.7278 28.2887 29.7522 28.3212C29.7766 28.3538 29.8173 28.3782 29.8579 28.3944C29.8986 28.4107 29.9393 28.4188 29.9799 28.4188H31.2646C31.3053 28.4188 31.346 28.4107 31.3866 28.3944C31.4273 28.3782 31.4598 28.3538 31.4923 28.3212C31.5249 28.2887 31.533 28.2481 31.533 28.1993C31.533 28.1505 31.5167 28.118 31.4923 28.0854C31.4679 28.0529 31.4273 28.0285 31.3866 28.0122C31.346 27.996 31.3053 27.9879 31.2646 27.9879H29.9799C29.8661 27.9879 29.7522 27.9716 29.6465 27.9228C29.4351 27.8415 29.2806 27.6951 29.183 27.4918C29.1343 27.3943 29.1099 27.2804 29.1099 27.1666C29.1099 27.0528 29.1343 26.9471 29.183 26.8413C29.2806 26.6381 29.4351 26.4917 29.6465 26.4104C29.7522 26.3697 29.8579 26.3453 29.9799 26.3453H31.2646C31.3785 26.3453 31.4923 26.3616 31.598 26.4104C31.8094 26.4917 31.9639 26.6381 32.0615 26.8413C32.1103 26.9389 32.1347 27.0528 32.1347 27.1666H31.5411C31.5411 27.1178 31.5249 27.0853 31.5005 27.0528C31.4761 27.0202 31.4354 26.9958 31.3948 26.9796C31.3541 26.9633 31.3134 26.9552 31.2728 26.9552H29.988C29.9474 26.9552 29.9067 26.9633 29.8661 26.9796C29.8254 26.9958 29.7929 27.0202 29.7604 27.0528C29.7278 27.0853 29.7197 27.1259 29.7197 27.1666C29.7197 27.2154 29.736 27.256 29.7604 27.2886C29.7848 27.3211 29.8254 27.3455 29.8661 27.3617C29.9067 27.378 29.9474 27.3861 29.988 27.3861H31.2728C31.3866 27.3861 31.5005 27.4105 31.6062 27.4512C31.8176 27.5325 31.9721 27.6789 32.0696 27.8821C32.1184 27.9797 32.1428 28.0854 32.1428 28.1993C32.1428 28.3131 32.1184 28.4188 32.0696 28.5245C31.9721 28.7278 31.8176 28.8742 31.6062 28.9555C31.4842 28.9961 31.3785 29.0205 31.2646 29.0205Z" fill="#3DC1F2"/>
<path d="M34.257 29.0205H33.6634V26.947H32.6876V26.3535H35.2246V26.947H34.257V29.0205Z" fill="#3DC1F2"/>
<path d="M37.4282 29.0205H36.8346V26.947H35.8589V26.3535H38.3958V26.947H37.4282V29.0205Z" fill="#3DC1F2"/>
<path d="M41.5914 29.0205H40.9083L39.8431 27.1097L38.7698 29.0205H38.0868L39.5748 26.3535H40.0952L41.5914 29.0205Z" fill="#3DC1F2"/>
</svg>
