<svg width="26" height="26" viewBox="0 0 26 26" fill="none" xmlns="http://www.w3.org/2000/svg">
<g clip-path="url(#clip0_778_28)">
<path d="M13.2323 18.1373C13.2323 18.5996 13.2367 19.062 13.2294 19.5241C13.2274 19.6512 13.2662 19.7225 13.372 19.7879C13.9157 20.1238 14.4518 20.4729 14.996 20.8079C15.1374 20.895 15.1948 20.9996 15.1933 21.1698C15.1869 21.8795 15.188 22.5893 15.193 23.299C15.194 23.4511 15.1466 23.5531 15.022 23.6385C14.4052 24.0616 13.7913 24.4895 13.1806 24.9221C13.0362 25.0243 12.9144 25.0268 12.769 24.924C12.1581 24.4916 11.5443 24.0637 10.9276 23.6404C10.8058 23.5566 10.7486 23.4583 10.7497 23.3035C10.7547 22.5873 10.7548 21.871 10.7499 21.1548C10.7455 21.0868 10.7602 21.0191 10.7924 20.9598C10.8246 20.9005 10.8728 20.8524 10.9311 20.8212C11.4899 20.4735 12.0432 20.1162 12.6028 19.7701C12.7226 19.6961 12.7768 19.6185 12.7755 19.4646C12.7683 18.5792 12.7731 17.6936 12.7758 16.8081C12.7761 16.7312 12.7653 16.6286 12.8063 16.5838C12.8663 16.518 12.9695 16.4572 13.0522 16.4601C13.1802 16.4645 13.2362 16.5777 13.2359 16.7113C13.2352 17.0825 13.2345 17.4536 13.2339 17.8247C13.2337 17.9289 13.2337 18.0331 13.2339 18.1373H13.2323ZM14.5187 21.0761C14.0145 20.7572 13.535 20.4498 13.0493 20.1535C13.0033 20.1255 12.9065 20.147 12.8526 20.1799C12.4798 20.4068 12.1119 20.6427 11.743 20.8765C11.6453 20.9385 11.5494 21.0034 11.4322 21.0804C11.9389 21.4168 12.417 21.7379 12.9008 22.0494C12.9417 22.0758 13.0313 22.0584 13.0793 22.0286C13.3211 21.8783 13.5569 21.7174 13.7943 21.5596C14.0303 21.4028 14.2656 21.2451 14.5187 21.0761ZM13.2047 24.3201C13.7146 23.9641 14.1892 23.6371 14.6567 23.2995C14.7036 23.2656 14.7272 23.1679 14.7282 23.0992C14.7346 22.6694 14.7314 22.2394 14.7314 21.8095V21.5117C14.2176 21.8531 13.7428 22.1668 13.2713 22.4858C13.2526 22.5012 13.2373 22.5204 13.2263 22.5424C13.2152 22.5643 13.2088 22.5884 13.2073 22.6131C13.2031 23.1651 13.2046 23.7173 13.2046 24.3202L13.2047 24.3201ZM12.7406 24.3174C12.7406 23.7141 12.7434 23.1508 12.7356 22.5877C12.735 22.5405 12.6716 22.4826 12.6245 22.4498C12.4165 22.305 12.2037 22.1679 11.9927 22.0278C11.7467 21.8645 11.5009 21.7011 11.2195 21.5143C11.2195 21.8274 11.218 22.0981 11.2198 22.3686C11.2218 22.661 11.1366 23.0044 11.2555 23.2317C11.3781 23.466 11.6994 23.5893 11.9363 23.7574C12.1924 23.9392 12.4515 24.1165 12.7405 24.3174H12.7406Z" fill="black"/>
<path d="M22.997 8.24096C22.997 8.59236 22.9918 8.94389 22.9994 9.2951C23.0029 9.45662 22.9437 9.56084 22.8154 9.64897C22.2044 10.0686 21.5963 10.4929 20.9911 10.9217C20.831 11.0358 20.7028 11.0243 20.5479 10.9139C20.0061 10.5271 19.456 10.1532 18.9139 9.76719C18.816 9.6974 18.7482 9.69729 18.6496 9.76367C18.2396 10.0391 17.8242 10.3056 17.4098 10.5738C17.2319 10.689 17.0962 10.6741 17.0188 10.5359C16.9447 10.4038 16.9904 10.2768 17.1581 10.1671C17.5765 9.89331 17.9939 9.61787 18.4167 9.3512C18.5204 9.28579 18.5609 9.21428 18.5596 9.08687C18.5533 8.47524 18.5663 7.86326 18.5521 7.25191C18.5468 7.01962 18.6244 6.88564 18.8164 6.76957C19.406 6.41319 19.9865 6.04027 20.5659 5.66613C20.7116 5.57225 20.8315 5.56685 20.9801 5.66296C21.5805 6.05155 22.1846 6.43369 22.7925 6.80939C22.9386 6.89976 23.0048 7.00835 23 7.18693C22.9902 7.53814 22.9969 7.88955 22.997 8.24096ZM19.2289 7.08162C19.7337 7.41699 20.2169 7.74156 20.7059 8.05647C20.7466 8.08264 20.8377 8.06304 20.8858 8.03194C21.3269 7.74606 21.7638 7.45321 22.2012 7.16127C22.2375 7.13309 22.2722 7.10264 22.3049 7.07008C21.8079 6.7567 21.327 6.452 20.8433 6.15234C20.8225 6.14157 20.7998 6.13573 20.7766 6.13523C20.7534 6.13473 20.7304 6.13959 20.7093 6.14945C20.2209 6.45262 19.7357 6.76116 19.2289 7.08162ZM21.0074 10.3232C21.5162 9.96846 21.9895 9.64209 22.4568 9.3066C22.5002 9.27531 22.5244 9.18721 22.5253 9.12497C22.5312 8.71508 22.5283 8.30507 22.5283 7.89511C22.5283 7.7824 22.5283 7.66966 22.5283 7.51956C22.016 7.8599 21.5418 8.17285 21.0712 8.49151C21.053 8.50716 21.0382 8.52659 21.0277 8.54855C21.0172 8.57051 21.0113 8.59451 21.0103 8.61901C21.006 9.17145 21.0074 9.72408 21.0074 10.3232ZM20.54 10.3214C20.54 9.71849 20.5432 9.16081 20.5347 8.60328C20.5339 8.55051 20.4687 8.48439 20.4176 8.44922C20.1257 8.24823 19.8291 8.05459 19.5339 7.8588C19.373 7.75209 19.2117 7.64607 19.02 7.51952C19.02 8.10631 19.0184 8.65026 19.0234 9.19421C19.0276 9.21855 19.0364 9.24176 19.0495 9.26242C19.0626 9.28307 19.0795 9.30075 19.0994 9.31435C19.5639 9.64276 20.0311 9.96674 20.54 10.3214Z" fill="black"/>
<path d="M22.9967 17.5768C22.9969 17.9348 22.9932 18.293 22.9987 18.6509C23.001 18.7948 22.9563 18.8974 22.8386 18.9784C22.2125 19.4103 21.5882 19.8451 20.9659 20.283C20.8341 20.3756 20.7182 20.3778 20.5862 20.285C19.9639 19.8472 19.3397 19.4123 18.7136 18.9804C18.5945 18.8982 18.5544 18.7956 18.5552 18.653C18.559 18.015 18.5533 17.377 18.5596 16.7391C18.5609 16.6113 18.5231 16.5396 18.4146 16.4783C17.9856 16.2358 17.5614 15.9845 17.1365 15.7343C16.9621 15.6316 16.9128 15.5081 16.9849 15.3733C17.0571 15.2385 17.1895 15.2137 17.3592 15.3119C17.7859 15.5588 18.2131 15.8048 18.6352 16.0599C18.7404 16.1234 18.816 16.1272 18.9223 16.0582C19.4642 15.707 20.0148 15.3703 20.5564 15.0183C20.7083 14.9196 20.8308 14.9115 20.9865 15.0126C21.5864 15.4022 22.1907 15.7847 22.7993 16.16C22.9392 16.2466 23.0031 16.3516 22.9991 16.5222C22.9909 16.8736 22.9966 17.2253 22.9967 17.5768ZM22.3064 16.4376C22.292 16.4205 22.2764 16.4045 22.2598 16.3899C21.9718 16.2069 21.6841 16.0234 21.3951 15.842C21.1921 15.7147 20.9863 15.49 20.7836 15.4922C20.5723 15.4945 20.3618 15.7142 20.1536 15.8436C19.8514 16.0314 19.5517 16.2236 19.2293 16.4276L20.7746 17.4545L22.3064 16.4376ZM19.0196 16.8645C19.0196 17.4466 19.0159 17.9794 19.0248 18.5121C19.0258 18.5721 19.0858 18.649 19.139 18.687C19.5616 18.9891 19.989 19.284 20.4158 19.5799C20.4562 19.6033 20.4981 19.6239 20.5412 19.6416C20.5412 19.2149 20.5127 18.8094 20.5492 18.4103C20.5856 18.0113 20.466 17.7657 20.1164 17.5806C19.7464 17.3848 19.4088 17.1226 19.0196 16.8646V16.8645ZM22.5274 16.8909C22.4974 16.8998 22.4681 16.9112 22.44 16.9251C21.9912 17.2219 21.541 17.5165 21.0972 17.8212C21.071 17.8451 21.0498 17.8743 21.035 17.9071C21.0202 17.9398 21.0121 17.9754 21.0112 18.0116C21.0042 18.5124 21.0071 19.0135 21.0084 19.5144C21.0123 19.5613 21.0193 19.6079 21.0294 19.6537C21.5154 19.3153 21.9835 18.9909 22.4488 18.6623C22.4686 18.6487 22.4855 18.6309 22.4985 18.6102C22.5114 18.5895 22.5202 18.5662 22.5241 18.5419C22.5291 17.9976 22.5274 17.4531 22.5274 16.8911V16.8909Z" fill="black"/>
<path d="M3.00311 8.08675C3.00311 7.73515 3.00729 7.38346 3.00127 7.03198C2.99867 6.88004 3.04581 6.77501 3.17503 6.6945C3.798 6.30623 4.41868 5.91399 5.03706 5.51779C5.17185 5.43146 5.28646 5.43635 5.41971 5.52171C6.02737 5.9111 6.63757 6.29616 7.2503 6.67689C7.39134 6.76425 7.44609 6.87155 7.44409 7.04133C7.43682 7.67932 7.44473 8.31751 7.43822 8.95555C7.43387 9.00946 7.44457 9.06352 7.46904 9.11128C7.4935 9.15903 7.5307 9.19845 7.57617 9.22481C8.00313 9.52137 8.42505 9.82579 8.84716 10.1298C8.99159 10.2338 9.02788 10.3737 8.95047 10.4948C8.8699 10.6211 8.73149 10.6325 8.57234 10.5197C8.1636 10.2299 7.7537 9.94174 7.35045 9.64385C7.24755 9.56784 7.17903 9.56373 7.07217 9.63994C6.53034 10.0272 5.97894 10.4 5.43706 10.7873C5.28488 10.896 5.16327 10.8946 5.01161 10.7866C4.41223 10.3598 3.80881 9.93934 3.20135 9.52504C3.06027 9.42877 2.9954 9.31838 3.00025 9.1412C3.00978 8.79011 3.00304 8.43831 3.00311 8.08675ZM6.77198 6.94541C6.25466 6.61876 5.76546 6.30683 5.27099 6.00412C5.23544 5.98233 5.15427 6.01531 5.10672 6.04457C4.78348 6.24349 4.46333 6.44789 4.14285 6.65131C3.99578 6.74465 3.84981 6.83983 3.68181 6.94803C4.19251 7.28672 4.6758 7.60957 5.16346 7.92565C5.19757 7.94776 5.27264 7.93681 5.31071 7.91189C5.78782 7.60062 6.26166 7.28426 6.7721 6.94541H6.77198ZM6.98196 7.38123C6.4707 7.72051 5.99584 8.03186 5.52709 8.35288C5.48402 8.38237 5.46176 8.47317 5.46082 8.53599C5.45499 8.9327 5.45789 9.32956 5.45792 9.72639V10.1855C5.97374 9.82689 6.45191 9.49582 6.92722 9.16061C6.94305 9.14639 6.95589 9.12892 6.96492 9.10931C6.97395 9.08969 6.97898 9.06835 6.9797 9.04662C6.9832 8.50763 6.98207 7.96876 6.98207 7.38123H6.98196ZM3.47322 7.38464C3.47322 7.96634 3.47002 8.5045 3.47808 9.04251C3.47891 9.09775 3.53622 9.16851 3.58588 9.20388C4.00855 9.50509 4.43532 9.79986 4.86168 10.0953C4.90363 10.1194 4.94707 10.1406 4.99173 10.1587C4.99173 9.57836 4.99286 9.02123 4.98913 8.46413C4.9873 8.44254 4.98111 8.4216 4.97097 8.40266C4.96083 8.38372 4.94697 8.36721 4.93028 8.35421C4.45946 8.03738 3.98596 7.72466 3.47334 7.38464H3.47322Z" fill="black"/>
<path d="M3.00304 17.4459C3.00304 17.0878 3.00744 16.7295 3.001 16.3714C2.99591 16.3035 3.0103 16.2355 3.04235 16.1761C3.0744 16.1167 3.12268 16.0685 3.18109 16.0376C3.79887 15.6525 4.41426 15.2634 5.02727 14.8701C5.16891 14.7788 5.28627 14.7819 5.42588 14.8719C5.97419 15.2253 6.52905 15.5682 7.07684 15.922C7.18012 15.9887 7.25696 15.9941 7.36453 15.931C7.75716 15.7008 8.15565 15.4812 8.55291 15.2596C8.7287 15.1615 8.85596 15.1821 8.92968 15.3146C9.00589 15.4516 8.94979 15.5846 8.76809 15.6874C8.37188 15.9112 7.97655 16.1367 7.57685 16.3535C7.47349 16.4096 7.43773 16.4774 7.43878 16.5971C7.44413 17.2158 7.4334 17.8347 7.44563 18.4532C7.44974 18.6617 7.37948 18.7857 7.21378 18.8977C6.61513 19.3021 6.02329 19.7181 5.43337 20.1364C5.28932 20.2386 5.16918 20.2446 5.02271 20.1408C4.40689 19.7041 3.78792 19.2723 3.1658 18.8453C3.11195 18.8125 3.068 18.7647 3.03891 18.7073C3.00983 18.6499 2.99678 18.5853 3.00123 18.5206C3.0068 18.1624 3.00304 17.8041 3.00304 17.4459ZM3.67827 16.2921C4.18701 16.6296 4.66612 16.949 5.14805 17.2639C5.1678 17.2761 5.18994 17.2836 5.21284 17.2858C5.23575 17.288 5.25883 17.2848 5.2804 17.2765C5.77137 16.9572 6.25887 16.6321 6.7716 16.292C6.26057 15.9687 5.77607 15.6603 5.28842 15.3576C5.26705 15.3479 5.24388 15.3432 5.22058 15.344C5.19729 15.3448 5.17444 15.3509 5.1537 15.3619C4.6712 15.6621 4.19164 15.9672 3.67827 16.2921ZM5.45916 19.5315C5.97246 19.1738 6.44596 18.8476 6.91332 18.512C6.95628 18.4812 6.97823 18.3916 6.97902 18.3288C6.98463 17.8803 6.98219 17.4317 6.9823 16.9831V16.7269C6.46964 17.0672 5.99584 17.3805 5.52445 17.6977C5.50727 17.7102 5.49283 17.7264 5.48206 17.7452C5.47128 17.764 5.46442 17.7848 5.46191 17.8065C5.45815 18.3638 5.45946 18.9211 5.45946 19.5315H5.45916ZM3.47303 16.7312C3.47303 17.3084 3.46927 17.8412 3.47808 18.3739C3.4791 18.4348 3.53682 18.5137 3.58987 18.5517C4.01751 18.8577 4.45012 19.1561 4.88209 19.4556C4.91745 19.4748 4.95433 19.4909 4.99233 19.5035C4.99233 18.9318 4.99372 18.3795 4.98962 17.8273C4.98849 17.8027 4.98241 17.7786 4.97178 17.7566C4.96116 17.7347 4.94621 17.7152 4.92791 17.6996C4.45723 17.3818 3.98324 17.0693 3.47303 16.7312Z" fill="black"/>
<path d="M15.1905 3.66062C15.1905 4.01206 15.1852 4.36363 15.193 4.71488C15.1964 4.86924 15.1416 4.96845 15.0187 5.05267C14.4596 5.43604 13.9064 5.82887 13.347 6.21154C13.2461 6.28058 13.2059 6.35213 13.2103 6.47986C13.2247 6.89597 13.2254 7.31262 13.231 7.72909C13.2342 7.97522 13.1681 8.08206 13.0111 8.08726C12.8523 8.09254 12.7768 7.98438 12.7718 7.74575C12.763 7.32937 12.7492 6.91298 12.7479 6.49656C12.7476 6.36575 12.7103 6.28532 12.6021 6.21161C12.047 5.83372 11.5002 5.44269 10.9448 5.06543C10.8022 4.96845 10.7475 4.85418 10.7491 4.67881C10.7561 3.98249 10.7562 3.28617 10.7493 2.58984C10.7477 2.42077 10.8023 2.31163 10.9429 2.22435C11.5557 1.84432 12.1655 1.45923 12.7723 1.06909C12.9123 0.979112 13.0298 0.976219 13.1709 1.06698C13.783 1.46062 14.398 1.84933 15.0158 2.23312C15.1446 2.31319 15.1954 2.41385 15.1925 2.56755C15.1859 2.93163 15.1906 3.29614 15.1905 3.66062ZM11.4272 2.48896C11.937 2.82749 12.4099 3.14549 12.8888 3.45309C12.9344 3.48243 13.0325 3.4701 13.0828 3.43779C13.5035 3.1676 13.9187 2.88829 14.3354 2.61136C14.39 2.57506 14.4431 2.53649 14.5157 2.48594C14.007 2.16391 13.5272 1.85851 13.0445 1.55808C13.024 1.54704 13.0014 1.54089 12.9784 1.54005C12.9553 1.53921 12.9323 1.54371 12.9111 1.55323C12.424 1.85589 11.9402 2.16403 11.4272 2.48896ZM14.7305 2.92412C14.2195 3.26313 13.7485 3.57127 13.2843 3.89013C13.2365 3.92295 13.208 4.01961 13.2071 4.08713C13.2009 4.56861 13.2036 5.05025 13.2049 5.5318C13.2049 5.58512 13.2143 5.63844 13.2218 5.71844C13.7218 5.37059 14.1951 5.04258 14.666 4.71085C14.683 4.69807 14.6972 4.68178 14.7078 4.66299C14.7185 4.64421 14.7253 4.62334 14.7278 4.60171C14.7316 4.05772 14.7303 3.51368 14.7303 2.92412H14.7305ZM11.2406 2.94239C11.2317 2.97385 11.2252 3.006 11.2213 3.03854C11.2203 3.54553 11.2157 4.05259 11.2254 4.55938C11.2266 4.62588 11.2875 4.7112 11.3444 4.75274C11.6564 4.98046 11.9758 5.19737 12.2928 5.41777C12.4307 5.51365 12.5688 5.60906 12.7077 5.7053C12.7261 5.67373 12.7371 5.66371 12.7371 5.65362C12.7391 5.11421 12.7432 4.57479 12.7369 4.03546C12.7322 4.00246 12.7211 3.9708 12.7042 3.94243C12.6873 3.91405 12.665 3.88956 12.6387 3.87045C12.4435 3.73001 12.2403 3.60158 12.0398 3.46917C11.7779 3.29638 11.516 3.12402 11.2404 2.94239H11.2406Z" fill="black"/>
<path d="M15.919 11.2732C16.7586 11.2776 17.4017 11.9638 17.3982 12.8516C17.3947 13.7323 16.7375 14.4156 15.8986 14.4108C15.0657 14.406 14.4252 13.7123 14.4309 12.8214C14.4367 11.9484 15.0898 11.2689 15.919 11.2732ZM14.878 12.8337C14.8753 13.4568 15.3234 13.9421 15.9053 13.9463C16.4861 13.9506 16.9483 13.4657 16.9509 12.8499C16.9535 12.2302 16.4985 11.7389 15.9209 11.7376C15.3354 11.7362 14.8808 12.2138 14.8781 12.8337H14.878Z" fill="black"/>
<path d="M8.79236 12.842C8.79236 12.4318 8.79078 12.0216 8.79289 11.6114C8.79406 11.3835 8.86676 11.3072 9.08679 11.3046C9.36248 11.3013 9.63818 11.3011 9.91391 11.3042C10.5855 11.3125 11.053 11.7062 11.1953 12.3891C11.2779 12.7856 11.2684 13.1809 11.1157 13.5591C10.9089 14.0708 10.5311 14.3445 9.9972 14.3666C9.69064 14.3792 9.38322 14.3713 9.07618 14.3689C8.87041 14.3673 8.79477 14.2892 8.79327 14.0725C8.79044 13.6623 8.79244 13.2521 8.79236 12.842ZM9.24794 13.8952C9.53815 13.8952 9.81357 13.915 10.0851 13.8897C10.3656 13.8637 10.5748 13.6937 10.6849 13.4212C10.7643 13.2331 10.8042 13.0295 10.8016 12.8241C10.7991 12.6186 10.7544 12.4161 10.6703 12.2302C10.5724 12.0043 10.4022 11.83 10.1675 11.8045C9.86685 11.7716 9.56037 11.7966 9.24794 11.7966V13.8952Z" fill="black"/>
<path d="M12.9241 11.2856C12.9577 11.3156 13.0696 11.3674 13.1019 11.4519C13.434 12.3213 13.7545 13.1954 14.0745 14.0697C14.1235 14.2031 14.0835 14.3174 13.9494 14.3726C13.814 14.4283 13.7142 14.3678 13.6598 14.2382C13.5923 14.0776 13.5466 13.9066 13.4717 13.7503C13.4541 13.7175 13.4298 13.6893 13.4004 13.6675C13.371 13.6457 13.3374 13.6309 13.3019 13.6242C13.002 13.6112 12.7012 13.6231 12.4011 13.6148C12.2915 13.6118 12.2462 13.6593 12.2148 13.7581C12.1676 13.9059 12.1096 14.05 12.0558 14.1956C12.0024 14.3404 11.9128 14.4329 11.755 14.3747C11.5972 14.3165 11.5786 14.1869 11.6326 14.04C11.945 13.1905 12.2582 12.3413 12.572 11.4923C12.6222 11.3562 12.7089 11.2786 12.9241 11.2856ZM12.8729 12.1088H12.8272C12.7012 12.453 12.575 12.7973 12.4451 13.1525H13.2576C13.1246 12.7917 12.9987 12.4504 12.8729 12.109L12.8729 12.1088Z" fill="black"/>
<path d="M17.9964 19.4787C17.9669 19.5148 17.9253 19.6019 17.8577 19.6427C17.2469 20.0113 16.6319 20.3724 16.0173 20.7341C15.8828 20.8133 15.7563 20.7972 15.6791 20.652C15.6014 20.5054 15.6615 20.3902 15.795 20.3113C16.4033 19.9514 17.0104 19.5891 17.6205 19.2325C17.8084 19.1225 18.0038 19.2299 17.9964 19.4787Z" fill="black"/>
<path d="M8.07205 19.0471C8.17104 19.0945 8.2355 19.1189 8.29386 19.1542C8.87162 19.504 9.44875 19.8549 10.0252 20.2068C10.2037 20.3158 10.2543 20.4508 10.1719 20.5852C10.0932 20.7133 9.96383 20.7292 9.79263 20.6254C9.20426 20.2688 8.6172 19.9097 8.02864 19.5535C7.91396 19.4841 7.8344 19.3871 7.88786 19.253C7.92058 19.1709 8.01016 19.1134 8.07205 19.0471Z" fill="black"/>
<path d="M10.2945 5.35744C10.2643 5.39465 10.2202 5.48689 10.1489 5.53007C9.53895 5.89932 8.92411 6.26028 8.30998 6.62225C8.18197 6.69782 8.05821 6.67912 7.98347 6.54741C7.9049 6.40892 7.94582 6.28245 8.08283 6.20116C8.69591 5.83736 9.30849 5.47257 9.92416 5.11365C10.1064 5.00709 10.2891 5.10638 10.2945 5.35744Z" fill="black"/>
<path d="M5.44859 12.8377C5.44859 13.1948 5.45032 13.5519 5.44791 13.9089C5.44663 14.0967 5.36192 14.2026 5.22141 14.2042C5.07931 14.2058 4.98884 14.0986 4.98914 13.9147C4.99042 13.194 4.9936 12.4733 4.9987 11.7526C5.00009 11.5664 5.09076 11.4628 5.23797 11.4714C5.40213 11.481 5.46407 11.5907 5.46471 11.7469C5.46621 12.1105 5.4652 12.4741 5.4652 12.8377H5.44859Z" fill="black"/>
<path d="M18.1665 6.48678C18.1638 6.6999 18.0301 6.8119 17.8848 6.77434C17.8372 6.75881 17.7918 6.73643 17.7502 6.70784C17.1727 6.35733 16.5956 6.00629 16.0187 5.65471C16.0026 5.6449 15.9864 5.63488 15.9706 5.62459C15.8404 5.54021 15.7845 5.42348 15.8682 5.27964C15.9514 5.1367 16.0776 5.1306 16.2098 5.21095C16.8141 5.57812 17.4194 5.94353 18.0201 6.31696C18.0914 6.36132 18.1366 6.45095 18.1665 6.48678Z" fill="black"/>
<path d="M20.5668 13.013C20.5668 12.6624 20.5654 12.3117 20.5674 11.9611C20.5685 11.764 20.6587 11.6454 20.8046 11.6565C20.9768 11.6696 21.0328 11.788 21.0314 11.9526C21.0256 12.6733 21.0209 13.394 21.0172 14.1147C21.0164 14.2762 20.949 14.378 20.7905 14.3906C20.6495 14.4019 20.5589 14.2881 20.5578 14.1039C20.5555 13.74 20.5571 13.3766 20.5571 13.013H20.5668Z" fill="black"/>
<path d="M19.0116 13.0163C19.0116 13.2698 19.0108 13.5232 19.0119 13.7766C19.0126 13.9409 18.9554 14.0592 18.7825 14.0714C18.6337 14.082 18.5435 13.9677 18.5442 13.7677C18.546 13.2478 18.5505 12.728 18.5576 12.2081C18.56 12.0228 18.6508 11.9166 18.7918 11.9195C18.9315 11.9223 19.0168 12.0318 19.0181 12.2168C19.0199 12.4832 19.0185 12.7497 19.0185 13.0161L19.0116 13.0163Z" fill="black"/>
<path d="M11.053 7.32375C11.0261 7.35896 10.9878 7.44804 10.9218 7.48849C10.4696 7.76569 10.0122 8.03393 9.55505 8.30217C9.42798 8.37649 9.30531 8.36006 9.23095 8.22346C9.15358 8.08134 9.19767 7.95979 9.33427 7.87874C9.78487 7.6114 10.2341 7.34164 10.6876 7.07969C10.87 6.97419 11.051 7.07586 11.053 7.32375Z" fill="black"/>
<path d="M16.8965 8.14008C16.8986 8.36341 16.7198 8.4916 16.5654 8.40159C16.0856 8.12165 15.6115 7.83092 15.1407 7.53475C15.0226 7.46042 15.007 7.32867 15.086 7.20959C15.1651 7.09051 15.2801 7.0704 15.4004 7.14238C15.7257 7.33692 16.0489 7.5351 16.3729 7.73187C16.5025 7.81057 16.6376 7.88122 16.7593 7.97147C16.8245 8.01986 16.8666 8.10201 16.8965 8.14008Z" fill="black"/>
<path d="M7.46514 12.8447C7.46514 13.111 7.46796 13.3773 7.46416 13.6436C7.46153 13.8281 7.37101 13.9352 7.23039 13.9346C7.08784 13.934 6.99657 13.829 6.99695 13.6427C6.99827 13.1101 7.00448 12.5776 7.01126 12.0451C7.01325 11.8847 7.08735 11.7813 7.25068 11.7874C7.40283 11.793 7.47034 11.894 7.47098 12.0458C7.47214 12.3121 7.47131 12.5784 7.47131 12.8447H7.46514Z" fill="black"/>
<path d="M9.33546 17.3945C9.43 17.4383 9.48911 17.4591 9.54197 17.4911C9.96916 17.7493 10.3956 18.0089 10.8212 18.2699C10.9851 18.3707 11.0331 18.5086 10.9571 18.6372C10.8842 18.7604 10.7479 18.7838 10.5933 18.6904C10.1552 18.4257 9.7146 18.1651 9.2861 17.8845C9.21185 17.8359 9.15462 17.6964 9.15865 17.602C9.16173 17.5297 9.27352 17.4623 9.33546 17.3945Z" fill="black"/>
<path d="M16.7668 17.7919C16.7395 17.8277 16.7014 17.9176 16.6352 17.9582C16.1831 18.2355 15.7257 18.5036 15.2685 18.7718C15.1408 18.8468 15.0165 18.8277 14.9434 18.6938C14.8675 18.5548 14.9076 18.4303 15.0461 18.3484C15.4969 18.0817 15.9459 17.8116 16.3994 17.5497C16.581 17.445 16.7643 17.5468 16.7668 17.7919Z" fill="black"/>
<path d="M14.5187 21.0762C14.2656 21.2452 14.0302 21.4028 13.7943 21.5596C13.5569 21.7175 13.3211 21.8783 13.0793 22.0286C13.0312 22.0585 12.9416 22.0758 12.9007 22.0495C12.417 21.7379 11.9389 21.417 11.4321 21.0804C11.5493 21.0034 11.6453 20.9385 11.743 20.8766C12.112 20.6428 12.4798 20.4069 12.8526 20.1799C12.9064 20.1471 13.0032 20.1255 13.0492 20.1536C13.535 20.4499 14.0144 20.7573 14.5187 21.0762Z" fill="black"/>
<path d="M13.2046 24.3203C13.2046 23.7175 13.2031 23.1653 13.2074 22.6131C13.2089 22.5884 13.2153 22.5643 13.2264 22.5424C13.2374 22.5204 13.2527 22.5012 13.2714 22.4858C13.7429 22.167 14.2177 21.8533 14.7315 21.5117V21.8095C14.7315 22.2394 14.7347 22.6694 14.7283 23.0992C14.7273 23.1679 14.7036 23.2656 14.6568 23.2995C14.1891 23.6372 13.7145 23.9643 13.2046 24.3203Z" fill="black"/>
<path d="M12.7404 24.3175C12.4514 24.1167 12.1923 23.9393 11.9361 23.7575C11.6992 23.5893 11.3778 23.4661 11.2553 23.2319C11.1364 23.0045 11.2216 22.6612 11.2196 22.3688C11.2178 22.0982 11.2193 21.8276 11.2193 21.5144C11.5007 21.7013 11.7464 21.8647 11.9925 22.028C12.2033 22.168 12.4163 22.3052 12.6243 22.4499C12.6715 22.4827 12.7348 22.5407 12.7354 22.5879C12.7432 23.151 12.7404 23.7143 12.7404 24.3175Z" fill="black"/>
<path d="M19.2289 7.08168C19.7357 6.76122 20.2209 6.45268 20.7093 6.14951C20.7304 6.13965 20.7534 6.13479 20.7766 6.13529C20.7998 6.13579 20.8225 6.14163 20.8433 6.1524C21.327 6.45206 21.8078 6.75676 22.3049 7.07014C22.2722 7.1027 22.2375 7.13314 22.2012 7.16133C21.7638 7.45327 21.3269 7.74612 20.8858 8.032C20.8377 8.0633 20.7465 8.08286 20.7059 8.05653C20.2169 7.74162 19.7337 7.41693 19.2289 7.08168Z" fill="black"/>
<path d="M21.0074 10.323C21.0074 9.72393 21.006 9.17129 21.0101 8.61873C21.0111 8.59424 21.017 8.57024 21.0275 8.54828C21.038 8.52632 21.0528 8.50688 21.071 8.49124C21.5419 8.17277 22.016 7.85958 22.5281 7.51929C22.5281 7.6695 22.5281 7.78225 22.5281 7.89483C22.5281 8.3048 22.531 8.71481 22.5251 9.1247C22.5242 9.18694 22.5 9.27519 22.4566 9.30633C21.9895 9.64193 21.5162 9.9683 21.0074 10.323Z" fill="black"/>
<path d="M20.54 10.3214C20.0312 9.96675 19.5639 9.64261 19.0994 9.31436C19.0795 9.30076 19.0626 9.28309 19.0495 9.26243C19.0364 9.24177 19.0276 9.21857 19.0234 9.19423C19.0184 8.65027 19.02 8.10628 19.02 7.51953C19.2118 7.64608 19.373 7.7521 19.5339 7.85882C19.8291 8.05461 20.1257 8.24824 20.4176 8.44924C20.4687 8.48444 20.5339 8.55052 20.5347 8.60329C20.5432 9.16082 20.54 9.7185 20.54 10.3214Z" fill="black"/>
<path d="M22.3064 16.4376L20.7746 17.4547L19.2292 16.4278C19.5517 16.2238 19.8514 16.0317 20.1536 15.8439C20.3618 15.7144 20.5723 15.4948 20.7836 15.4924C20.9863 15.4903 21.1921 15.7149 21.3951 15.8423C21.6841 16.0236 21.9718 16.2071 22.2597 16.3901C22.2764 16.4047 22.292 16.4206 22.3064 16.4376Z" fill="black"/>
<path d="M19.0196 16.8647C19.4088 17.1229 19.7462 17.385 20.1163 17.5809C20.4659 17.766 20.5856 18.0116 20.5491 18.4106C20.5127 18.8096 20.5412 19.2151 20.5412 19.6419C20.4981 19.6242 20.4562 19.6036 20.4157 19.5802C19.989 19.2843 19.5616 18.9895 19.1389 18.6873C19.0857 18.6493 19.0257 18.5723 19.0247 18.5124C19.0158 17.9798 19.0196 17.447 19.0196 16.8647Z" fill="black"/>
<path d="M22.5274 16.8911C22.5274 17.4531 22.5291 17.9976 22.524 18.5419C22.5201 18.5663 22.5113 18.5895 22.4984 18.6103C22.4854 18.631 22.4685 18.6487 22.4487 18.6624C21.9833 18.991 21.5153 19.3154 21.0293 19.6538C21.0192 19.6079 21.0122 19.5614 21.0083 19.5145C21.007 19.0135 21.0041 18.5125 21.0111 18.0117C21.012 17.9755 21.0201 17.9399 21.0349 17.9071C21.0497 17.8743 21.0709 17.8451 21.0971 17.8213C21.5409 17.5166 21.9911 17.2219 22.4399 16.9252C22.4681 16.9113 22.4974 16.8999 22.5274 16.8911Z" fill="black"/>
<path d="M6.77208 6.94541C6.26165 7.28426 5.78781 7.60078 5.31066 7.91189C5.27244 7.93681 5.19752 7.94776 5.16341 7.92566C4.6759 7.60958 4.19246 7.28673 3.68176 6.94803C3.84976 6.83983 3.99573 6.74462 4.1428 6.65132C4.46344 6.4479 4.78358 6.2435 5.10667 6.04458C5.15422 6.01532 5.2354 5.98234 5.27094 6.00413C5.76556 6.30683 6.25476 6.61873 6.77208 6.94541Z" fill="black"/>
<path d="M6.98205 7.38135C6.98205 7.96888 6.98318 8.50775 6.97979 9.04661C6.97907 9.06835 6.97404 9.08969 6.96501 9.1093C6.95598 9.12892 6.94314 9.14639 6.92731 9.16061C6.45193 9.49594 5.9738 9.827 5.45801 10.1855V9.72639C5.45801 9.32956 5.45508 8.9327 5.46091 8.53599C5.46185 8.47316 5.48411 8.38237 5.52718 8.35288C5.99593 8.03198 6.47079 7.72063 6.98205 7.38135Z" fill="black"/>
<path d="M3.47328 7.38477C3.9859 7.72479 4.4594 8.03751 4.93037 8.35434C4.94706 8.36734 4.96092 8.38385 4.97106 8.40279C4.9812 8.42172 4.98739 8.44267 4.98922 8.46426C4.99299 9.02135 4.99182 9.57849 4.99182 10.1589C4.94717 10.1407 4.90372 10.1195 4.86178 10.0954C4.43541 9.79998 4.00864 9.50506 3.58597 9.204C3.53631 9.1688 3.479 9.09787 3.47817 9.04264C3.47008 8.50463 3.47328 7.96647 3.47328 7.38477Z" fill="black"/>
<path d="M3.67822 16.2919C4.19159 15.9671 4.67115 15.6619 5.15365 15.3618C5.17439 15.3507 5.19724 15.3446 5.22054 15.3438C5.24383 15.3431 5.267 15.3477 5.28837 15.3574C5.77602 15.6602 6.26052 15.9685 6.77156 16.2919C6.25882 16.6319 5.77132 16.9569 5.28035 17.2763C5.25879 17.2846 5.2357 17.2878 5.2128 17.2856C5.18989 17.2835 5.16775 17.276 5.14801 17.2637C4.66607 16.9489 4.18681 16.6293 3.67822 16.2919Z" fill="black"/>
<path d="M5.45952 19.5314C5.45952 18.9212 5.45832 18.3637 5.46227 17.8065C5.46478 17.7848 5.47164 17.7639 5.48242 17.7451C5.49319 17.7264 5.50763 17.7102 5.52481 17.6976C5.9962 17.3804 6.46985 17.0672 6.98266 16.7268V16.983C6.98266 17.4316 6.98499 17.8802 6.97938 18.3287C6.97859 18.3913 6.95679 18.4813 6.91368 18.512C6.44621 18.8475 5.97271 19.1737 5.45952 19.5314Z" fill="black"/>
<path d="M3.47306 16.7312C3.98327 17.0695 4.45726 17.3819 4.92794 17.6996C4.94624 17.7152 4.96119 17.7347 4.97181 17.7567C4.98244 17.7786 4.98852 17.8027 4.98965 17.8273C4.99375 18.3795 4.99236 18.9318 4.99236 19.5035C4.95436 19.4909 4.91748 19.4749 4.88212 19.4557C4.45015 19.1562 4.01754 18.8577 3.5899 18.5517C3.53685 18.5137 3.47913 18.4348 3.47811 18.3739C3.46937 17.8411 3.47306 17.3082 3.47306 16.7312Z" fill="black"/>
<path d="M11.4271 2.48905C11.9403 2.16412 12.4241 1.85598 12.9111 1.55332C12.9323 1.5438 12.9552 1.5393 12.9783 1.54014C13.0014 1.54098 13.024 1.54713 13.0445 1.55816C13.5271 1.8586 14.0069 2.164 14.5156 2.48603C14.4431 2.53657 14.3899 2.57515 14.3354 2.61145C13.9187 2.88837 13.5033 3.16768 13.0828 3.43788C13.0324 3.47019 12.9344 3.48252 12.8887 3.45318C12.4096 3.14558 11.9368 2.82758 11.4271 2.48905Z" fill="black"/>
<path d="M14.7303 2.92407C14.7303 3.51364 14.7315 4.05767 14.7276 4.60166C14.7251 4.6233 14.7183 4.64416 14.7077 4.66295C14.697 4.68173 14.6828 4.69802 14.6658 4.7108C14.1949 5.04253 13.7216 5.37055 13.2217 5.71839C13.2141 5.6384 13.2049 5.58508 13.2047 5.53176C13.2034 5.0502 13.2007 4.56856 13.207 4.08708C13.2079 4.01956 13.2364 3.92278 13.2842 3.89008C13.7483 3.57138 14.2193 3.26308 14.7303 2.92407Z" fill="black"/>
<path d="M11.2404 2.94238C11.516 3.12401 11.7779 3.29637 12.0396 3.46916C12.2401 3.60158 12.4433 3.73001 12.6385 3.87045C12.6648 3.88956 12.6871 3.91405 12.704 3.94242C12.7209 3.97079 12.732 4.00245 12.7367 4.03545C12.7429 4.57479 12.7389 5.1142 12.7369 5.65362C12.7369 5.66371 12.7259 5.67372 12.7074 5.70529C12.5686 5.60906 12.4305 5.51361 12.2926 5.41776C11.9756 5.19737 11.6563 4.98045 11.3442 4.75274C11.2872 4.71119 11.2264 4.62576 11.2252 4.55937C11.2155 4.05258 11.22 3.54552 11.2211 3.03854C11.225 3.006 11.2315 2.97384 11.2404 2.94238Z" fill="black"/>
</g>
<defs>
<clipPath id="clip0_778_28">
<rect width="20" height="24" fill="white" transform="translate(3 1)"/>
</clipPath>
</defs>
</svg>
