<svg width="26" height="26" viewBox="0 0 26 26" fill="none" xmlns="http://www.w3.org/2000/svg">
<path d="M11.3342 10.4993V10.3191C11.3342 10.0429 11.1104 9.81908 10.8342 9.81908H8.61942C8.51327 9.8116 8.41137 9.77104 8.32597 9.70226C8.24058 9.63348 8.17532 9.53943 8.13806 9.4314C8.1008 9.32338 8.09311 9.20598 8.11592 9.09333C8.13873 8.98069 8.19108 8.87758 8.26665 8.79641L11.3342 5.42076C11.5486 5.18191 11.805 4.99207 12.0882 4.86244C12.3714 4.7328 12.6757 4.66602 12.9831 4.66602C13.2905 4.66602 13.5948 4.7328 13.8779 4.86244C14.1611 4.99207 14.4175 5.18191 14.6319 5.42076L17.8375 8.89618C17.9155 8.98041 17.9685 9.08798 17.9897 9.20508C18.0109 9.32219 17.9993 9.44349 17.9564 9.55341C17.9136 9.66333 17.8414 9.75685 17.7491 9.82197C17.6569 9.88708 17.5488 9.92083 17.4387 9.91886H16.1964C15.3298 9.91886 14.6242 9.79414 14.6242 10.8251V11.0063C14.6242 11.9217 14.0027 12.7203 13.1153 12.9451L12.8508 13.0121C11.9634 13.2369 11.3419 14.0354 11.3419 14.9508V15.1736C11.3419 16.2129 10.6364 16.0798 9.76977 16.0798H8.55807C8.44807 16.0802 8.3406 16.1157 8.24909 16.1819C8.15759 16.2481 8.0861 16.3421 8.04356 16.4521C8.00102 16.5621 7.9893 16.6832 8.00989 16.8003C8.03047 16.9175 8.08243 17.0255 8.15929 17.1108L11.3342 20.5779C11.5486 20.8168 11.805 21.0066 12.0882 21.1363C12.3714 21.2659 12.6757 21.3327 12.9831 21.3327C13.2905 21.3327 13.5948 21.2659 13.8779 21.1363C14.1611 21.0066 14.4175 20.8168 14.6319 20.5779L17.7532 17.2106C17.8334 17.1274 17.8886 17.0198 17.9115 16.9021C17.9345 16.7843 17.9242 16.6618 17.882 16.5505C17.8398 16.4391 17.7676 16.3442 17.6748 16.278C17.5821 16.2119 17.4731 16.1776 17.362 16.1796H15.1319C14.8558 16.1796 14.6319 15.9558 14.6319 15.6796V15.1736" stroke="black" stroke-width="1.5" stroke-linecap="round" stroke-linejoin="round"/>
</svg>
