<svg width="26" height="26" viewBox="0 0 26 26" fill="none" xmlns="http://www.w3.org/2000/svg">
<g clip-path="url(#clip0_778_17)">
<mask id="mask0_778_17" style="mask-type:luminance" maskUnits="userSpaceOnUse" x="2" y="3" width="21" height="20">
<path d="M22.1538 3H2V23H22.1538V3Z" fill="white"/>
</mask>
<g mask="url(#mask0_778_17)">
<path d="M11.6616 22.094C11.4924 22.094 11.3385 22.0325 11.2154 21.9248C11.0924 21.8017 11.0001 21.6479 11.0001 21.4786V21.4017C10.9847 17.4017 7.72313 14.1402 3.70775 14.1248C3.53852 14.1248 3.36928 14.0632 3.24621 13.9556C3.10775 13.8325 3.03082 13.6786 3.03082 13.494C3.01544 13.1248 3.29236 12.8017 3.66159 12.7863H3.70775C7.72313 12.7709 10.9847 9.5094 11.0001 5.49401V5.46324C11.0154 5.27863 11.0924 5.12478 11.2154 5.00171C11.3539 4.87863 11.5231 4.81709 11.6924 4.83247C12.0309 4.84786 12.3078 5.12478 12.3232 5.46324V5.49401C12.3232 9.5094 15.6001 12.7863 19.6153 12.7863C19.7846 12.7863 19.9538 12.8479 20.0769 12.9556C20.2153 13.0786 20.2922 13.2479 20.2922 13.4171C20.3076 13.6017 20.2461 13.7709 20.123 13.894C19.9999 14.0171 19.8461 14.1094 19.6769 14.1094H19.5999C15.5999 14.1248 12.3384 17.3863 12.323 21.4017C12.323 21.7556 12.0461 22.0632 11.6922 22.0786C11.6922 22.094 11.677 22.094 11.6616 22.094ZM6.72313 13.4632C8.98467 14.3248 10.8001 16.1402 11.6616 18.4017C12.5232 16.1402 14.3386 14.3248 16.6001 13.4632C14.3386 12.6017 12.5232 10.7863 11.6616 8.52478C10.8001 10.7863 8.98467 12.6017 6.72313 13.4632ZM18.8926 9.44786C18.5233 9.44786 18.2155 9.14017 18.2155 8.77094C18.2155 7.74017 17.3849 6.9094 16.3539 6.9094C15.9847 6.9094 15.677 6.60171 15.677 6.23247C15.677 5.86324 15.9847 5.55555 16.3539 5.55555C17.3849 5.55555 18.2155 4.72478 18.2155 3.69401C18.2155 3.3094 18.5233 3.01709 18.8926 3.01709C19.2618 3.01709 19.5693 3.32478 19.5693 3.69401C19.5693 4.72478 20.4002 5.55555 21.431 5.55555C21.8002 5.55555 22.1078 5.86324 22.1078 6.23247C22.1078 6.60171 21.8002 6.9094 21.431 6.9094C20.4002 6.9094 19.5693 7.74017 19.5693 8.77094C19.5847 9.14017 19.2772 9.44786 18.8926 9.44786ZM18.1078 6.23247C18.4155 6.44786 18.6772 6.7094 18.8926 7.01709C19.1079 6.7094 19.3693 6.44786 19.677 6.23247C19.3693 6.01709 19.1079 5.75555 18.8926 5.44786C18.6926 5.74017 18.4155 6.01709 18.1078 6.23247ZM4.73852 22.9709H4.70775C4.3539 22.9556 4.07698 22.6786 4.06159 22.3248V22.294C4.06159 21.6325 3.52313 21.094 2.86159 21.0786C2.69236 21.0786 2.52313 21.0171 2.38467 20.894C2.24621 20.7709 2.16928 20.6017 2.1539 20.4171C2.13852 20.0325 2.43082 19.7248 2.80005 19.694H2.84621C3.50775 19.694 4.04621 19.1402 4.04621 18.4786V18.4479C4.06159 18.2632 4.13852 18.094 4.27698 17.9709C4.41544 17.8479 4.58467 17.7863 4.76928 17.7863C5.12313 17.8017 5.40005 18.0786 5.41544 18.4325V18.4632C5.41544 19.1248 5.9539 19.6632 6.61544 19.6786H6.63082C7.00005 19.6786 7.29236 19.9709 7.30775 20.3248C7.32313 20.5094 7.24621 20.6786 7.12313 20.8171C7.00005 20.9556 6.83082 21.0325 6.64621 21.0479H6.60005C5.93852 21.0632 5.40005 21.6017 5.40005 22.2632V22.294C5.40005 22.6786 5.09236 22.9709 4.73852 22.9709ZM4.36928 20.3863C4.50775 20.494 4.63082 20.6171 4.73852 20.7556C4.84621 20.6171 4.96928 20.494 5.10775 20.3863C4.96928 20.2786 4.84621 20.1556 4.73852 20.0171C4.63082 20.1556 4.50775 20.2786 4.36928 20.3863Z" fill="white"/>
</g>
</g>
<defs>
<clipPath id="clip0_778_17">
<rect width="21" height="20" fill="white" transform="translate(2 3)"/>
</clipPath>
</defs>
</svg>
