<svg width="26" height="26" viewBox="0 0 26 26" fill="none" xmlns="http://www.w3.org/2000/svg">
<g clip-path="url(#clip0_778_13)">
<path d="M15.5 8C15 8 14.5 8 14 8C14 7.7 14 7.5 14 7.2C14 6.8 13.7 6.5 13.3 6.5C13.3 6.7 13.3 6.9 13.3 7.1C13.3 8.1 12.7 8.7 11.7 8.7C10.8 8.7 9.8 8.7 8.9 8.7C8 8.7 7.3 8.1 7.3 7.1C7.3 6.9 7.3 6.7 7.3 6.4C6.9 6.4 6.6 6.7 6.6 7.1C6.6 7.2 6.6 7.2 6.6 7.3C6.6 11.2 6.6 15.1 6.6 19C6.6 19.6 6.9 19.9 7.5 19.9C9.4 19.9 11.3 19.9 13.3 19.9C13.7 20 14 19.7 14 19.1C14 18.9 14 18.7 14 18.5C14.5 18.5 15 18.5 15.5 18.5C15.8 20.2 14.8 21.5 13.3 21.5C11.3 21.5 9.3 21.5 7.3 21.5C6 21.5 5 20.5 5 19.2C5 15.2 5 11.2 5 7.2C5 6 6 5 7.3 5C9.3 5 11.3 5 13.3 5C14.6 5 15.5 6 15.5 7.3C15.5 7.5 15.5 7.7 15.5 8ZM8.8 6.5C8.8 6.8 8.8 7 8.8 7.2C9.8 7.2 10.8 7.2 11.8 7.2C11.8 6.9 11.8 6.7 11.8 6.5C10.7 6.5 9.8 6.5 8.8 6.5Z" fill="white"/>
<path d="M16.2 17C15.2 17 14.2 17 13.3 17C12.2 17 11.3 16.3 11.1 15.2C11 15.1 11 14.9 11 14.7C11 13.7 11 12.7 11 11.8C11 10.5 12 9.5 13.2 9.5C15.2 9.5 17.2 9.5 19.2 9.5C20.4 9.5 21.4 10.5 21.4 11.7C21.4 12.7 21.4 13.7 21.4 14.7C21.4 16 20.4 16.9 19.1 16.9C18.2 17 17.2 17 16.2 17ZM12.5 13.3C12.5 13.9 12.5 14.4 12.5 14.9C12.5 15.2 12.9 15.5 13.2 15.5C15.2 15.5 17.2 15.5 19.2 15.5C19.6 15.5 19.9 15.2 19.9 14.9C19.9 14.4 19.9 13.8 19.9 13.3C17.5 13.3 15 13.3 12.5 13.3ZM12.5 11.7C15 11.7 17.5 11.7 20 11.7C20 11.4 19.7 11 19.2 11C17.2 11 15.2 11 13.3 11H13.2C12.8 11 12.5 11.4 12.5 11.7Z" fill="white"/>
</g>
<defs>
<clipPath id="clip0_778_13">
<rect width="16.5" height="16.5" fill="white" transform="translate(5 5)"/>
</clipPath>
</defs>
</svg>
