<svg width="26" height="26" viewBox="0 0 26 26" fill="none" xmlns="http://www.w3.org/2000/svg">
<g clip-path="url(#clip0_778_14)">
<path d="M13.2323 18.1373C13.2323 18.5996 13.2367 19.062 13.2294 19.5242C13.2274 19.6513 13.2662 19.7225 13.372 19.788C13.9157 20.1238 14.4518 20.4729 14.996 20.8079C15.1374 20.895 15.1948 20.9996 15.1933 21.1698C15.1869 21.8795 15.188 22.5893 15.193 23.299C15.194 23.4512 15.1466 23.5531 15.022 23.6386C14.4052 24.0617 13.7913 24.4895 13.1806 24.9221C13.0362 25.0243 12.9144 25.0269 12.769 24.924C12.1581 24.4916 11.5443 24.0638 10.9276 23.6404C10.8058 23.5566 10.7486 23.4583 10.7497 23.3035C10.7547 22.5873 10.7548 21.8711 10.7499 21.1548C10.7455 21.0869 10.7602 21.0191 10.7924 20.9598C10.8246 20.9006 10.8728 20.8524 10.9311 20.8213C11.4899 20.4735 12.0432 20.1162 12.6028 19.7702C12.7226 19.6961 12.7768 19.6185 12.7755 19.4647C12.7683 18.5792 12.7731 17.6936 12.7758 16.8081C12.7761 16.7313 12.7653 16.6286 12.8063 16.5838C12.8663 16.518 12.9695 16.4572 13.0522 16.4601C13.1802 16.4646 13.2362 16.5778 13.2359 16.7114C13.2352 17.0825 13.2345 17.4536 13.2339 17.8248C13.2337 17.9289 13.2337 18.0331 13.2339 18.1373H13.2323ZM14.5187 21.0762C14.0145 20.7573 13.535 20.4499 13.0493 20.1536C13.0033 20.1255 12.9065 20.1471 12.8526 20.1799C12.4798 20.4068 12.1119 20.6427 11.743 20.8766C11.6453 20.9385 11.5494 21.0034 11.4322 21.0804C11.9389 21.4168 12.417 21.7379 12.9008 22.0495C12.9417 22.0758 13.0313 22.0585 13.0793 22.0286C13.3211 21.8783 13.5569 21.7175 13.7943 21.5596C14.0303 21.4028 14.2656 21.2451 14.5187 21.0762ZM13.2047 24.3201C13.7146 23.9642 14.1892 23.6371 14.6567 23.2995C14.7036 23.2656 14.7272 23.1679 14.7282 23.0992C14.7346 22.6694 14.7314 22.2394 14.7314 21.8096V21.5117C14.2176 21.8532 13.7428 22.1668 13.2713 22.4858C13.2526 22.5012 13.2373 22.5205 13.2263 22.5424C13.2152 22.5643 13.2088 22.5884 13.2073 22.6131C13.2031 23.1651 13.2046 23.7174 13.2046 24.3202L13.2047 24.3201ZM12.7406 24.3174C12.7406 23.7142 12.7434 23.1509 12.7356 22.5878C12.735 22.5406 12.6716 22.4826 12.6245 22.4498C12.4165 22.305 12.2037 22.1679 11.9927 22.0278C11.7467 21.8646 11.5009 21.7012 11.2195 21.5143C11.2195 21.8275 11.218 22.0981 11.2198 22.3686C11.2218 22.6611 11.1366 23.0044 11.2555 23.2317C11.3781 23.466 11.6994 23.5894 11.9363 23.7574C12.1924 23.9392 12.4515 24.1165 12.7405 24.3174H12.7406Z" fill="white"/>
<path d="M22.997 8.24086C22.997 8.59227 22.9918 8.9438 22.9994 9.29501C23.0029 9.45653 22.9437 9.56075 22.8154 9.64888C22.2044 10.0686 21.5963 10.4928 20.9911 10.9216C20.831 11.0357 20.7028 11.0242 20.5479 10.9138C20.0061 10.527 19.456 10.1531 18.9139 9.7671C18.816 9.69731 18.7482 9.69719 18.6496 9.76358C18.2396 10.039 17.8242 10.3055 17.4098 10.5737C17.2319 10.6889 17.0962 10.674 17.0188 10.5358C16.9447 10.4037 16.9904 10.2767 17.1581 10.1671C17.5765 9.89322 17.9939 9.61778 18.4167 9.3511C18.5204 9.2857 18.5609 9.21419 18.5596 9.08678C18.5533 8.47515 18.5663 7.86317 18.5521 7.25182C18.5468 7.01953 18.6244 6.88554 18.8164 6.76948C19.406 6.4131 19.9865 6.04018 20.5659 5.66604C20.7116 5.57216 20.8315 5.56676 20.9801 5.66287C21.5805 6.05146 22.1846 6.4336 22.7925 6.8093C22.9386 6.89966 23.0048 7.00826 23 7.18684C22.9902 7.53805 22.9969 7.88946 22.997 8.24086ZM19.2289 7.08153C19.7337 7.4169 20.2169 7.74147 20.7059 8.05638C20.7466 8.08255 20.8377 8.06295 20.8858 8.03185C21.3269 7.74597 21.7638 7.45312 22.2012 7.16118C22.2375 7.13299 22.2722 7.10254 22.3049 7.06999C21.8079 6.75661 21.327 6.45191 20.8433 6.15225C20.8225 6.14148 20.7998 6.13564 20.7766 6.13514C20.7534 6.13464 20.7304 6.13949 20.7093 6.14936C20.2209 6.45253 19.7357 6.76106 19.2289 7.08153ZM21.0074 10.3231C21.5162 9.96837 21.9895 9.642 22.4568 9.30651C22.5002 9.27522 22.5244 9.18712 22.5253 9.12488C22.5312 8.71499 22.5283 8.30498 22.5283 7.89501C22.5283 7.78231 22.5283 7.66957 22.5283 7.51947C22.016 7.85981 21.5418 8.17276 21.0712 8.49142C21.053 8.50707 21.0382 8.52649 21.0277 8.54845C21.0172 8.57042 21.0113 8.59442 21.0103 8.61891C21.006 9.17135 21.0074 9.72399 21.0074 10.3231ZM20.54 10.3213C20.54 9.71839 20.5432 9.16072 20.5347 8.60319C20.5339 8.55042 20.4687 8.4843 20.4176 8.44913C20.1257 8.24814 19.8291 8.0545 19.5339 7.85871C19.373 7.75199 19.2117 7.64598 19.02 7.51943C19.02 8.10622 19.0184 8.65017 19.0234 9.19412C19.0276 9.21846 19.0364 9.24167 19.0495 9.26233C19.0626 9.28298 19.0795 9.30065 19.0994 9.31426C19.5639 9.64266 20.0311 9.96664 20.54 10.3213Z" fill="white"/>
<path d="M22.9967 17.5768C22.9969 17.9349 22.9932 18.293 22.9987 18.651C23.001 18.7948 22.9563 18.8974 22.8386 18.9785C22.2125 19.4104 21.5882 19.8452 20.9659 20.283C20.8341 20.3757 20.7182 20.3779 20.5862 20.2851C19.9639 19.8472 19.3397 19.4124 18.7136 18.9804C18.5945 18.8983 18.5544 18.7956 18.5552 18.653C18.559 18.0151 18.5533 17.3771 18.5596 16.7391C18.5609 16.6113 18.5231 16.5396 18.4146 16.4784C17.9856 16.2358 17.5614 15.9845 17.1365 15.7343C16.9621 15.6316 16.9128 15.5082 16.9849 15.3734C17.0571 15.2386 17.1895 15.2138 17.3592 15.312C17.7859 15.5589 18.2131 15.8049 18.6352 16.06C18.7404 16.1235 18.816 16.1273 18.9223 16.0583C19.4642 15.7071 20.0148 15.3703 20.5564 15.0184C20.7083 14.9197 20.8308 14.9115 20.9865 15.0126C21.5864 15.4022 22.1907 15.7847 22.7993 16.16C22.9392 16.2467 23.0031 16.3517 22.9991 16.5223C22.9909 16.8736 22.9966 17.2253 22.9967 17.5768ZM22.3064 16.4377C22.292 16.4205 22.2764 16.4046 22.2598 16.39C21.9718 16.2069 21.6841 16.0234 21.3951 15.8421C21.1921 15.7147 20.9863 15.49 20.7836 15.4923C20.5723 15.4946 20.3618 15.7143 20.1536 15.8437C19.8514 16.0315 19.5517 16.2236 19.2293 16.4277L20.7746 17.4546L22.3064 16.4377ZM19.0196 16.8645C19.0196 17.4467 19.0159 17.9794 19.0248 18.5122C19.0258 18.5721 19.0858 18.6491 19.139 18.6871C19.5616 18.9892 19.989 19.2841 20.4158 19.5799C20.4562 19.6033 20.4981 19.6239 20.5412 19.6416C20.5412 19.2149 20.5127 18.8094 20.5492 18.4104C20.5856 18.0113 20.466 17.7657 20.1164 17.5806C19.7464 17.3848 19.4088 17.1227 19.0196 16.8646V16.8645ZM22.5274 16.891C22.4974 16.8998 22.4681 16.9113 22.44 16.9252C21.9912 17.2219 21.541 17.5166 21.0972 17.8213C21.071 17.8451 21.0498 17.8744 21.035 17.9071C21.0202 17.9399 21.0121 17.9755 21.0112 18.0117C21.0042 18.5124 21.0071 19.0135 21.0084 19.5145C21.0123 19.5614 21.0193 19.6079 21.0294 19.6538C21.5154 19.3154 21.9835 18.9909 22.4488 18.6624C22.4686 18.6487 22.4855 18.631 22.4985 18.6103C22.5114 18.5896 22.5202 18.5663 22.5241 18.542C22.5291 17.9976 22.5274 17.4531 22.5274 16.8911V16.891Z" fill="white"/>
<path d="M3.00311 8.08678C3.00311 7.73518 3.00729 7.38349 3.00127 7.03201C2.99867 6.88007 3.04581 6.77504 3.17503 6.69453C3.798 6.30626 4.41868 5.91402 5.03706 5.51782C5.17185 5.43149 5.28646 5.43638 5.41971 5.52174C6.02737 5.91113 6.63757 6.29619 7.2503 6.67692C7.39134 6.76428 7.44609 6.87158 7.44409 7.04136C7.43682 7.67935 7.44473 8.31754 7.43822 8.95558C7.43387 9.00949 7.44457 9.06355 7.46904 9.11131C7.4935 9.15906 7.5307 9.19848 7.57617 9.22484C8.00313 9.5214 8.42505 9.82582 8.84716 10.1299C8.99159 10.2339 9.02788 10.3737 8.95047 10.4948C8.8699 10.6211 8.73149 10.6326 8.57234 10.5197C8.1636 10.2299 7.7537 9.94177 7.35045 9.64388C7.24755 9.56787 7.17903 9.56376 7.07217 9.63997C6.53034 10.0272 5.97894 10.4001 5.43706 10.7873C5.28488 10.896 5.16327 10.8946 5.01161 10.7866C4.41223 10.3599 3.80881 9.93937 3.20135 9.52507C3.06027 9.4288 2.9954 9.31841 3.00025 9.14124C3.00978 8.79014 3.00304 8.43834 3.00311 8.08678ZM6.77198 6.94544C6.25466 6.61879 5.76546 6.30686 5.27099 6.00415C5.23544 5.98236 5.15427 6.01534 5.10672 6.0446C4.78348 6.24352 4.46333 6.44792 4.14285 6.65134C3.99578 6.74468 3.84981 6.83986 3.68181 6.94806C4.19251 7.28675 4.6758 7.6096 5.16346 7.92569C5.19757 7.94779 5.27264 7.93684 5.31071 7.91192C5.78782 7.60065 6.26166 7.28429 6.7721 6.94544H6.77198ZM6.98196 7.38126C6.4707 7.72054 5.99584 8.03189 5.52709 8.35291C5.48402 8.3824 5.46176 8.4732 5.46082 8.53602C5.45499 8.93273 5.45789 9.32959 5.45792 9.72642V10.1856C5.97374 9.82692 6.45191 9.49585 6.92722 9.16064C6.94305 9.14642 6.95589 9.12895 6.96492 9.10934C6.97395 9.08972 6.97898 9.06838 6.9797 9.04665C6.9832 8.50766 6.98207 7.9688 6.98207 7.38126H6.98196ZM3.47322 7.38467C3.47322 7.96637 3.47002 8.50453 3.47808 9.04254C3.47891 9.09778 3.53622 9.16854 3.58588 9.20391C4.00855 9.50512 4.43532 9.79989 4.86168 10.0953C4.90363 10.1194 4.94707 10.1406 4.99173 10.1588C4.99173 9.57839 4.99286 9.02126 4.98913 8.46416C4.9873 8.44257 4.98111 8.42163 4.97097 8.40269C4.96083 8.38375 4.94697 8.36724 4.93028 8.35424C4.45946 8.03741 3.98596 7.72469 3.47334 7.38467H3.47322Z" fill="white"/>
<path d="M3.00304 17.4458C3.00304 17.0876 3.00744 16.7293 3.001 16.3712C2.99591 16.3033 3.0103 16.2354 3.04235 16.176C3.0744 16.1166 3.12268 16.0684 3.18109 16.0375C3.79887 15.6524 4.41426 15.2632 5.02727 14.8699C5.16891 14.7787 5.28627 14.7818 5.42588 14.8718C5.97419 15.2252 6.52905 15.5681 7.07684 15.9219C7.18012 15.9886 7.25696 15.994 7.36453 15.9309C7.75716 15.7007 8.15565 15.481 8.55291 15.2595C8.7287 15.1614 8.85596 15.1819 8.92968 15.3145C9.00589 15.4514 8.94979 15.5844 8.76809 15.6873C8.37188 15.9111 7.97655 16.1366 7.57685 16.3534C7.47349 16.4095 7.43773 16.4773 7.43878 16.597C7.44413 17.2157 7.4334 17.8346 7.44563 18.453C7.44974 18.6616 7.37948 18.7856 7.21378 18.8976C6.61513 19.302 6.02329 19.7179 5.43337 20.1363C5.28932 20.2384 5.16918 20.2445 5.02271 20.1406C4.40689 19.704 3.78792 19.2722 3.1658 18.8451C3.11195 18.8124 3.068 18.7646 3.03891 18.7072C3.00983 18.6498 2.99678 18.5851 3.00123 18.5205C3.0068 18.1623 3.00304 17.804 3.00304 17.4458ZM3.67827 16.292C4.18701 16.6295 4.66612 16.9489 5.14805 17.2637C5.1678 17.276 5.18994 17.2835 5.21284 17.2857C5.23575 17.2879 5.25883 17.2847 5.2804 17.2764C5.77137 16.9571 6.25887 16.6319 6.7716 16.2919C6.26057 15.9686 5.77607 15.6602 5.28842 15.3574C5.26705 15.3478 5.24388 15.3431 5.22058 15.3439C5.19729 15.3446 5.17444 15.3508 5.1537 15.3618C4.6712 15.6619 4.19164 15.9671 3.67827 16.292ZM5.45916 19.5314C5.97246 19.1737 6.44596 18.8474 6.91332 18.5119C6.95628 18.4811 6.97823 18.3914 6.97902 18.3287C6.98463 17.8802 6.98219 17.4316 6.9823 16.983V16.7268C6.46964 17.0671 5.99584 17.3804 5.52445 17.6975C5.50727 17.7101 5.49283 17.7263 5.48206 17.7451C5.47128 17.7638 5.46442 17.7847 5.46191 17.8064C5.45815 18.3637 5.45946 18.921 5.45946 19.5314H5.45916ZM3.47303 16.7311C3.47303 17.3083 3.46927 17.8411 3.47808 18.3738C3.4791 18.4347 3.53682 18.5136 3.58987 18.5516C4.01751 18.8575 4.45012 19.156 4.88209 19.4555C4.91745 19.4747 4.95433 19.4907 4.99233 19.5034C4.99233 18.9316 4.99372 18.3794 4.98962 17.8271C4.98849 17.8026 4.98241 17.7785 4.97178 17.7565C4.96116 17.7345 4.94621 17.7151 4.92791 17.6995C4.45723 17.3817 3.98324 17.0692 3.47303 16.7311Z" fill="white"/>
<path d="M15.1905 3.66056C15.1905 4.012 15.1852 4.36356 15.193 4.71482C15.1964 4.86918 15.1416 4.96839 15.0187 5.05261C14.4596 5.43598 13.9064 5.82881 13.347 6.21148C13.2461 6.28052 13.2059 6.35207 13.2103 6.4798C13.2247 6.89591 13.2254 7.31256 13.231 7.72903C13.2342 7.97516 13.1681 8.082 13.0111 8.0872C12.8523 8.09248 12.7768 7.98432 12.7718 7.74569C12.763 7.32931 12.7492 6.91292 12.7479 6.4965C12.7476 6.36569 12.7103 6.28525 12.6021 6.21155C12.047 5.83366 11.5002 5.44263 10.9448 5.06536C10.8022 4.96839 10.7475 4.85412 10.7491 4.67875C10.7561 3.98243 10.7562 3.2861 10.7493 2.58978C10.7477 2.42071 10.8023 2.31157 10.9429 2.22429C11.5557 1.84426 12.1655 1.45917 12.7723 1.06903C12.9123 0.979051 13.0298 0.976158 13.1709 1.06691C13.783 1.46056 14.398 1.84927 15.0158 2.23305C15.1446 2.31313 15.1954 2.41379 15.1925 2.56749C15.1859 2.93157 15.1906 3.29608 15.1905 3.66056ZM11.4272 2.4889C11.937 2.82743 12.4099 3.14543 12.8888 3.45303C12.9344 3.48237 13.0325 3.47004 13.0828 3.43773C13.5035 3.16754 13.9187 2.88823 14.3354 2.6113C14.39 2.575 14.4431 2.53642 14.5157 2.48588C14.007 2.16385 13.5272 1.85845 13.0445 1.55801C13.024 1.54698 13.0014 1.54083 12.9784 1.53999C12.9553 1.53915 12.9323 1.54365 12.9111 1.55317C12.424 1.85583 11.9402 2.16397 11.4272 2.4889ZM14.7305 2.92406C14.2195 3.26306 13.7485 3.57121 13.2843 3.89007C13.2365 3.92289 13.208 4.01955 13.2071 4.08707C13.2009 4.56855 13.2036 5.05019 13.2049 5.53174C13.2049 5.58506 13.2143 5.63838 13.2218 5.71838C13.7218 5.37053 14.1951 5.04252 14.666 4.71079C14.683 4.69801 14.6972 4.68172 14.7078 4.66293C14.7185 4.64415 14.7253 4.62328 14.7278 4.60165C14.7316 4.05765 14.7303 3.51362 14.7303 2.92406H14.7305ZM11.2406 2.94233C11.2317 2.97378 11.2252 3.00594 11.2213 3.03848C11.2203 3.54547 11.2157 4.05253 11.2254 4.55932C11.2266 4.62582 11.2875 4.71114 11.3444 4.75268C11.6564 4.9804 11.9758 5.19731 12.2928 5.41771C12.4307 5.51359 12.5688 5.609 12.7077 5.70523C12.7261 5.67367 12.7371 5.66365 12.7371 5.65356C12.7391 5.11415 12.7432 4.57473 12.7369 4.0354C12.7322 4.0024 12.7211 3.97074 12.7042 3.94236C12.6873 3.91399 12.665 3.8895 12.6387 3.87039C12.4435 3.72995 12.2403 3.60152 12.0398 3.4691C11.7779 3.29632 11.516 3.12396 11.2404 2.94233H11.2406Z" fill="white"/>
<path d="M15.919 11.2732C16.7586 11.2776 17.4017 11.9638 17.3982 12.8517C17.3947 13.7323 16.7375 14.4156 15.8986 14.4108C15.0657 14.4061 14.4252 13.7124 14.4309 12.8214C14.4367 11.9484 15.0898 11.2689 15.919 11.2732ZM14.878 12.8337C14.8753 13.4568 15.3234 13.9421 15.9053 13.9464C16.4861 13.9506 16.9483 13.4658 16.9509 12.8499C16.9535 12.2302 16.4985 11.7389 15.9209 11.7376C15.3354 11.7363 14.8808 12.2139 14.8781 12.8337H14.878Z" fill="white"/>
<path d="M8.79236 12.8418C8.79236 12.4317 8.79078 12.0215 8.79289 11.6113C8.79406 11.3833 8.86676 11.3071 9.08679 11.3044C9.36248 11.3011 9.63818 11.301 9.91391 11.3041C10.5855 11.3124 11.053 11.706 11.1953 12.3889C11.2779 12.7854 11.2684 13.1808 11.1157 13.5589C10.9089 14.0707 10.5311 14.3443 9.9972 14.3664C9.69064 14.3791 9.38322 14.3711 9.07618 14.3688C8.87041 14.3672 8.79477 14.2891 8.79327 14.0724C8.79044 13.6622 8.79244 13.252 8.79236 12.8418ZM9.24794 13.8951C9.53815 13.8951 9.81357 13.9149 10.0851 13.8896C10.3656 13.8635 10.5748 13.6936 10.6849 13.4211C10.7643 13.2329 10.8042 13.0293 10.8016 12.8239C10.7991 12.6185 10.7544 12.416 10.6703 12.23C10.5724 12.0042 10.4022 11.8299 10.1675 11.8043C9.86685 11.7715 9.56037 11.7965 9.24794 11.7965V13.8951Z" fill="white"/>
<path d="M12.9241 11.2857C12.9577 11.3157 13.0696 11.3675 13.1019 11.452C13.434 12.3213 13.7545 13.1955 14.0745 14.0698C14.1235 14.2032 14.0835 14.3174 13.9494 14.3727C13.814 14.4284 13.7142 14.3679 13.6598 14.2383C13.5923 14.0777 13.5466 13.9067 13.4717 13.7503C13.4541 13.7176 13.4298 13.6893 13.4004 13.6675C13.371 13.6457 13.3374 13.631 13.3019 13.6243C13.002 13.6113 12.7012 13.6232 12.4011 13.6149C12.2915 13.6119 12.2462 13.6593 12.2148 13.7581C12.1676 13.906 12.1096 14.0501 12.0558 14.1957C12.0024 14.3404 11.9128 14.433 11.755 14.3748C11.5972 14.3166 11.5786 14.187 11.6326 14.04C11.945 13.1906 12.2582 12.3414 12.572 11.4924C12.6222 11.3563 12.7089 11.2786 12.9241 11.2857ZM12.8729 12.1088H12.8272C12.7012 12.4531 12.575 12.7973 12.4451 13.1525H13.2576C13.1246 12.7917 12.9987 12.4504 12.8729 12.109L12.8729 12.1088Z" fill="white"/>
<path d="M17.9964 19.4786C17.9669 19.5146 17.9253 19.6018 17.8577 19.6426C17.2469 20.0112 16.6319 20.3723 16.0173 20.734C15.8828 20.8132 15.7563 20.7971 15.6791 20.6519C15.6014 20.5053 15.6615 20.3901 15.795 20.3111C16.4033 19.9512 17.0104 19.589 17.6205 19.2324C17.8084 19.1224 18.0038 19.2298 17.9964 19.4786Z" fill="white"/>
<path d="M8.07205 19.0471C8.17104 19.0945 8.2355 19.1189 8.29386 19.1542C8.87162 19.504 9.44875 19.8549 10.0252 20.2069C10.2037 20.3158 10.2543 20.4508 10.1719 20.5852C10.0932 20.7134 9.96383 20.7292 9.79263 20.6254C9.20426 20.2688 8.6172 19.9098 8.02864 19.5535C7.91396 19.4841 7.8344 19.3871 7.88786 19.253C7.92058 19.171 8.01016 19.1134 8.07205 19.0471Z" fill="white"/>
<path d="M10.2945 5.35741C10.2643 5.39461 10.2202 5.48686 10.1489 5.53004C9.53895 5.89929 8.92411 6.26024 8.30998 6.62221C8.18197 6.69779 8.05821 6.67909 7.98347 6.54738C7.9049 6.40889 7.94582 6.28242 8.08283 6.20113C8.69591 5.83733 9.30849 5.47254 9.92416 5.11362C10.1064 5.00706 10.2891 5.10635 10.2945 5.35741Z" fill="white"/>
<path d="M5.44859 12.8377C5.44859 13.1947 5.45032 13.5518 5.44791 13.9089C5.44663 14.0967 5.36192 14.2025 5.22141 14.2042C5.07931 14.2058 4.98884 14.0985 4.98914 13.9147C4.99042 13.1939 4.9936 12.4732 4.9987 11.7525C5.00009 11.5664 5.09076 11.4628 5.23797 11.4714C5.40213 11.481 5.46407 11.5907 5.46471 11.7469C5.46621 12.1105 5.4652 12.4741 5.4652 12.8377H5.44859Z" fill="white"/>
<path d="M18.1665 6.48669C18.1638 6.69981 18.0301 6.81181 17.8848 6.77425C17.8372 6.75872 17.7918 6.73634 17.7502 6.70775C17.1727 6.35724 16.5956 6.0062 16.0187 5.65462C16.0026 5.6448 15.9864 5.63479 15.9706 5.6245C15.8404 5.54012 15.7845 5.42339 15.8682 5.27955C15.9514 5.13661 16.0776 5.1305 16.2098 5.21086C16.8141 5.57803 17.4194 5.94344 18.0201 6.31687C18.0914 6.36123 18.1366 6.45086 18.1665 6.48669Z" fill="white"/>
<path d="M20.5668 13.0129C20.5668 12.6622 20.5654 12.3116 20.5674 11.9609C20.5685 11.7639 20.6587 11.6452 20.8046 11.6563C20.9768 11.6694 21.0328 11.7878 21.0314 11.9525C21.0256 12.6731 21.0209 13.3938 21.0172 14.1146C21.0164 14.2761 20.949 14.3779 20.7905 14.3905C20.6495 14.4017 20.5589 14.2879 20.5578 14.1037C20.5555 13.7399 20.5571 13.3765 20.5571 13.0129H20.5668Z" fill="white"/>
<path d="M19.0116 13.0164C19.0116 13.2698 19.0108 13.5233 19.0119 13.7767C19.0126 13.941 18.9554 14.0592 18.7825 14.0715C18.6337 14.0821 18.5435 13.9678 18.5442 13.7677C18.546 13.2479 18.5505 12.728 18.5576 12.2082C18.56 12.0229 18.6508 11.9167 18.7918 11.9196C18.9315 11.9224 19.0168 12.0318 19.0181 12.2169C19.0199 12.4833 19.0185 12.7497 19.0185 13.0162L19.0116 13.0164Z" fill="white"/>
<path d="M11.053 7.32363C11.0261 7.35884 10.9878 7.44792 10.9218 7.48837C10.4696 7.76556 10.0122 8.03381 9.55505 8.30205C9.42798 8.37637 9.30531 8.35994 9.23095 8.22334C9.15358 8.08122 9.19767 7.95967 9.33427 7.87862C9.78487 7.61128 10.2341 7.34151 10.6876 7.07957C10.87 6.97407 11.051 7.07573 11.053 7.32363Z" fill="white"/>
<path d="M16.8965 8.14011C16.8986 8.36344 16.7198 8.49163 16.5654 8.40162C16.0856 8.12168 15.6115 7.83095 15.1407 7.53478C15.0226 7.46045 15.007 7.3287 15.086 7.20962C15.1651 7.09054 15.2801 7.07043 15.4004 7.14241C15.7257 7.33695 16.0489 7.53513 16.3729 7.7319C16.5025 7.8106 16.6376 7.88125 16.7593 7.9715C16.8245 8.01989 16.8666 8.10204 16.8965 8.14011Z" fill="white"/>
<path d="M7.46514 12.8447C7.46514 13.1109 7.46796 13.3773 7.46416 13.6435C7.46153 13.8281 7.37101 13.9351 7.23039 13.9346C7.08784 13.934 6.99657 13.8289 6.99695 13.6426C6.99827 13.1101 7.00448 12.5775 7.01126 12.045C7.01325 11.8846 7.08735 11.7813 7.25068 11.7873C7.40283 11.7929 7.47034 11.8939 7.47098 12.0458C7.47214 12.312 7.47131 12.5783 7.47131 12.8447H7.46514Z" fill="white"/>
<path d="M9.33546 17.3944C9.43 17.4382 9.48911 17.459 9.54197 17.491C9.96916 17.7492 10.3956 18.0088 10.8212 18.2698C10.9851 18.3706 11.0331 18.5085 10.9571 18.6371C10.8842 18.7603 10.7479 18.7837 10.5933 18.6903C10.1552 18.4256 9.7146 18.165 9.2861 17.8844C9.21185 17.8358 9.15462 17.6963 9.15865 17.6019C9.16173 17.5296 9.27352 17.4622 9.33546 17.3944Z" fill="white"/>
<path d="M16.7668 17.7918C16.7395 17.8276 16.7014 17.9175 16.6352 17.9581C16.1831 18.2354 15.7257 18.5035 15.2685 18.7718C15.1408 18.8467 15.0165 18.8276 14.9434 18.6937C14.8675 18.5547 14.9076 18.4302 15.0461 18.3483C15.4969 18.0816 15.9459 17.8115 16.3994 17.5496C16.581 17.4449 16.7643 17.5467 16.7668 17.7918Z" fill="white"/>
<path d="M14.5187 21.0762C14.2656 21.2452 14.0302 21.4028 13.7943 21.5596C13.5569 21.7175 13.3211 21.8783 13.0793 22.0286C13.0312 22.0585 12.9416 22.0758 12.9007 22.0495C12.417 21.7379 11.9389 21.417 11.4321 21.0804C11.5493 21.0034 11.6453 20.9385 11.743 20.8766C12.112 20.6428 12.4798 20.4069 12.8526 20.1799C12.9064 20.1471 13.0032 20.1255 13.0492 20.1536C13.535 20.4499 14.0144 20.7573 14.5187 21.0762Z" fill="white"/>
<path d="M13.2046 24.3202C13.2046 23.7174 13.2031 23.1652 13.2074 22.613C13.2089 22.5883 13.2153 22.5642 13.2264 22.5422C13.2374 22.5203 13.2527 22.501 13.2714 22.4857C13.7429 22.1668 14.2177 21.8532 14.7315 21.5116V21.8094C14.7315 22.2393 14.7347 22.6692 14.7283 23.0991C14.7273 23.1677 14.7036 23.2655 14.6568 23.2994C14.1891 23.6371 13.7145 23.9642 13.2046 24.3202Z" fill="white"/>
<path d="M12.7404 24.3174C12.4514 24.1165 12.1923 23.9392 11.9361 23.7574C11.6992 23.5892 11.3778 23.466 11.2553 23.2317C11.1364 23.0044 11.2216 22.6611 11.2196 22.3686C11.2178 22.0981 11.2193 21.8275 11.2193 21.5143C11.5007 21.7012 11.7464 21.8646 11.9925 22.0278C12.2033 22.1679 12.4163 22.3051 12.6243 22.4498C12.6715 22.4826 12.7348 22.5406 12.7354 22.5878C12.7432 23.1509 12.7404 23.7141 12.7404 24.3174Z" fill="white"/>
<path d="M19.2289 7.08153C19.7357 6.76106 20.2209 6.45253 20.7093 6.14936C20.7304 6.13949 20.7534 6.13464 20.7766 6.13514C20.7998 6.13564 20.8225 6.14148 20.8433 6.15225C21.327 6.4519 21.8078 6.75661 22.3049 7.06999C22.2722 7.10254 22.2375 7.13299 22.2012 7.16117C21.7638 7.45312 21.3269 7.74596 20.8858 8.03185C20.8377 8.06314 20.7465 8.08271 20.7059 8.05638C20.2169 7.74147 19.7337 7.41678 19.2289 7.08153Z" fill="white"/>
<path d="M21.0074 10.3231C21.0074 9.72399 21.006 9.17135 21.0101 8.61879C21.0111 8.5943 21.017 8.5703 21.0275 8.54834C21.038 8.52638 21.0528 8.50694 21.071 8.4913C21.5419 8.17283 22.016 7.85965 22.5281 7.51935C22.5281 7.66957 22.5281 7.78231 22.5281 7.89489C22.5281 8.30486 22.531 8.71487 22.5251 9.12476C22.5242 9.187 22.5 9.27525 22.4566 9.30639C21.9895 9.64199 21.5162 9.96836 21.0074 10.3231Z" fill="white"/>
<path d="M20.54 10.3214C20.0312 9.96666 19.5639 9.64252 19.0994 9.31427C19.0795 9.30067 19.0626 9.283 19.0495 9.26234C19.0364 9.24168 19.0276 9.21847 19.0234 9.19413C19.0184 8.65018 19.02 8.10619 19.02 7.51944C19.2118 7.64599 19.373 7.75201 19.5339 7.85872C19.8291 8.05452 20.1257 8.24815 20.4176 8.44915C20.4687 8.48435 20.5339 8.55043 20.5347 8.6032C20.5432 9.16073 20.54 9.71841 20.54 10.3214Z" fill="white"/>
<path d="M22.3064 16.4377L20.7746 17.4548L19.2292 16.4279C19.5517 16.2238 19.8514 16.0317 20.1536 15.8439C20.3618 15.7145 20.5723 15.4948 20.7836 15.4925C20.9863 15.4903 21.1921 15.7149 21.3951 15.8423C21.6841 16.0236 21.9718 16.2071 22.2597 16.3901C22.2764 16.4047 22.292 16.4206 22.3064 16.4377Z" fill="white"/>
<path d="M19.0196 16.8647C19.4088 17.1228 19.7462 17.3849 20.1163 17.5808C20.4659 17.7659 20.5856 18.0116 20.5491 18.4105C20.5127 18.8095 20.5412 19.2151 20.5412 19.6418C20.4981 19.6241 20.4562 19.6035 20.4157 19.5801C19.989 19.2842 19.5616 18.9894 19.1389 18.6872C19.0857 18.6492 19.0257 18.5722 19.0247 18.5123C19.0158 17.9797 19.0196 17.4469 19.0196 16.8647Z" fill="white"/>
<path d="M22.5274 16.8911C22.5274 17.4532 22.5291 17.9977 22.524 18.542C22.5201 18.5663 22.5113 18.5896 22.4984 18.6103C22.4854 18.631 22.4685 18.6487 22.4487 18.6624C21.9833 18.991 21.5153 19.3154 21.0293 19.6538C21.0192 19.6079 21.0122 19.5614 21.0083 19.5145C21.007 19.0136 21.0041 18.5126 21.0111 18.0117C21.012 17.9755 21.0201 17.9399 21.0349 17.9072C21.0497 17.8744 21.0709 17.8451 21.0971 17.8213C21.5409 17.5166 21.9911 17.2219 22.4399 16.9252C22.4681 16.9113 22.4974 16.8999 22.5274 16.8911Z" fill="white"/>
<path d="M6.77208 6.94544C6.26165 7.28429 5.78781 7.60081 5.31066 7.91192C5.27244 7.93684 5.19752 7.94779 5.16341 7.92569C4.6759 7.60961 4.19246 7.28676 3.68176 6.94806C3.84976 6.83986 3.99573 6.74465 4.1428 6.65135C4.46344 6.44793 4.78358 6.24353 5.10667 6.04461C5.15422 6.01535 5.2354 5.98237 5.27094 6.00416C5.76556 6.30686 6.25476 6.61876 6.77208 6.94544Z" fill="white"/>
<path d="M6.98205 7.38126C6.98205 7.96879 6.98318 8.50766 6.97979 9.04652C6.97907 9.06826 6.97404 9.0896 6.96501 9.10921C6.95598 9.12883 6.94314 9.14629 6.92731 9.16051C6.45193 9.49584 5.9738 9.82691 5.45801 10.1854V9.7263C5.45801 9.32947 5.45508 8.9326 5.46091 8.5359C5.46185 8.47307 5.48411 8.38228 5.52718 8.35278C5.99593 8.03189 6.47079 7.72054 6.98205 7.38126Z" fill="white"/>
<path d="M3.47328 7.38467C3.9859 7.7247 4.4594 8.03742 4.93037 8.35424C4.94706 8.36725 4.96092 8.38376 4.97106 8.40269C4.9812 8.42163 4.98739 8.44258 4.98922 8.46417C4.99299 9.02126 4.99182 9.5784 4.99182 10.1588C4.94717 10.1406 4.90372 10.1194 4.86178 10.0953C4.43541 9.79989 4.00864 9.50497 3.58597 9.20391C3.53631 9.1687 3.479 9.09778 3.47817 9.04254C3.47008 8.50454 3.47328 7.96638 3.47328 7.38467Z" fill="white"/>
<path d="M3.67822 16.292C4.19159 15.9671 4.67115 15.6619 5.15365 15.3618C5.17439 15.3508 5.19724 15.3446 5.22054 15.3439C5.24383 15.3431 5.267 15.3478 5.28837 15.3574C5.77602 15.6602 6.26052 15.9686 6.77156 16.2919C6.25882 16.6319 5.77132 16.9569 5.28035 17.2764C5.25879 17.2847 5.2357 17.2879 5.2128 17.2857C5.18989 17.2835 5.16775 17.276 5.14801 17.2638C4.66607 16.9489 4.18681 16.6294 3.67822 16.292Z" fill="white"/>
<path d="M5.45952 19.5314C5.45952 18.9211 5.45832 18.3637 5.46227 17.8064C5.46478 17.7847 5.47164 17.7638 5.48242 17.7451C5.49319 17.7263 5.50763 17.7101 5.52481 17.6975C5.9962 17.3803 6.46985 17.0671 6.98266 16.7267V16.983C6.98266 17.4316 6.98499 17.8802 6.97938 18.3287C6.97859 18.3913 6.95679 18.4812 6.91368 18.5119C6.44621 18.8474 5.97271 19.1737 5.45952 19.5314Z" fill="white"/>
<path d="M3.47306 16.731C3.98327 17.0693 4.45726 17.3818 4.92794 17.6995C4.94624 17.7151 4.96119 17.7345 4.97181 17.7565C4.98244 17.7785 4.98852 17.8025 4.98965 17.8271C4.99375 18.3794 4.99236 18.9316 4.99236 19.5034C4.95436 19.4907 4.91748 19.4747 4.88212 19.4555C4.45015 19.156 4.01754 18.8575 3.5899 18.5515C3.53685 18.5136 3.47913 18.4346 3.47811 18.3737C3.46937 17.8409 3.47306 17.3081 3.47306 16.731Z" fill="white"/>
<path d="M11.4271 2.48889C11.9403 2.16397 12.4241 1.85583 12.9111 1.55317C12.9323 1.54365 12.9552 1.53915 12.9783 1.53999C13.0014 1.54082 13.024 1.54698 13.0445 1.55801C13.5271 1.85845 14.0069 2.16385 14.5156 2.48588C14.4431 2.53642 14.3899 2.575 14.3354 2.6113C13.9187 2.88822 13.5033 3.16753 13.0828 3.43773C13.0324 3.47004 12.9344 3.48236 12.8887 3.45302C12.4096 3.14543 11.9368 2.82743 11.4271 2.48889Z" fill="white"/>
<path d="M14.7303 2.92407C14.7303 3.51364 14.7315 4.05767 14.7276 4.60166C14.7251 4.6233 14.7183 4.64416 14.7077 4.66295C14.697 4.68173 14.6828 4.69802 14.6658 4.7108C14.1949 5.04253 13.7216 5.37055 13.2217 5.71839C13.2141 5.6384 13.2049 5.58508 13.2047 5.53176C13.2034 5.0502 13.2007 4.56856 13.207 4.08708C13.2079 4.01956 13.2364 3.92278 13.2842 3.89008C13.7483 3.57138 14.2193 3.26308 14.7303 2.92407Z" fill="white"/>
<path d="M11.2404 2.94235C11.516 3.12398 11.7779 3.29634 12.0396 3.46913C12.2401 3.60155 12.4433 3.72998 12.6385 3.87042C12.6648 3.88953 12.6871 3.91402 12.704 3.94239C12.7209 3.97076 12.732 4.00242 12.7367 4.03542C12.7429 4.57476 12.7389 5.11417 12.7369 5.65358C12.7369 5.66368 12.7259 5.67369 12.7074 5.70526C12.5686 5.60903 12.4305 5.51358 12.2926 5.41773C11.9756 5.19734 11.6563 4.98042 11.3442 4.75271C11.2872 4.71116 11.2264 4.62573 11.2252 4.55934C11.2155 4.05255 11.22 3.54549 11.2211 3.03851C11.225 3.00597 11.2315 2.97381 11.2404 2.94235Z" fill="white"/>
</g>
<defs>
<clipPath id="clip0_778_14">
<rect width="20" height="24" fill="white" transform="translate(3 1)"/>
</clipPath>
</defs>
</svg>
