<svg width="26" height="26" viewBox="0 0 26 26" fill="none" xmlns="http://www.w3.org/2000/svg">
<path d="M12.9882 3.00001C18.492 2.99401 22.9938 7.48476 23.0003 12.9872C23.0067 18.4897 18.5138 22.994 13.0125 23.0003C7.5143 23.0067 3.00552 18.5087 3 13.0115C2.99455 7.50988 7.48794 3.00594 12.9882 3.00001ZM20.1423 13.0583C20.1673 9.11486 16.9684 5.87312 13.0371 5.85777C9.13297 5.84254 5.90114 9.01107 5.85884 12.8954C5.81583 16.844 8.99422 20.1065 12.9188 20.1422C16.8602 20.1781 20.1173 16.984 20.1423 13.0583Z" fill="white"/>
<path d="M18.713 12.9912C18.7168 16.1424 16.1369 18.7196 12.9853 18.7132C9.83778 18.7068 7.27148 16.1171 7.28693 12.9623C7.30221 9.85184 9.85851 7.29859 12.9698 7.28612C16.1267 7.27347 18.7093 9.83889 18.713 12.9912ZM13.0077 9.23291C12.604 9.60014 12.192 9.82648 12.0068 10.1734C11.585 10.9648 11.0307 11.5478 10.2279 11.9676C9.13338 12.5401 9.19401 13.3573 10.2003 14.0643C10.8653 14.5311 11.446 15.1079 11.9176 15.7698C12.6265 16.7789 13.4546 16.8626 14.022 15.7922C14.4172 15.0258 15.0429 14.4029 15.8108 14.0115C16.8524 13.4588 16.8567 12.539 15.8153 11.9932C15.0193 11.5877 14.3742 10.9374 13.975 10.1378C13.8052 9.81053 13.4124 9.59942 13.0077 9.23291Z" fill="white"/>
<path d="M7.28687 13.0081C7.28315 9.85696 9.86294 7.27979 13.0147 7.28614C16.1621 7.2925 18.7285 9.88226 18.7129 13.0371C18.6977 16.1475 16.1414 18.7007 13.0301 18.7132C9.8733 18.7259 7.29064 16.1604 7.28687 13.0081ZM12.9922 16.7666C13.3959 16.3994 13.808 16.173 13.993 15.8261C14.4149 15.0347 14.9692 14.4517 15.772 14.0319C16.8665 13.4595 16.8059 12.6422 15.7996 11.9352C15.1346 11.4683 14.5539 10.8916 14.0823 10.2298C13.3733 9.22058 12.5452 9.13694 11.978 10.2073C11.5828 10.9737 10.9571 11.5966 10.1891 11.988C9.14757 12.5407 9.14314 13.4605 10.1845 14.0063C10.9806 14.4117 11.6257 15.0621 12.0249 15.8617C12.1948 16.1888 12.5872 16.3999 12.9922 16.7666Z" fill="white"/>
</svg>
