<svg width="26" height="26" viewBox="0 0 26 26" fill="none" xmlns="http://www.w3.org/2000/svg">
<path d="M12.5494 6C13.7494 6 15.0494 6 16.2494 6C19.5494 6 22.2494 8.2 22.9494 11.4C23.7494 15 21.4494 18.7 17.8494 19.5C17.3494 19.6 16.7494 19.7 16.2494 19.7C13.8494 19.7 11.3494 19.7 8.94943 19.7C5.64943 19.7 2.94943 17.5 2.14943 14.3C1.34943 10.6 3.84943 6.8 7.54943 6.2C8.04943 6.1 8.44943 6 8.94943 6C10.1494 6 11.3494 6 12.5494 6ZM12.5494 18.2C12.9494 18.2 13.3494 18.2 13.7494 18.2C14.7494 18.2 15.8494 18.2 16.8494 18.2C20.2494 17.9 22.4494 14.5 21.4494 11.3C20.7494 9.1 18.6494 7.6 16.3494 7.6C13.8494 7.6 11.4494 7.6 8.94943 7.6C8.54943 7.6 8.14943 7.6 7.84943 7.7C5.04943 8 3.04943 10.8 3.44943 13.6C3.84943 16.3 6.04943 18.2 8.84943 18.2C10.0494 18.2 11.3494 18.2 12.5494 18.2Z" fill="white"/>
<path d="M8.74946 16.6C6.64946 16.6 4.94946 14.9 4.94946 12.8C4.94946 10.7 6.74946 9 8.84946 9C10.9495 9 12.6495 10.7 12.6495 12.8C12.5495 14.9 10.8495 16.7 8.74946 16.6ZM8.74946 10.5C7.44946 10.5 6.44946 11.5 6.44946 12.8C6.44946 14.1 7.44946 15.1 8.74946 15.2C10.0495 15.2 11.1495 14.2 11.1495 12.9C11.1495 11.6 10.0495 10.5 8.74946 10.5Z" fill="white"/>
</svg>
