<svg width="26" height="26" viewBox="0 0 26 26" fill="none" xmlns="http://www.w3.org/2000/svg">
<path d="M3.99378 15.9904C3.25001 15.8332 3 15.5189 3 14.7645C3 14.2301 3 13.6958 3 13.1614C3 12.4007 3.23751 12.099 3.99378 11.9292C3.99378 11.8538 3.99378 11.7658 3.99378 11.684C3.99378 10.7976 3.99378 9.91121 3.99378 9.02479C3.99378 7.7989 4.85631 6.93134 6.06885 6.93134C7.94391 6.93134 9.81898 6.93134 11.694 6.93134C11.7878 6.93134 11.8753 6.93134 11.9941 6.93134C11.9941 6.50385 12.0003 6.09522 11.9878 5.69287C11.9878 5.61743 11.9003 5.53571 11.844 5.46655C11.4065 4.93847 11.369 4.21551 11.7503 3.656C12.1316 3.10277 12.8316 2.86388 13.4691 3.07763C14.1004 3.29137 14.5191 3.90747 14.4879 4.58014C14.4691 4.9259 14.3316 5.22766 14.1129 5.49799C14.0441 5.586 13.9941 5.71802 13.9941 5.83118C13.9816 6.18952 13.9879 6.54786 13.9879 6.93763C14.1004 6.93763 14.1941 6.93763 14.2816 6.93763C16.1442 6.93763 18.0005 6.93763 19.8631 6.93763C21.1506 6.93763 21.9944 7.78632 21.9944 9.0688C21.9944 9.93007 21.9944 10.7913 21.9944 11.6589C21.9944 11.7469 21.9944 11.8286 21.9944 11.9104C22.1256 11.9481 22.2381 11.9669 22.3506 12.0109C22.7444 12.1618 22.9757 12.4573 22.9882 12.8848C23.0069 13.5952 23.0007 14.3119 22.9882 15.0285C22.9757 15.544 22.6382 15.8647 22.0006 15.9967C22.0006 16.0784 22.0006 16.1601 22.0006 16.2481C22.0006 17.7884 22.0006 19.3223 22.0006 20.8625C22.0006 22.1576 21.1631 23 19.8756 23C15.2879 23 10.7003 23 6.1126 23C4.82506 23 3.98753 22.1576 3.98753 20.8625C3.98753 19.3223 3.98753 17.7884 3.98753 16.2481C3.99378 16.1601 3.99378 16.0721 3.99378 15.9904ZM9.01895 18.964C11.6753 18.964 14.3254 18.964 16.9817 18.964C16.9817 18.2976 16.9817 17.6438 16.9817 16.9774C14.3191 16.9774 11.6753 16.9774 9.01895 16.9774C9.01895 17.6501 9.01895 18.3039 9.01895 18.964ZM15.0067 12.7716C15.0067 13.5826 15.2129 14.161 15.5879 14.5382C16.1379 15.104 16.888 15.0977 17.4255 14.5256C18.1943 13.7209 18.188 12.1618 17.413 11.3634C16.8755 10.8102 16.1254 10.8039 15.5879 11.3571C15.1692 11.8035 15.0129 12.3504 15.0067 12.7716ZM10.994 12.9791C10.9878 12.3504 10.8315 11.7972 10.394 11.3509C9.86898 10.8102 9.1377 10.8102 8.60644 11.3383C7.78766 12.1493 7.80016 13.7838 8.63144 14.5822C9.15021 15.0788 9.85648 15.0788 10.369 14.5759C10.819 14.1421 10.9878 13.5826 10.994 12.9791Z" fill="black"/>
</svg>
