<svg width="492" height="195" viewBox="0 0 492 195" fill="none" xmlns="http://www.w3.org/2000/svg">
<rect x="0.5" y="23.5" width="333" height="149" rx="7.5" fill="#F1F2F4" stroke="#3DC1F2"/>
<path d="M21.98 89V68H31.1C32.42 68 33.57 68.23 34.55 68.69C35.53 69.15 36.29 69.8 36.83 70.64C37.37 71.48 37.64 72.47 37.64 73.61V73.97C37.64 75.23 37.34 76.25 36.74 77.03C36.14 77.81 35.4 78.38 34.52 78.74V79.28C35.32 79.32 35.94 79.6 36.38 80.12C36.82 80.62 37.04 81.29 37.04 82.13V89H33.08V82.7C33.08 82.22 32.95 81.83 32.69 81.53C32.45 81.23 32.04 81.08 31.46 81.08H25.94V89H21.98ZM25.94 77.48H30.68C31.62 77.48 32.35 77.23 32.87 76.73C33.41 76.21 33.68 75.53 33.68 74.69V74.39C33.68 73.55 33.42 72.88 32.9 72.38C32.38 71.86 31.64 71.6 30.68 71.6H25.94V77.48ZM39.4951 89L45.0151 68H51.9151L57.4351 89H53.3551L52.2151 84.38H44.7151L43.5751 89H39.4951ZM45.6451 80.72H51.2851L48.7351 70.49H48.1951L45.6451 80.72ZM59.9487 89V68H67.2988L70.9288 86.3H71.4688L75.0988 68H82.4488V89H78.6088V70.91H78.0688L74.4688 89H67.9288L64.3288 70.91H63.7888V89H59.9487ZM84.9638 89L90.4838 68H97.3838L102.904 89H98.8238L97.6838 84.38H90.1838L89.0438 89H84.9638ZM91.1138 80.72H96.7538L94.2038 70.49H93.6638L91.1138 80.72ZM119.943 89.42C118.503 89.42 117.193 89.1 116.013 88.46C114.853 87.8 113.923 86.85 113.223 85.61C112.543 84.35 112.203 82.82 112.203 81.02V75.98C112.203 73.28 112.963 71.21 114.483 69.77C116.003 68.31 118.063 67.58 120.663 67.58C123.243 67.58 125.233 68.27 126.633 69.65C128.053 71.01 128.763 72.86 128.763 75.2V75.32H124.863V75.08C124.863 74.34 124.703 73.67 124.383 73.07C124.083 72.47 123.623 72 123.003 71.66C122.383 71.3 121.603 71.12 120.663 71.12C119.263 71.12 118.163 71.55 117.363 72.41C116.563 73.27 116.163 74.44 116.163 75.92V81.08C116.163 82.54 116.563 83.72 117.363 84.62C118.163 85.5 119.283 85.94 120.723 85.94C122.163 85.94 123.213 85.56 123.873 84.8C124.533 84.04 124.863 83.08 124.863 81.92V81.62H119.883V78.26H128.763V89H125.103V86.99H124.563C124.423 87.33 124.193 87.69 123.873 88.07C123.573 88.45 123.113 88.77 122.493 89.03C121.873 89.29 121.023 89.42 119.943 89.42ZM137.286 89.42C136.226 89.42 135.276 89.24 134.436 88.88C133.596 88.5 132.926 87.96 132.426 87.26C131.946 86.54 131.706 85.67 131.706 84.65C131.706 83.63 131.946 82.78 132.426 82.1C132.926 81.4 133.606 80.88 134.466 80.54C135.346 80.18 136.346 80 137.466 80H141.546V79.16C141.546 78.46 141.326 77.89 140.886 77.45C140.446 76.99 139.746 76.76 138.786 76.76C137.846 76.76 137.146 76.98 136.686 77.42C136.226 77.84 135.926 78.39 135.786 79.07L132.306 77.9C132.546 77.14 132.926 76.45 133.446 75.83C133.986 75.19 134.696 74.68 135.576 74.3C136.476 73.9 137.566 73.7 138.846 73.7C140.806 73.7 142.356 74.19 143.496 75.17C144.636 76.15 145.206 77.57 145.206 79.43V84.98C145.206 85.58 145.486 85.88 146.046 85.88H147.246V89H144.726C143.986 89 143.376 88.82 142.896 88.46C142.416 88.1 142.176 87.62 142.176 87.02V86.99H141.606C141.526 87.23 141.346 87.55 141.066 87.95C140.786 88.33 140.346 88.67 139.746 88.97C139.146 89.27 138.326 89.42 137.286 89.42ZM137.946 86.36C139.006 86.36 139.866 86.07 140.526 85.49C141.206 84.89 141.546 84.1 141.546 83.12V82.82H137.736C137.036 82.82 136.486 82.97 136.086 83.27C135.686 83.57 135.486 83.99 135.486 84.53C135.486 85.07 135.696 85.51 136.116 85.85C136.536 86.19 137.146 86.36 137.946 86.36ZM156.073 89.42C154.133 89.42 152.543 89 151.303 88.16C150.063 87.32 149.313 86.12 149.053 84.56L152.533 83.66C152.673 84.36 152.903 84.91 153.223 85.31C153.563 85.71 153.973 86 154.453 86.18C154.953 86.34 155.493 86.42 156.073 86.42C156.953 86.42 157.603 86.27 158.023 85.97C158.443 85.65 158.653 85.26 158.653 84.8C158.653 84.34 158.453 83.99 158.053 83.75C157.653 83.49 157.013 83.28 156.133 83.12L155.293 82.97C154.253 82.77 153.303 82.5 152.443 82.16C151.583 81.8 150.893 81.31 150.373 80.69C149.853 80.07 149.593 79.27 149.593 78.29C149.593 76.81 150.133 75.68 151.213 74.9C152.293 74.1 153.713 73.7 155.473 73.7C157.133 73.7 158.513 74.07 159.613 74.81C160.713 75.55 161.433 76.52 161.773 77.72L158.263 78.8C158.103 78.04 157.773 77.5 157.273 77.18C156.793 76.86 156.193 76.7 155.473 76.7C154.753 76.7 154.203 76.83 153.823 77.09C153.443 77.33 153.253 77.67 153.253 78.11C153.253 78.59 153.453 78.95 153.853 79.19C154.253 79.41 154.793 79.58 155.473 79.7L156.313 79.85C157.433 80.05 158.443 80.32 159.343 80.66C160.263 80.98 160.983 81.45 161.503 82.07C162.043 82.67 162.313 83.49 162.313 84.53C162.313 86.09 161.743 87.3 160.603 88.16C159.483 89 157.973 89.42 156.073 89.42ZM29.27 127.42C27.65 127.42 26.22 127.13 24.98 126.55C23.74 125.97 22.77 125.14 22.07 124.06C21.37 122.98 21.02 121.68 21.02 120.16V119.32H24.92V120.16C24.92 121.42 25.31 122.37 26.09 123.01C26.87 123.63 27.93 123.94 29.27 123.94C30.63 123.94 31.64 123.67 32.3 123.13C32.98 122.59 33.32 121.9 33.32 121.06C33.32 120.48 33.15 120.01 32.81 119.65C32.49 119.29 32.01 119 31.37 118.78C30.75 118.54 29.99 118.32 29.09 118.12L28.4 117.97C26.96 117.65 25.72 117.25 24.68 116.77C23.66 116.27 22.87 115.62 22.31 114.82C21.77 114.02 21.5 112.98 21.5 111.7C21.5 110.42 21.8 109.33 22.4 108.43C23.02 107.51 23.88 106.81 24.98 106.33C26.1 105.83 27.41 105.58 28.91 105.58C30.41 105.58 31.74 105.84 32.9 106.36C34.08 106.86 35 107.62 35.66 108.64C36.34 109.64 36.68 110.9 36.68 112.42V113.32H32.78V112.42C32.78 111.62 32.62 110.98 32.3 110.5C32 110 31.56 109.64 30.98 109.42C30.4 109.18 29.71 109.06 28.91 109.06C27.71 109.06 26.82 109.29 26.24 109.75C25.68 110.19 25.4 110.8 25.4 111.58C25.4 112.1 25.53 112.54 25.79 112.9C26.07 113.26 26.48 113.56 27.02 113.8C27.56 114.04 28.25 114.25 29.09 114.43L29.78 114.58C31.28 114.9 32.58 115.31 33.68 115.81C34.8 116.31 35.67 116.97 36.29 117.79C36.91 118.61 37.22 119.66 37.22 120.94C37.22 122.22 36.89 123.35 36.23 124.33C35.59 125.29 34.67 126.05 33.47 126.61C32.29 127.15 30.89 127.42 29.27 127.42ZM45.9934 127C45.0134 127 44.2134 126.7 43.5934 126.1C42.9934 125.48 42.6934 124.66 42.6934 123.64V115.24H38.9734V112.12H42.6934V107.5H46.4734V112.12H50.5534V115.24H46.4734V122.98C46.4734 123.58 46.7534 123.88 47.3134 123.88H50.1934V127H45.9934ZM58.595 127.42C57.535 127.42 56.585 127.24 55.745 126.88C54.905 126.5 54.235 125.96 53.735 125.26C53.255 124.54 53.015 123.67 53.015 122.65C53.015 121.63 53.255 120.78 53.735 120.1C54.235 119.4 54.915 118.88 55.775 118.54C56.655 118.18 57.655 118 58.775 118H62.855V117.16C62.855 116.46 62.635 115.89 62.195 115.45C61.755 114.99 61.055 114.76 60.095 114.76C59.155 114.76 58.455 114.98 57.995 115.42C57.535 115.84 57.235 116.39 57.095 117.07L53.615 115.9C53.855 115.14 54.235 114.45 54.755 113.83C55.295 113.19 56.005 112.68 56.885 112.3C57.785 111.9 58.875 111.7 60.155 111.7C62.115 111.7 63.665 112.19 64.805 113.17C65.945 114.15 66.515 115.57 66.515 117.43V122.98C66.515 123.58 66.795 123.88 67.355 123.88H68.555V127H66.035C65.295 127 64.685 126.82 64.205 126.46C63.725 126.1 63.485 125.62 63.485 125.02V124.99H62.915C62.835 125.23 62.655 125.55 62.375 125.95C62.095 126.33 61.655 126.67 61.055 126.97C60.455 127.27 59.635 127.42 58.595 127.42ZM59.255 124.36C60.315 124.36 61.175 124.07 61.835 123.49C62.515 122.89 62.855 122.1 62.855 121.12V120.82H59.045C58.345 120.82 57.795 120.97 57.395 121.27C56.995 121.57 56.795 121.99 56.795 122.53C56.795 123.07 57.005 123.51 57.425 123.85C57.845 124.19 58.455 124.36 59.255 124.36ZM75.9348 127C74.9548 127 74.1548 126.7 73.5348 126.1C72.9348 125.48 72.6348 124.66 72.6348 123.64V115.24H68.9148V112.12H72.6348V107.5H76.4148V112.12H80.4948V115.24H76.4148V122.98C76.4148 123.58 76.6948 123.88 77.2548 123.88H80.1348V127H75.9348ZM83.9164 127V112.12H87.6964V127H83.9164ZM85.8064 110.38C85.1264 110.38 84.5464 110.16 84.0664 109.72C83.6064 109.28 83.3764 108.7 83.3764 107.98C83.3764 107.26 83.6064 106.68 84.0664 106.24C84.5464 105.8 85.1264 105.58 85.8064 105.58C86.5064 105.58 87.0864 105.8 87.5464 106.24C88.0064 106.68 88.2364 107.26 88.2364 107.98C88.2364 108.7 88.0064 109.28 87.5464 109.72C87.0864 110.16 86.5064 110.38 85.8064 110.38ZM98.9652 127.42C97.4852 127.42 96.1552 127.12 94.9752 126.52C93.7952 125.92 92.8652 125.05 92.1852 123.91C91.5052 122.77 91.1652 121.4 91.1652 119.8V119.32C91.1652 117.72 91.5052 116.35 92.1852 115.21C92.8652 114.07 93.7952 113.2 94.9752 112.6C96.1552 112 97.4852 111.7 98.9652 111.7C100.445 111.7 101.775 112 102.955 112.6C104.135 113.2 105.065 114.07 105.745 115.21C106.425 116.35 106.765 117.72 106.765 119.32V119.8C106.765 121.4 106.425 122.77 105.745 123.91C105.065 125.05 104.135 125.92 102.955 126.52C101.775 127.12 100.445 127.42 98.9652 127.42ZM98.9652 124.06C100.125 124.06 101.085 123.69 101.845 122.95C102.605 122.19 102.985 121.11 102.985 119.71V119.41C102.985 118.01 102.605 116.94 101.845 116.2C101.105 115.44 100.145 115.06 98.9652 115.06C97.8052 115.06 96.8452 115.44 96.0852 116.2C95.3252 116.94 94.9452 118.01 94.9452 119.41V119.71C94.9452 121.11 95.3252 122.19 96.0852 122.95C96.8452 123.69 97.8052 124.06 98.9652 124.06ZM110.254 127V112.12H113.974V114.07H114.514C114.754 113.55 115.204 113.06 115.864 112.6C116.524 112.12 117.524 111.88 118.864 111.88C120.024 111.88 121.034 112.15 121.894 112.69C122.774 113.21 123.454 113.94 123.934 114.88C124.414 115.8 124.654 116.88 124.654 118.12V127H120.874V118.42C120.874 117.3 120.594 116.46 120.034 115.9C119.494 115.34 118.714 115.06 117.694 115.06C116.534 115.06 115.634 115.45 114.994 116.23C114.354 116.99 114.034 118.06 114.034 119.44V127H110.254Z" fill="black"/>
<rect x="297.5" y="0.5" width="194" height="194" rx="97" fill="#DADCDE" stroke="#3DC1F2"/>
<path d="M438.902 152.967C438.468 152.33 437.918 151.722 437.658 151.028C436.587 148.018 435.603 144.95 434.561 141.825C433.953 141.999 433.404 142.172 432.854 142.317C431.465 142.722 430.741 142.375 430.22 141.015C429.468 138.989 428.715 136.963 428.021 134.908C427.789 134.271 427.5 134.011 426.776 134.069C420.38 134.561 413.956 135.024 407.56 135.516C405.447 135.661 403.306 135.892 401.222 135.14C397.575 133.808 395.115 131.32 394.189 127.528C392.395 120.206 390.716 112.856 389.009 105.534C388.343 102.669 388.951 100.035 390.745 97.6619C393.147 94.4784 395.55 91.2661 397.981 88.0537C398.183 87.7643 398.415 87.4749 398.675 87.1276C396.823 84.494 394.942 81.8894 393.09 79.2847C392.829 78.9085 392.54 78.5323 392.279 78.1271C391.729 77.23 391.874 76.3039 392.627 75.7251C393.437 75.1173 394.421 75.291 395.086 76.1592C395.665 76.9116 396.186 77.693 396.736 78.4455C398.473 80.8765 400.209 83.3074 401.945 85.7674C402.756 86.8961 402.727 87.4749 401.887 88.6035C399.167 92.2211 396.505 95.8386 393.726 99.3983C392.337 101.193 391.961 103.103 392.482 105.273C394.189 112.364 395.81 119.454 397.489 126.544C398.328 130.046 401.395 132.361 405.071 132.159C409.759 131.898 414.448 131.522 419.107 131.175C422.233 130.943 425.358 130.712 428.513 130.451C429.612 130.364 430.249 130.943 430.596 131.956C431.378 134.127 432.159 136.297 432.998 138.584C436.905 137.368 440.783 136.153 444.748 134.908C444.459 134.069 444.227 133.287 443.967 132.535C440.407 122.203 436.847 111.901 433.23 101.569C432.767 100.267 432.825 99.2247 433.751 98.1828C434.503 97.3146 435.14 96.3306 435.806 95.4045C438.41 91.8159 437.745 87.7643 434.127 85.2175C423.766 77.9245 413.406 70.6605 403.045 63.3675C402.437 62.9334 401.801 62.4993 401.135 62.0073C400.267 63.0781 399.456 64.0621 398.646 65.075C396.505 67.7375 394.363 70.429 392.221 73.0915C392.048 73.323 391.874 73.5545 391.672 73.7571C390.977 74.4228 390.022 74.4806 389.327 73.9018C388.633 73.323 388.488 72.368 389.067 71.5577C389.617 70.8052 390.225 70.0817 390.832 69.3003C390.63 69.0977 390.485 68.9241 390.311 68.7504C386.665 65.4802 383.018 62.181 379.314 58.9397C378.764 58.4477 378.07 58.0714 377.375 57.8399C371.558 55.9299 365.712 54.0487 359.895 52.1676C358.072 51.5888 357.753 50.8653 358.448 49.071C359.171 47.1899 359.895 45.3087 360.647 43.4276C361.197 42.0674 361.892 41.7201 363.281 42.2121C369.908 44.4695 376.507 46.7268 383.134 49.0131C383.684 49.2157 384.234 49.563 384.697 49.9392C388.777 53.2673 392.858 56.5955 396.939 59.9526C397.199 60.1552 397.46 60.3577 397.807 60.6182C398.27 60.0394 398.704 59.4895 399.167 58.9397C400.18 57.7242 400.903 57.6084 402.235 58.5055C408.746 63.0492 415.229 67.6218 421.741 72.1943C426.458 75.5225 431.204 78.8217 435.921 82.1498C441.536 86.0857 442.636 92.2211 438.468 97.6329C436.992 99.5719 436.761 101.135 437.6 103.421C441.304 113.724 444.835 124.113 448.395 134.474C449.147 136.673 448.858 137.252 446.629 137.976C443.793 138.873 440.928 139.77 437.889 140.725C438.815 143.503 439.741 146.253 440.668 149.089C442.462 148.568 444.169 148.076 445.993 147.555C445.501 146.108 445.038 144.748 444.603 143.388C444.14 142.027 444.488 141.072 445.559 140.696C446.542 140.349 447.411 140.928 447.874 142.23C448.51 144.082 449.147 145.905 449.726 147.758C450.218 149.292 449.784 150.073 448.25 150.536C445.935 151.202 443.619 151.867 441.275 152.533C440.899 152.649 440.552 152.822 440.205 152.967C439.77 152.967 439.336 152.967 438.902 152.967ZM362.123 49.2736C362.529 49.4183 362.876 49.563 363.194 49.6498C368.519 51.3573 373.815 53.0648 379.111 54.8301C379.806 55.0616 380.501 55.4668 381.05 55.9299C383.395 57.9557 385.681 60.0683 387.996 62.1231C389.646 63.5991 391.324 65.075 393.032 66.6089C393.929 65.4802 394.739 64.4673 395.578 63.3965C391.122 59.75 386.723 56.1614 382.324 52.6017C382.034 52.3702 381.629 52.2255 381.253 52.1097C376.623 50.518 371.992 48.9263 367.362 47.3346C366.059 46.9005 364.728 46.4664 363.368 46.0033C362.963 47.132 362.558 48.1738 362.123 49.2736Z" fill="#3DC1F2"/>
<path d="M339 92.5395C339.926 89.5876 340.592 86.5489 341.807 83.7127C344.875 76.5645 349.476 70.3423 354.483 64.4384C355.149 63.6281 355.843 62.8467 356.567 62.0943C357.348 61.3129 358.419 61.255 359.171 62.0943C366.146 69.9661 372.513 78.243 375.754 88.459C377.606 94.3049 377.143 99.9193 373.265 104.868C369.879 109.209 365.249 111.495 359.779 111.987C354.049 112.479 348.927 110.859 344.585 107.039C341.605 104.434 339.897 101.193 339.203 97.3437C339.174 97.1121 339.058 96.8806 339 96.6491C339 95.2889 339 93.8997 339 92.5395ZM357.811 65.5671C357.638 65.9433 357.58 66.117 357.464 66.2617C354.773 69.8503 351.965 73.3231 349.447 76.9986C346.611 81.137 344.296 85.5939 343.023 90.5137C341.663 95.8387 342.675 100.556 346.814 104.347C350.374 107.589 354.657 108.949 359.403 108.486C365.046 107.936 369.503 105.389 372.079 100.151C373.873 96.4465 373.497 92.6553 372.252 88.8641C370.371 83.0182 367.159 77.8957 363.57 72.9759C361.776 70.5738 359.866 68.2296 357.811 65.5671Z" fill="#3DC1F2"/>
<path d="M410.917 100.035C411.93 103.19 412.827 106.142 413.811 109.093C414.1 109.991 414.071 110.772 413.695 111.582C412.914 113.261 412.219 114.939 411.467 116.618C410.917 117.805 410.078 118.239 409.094 117.862C408.081 117.457 407.791 116.473 408.312 115.229C408.92 113.782 409.614 112.335 410.193 110.859C410.367 110.425 410.396 109.875 410.28 109.441C409.383 106.431 408.399 103.45 407.444 100.469C407.27 99.9194 407.039 99.7168 406.431 99.601C404.608 99.1959 403.392 99.7168 402.061 101.164C400.325 103.016 399.833 104.695 400.527 107.183C401.887 112.045 402.871 116.994 404 121.914C404.492 124.056 405.823 124.982 408.023 124.75C411.988 124.374 415.923 124.027 419.888 123.65C421.133 123.535 421.914 124.085 422.03 125.097C422.175 126.168 421.538 126.95 420.265 127.094C415.981 127.5 411.727 127.963 407.444 128.223C404.318 128.426 401.54 126.313 400.788 123.245C399.312 117.052 397.923 110.801 396.505 104.579C396.244 103.479 396.505 102.437 397.257 101.54C398.675 99.8904 400.035 98.2119 401.54 96.6491C401.974 96.1861 402.785 95.8098 403.421 95.8677C407.733 96.1861 412.045 96.6491 416.358 96.9964C417.428 97.0832 418.065 97.5463 418.441 98.5592C421.509 106.981 424.577 115.431 427.673 123.853C428.136 125.097 427.731 126.11 426.718 126.458C425.734 126.776 424.866 126.255 424.432 125.069C421.538 117.197 418.644 109.296 415.808 101.395C415.547 100.643 415.2 100.296 414.361 100.296C413.232 100.296 412.161 100.151 410.917 100.035Z" fill="#3DC1F2"/>
<path d="M371.616 94.9413C371.5 99.8323 368.027 104.405 363.368 105.678C362.384 105.939 361.458 105.505 361.139 104.665C360.821 103.768 361.226 102.9 362.181 102.466C362.876 102.147 363.57 101.887 364.236 101.482C367.159 99.7165 368.49 96.7067 367.882 93.3496C367.796 92.9155 367.709 92.5104 367.651 92.0762C367.535 91.0633 368.085 90.253 369.04 90.0794C369.908 89.9057 370.805 90.3977 371.008 91.3527C371.269 92.5104 371.413 93.7258 371.616 94.9413Z" fill="#3DC1F2"/>
</svg>
